<svg version="1.1" xmlns="http://www.w3.org/2000/svg" xmlns:xlink="http://www.w3.org/1999/xlink" width="162.46496" height="253.27988" viewBox="0,0,162.46496,253.27988"><defs><linearGradient x1="320.00005" y1="175.50007" x2="320.00005" y2="307.50005" gradientUnits="userSpaceOnUse" id="color-1"><stop offset="0" stop-color="#020000"/><stop offset="1" stop-color="#660000"/></linearGradient><linearGradient x1="320.07699" y1="76.54784" x2="320.07699" y2="197.14455" gradientUnits="userSpaceOnUse" id="color-2"><stop offset="0" stop-color="#1b0000"/><stop offset="1" stop-color="#7f0000"/></linearGradient><radialGradient cx="292.5" cy="139.83337" r="34" gradientUnits="userSpaceOnUse" id="color-3"><stop offset="0" stop-color="#000000"/><stop offset="1" stop-color="#000000" stop-opacity="0"/></radialGradient><radialGradient cx="292.5" cy="139.83337" r="34" gradientUnits="userSpaceOnUse" id="color-4"><stop offset="0" stop-color="#000000"/><stop offset="1" stop-color="#000000" stop-opacity="0"/></radialGradient><radialGradient cx="292.5" cy="139.83337" r="34" gradientUnits="userSpaceOnUse" id="color-5"><stop offset="0" stop-color="#000000"/><stop offset="1" stop-color="#000000" stop-opacity="0"/></radialGradient><linearGradient x1="292.87085" y1="113.31163" x2="292.87085" y2="137.28546" gradientUnits="userSpaceOnUse" id="color-6"><stop offset="0" stop-color="#1d0000"/><stop offset="1" stop-color="#660000"/></linearGradient><linearGradient x1="347.20419" y1="113.31163" x2="347.20419" y2="137.28546" gradientUnits="userSpaceOnUse" id="color-7"><stop offset="0" stop-color="#1d0000"/><stop offset="1" stop-color="#660000"/></linearGradient></defs><g transform="translate(-242.96373,-54.22018)"><g stroke-miterlimit="10"><g stroke-width="0" stroke-linecap="butt"><path d="M286.75006,307.50005l15.14285,-131.8421l37.78325,-0.15789l13.57389,132z" fill="url(#color-1)" stroke="#000000"/><path d="M300.25,232.38337c0,0 -0.39853,-3.59073 0.67618,-8.18217c1.80436,-7.7087 1.97893,-16.00191 2.8238,-20.11513c0.66851,-3.25457 0.50001,-6.1027 0.50001,-6.1027c0,0 1.31525,6.72741 2.6645,7.45223c0.54752,0.29413 1.60183,-5.7463 1.79715,-5.31661c0.65608,1.44337 0.13835,7.66438 0.13835,7.66438c0,0 0.84297,1.2965 -0.04677,4.88936c-0.63056,2.54622 -3.02733,7.04219 -3.22574,9.5048c-0.61854,7.6772 -0.12749,27.80585 -0.12749,27.80585c0,0 -0.87566,-3.37729 -1.59201,-0.2439c-0.54469,2.38256 -0.9129,11.90404 -1.22549,9.87744c-0.40142,-2.60257 0.58798,-25.17967 0.28151,-25.65852c-0.62813,-0.98145 -1.0407,6.697 -2.07027,6.93583c-0.86078,0.19968 -2.58925,9.69076 -2.28814,7.67504c0.31865,-2.13314 1.69439,-16.1859 1.69439,-16.1859z" fill="#150000" stroke="none"/><path d="M339.60492,225.37896c-1.1899,-7.66684 -1.34705,-24.847 -1.34705,-24.847c0,0 2.46285,15.21354 3.69508,23.15307c0.85264,5.4938 2.62252,20.61642 2.62252,20.61642c0,0 -3.96316,-12.43164 -4.97055,-18.92249z" fill="#190000" stroke="none"/><path d="M300.45,230.98337c0,0 2.40258,-10.93491 3.22672,-17.83172c0.82414,-6.8968 1.37328,-14.16828 1.37328,-14.16828l2.55557,8.69678c0,0 1.40057,-1.72854 1.0517,0.17775c-0.53743,2.9367 -0.64362,-0.47534 -2.07421,6.37794c-0.43895,2.1028 -1.46977,4.69596 -1.88635,8.12893c-0.60123,4.95475 -0.57278,10.79244 -1.09625,12.1534c-0.96165,2.50018 -0.57802,-3.30038 -0.93718,-5.05568c-0.29117,-1.42299 -2.21329,1.52088 -2.21329,1.52088z" fill="#000000" stroke="none"/></g><path d="M358.3318,124.46219c-5.95755,-5.01481 -6.49029,-14.18469 -1.18992,-20.48147c5.30037,-6.29678 48.28681,-35.46917 48.28681,-35.46917c0,0 -21.41226,47.33263 -26.71263,53.62941c-5.30037,6.29679 -14.42672,7.33603 -20.38427,2.32122z" fill="#330000" stroke="#000000" stroke-width="0" stroke-linecap="butt"/><path d="M261.86974,122.14096c-2.68115,-3.18517 -9.48494,-16.87042 -15.55452,-29.61799c2.50794,-0.64046 -3.35149,-14.02792 -3.35149,-14.02792c0,0 10.8696,6.29698 10.8696,4.33832c0,-0.50283 -0.03711,-0.997 -0.10875,-1.4799c12.33667,8.67054 26.78867,19.14565 29.71935,22.62726c5.30037,6.29679 4.76763,15.46666 -1.18992,20.48147c-5.95755,5.01481 -15.0839,3.97556 -20.38427,-2.32122z" fill="#330000" stroke="#000000" stroke-width="0" stroke-linecap="butt"/><path d="" fill="#330000" stroke="#000000" stroke-width="0" stroke-linecap="butt"/><path d="M255.83997,136.84622c0,-33.30185 28.7599,-60.29833 64.23702,-60.29833c35.47712,0 64.23702,26.99649 64.23702,60.29833c0,33.30185 -28.7599,60.29833 -64.23702,60.29833c-35.47712,0 -64.23702,-26.99649 -64.23702,-60.29833z" fill="url(#color-2)" stroke="#000000" stroke-width="0" stroke-linecap="butt"/><path d="M318.83334,139.83337c0,0.57149 -8.63621,5.70216 -8.58315,6.68022c0.49008,9.03181 7.57579,30.80881 5.75805,35.14557c-0.88893,2.1208 -6.39629,-19.36651 -9.94913,-23.49244c-2.9675,-3.44618 0.03326,8.89466 -1.49841,8.30675c-2.90217,-1.11395 -2.66453,12.37879 -4.1542,14.49026c-1.49835,2.12378 -4.05804,-12.13036 -7.23983,-12.13036c-0.40385,0 -3.69947,-11.47667 -4.91004,-10.72561c-3.16798,1.96546 -6.36959,22.49041 -7.37964,22.27675c-3.10346,-0.65648 -0.23925,-16.77805 -2.19773,-19.35409c-1.33356,-1.75407 -5.69992,7.5177 -7.01693,6.26484c-1.62423,-1.54511 0.54371,-12.23871 -0.2833,-15.51201c-1.48522,-5.87853 -5.21236,-5.62672 -5.21236,-11.94988c0,-1.66435 2.34373,-4.22956 1.68794,-8.0607c-0.93994,-5.49125 -4.87887,-12.52885 -3.88284,-14.29857c0.52875,-0.93946 5.69297,5.66299 7.32694,7.19685c2.24779,2.11006 1.08709,-0.6122 1.68426,-2.56055c1.1078,-3.61432 -1.36039,-15.41601 0.75154,-16.58071c1.95347,-1.07732 7.50734,8.004 9.12491,6.31445c1.67994,-1.75468 -3.69952,-12.34905 -1.43543,-12.95939c1.74588,-0.47064 9.55523,10.28195 11.40934,10.28195c1.4644,0 3.35168,-18.4854 4.35851,-17.21495c1.37677,1.73722 1.64377,19.97452 5.24904,19.25296c2.51531,-0.50342 13.26581,-11.21933 14.38885,-10.3666c4.5138,3.42733 -11.86842,19.46186 -12.70532,28.32461c-0.19851,2.10218 11.48743,-15.19216 15.99363,-18.39764c1.08435,-0.77135 -4.12326,11.43228 -5.00079,14.38694c-0.43379,1.46056 4.62787,-4.7174 4.91554,-4.61903c4.09214,1.39933 -1.19946,16.39064 -1.19946,19.30039z" fill="url(#color-3)" stroke="none" stroke-width="0" stroke-linecap="butt"/><path d="M318.83334,139.83337c0,0.57149 -8.63621,5.70216 -8.58315,6.68022c0.49008,9.03181 7.57579,30.80881 5.75805,35.14557c-0.88893,2.1208 -6.39629,-19.36651 -9.94913,-23.49244c-2.9675,-3.44618 0.03326,8.89466 -1.49841,8.30675c-2.90217,-1.11395 -2.66453,12.37879 -4.1542,14.49026c-1.49835,2.12378 -4.05804,-12.13036 -7.23983,-12.13036c-0.40385,0 -3.69947,-11.47667 -4.91004,-10.72561c-3.16798,1.96546 -6.36959,22.49041 -7.37964,22.27675c-3.10346,-0.65648 -0.23925,-16.77805 -2.19773,-19.35409c-1.33356,-1.75407 -5.69992,7.5177 -7.01693,6.26484c-1.62423,-1.54511 0.54371,-12.23871 -0.2833,-15.51201c-1.48522,-5.87853 -5.21236,-5.62672 -5.21236,-11.94988c0,-1.66435 2.34373,-4.22956 1.68794,-8.0607c-0.93994,-5.49125 -4.87887,-12.52885 -3.88284,-14.29857c0.52875,-0.93946 5.69297,5.66299 7.32694,7.19685c2.24779,2.11006 1.08709,-0.6122 1.68426,-2.56055c1.1078,-3.61432 -1.36039,-15.41601 0.75154,-16.58071c1.95347,-1.07732 7.50734,8.004 9.12491,6.31445c1.67994,-1.75468 -3.69952,-12.34905 -1.43543,-12.95939c1.74588,-0.47064 9.55523,10.28195 11.40934,10.28195c1.4644,0 3.35168,-18.4854 4.35851,-17.21495c1.37677,1.73722 1.64377,19.97452 5.24904,19.25296c2.51531,-0.50342 13.26581,-11.21933 14.38885,-10.3666c4.5138,3.42733 -11.86842,19.46186 -12.70532,28.32461c-0.19851,2.10218 11.48743,-15.19216 15.99363,-18.39764c1.08435,-0.77135 -4.12326,11.43228 -5.00079,14.38694c-0.43379,1.46056 4.62787,-4.7174 4.91554,-4.61903c4.09214,1.39933 -1.19946,16.39064 -1.19946,19.30039z" fill="url(#color-4)" stroke="none" stroke-width="0" stroke-linecap="butt"/><path d="M318.83333,139.83337c0,0.57149 -8.63622,5.70216 -8.58314,6.68022c0.49009,9.03181 7.5758,30.80881 5.75805,35.14557c-0.88893,2.1208 -6.39629,-19.36652 -9.94912,-23.49244c-2.96751,-3.44619 0.03326,8.89465 -1.49841,8.30675c-2.90217,-1.11394 -2.66453,12.37879 -4.1542,14.49027c-1.49834,2.12378 -4.05804,-12.13036 -7.23983,-12.13036c-0.40386,0 -3.69948,-11.47666 -4.91004,-10.72561c-3.16798,1.96546 -6.36959,22.49041 -7.37964,22.27675c-3.10346,-0.65648 -0.23925,-16.77805 -2.19773,-19.35409c-1.33356,-1.75407 -5.69992,7.5177 -7.01694,6.26485c-1.62423,-1.54511 0.54371,-12.23871 -0.2833,-15.51201c-1.48522,-5.87853 -5.21236,-5.62673 -5.21236,-11.94988c0,-1.66435 2.34372,-4.22955 1.68794,-8.0607c-0.93995,-5.49125 -4.87887,-12.52885 -3.88284,-14.29857c0.52875,-0.93946 5.69297,5.66299 7.32694,7.19685c2.24779,2.11006 1.08708,-0.6122 1.68425,-2.56055c1.10779,-3.61432 -1.36038,-15.41601 0.75154,-16.58071c1.95348,-1.07732 7.50734,8.004 9.12491,6.31446c1.67993,-1.75468 -3.69952,-12.34905 -1.43543,-12.95939c1.74588,-0.47064 9.55523,10.28195 11.40934,10.28195c1.46441,0 3.35167,-18.4854 4.35851,-17.21496c1.37676,1.73722 1.64377,19.97452 5.24905,19.25296c2.51531,-0.50342 13.26581,-11.21932 14.38885,-10.3666c4.5138,3.42733 -11.86842,19.46186 -12.70532,28.32461c-0.19851,2.10218 11.48742,-15.19216 15.99363,-18.39764c1.08435,-0.77135 -4.12326,11.43228 -5.00079,14.38694c-0.43379,1.46056 4.62787,-4.7174 4.91554,-4.61903c4.09215,1.39933 -1.19946,16.39064 -1.19946,19.30038z" fill="url(#color-5)" stroke="none" stroke-width="0" stroke-linecap="butt"/><path d="M275.91667,149.91669l36.33333,-1.33333c0,0 -1.24778,20.89348 -1.855,19.18302c-0.52209,-1.47067 -1.46082,11.14782 -2.10565,9.46853c-1.56761,-4.08241 -3.03492,-22.28802 -4.43827,-21.93137c-3.68279,0.93596 -6.26775,14.61315 -6.26775,14.61315c0,0 -2.52947,15.68893 -2.86544,14.63748c-1.48833,-4.65792 -1.05404,-20.63748 -3.13456,-20.63748c-0.87334,0 -5.6268,-9.49187 -9.04747,-6.3301c-2.22848,2.05982 -2.932,17.93194 -4.92417,16.29557c-2.52658,-2.07533 -1.69503,-23.96547 -1.69503,-23.96547z" fill="#120000" stroke="none" stroke-width="0" stroke-linecap="butt"/><path d="M269.39018,137.27569c0,-12.968 10.51265,-23.48065 23.48065,-23.48065c12.968,0 23.48065,10.51265 23.48065,23.48065c0,12.968 -10.51265,23.48065 -23.48065,23.48065c-12.968,0 -23.48065,-10.51265 -23.48065,-23.48065z" fill="#2a1818" stroke="#000000" stroke-width="0" stroke-linecap="butt"/><path d="M347.12926,160.75632c-12.968,0 -23.48065,-10.51265 -23.48065,-23.48065c0,-12.968 10.51265,-23.48065 23.48065,-23.48065c12.968,0 23.48065,10.51265 23.48065,23.48065c0,12.968 -10.51265,23.48065 -23.48065,23.48065z" fill="#522020" stroke="#000000" stroke-width="0" stroke-linecap="butt"/><path d="M347.01671,142.52785c-2.86884,0 -5.1945,-2.32566 -5.1945,-5.1945c0,-2.86885 2.32566,-5.1945 5.1945,-5.1945c2.86884,0 5.1945,2.32566 5.1945,5.1945c0,2.86885 -2.32566,5.1945 -5.1945,5.1945z" fill="#000000" stroke="none" stroke-width="0" stroke-linecap="butt"/><path d="M276.78759,103.27539c0,0 11.81231,-1.986 18.95687,-0.09021c7.14457,1.89579 14.92657,9.08106 14.92657,9.08106c0,0 -9.99081,-5.42456 -15.50833,-6.8886c-5.76602,-1.52998 -18.37512,-2.10225 -18.37512,-2.10225z" fill="#000000" stroke="none" stroke-width="0" stroke-linecap="butt"/><path d="M345.02549,105.35671c-5.54555,1.35397 -15.64234,6.57864 -15.64234,6.57864c0,0 7.92344,-7.029 15.10432,-8.78225c7.18086,-1.75325 18.95133,0.4674 18.95133,0.4674c0,0 -12.61799,0.32125 -18.41331,1.7362z" fill="#000000" stroke="none" stroke-width="0" stroke-linecap="butt"/><path d="M310.9389,79.06239c0,-3.51131 9.1,-24.84221 9.1,-24.84221c0,0 9.1,21.33091 9.1,24.84221c0,3.51131 -4.07421,6.35779 -9.1,6.35779c-5.02579,0 -9.1,-2.84648 -9.1,-6.35779z" fill="#330000" stroke="#000000" stroke-width="0" stroke-linecap="butt"/><path d="M344.96621,85.26163c1.37321,-3.23165 18.0906,-19.30482 18.0906,-19.30482c0,0 0.03308,23.19088 -1.34013,26.42253c-1.37321,3.23165 -6.23614,4.25807 -10.86165,2.29257c-4.62552,-1.9655 -7.26202,-6.17862 -5.88882,-9.41027z" fill="#330000" stroke="#000000" stroke-width="0" stroke-linecap="butt"/><path d="M292.68337,142.52785c-2.86885,0 -5.1945,-2.32566 -5.1945,-5.1945c0,-2.86885 2.32566,-5.19451 5.1945,-5.19451c2.86885,0 5.1945,2.32566 5.1945,5.19451c0,2.86885 -2.32566,5.1945 -5.1945,5.1945z" fill="#000000" stroke="none" stroke-width="0" stroke-linecap="butt"/><path d="M291.47117,94.33858c-4.62552,1.9655 -9.48845,0.93908 -10.86166,-2.29257c-1.37321,-3.23165 -1.34013,-26.42253 -1.34013,-26.42253c0,0 16.71739,16.07317 18.0906,19.30482c1.37321,3.23165 -1.2633,7.44477 -5.88881,9.41027z" fill="#330000" stroke="#000000" stroke-width="0" stroke-linecap="butt"/><path d="M268.90676,137.27544c0,-13.23488 10.72909,-23.96389 23.96409,-23.96389c13.235,0 23.96409,10.72899 23.96409,23.96389c0,0 -12.45614,2.67253 -24.66825,2.67529c-11.74278,0.00265 -23.25992,-2.66423 -23.25992,-2.67529z" fill="url(#color-6)" stroke="#000000" stroke-width="0" stroke-linecap="butt"/><path d="M323.2401,137.27544c0,-13.23488 10.72909,-23.96389 23.96409,-23.96389c13.235,0 23.96409,10.72899 23.96409,23.96389c0,0 -47.92817,0.01106 -47.92817,0z" fill="url(#color-7)" stroke="#000000" stroke-width="0" stroke-linecap="butt"/><path d="M378.68882,131.04627c0,0 -2.47148,15.46411 -7.45461,23.84407c-4.98313,8.37996 -17.3948,12.22957 -17.3948,12.22957c0,0 9.92457,-5.91738 14.41481,-13.46847c4.10978,-6.91128 10.4346,-22.60518 10.4346,-22.60518z" fill="#190000" stroke="none" stroke-width="0" stroke-linecap="butt"/><path d="M321.58334,117.58336c0,0 8.85742,-5.46583 14.48065,-6.60805c7.84528,-1.59358 28.18601,-2.05862 28.18601,-2.05862c0,0 -19.67362,3.32954 -27.48573,4.91638c-5.80583,1.17931 -15.18093,3.7503 -15.18093,3.7503z" fill="#190000" stroke="none" stroke-width="0" stroke-linecap="butt"/><path d="M381.9304,140.94574c0,0 -4.54589,15.66787 -9.35743,20.97987c-3.87858,4.282 -14.16627,9.48301 -14.16627,9.48301c0,0 8.56707,-7.45088 12.24476,-12.18355c4.29084,-5.5217 11.27894,-18.27933 11.27894,-18.27933z" fill="#190000" stroke="none" stroke-width="0" stroke-linecap="butt"/><path d="M307.50705,176.65648h25.10959" fill="none" stroke="#000000" stroke-width="2" stroke-linecap="round"/></g></g></svg>