<svg version="1.1" xmlns="http://www.w3.org/2000/svg" xmlns:xlink="http://www.w3.org/1999/xlink" width="209.10892" height="282.82819" viewBox="0,0,209.10892,282.82819"><defs><linearGradient x1="277.30693" y1="24.67207" x2="277.30693" y2="133.65715" gradientUnits="userSpaceOnUse" id="color-1"><stop offset="0" stop-color="#656565"/><stop offset="1" stop-color="#030303"/></linearGradient><linearGradient x1="364.14026" y1="24.67207" x2="364.14026" y2="133.65715" gradientUnits="userSpaceOnUse" id="color-2"><stop offset="0" stop-color="#656565"/><stop offset="1" stop-color="#030303"/></linearGradient><linearGradient x1="232.89819" y1="162.86694" x2="283.89819" y2="162.86694" gradientUnits="userSpaceOnUse" id="color-3"><stop offset="0" stop-color="#666666"/><stop offset="1" stop-color="#000000"/></linearGradient><linearGradient x1="358.89815" y1="162.86694" x2="409.89815" y2="162.86694" gradientUnits="userSpaceOnUse" id="color-4"><stop offset="0" stop-color="#000000"/><stop offset="1" stop-color="#666666"/></linearGradient><linearGradient x1="320.33337" y1="175.50016" x2="320.33337" y2="307.50005" gradientUnits="userSpaceOnUse" id="color-5"><stop offset="0" stop-color="#000000"/><stop offset="1" stop-color="#666666"/></linearGradient><linearGradient x1="303.0517" y1="214.48179" x2="303.0517" y2="286.57104" gradientUnits="userSpaceOnUse" id="color-6"><stop offset="0" stop-color="#000000"/><stop offset="1" stop-color="#520000"/></linearGradient><linearGradient x1="320.33337" y1="175.50014" x2="320.33337" y2="307.50005" gradientUnits="userSpaceOnUse" id="color-7"><stop offset="0" stop-color="#000000"/><stop offset="1" stop-color="#930000"/></linearGradient><radialGradient cx="320.99546" cy="224.18989" r="9.36462" gradientUnits="userSpaceOnUse" id="color-8"><stop offset="0" stop-color="#b19400"/><stop offset="1" stop-color="#a86a00"/></radialGradient><radialGradient cx="315.25869" cy="217.39322" r="2.55556" gradientUnits="userSpaceOnUse" id="color-9"><stop offset="0" stop-color="#a8a8a8"/><stop offset="1" stop-color="#a8a8a8" stop-opacity="0"/></radialGradient><linearGradient x1="321.00005" y1="75.70167" x2="321.00005" y2="196.2985" gradientUnits="userSpaceOnUse" id="color-10"><stop offset="0" stop-color="#1a1a1a"/><stop offset="1" stop-color="#808080"/></linearGradient><linearGradient x1="321.00005" y1="75.70167" x2="321.00005" y2="196.2985" gradientUnits="userSpaceOnUse" id="color-11"><stop offset="0" stop-color="#000000"/><stop offset="1" stop-color="#480000"/></linearGradient><linearGradient x1="293.98338" y1="120.97241" x2="293.98338" y2="151.02794" gradientUnits="userSpaceOnUse" id="color-12"><stop offset="0" stop-color="#000000"/><stop offset="1" stop-color="#ffd200"/></linearGradient><linearGradient x1="348.01667" y1="120.97239" x2="348.01667" y2="151.02785" gradientUnits="userSpaceOnUse" id="color-13"><stop offset="0" stop-color="#000000"/><stop offset="1" stop-color="#ffd200"/></linearGradient><linearGradient x1="293.7875" y1="112.55439" x2="293.7875" y2="136.38601" gradientUnits="userSpaceOnUse" id="color-14"><stop offset="0" stop-color="#3b3b3b"/><stop offset="1" stop-color="#3e3e3e"/></linearGradient><linearGradient x1="348.12929" y1="112.12103" x2="348.12929" y2="135.95272" gradientUnits="userSpaceOnUse" id="color-15"><stop offset="0" stop-color="#3b3b3b"/><stop offset="1" stop-color="#3e3e3e"/></linearGradient><linearGradient x1="320.03899" y1="176.87138" x2="320.03899" y2="196.0417" gradientUnits="userSpaceOnUse" id="color-16"><stop offset="0" stop-color="#5f293f"/><stop offset="1" stop-color="#5f374a"/></linearGradient><linearGradient x1="236.45148" y1="177.908" x2="236.45148" y2="232.54777" gradientUnits="userSpaceOnUse" id="color-17"><stop offset="0" stop-color="#000000"/><stop offset="1" stop-color="#737373"/></linearGradient><linearGradient x1="280.26868" y1="222.69516" x2="280.26868" y2="266.89928" gradientUnits="userSpaceOnUse" id="color-18"><stop offset="0" stop-color="#000000"/><stop offset="1" stop-color="#73390c"/></linearGradient><linearGradient x1="234.7687" y1="177.90801" x2="234.7687" y2="214.95358" gradientUnits="userSpaceOnUse" id="color-19"><stop offset="0" stop-color="#000000"/><stop offset="1" stop-color="#730000"/></linearGradient><linearGradient x1="282.15378" y1="222.70375" x2="282.15378" y2="264.77966" gradientUnits="userSpaceOnUse" id="color-20"><stop offset="0" stop-color="#000000"/><stop offset="1" stop-color="#7d7d7d"/></linearGradient></defs><g transform="translate(-200.78926,-24.67187)"><g stroke-miterlimit="10"><path d="M257.62465,133.65715l-11.56543,-108.98528l62.49542,54.509" fill="url(#color-1)" stroke="#000000" stroke-width="0" stroke-linecap="round" stroke-linejoin="miter"/><path d="M332.89255,79.18109c0,0 17.34418,-15.12774 26.94777,-23.50406c11.03004,-9.62049 35.54765,-31.00494 35.54765,-31.00494l-11.56544,108.98528" fill="url(#color-2)" stroke="#000000" stroke-width="0" stroke-linecap="round" stroke-linejoin="miter"/><path d="M283.89819,183.36699l-34,-2l16,-20.33333l-33,-6.66667l25.66667,-12" fill="url(#color-3)" stroke="#000000" stroke-width="0" stroke-linecap="round" stroke-linejoin="miter"/><path d="M384.23151,142.36694l25.66667,12l-33,6.66667l16,20.33333l-34,2" fill="url(#color-4)" stroke="#000000" stroke-width="0" stroke-linecap="round" stroke-linejoin="miter"/><path d="M287.08338,307.50005l15.14285,-131.8421l37.78325,-0.15789l13.57389,132z" fill="url(#color-5)" stroke="#000000" stroke-width="0" stroke-linecap="butt" stroke-linejoin="miter"/><path d="M292.09896,264.16668l3.66667,-32.83333c0,0 1.36749,-10.24078 2.13534,-13.03256c0.57308,-2.0836 0.2215,2.78758 1.90274,4.03507c0.27969,0.20753 7.04588,-8.29862 7.29525,-7.83584c1.07186,1.98922 -6.65842,9.34573 -7.41792,13.24682c-0.18907,0.97113 4.27498,-5.7761 4.49663,-4.13099c0.18434,1.36822 6.86186,-6.38174 5.16852,-3.08639c-0.51768,1.00745 -1.878,2.76332 -0.82272,2.27517c1.34001,-0.61986 5.26264,-3.6332 5.37835,-2.97703c0.15805,0.89623 -6.88014,7.51729 -6.66616,8.40798c0.09074,0.37773 6.76878,-4.05351 6.76878,-4.05351c0,0 -0.93226,1.55805 -2.04123,2.7112c-1.85235,1.92614 -9.50746,9.15324 -9.30046,10.33005c0.11388,0.64741 6.90246,-2.26076 7.92607,-1.43241c0.20845,0.16869 -2.11013,0.94693 -3.09791,1.84078c-1.46112,1.32218 -1.79244,2.89733 -1.2175,3.12679c1.78688,0.71313 6.30489,1.11811 6.56916,1.87151c0.36479,1.03995 -9.584,-0.72468 -10.32911,0.34621c-0.44299,0.63667 9.7118,2.6503 10.19097,3.58803c0.45271,0.88593 -10.21686,-1.62572 -11.02715,-0.86657c-1.48599,1.39222 6.16089,5.90748 6.60556,6.88976c0.10327,0.22813 3.62308,1.68704 3.17467,2.87855c-0.41774,1.11002 -8.69189,-5.46594 -8.69189,-5.46594c0,0 4.04033,7.45006 3.43695,6.96181c-0.55984,-0.45301 -1.96245,-2.09353 -2.79199,-2.62252c-0.3284,-0.20942 -0.28839,1.95737 0.91987,4.76415c0.85243,1.98018 3.03974,4.86489 2.78934,4.89178c-0.07932,0.00852 -2.31811,-2.04023 -2.39345,-0.76206c-0.36141,6.13092 1.03642,20.11813 -0.6222,17.78721c-0.63927,-0.89839 0.48715,-7.67544 -0.55752,-15.94273c-0.97659,-7.7285 -3.81139,-10.67817 -3.90812,-10.66276c-0.5088,0.08108 0.57202,2.23546 1.2469,4.71742c0.41633,1.53109 0.88466,3.29009 0.11335,4.45559c-1.19268,1.80221 -0.67632,-1.50076 -1.2417,-3.70814c-0.06661,-0.26007 -0.70242,5.03667 -0.98502,10.98778c-0.09046,1.90486 0.15446,4.02636 0.07646,5.85946c-0.10911,2.56425 -0.18121,3.99986 -0.05776,5.30626c0.10618,1.12362 1.03053,3.73842 -0.30776,4.38945c-1.68608,0.82022 -1.41888,-1.93475 -0.9286,-3.9942c0.35132,-1.47575 0.3172,-3.36458 0.26102,-5.19894c-0.05803,-1.89455 0.23114,-3.7902 0.19511,-5.83988c-0.11887,-6.76217 -0.48247,-13.55361 -0.62951,-13.56356c-0.4595,-0.03109 -1.29202,4.59268 -1.93367,9.23764c-0.61428,4.44678 -1.03971,8.91297 -1.40735,9.33308c-0.87968,1.00524 0.12543,-4.44112 -0.14412,-7.9959c-0.23168,-3.05531 -1.79689,-4.23427 -1.79689,-4.23427z" fill="url(#color-6)" stroke="none" stroke-width="0" stroke-linecap="butt" stroke-linejoin="miter"/><path d="M340.00948,175.50014c0,0 2.42092,23.54237 3.93082,38.22547c0.36146,3.515 0.54989,8.67161 0.46225,14.24805c-0.0268,1.70533 -0.6498,5.48078 -0.33022,9.01776c0.26143,2.89348 0.81648,5.68249 -0.46818,6.58729c-1.50844,1.06241 -0.31937,-9.53958 -0.48717,-11.92811c-0.14979,-2.13223 -1.38603,-2.72717 -1.555,-2.26323c-1.39267,3.8239 -2.98173,10.63713 -3.42021,7.46128c-0.43848,-3.17585 2.51613,-12.22766 2.61726,-13.27696c0.58801,-6.10124 1.15647,-17.63676 -0.39953,-13.02335c-0.16171,0.47947 -2.24511,6.85586 -2.50387,5.82369c-0.32287,-1.28792 1.17406,-10.11912 0.97889,-10.16345c-0.25062,-0.05692 -1.12932,0.7146 -1.54379,1.87095c-0.79279,2.21184 -1.88312,6.72187 -2.29165,5.09267c-0.2339,-0.9328 0.91215,-4.72818 1.14914,-7.40888c0.39334,-4.4491 0.70387,-9.50052 0.27705,-9.16279c-1.2129,0.95975 -4.71424,16.14686 -5.37218,18.85016c-0.3435,1.41134 -0.67444,2.91105 -0.79648,4.23111c-0.05921,0.64046 -0.77462,3.16606 -0.794,5.96286c-0.01926,2.7801 0.37371,5.97613 -0.31954,6.01816c-0.8975,0.05441 -1.22426,-6.70393 -0.75613,-8.46822c0.35575,-1.34075 0.11118,-2.68495 0.39444,-3.23964c0.52617,-1.03037 0.75076,-2.23163 0.83852,-3.1656c0.35431,-3.77096 -0.38372,-7.64359 -0.49502,-9.99217c-0.1687,-3.55995 -3.12075,13.16741 -2.93218,8.19635c0.27421,-7.22827 2.1688,-16.41291 0.99798,-15.76382c-1.96694,1.09045 -4.00851,7.91059 -5.53542,9.30908c-0.79358,0.72683 -0.44639,-8.71932 -0.97206,-10.25856c-0.46673,-1.36667 -1.83322,5.33438 -2.109,3.29236c-0.61112,-4.52507 -1.95502,2.775 -3.17734,2.08152c-0.49722,-0.28209 -1.18774,-9.60107 -1.72827,-9.98357c-0.3621,-0.25623 -1.55179,0.20512 -2.09828,2.33089c-0.71619,2.78586 -0.80604,7.47367 -1.29352,7.52575c-0.68186,0.07285 -0.10593,-5.93627 -0.64969,-6.89153c-1.11751,-1.96319 -3.20326,-4.81068 -4.30705,-9.36337c-0.92105,-3.79898 -1.64329,-7.78677 -2.71205,-11.61584z" fill="url(#color-7)" stroke="#000000" stroke-width="0" stroke-linecap="butt" stroke-linejoin="miter"/><g><g><path d="M300.39679,190.92859l15.42857,28.71429" fill="none" stroke="#000000" stroke-width="2" stroke-linecap="round" stroke-linejoin="miter"/><path d="M341.53965,190.50003l-15.28571,29.57143" fill="none" stroke="#000000" stroke-width="2" stroke-linecap="round" stroke-linejoin="miter"/><g stroke-width="0" stroke-linecap="butt"><path d="M320.99545,217.95923c0.78506,-1.78513 2.47941,-3.02586 4.44802,-3.02586c2.71398,0 4.91662,2.35114 4.91662,5.24808c0,5.70531 -5.77654,7.47444 -9.36464,13.26496c-3.79519,-5.82638 -9.36461,-7.37155 -9.36461,-13.26496c0,-2.89694 2.20264,-5.24808 4.91662,-5.24808c1.96862,0 3.66297,1.24073 4.44799,3.02586z" fill="url(#color-8)" stroke="#ff99e5" stroke-linejoin="round"/><path d="M317.60046,215.93547c0.29414,0.46744 -1.66073,0.1307 -2.8553,0.8824c-1.19457,0.7517 -1.61912,2.6852 -1.91326,2.21776c-0.29414,-0.46744 0.3187,-2.27059 1.51326,-3.02229c1.19457,-0.7517 2.96115,-0.54531 3.25529,-0.07787z" fill="url(#color-9)" stroke="none" stroke-linejoin="miter"/></g></g><text transform="translate(317.93846,227.32394) scale(0.35338,0.35338)" font-size="40" xml:space="preserve" fill="#5d4200" stroke="none" stroke-width="1" stroke-linecap="butt" stroke-linejoin="miter" font-family="Curly" font-weight="normal" text-anchor="start"><tspan x="0" dy="0">s</tspan></text></g><path d="M256.76303,136c0,-33.30185 28.7599,-60.29833 64.23702,-60.29833c35.47713,0 64.23702,26.99648 64.23702,60.29833c0,33.30185 -28.75989,60.29834 -64.23702,60.29834c-35.47712,0 -64.23702,-26.99649 -64.23702,-60.29834z" fill="url(#color-10)" stroke="#000000" stroke-width="0" stroke-linecap="butt" stroke-linejoin="miter"/><path d="M256.76303,136c0,-5.52687 0.79216,-10.88007 2.2757,-15.96502c0.8311,0.52964 -0.37898,4.37996 0.81432,4.85417c1.73737,0.69042 5.76994,-1.85655 5.38355,0.29483c-0.1145,0.63751 -3.8412,1.29015 -4.98087,2.54275c-1.73671,1.90879 -1.10185,4.54967 -1.12102,5.45339c-0.06138,2.89348 5.66659,2.01676 6.38397,4.55366c0.2048,0.72426 -6.48337,1.88313 -7.12292,3.18185c-0.48603,0.98697 9.03759,-1.6953 9.80887,-0.67618c0.48742,0.64405 -3.63098,0.83315 -5.22555,2.2755c-1.82696,1.65256 -1.20083,4.55939 -1.17054,5.02957c0.07093,1.10121 4.09137,-2.91308 5.9405,-2.68735c2.19691,0.26818 -2.04416,7.07132 -1.82848,8.23128c0.40821,2.19542 -3.82013,7.18533 -0.52932,7.29619c1.3825,0.04657 10.88602,-5.09139 11.68842,-4.7043c1.50276,0.72493 -9.12983,8.60337 -9.61664,10.39221c-0.31991,1.17555 4.48483,-0.79335 5.87632,-0.44997c0.94039,0.23206 -1.30796,2.60675 -1.5284,3.5737c-0.21992,0.96471 5.28068,-3.10868 5.66875,-2.86826c0.83169,0.51523 4.78011,-1.46264 9.08048,-5.17479c6.57822,-5.67843 14.31494,-14.07505 15.6036,-13.31494c3.28672,1.93865 -8.0534,8.43053 -14.51955,16.80983c-4.86764,6.30783 -5.565,14.98517 -3.04597,16.33521c0.32576,0.17459 2.05501,-0.60323 3.2977,-1.64802c2.1044,-1.76927 4.21425,-6.55414 5.93544,-6.52615c1.31456,0.02138 -3.77379,7.5903 -3.36088,9.34773c0.25609,1.08994 5.85882,-0.88224 6.64315,-1.21783c3.09261,-1.32324 3.03691,-10.01565 4.73752,-9.25618c1.08861,0.48616 -2.22484,8.92043 -3.21668,12.20833c-1.00257,3.32345 2.06803,5.24735 3.50836,5.07575c1.30943,-0.15601 5.9398,-1.91151 7.8814,-4.87619c2.51304,-3.83723 2.37868,-9.02488 3.99171,-8.38003c1.09802,0.43896 -1.38203,4.07553 -1.04508,8.19933c0.09852,1.20571 -3.41549,6.7012 -2.82074,5.60654c0.40354,-0.74272 2.01166,-0.70036 2.70124,-1.62873c1.52085,-2.0475 2.43791,-4.95261 3.43023,-4.09556c1.47593,1.27473 0.98883,8.41192 1.44329,8.2787c2.00954,-0.58909 6.29903,-5.2397 7.55131,-10.04299c1.12353,-4.30944 -0.78289,-8.83932 0.77386,-9.04454c0.79835,-0.10525 -0.04207,-16.17608 1.19249,-12.8549c0.7461,2.00714 0.72902,9.30601 1.94518,15.79487c0.45768,2.44198 -1.18702,9.03547 -0.56487,11.09755c1.17391,3.89083 4.65786,2.52977 5.07349,3.18807c1.55208,2.45828 1.62772,-2.49963 1.77283,-8.53439c0.1144,-4.75788 0.08278,-10.37433 2.15281,-12.25249c1.29528,-1.17522 -0.49194,6.74801 -0.21477,11.22794c0.20613,3.33177 2.33616,3.08318 3.56752,4.6803c0.63434,0.82276 1.58771,-14.99777 2.38379,-14.58602c0.17067,0.08827 0.85051,-3.5404 1.33978,-0.97045c0.40463,2.12537 0.59992,10.4656 0.97287,11.05885c0.39556,0.62922 1.23416,-6.80439 2.05778,-5.54058c0.82362,1.26381 1.30634,9.19349 1.55275,8.58082c0.32145,-0.79925 6.30316,-2.13753 6.72776,-4.78505c0.37398,-2.33189 -2.83371,-6.11781 -2.21052,-6.387c2.72237,-1.17592 4.81503,4.60249 5.43994,4.86517c2.02224,1.07171 4.06932,1.06766 6.11935,2.04743c-11.53098,10.33674 -27.15484,16.68475 -44.35821,16.68475c-35.47712,0 -64.23702,-26.99649 -64.23702,-60.29834z" fill="url(#color-11)" stroke="#000000" stroke-width="0" stroke-linecap="butt" stroke-linejoin="miter"/><path d="M270.33899,134.97573l-3.6,-2.6l4.87039,0.52629z" fill="#000000" stroke="#000000" stroke-width="2" stroke-linecap="round" stroke-linejoin="miter"/><path d="M370.06737,132.74768l4.87039,-0.52629l-3.6,2.6z" fill="#000000" stroke="#000000" stroke-width="2" stroke-linecap="round" stroke-linejoin="miter"/><path d="M270.39015,136.27576c0,-12.96801 10.51265,-23.48065 23.48066,-23.48065c12.96801,0 23.48065,10.51264 23.48065,23.48065c0,12.96801 -10.51264,23.48066 -23.48065,23.48066c-12.96801,0 -23.48066,-10.51265 -23.48066,-23.48066z" fill="#000000" stroke="#000000" stroke-width="0" stroke-linecap="butt" stroke-linejoin="miter"/><path d="M278.95555,136c0,-8.29964 6.72818,-15.02784 15.02783,-15.02784c8.29964,0 15.02784,6.72819 15.02784,15.02785c0,8.29964 -6.72819,15.02785 -15.02784,15.02785c-8.29964,0 -15.02783,-6.72819 -15.02783,-15.02785z" fill="#ffd200" stroke="url(#color-12)" stroke-width="5" stroke-linecap="butt" stroke-linejoin="miter"/><path d="M348.12925,159.75642c-12.96801,0 -23.48065,-10.51265 -23.48065,-23.48066c0,-12.96801 10.51264,-23.48065 23.48065,-23.48065c12.96801,0 23.48066,10.51264 23.48066,23.48065c0,12.96801 -10.51265,23.48066 -23.48066,23.48066z" fill="#000000" stroke="#000000" stroke-width="0" stroke-linecap="butt" stroke-linejoin="miter"/><path d="M363.04451,136c0,8.29966 -6.72818,15.02785 -15.02783,15.02785c-8.29964,0 -15.02784,-6.72821 -15.02784,-15.02785c0,-8.29966 6.7282,-15.02785 15.02784,-15.02785c8.29964,0 15.02783,6.7282 15.02783,15.02784z" fill="#ffd200" stroke="url(#color-13)" stroke-width="5" stroke-linecap="butt" stroke-linejoin="miter"/><path d="M283.02784,107.46745c0,0 6.70895,-5.16922 11.79721,-6.36355c5.08827,-1.19433 12.33413,0.69937 12.33413,0.69937c0,0 -8.03812,-0.06028 -11.96762,0.86207c-4.10648,0.96389 -12.16372,4.80211 -12.16372,4.80211z" fill="#000000" stroke="none" stroke-width="0" stroke-linecap="butt" stroke-linejoin="miter"/><path d="M346.96236,102.66534c-3.9295,-0.92235 -11.96762,-0.86207 -11.96762,-0.86207c0,0 7.24586,-1.8937 12.33413,-0.69937c5.08826,1.19433 11.79721,6.36355 11.79721,6.36355c0,0 -8.05724,-3.83822 -12.16372,-4.80211z" fill="#000000" stroke="none" stroke-width="0" stroke-linecap="butt" stroke-linejoin="miter"/><path d="M269.97351,136.36784c0,-13.15197 10.66189,-23.81373 23.81399,-23.81373c13.15211,0 23.81399,10.66177 23.81399,23.81373c0,0 -47.62797,0.62536 -47.62797,0z" fill="url(#color-14)" stroke="#000000" stroke-width="0" stroke-linecap="butt" stroke-linejoin="miter"/><path d="M324.3153,135.93455c0,-13.15196 10.66188,-23.81373 23.81398,-23.81373c13.1521,0 23.814,10.66176 23.814,23.81373c0,0.61466 -47.62798,0 -47.62798,0z" fill="url(#color-15)" stroke="#000000" stroke-width="0" stroke-linecap="butt" stroke-linejoin="miter"/><path d="M331.80411,192.61548c-2.22919,3.45713 -9.91614,3.65893 -11.5629,3.68643c-1.54533,0.02584 -9.1303,-0.6931 -11.5666,-3.75527c-2.67186,-3.35825 0.13503,-9.45883 0.09568,-12.17495c-0.00509,-0.35116 2.03911,-0.22472 4.39829,-0.91083c3.06392,-0.89105 7.01012,-2.58948 7.01012,-2.58948c0,0 2.61951,1.14638 5.7108,1.88356c2.77756,0.66237 5.13726,0.92095 5.13987,1.10204c0,0 3.30576,8.83327 0.77473,12.75851z" fill="url(#color-16)" stroke="#000000" stroke-width="0" stroke-linecap="butt" stroke-linejoin="miter"/><path d="M319.94679,176.35312c0,0 -3.85729,2.85404 -12.66843,3.11969c-7.2635,0.21901 -9.13103,-9.41652 -9.13103,-9.41652" fill="none" stroke="#000000" stroke-width="2" stroke-linecap="round" stroke-linejoin="miter"/><path d="M341.85267,169.44723c0,0 -1.59829,9.68383 -8.86508,9.66732c-8.81512,-0.02002 -12.75043,-2.76543 -12.75043,-2.76543" fill="none" stroke="#000000" stroke-width="2" stroke-linecap="round" stroke-linejoin="miter"/><path d="M320.18117,177.27145l0.08918,6.39937" fill="none" stroke="#000000" stroke-width="2" stroke-linecap="round" stroke-linejoin="miter"/><g fill="none" stroke="#ffdd00" stroke-width="2" stroke-linecap="round" stroke-linejoin="miter"><path d="M370.32422,152.5l-5.5,5.5"/><path d="M368.57424,158l5.5,-5.5"/><path d="M377.82424,152.5l-5.5,5.5"/><path d="M268.07423,152.5l-5.5,5.5"/><path d="M271.82424,152.5l-5.5,5.5"/><path d="M270.07424,158l5.5,-5.5"/></g><path d="M257.84623,232.54777l-57.05696,-54.63977c0,0 20.32954,0.38211 31.78891,6.10371c13.00987,6.49577 39.53552,33.63742 39.53552,33.63742z" fill="url(#color-17)" stroke="none" stroke-width="0" stroke-linecap="butt" stroke-linejoin="miter"/><path d="M293.71748,266.89928l-36.112,-34.58212l9.2144,-9.62204l36.112,34.58213z" fill="url(#color-18)" stroke="none" stroke-width="0" stroke-linecap="butt" stroke-linejoin="miter"/><path d="M230.54555,206.40362c-9.70522,-9.29406 -29.75629,-28.49567 -29.75629,-28.49567c0,0 20.32955,0.3821 31.78892,6.1037c3.45722,1.72617 7.86888,4.9103 12.48358,8.6556c1.93951,1.57411 6.1648,5.04505 10.39368,8.90119c7.01615,6.39773 14.31157,13.57446 13.17497,12.8397c-0.2411,-0.15586 -10.7875,-9.76307 -8.65427,-6.46577c1.54893,2.39416 0.00176,1.03958 1.70614,2.41993c1.29047,1.04513 3.65469,4.22025 3.85553,4.47354c0.66574,0.83961 -3.58322,-3.06395 -4.43037,-3.71107c-1.10083,-0.84092 -11.15543,-11.40472 -10.83233,-11.0743c2.52696,2.58426 5.61395,6.24703 3.82607,5.38407c-0.44093,-0.21283 -3.70297,-4.03519 -5.10914,-5.10095c-2.17222,-1.64635 -7.42488,-6.31104 -9.29769,-7.41257c-1.11411,-0.65529 2.64156,3.28469 2.31135,3.10817c-1.16164,-0.62099 -8.9516,-7.39264 -6.29997,-4.44693c1.07826,1.19785 9.65295,9.90268 10.46221,10.79803c1.97161,2.18134 3.98978,4.41929 4.26353,5.1117c0.94796,2.39769 -2.77126,-2.33695 -4.47657,-3.43988c-2.75815,-1.78386 -23.99731,-20.2589 -23.77618,-19.1671c0.0315,0.15553 7.1361,5.97162 11.28535,10.13535c0.90121,0.90436 1.43786,1.65901 2.07683,2.3584c0.50142,0.54882 1.72657,0.80457 1.81111,1.73626c0.12674,1.39673 -0.81581,0.58171 -1.7793,-0.50207c-0.49822,-0.56042 -1.3328,-0.94394 -1.9139,-1.44648c-2.14604,-1.8559 -4.19027,-4.11418 -3.86852,-3.69081c1.03753,1.36521 10.13686,10.597 12.74897,13.41037c1.49051,1.60535 -1.57792,-1.16585 -1.65552,-1.08482c-0.2817,0.29416 -12.91091,-11.7428 -16.6296,-14.85406c-1.11595,-0.93366 4.23888,4.36468 3.84365,4.21623c-0.22176,-0.08329 1.31734,1.64484 3.76727,4.06665c2.5154,2.48653 5.9816,5.71407 8.75847,9.22481c1.37793,1.74209 4.1432,2.79734 4.95646,4.56311c1.71922,3.73285 -0.44823,1.23444 -3.69688,-2.02949c-1.86001,-1.86876 -6.77131,-7.3575 -11.04143,-11.42197c-1.61205,-1.53441 -7.11574,-7.22818 -8.24338,-8.17531c-0.57937,-0.48664 2.69422,3.69558 2.40257,3.43784c-1.19503,-1.0561 5.2687,5.92232 5.26928,5.99464c0.00326,0.40779 13.82102,14.33876 9.88773,11.18875c-0.46008,-0.36846 -2.04277,-1.4794 -3.02992,-2.37627c-3.08693,-2.80462 -10.8251,-11.82997 -15.59417,-16.43355c-1.37815,-1.33032 -0.38618,0.429 0.9196,2.0103c0.92667,1.1222 2.25877,1.99892 1.90828,2.31445c-1.13332,1.02031 -3.54615,-2.80635 -4.07501,-3.20198c-1.0651,-0.7968 -7.68205,-6.92929 -6.87496,-5.97027c5.1378,6.10503 20.64423,21.41021 17.13385,18.04855z" fill="url(#color-19)" stroke="none" stroke-width="0" stroke-linecap="butt" stroke-linejoin="miter"/><path d="M284.1767,229.62703c0.25065,2.54022 -3.79713,4.84037 -3.79713,4.84037c0,0 2.27544,-3.9643 5.62671,-3.33242c3.46926,0.65414 8.12441,6.18807 8.74975,7.83022c1.02683,2.69643 -2.35804,4.62038 -2.35804,4.62038c0,0 1.70807,-3.24101 4.3959,-2.36272c1.36806,0.44702 5.23836,3.26402 6.34214,6.38645c0.89902,2.54319 -0.8056,5.50919 -0.92875,5.76749c-0.63033,1.15233 -5.85943,10.07137 -13.80702,11.32669c-4.94765,0.78148 -13.05888,-4.6531 -15.32724,-6.86915c-10.59685,-10.35256 -12.64094,-16.60743 -12.07723,-21.62436c0.2379,-2.11732 4.11848,-6.93425 8.37408,-10.37991c2.51558,-2.03681 4.96235,-2.78388 6.4887,-3.12462c0.09526,-0.02126 2.08185,0.15251 2.745,0.57188c2.25714,1.42737 5.3694,4.28516 5.57312,6.34969z" fill="url(#color-20)" stroke="none" stroke-width="0" stroke-linecap="butt" stroke-linejoin="miter"/></g></g></svg>