<svg version="1.1" xmlns="http://www.w3.org/2000/svg" xmlns:xlink="http://www.w3.org/1999/xlink" width="186.66666" height="287.52434" viewBox="0,0,186.66666,287.52434"><defs><linearGradient x1="378.04855" y1="37.97568" x2="378.04855" y2="73.30902" gradientUnits="userSpaceOnUse" id="color-1"><stop offset="0" stop-color="#332f00"/><stop offset="1" stop-color="#998c00"/></linearGradient><linearGradient x1="263.60735" y1="37.97568" x2="263.60735" y2="73.30902" gradientUnits="userSpaceOnUse" id="color-2"><stop offset="0" stop-color="#332f00"/><stop offset="1" stop-color="#998c00"/></linearGradient><linearGradient x1="320.16679" y1="175.50002" x2="320.16679" y2="307.50002" gradientUnits="userSpaceOnUse" id="color-3"><stop offset="0" stop-color="#001117"/><stop offset="1" stop-color="#7e7400"/></linearGradient><radialGradient cx="320.9955" cy="224.18986" r="9.36462" gradientUnits="userSpaceOnUse" id="color-4"><stop offset="0" stop-color="#a1a1a1"/><stop offset="1" stop-color="#5e5e5e"/></radialGradient><radialGradient cx="315.25873" cy="217.3932" r="2.55555" gradientUnits="userSpaceOnUse" id="color-5"><stop offset="0" stop-color="#a8a8a8"/><stop offset="1" stop-color="#a8a8a8" stop-opacity="0"/></radialGradient><linearGradient x1="337.2501" y1="139.08334" x2="413.7501" y2="139.08334" gradientUnits="userSpaceOnUse" id="color-6"><stop offset="0" stop-color="#000000"/><stop offset="1" stop-color="#4d4600"/></linearGradient><linearGradient x1="228.5834" y1="139.08334" x2="305.08344" y2="139.08334" gradientUnits="userSpaceOnUse" id="color-7"><stop offset="0" stop-color="#4d4600"/><stop offset="1" stop-color="#000000"/></linearGradient><linearGradient x1="320.7437" y1="75.88117" x2="320.7437" y2="196.47783" gradientUnits="userSpaceOnUse" id="color-8"><stop offset="0" stop-color="#001117"/><stop offset="1" stop-color="#7e7400"/></linearGradient><linearGradient x1="325.09037" y1="66.85851" x2="325.09037" y2="90.10851" gradientUnits="userSpaceOnUse" id="color-9"><stop offset="0" stop-color="#4d4600"/><stop offset="1" stop-color="#0b140e"/></linearGradient><radialGradient cx="292.87092" cy="137.02567" r="23.48065" gradientUnits="userSpaceOnUse" id="color-10"><stop offset="0" stop-color="#00609c"/><stop offset="1" stop-color="#808080"/></radialGradient><linearGradient x1="292.98348" y1="120.47217" x2="292.98348" y2="153.52785" gradientUnits="userSpaceOnUse" id="color-11"><stop offset="0" stop-color="#000000"/><stop offset="1" stop-color="#ffffff"/></linearGradient><radialGradient cx="347.1293" cy="137.02565" r="23.48065" gradientUnits="userSpaceOnUse" id="color-12"><stop offset="0" stop-color="#00609c"/><stop offset="1" stop-color="#808080"/></radialGradient><linearGradient x1="347.01676" y1="120.4722" x2="347.01676" y2="153.52788" gradientUnits="userSpaceOnUse" id="color-13"><stop offset="0" stop-color="#000000"/><stop offset="1" stop-color="#ffffff"/></linearGradient><linearGradient x1="292.95421" y1="113.05411" x2="292.95421" y2="136.88596" gradientUnits="userSpaceOnUse" id="color-14"><stop offset="0" stop-color="#30370f"/><stop offset="1" stop-color="#756b00"/></linearGradient><linearGradient x1="347.12935" y1="113.12078" x2="347.12935" y2="136.95265" gradientUnits="userSpaceOnUse" id="color-15"><stop offset="0" stop-color="#30370f"/><stop offset="1" stop-color="#756b00"/></linearGradient></defs><g transform="translate(-226.58343,-19.97568)"><g stroke-miterlimit="10"><g stroke="#000000" stroke-width="0" stroke-linecap="butt" stroke-linejoin="miter"><path d="M374.3819,125.64236v-70l7.33332,-0.00001v70z" fill="#4d4926"/><path d="M381.40189,58.3636c0.88559,9.86778 17.31332,29.61209 17.31332,29.61209c0,0 -29.28464,-21.43535 -40.59753,-31.31231c-5.06729,-4.4241 18.53204,-8.72372 18.44212,-13.66011c-0.19699,-10.81386 -16.84459,-23.02758 -16.84459,-23.02758c0,0 27.98279,11.02321 38.63474,21.39716c5.67879,5.53059 -17.34619,12.55456 -16.94806,16.99076z" fill="url(#color-1)"/></g><g stroke="#000000" stroke-width="0" stroke-linecap="butt" stroke-linejoin="miter"><path d="M259.9407,125.64235v-70l7.33332,0.00001v70z" fill="#4d4926"/><path d="M243.30591,41.37285c10.65194,-10.37395 38.63474,-21.39717 38.63474,-21.39717c0,0 -16.6476,12.21373 -16.84459,23.02759c-0.08992,4.93639 23.5094,9.23599 18.44211,13.6601c-11.31289,9.87696 -40.59753,31.31232 -40.59753,31.31232c0,0 16.42774,-19.74431 17.31332,-29.61208c0.39813,-4.43619 -22.62685,-11.46017 -16.94806,-16.99076z" fill="url(#color-2)"/></g><path d="M286.91679,307.50001l15.14285,-131.8421l37.78325,-0.15789l13.57389,132z" fill="url(#color-3)" stroke="#000000" stroke-width="0" stroke-linecap="butt" stroke-linejoin="miter"/><g><path d="M315.82538,219.64286l-15.42857,-28.71428" fill="none" stroke="#000000" stroke-width="2" stroke-linecap="round" stroke-linejoin="miter"/><path d="M341.53968,190.5l-15.28571,29.57143" fill="none" stroke="#000000" stroke-width="2" stroke-linecap="round" stroke-linejoin="miter"/><g stroke-width="0" stroke-linecap="butt"><path d="M320.99547,217.9592c0.78506,-1.78513 2.47941,-3.02586 4.44801,-3.02586c2.71398,0 4.91662,2.35114 4.91662,5.24808c0,5.70531 -5.77653,7.47444 -9.36464,13.26496c-3.79519,-5.82638 -9.36461,-7.37156 -9.36461,-13.26496c0,-2.89694 2.20265,-5.24808 4.91662,-5.24808c1.96862,0 3.66297,1.24073 4.44799,3.02586z" fill="url(#color-4)" stroke="#ff99e5" stroke-linejoin="round"/><path d="M317.60048,215.93544c0.29414,0.46744 -1.66073,0.1307 -2.8553,0.8824c-1.19457,0.7517 -1.61912,2.6852 -1.91326,2.21776c-0.29414,-0.46744 0.3187,-2.27059 1.51326,-3.02229c1.19457,-0.7517 2.96115,-0.54531 3.25529,-0.07787z" fill="url(#color-5)" stroke="none" stroke-linejoin="miter"/></g><text transform="translate(316.54604,227.32393) scale(0.35338,0.35338)" font-size="40" xml:space="preserve" fill="#3c3c3c" stroke="none" stroke-width="1" stroke-linecap="butt" stroke-linejoin="miter" font-family="Curly" font-weight="normal" text-anchor="start"><tspan x="0" dy="0">w</tspan></text></g><path d="M337.2501,139.08334c0,-12.0122 9.7378,-21.75 21.75,-21.75c4.06468,0 11.64747,2.49039 19.90204,5.78578c16.13984,6.44334 34.34796,-4.03578 34.34796,-4.03578c0,0 -17.56867,29.19545 -33.5111,35.62832c-8.57627,3.46058 -16.53722,6.12168 -20.7389,6.12168c-12.0122,0 -21.75,-9.73781 -21.75,-21.75z" fill="url(#color-6)" stroke="#000000" stroke-width="0" stroke-linecap="butt" stroke-linejoin="miter"/><path d="M283.33344,160.83334c-4.1635,0 -12.01824,-2.61295 -20.50523,-6.02752c-15.99899,-6.43688 -36.24477,-36.22247 -36.24477,-36.22247c0,0 18.15159,12.28018 33.38705,5.94687c9.54754,-3.96886 18.73531,-7.19687 23.36295,-7.19687c12.0122,0 21.75,9.73781 21.75,21.75c0,12.0122 -9.7378,21.75 -21.75,21.75z" fill="url(#color-7)" stroke="#000000" stroke-width="0" stroke-linecap="butt" stroke-linejoin="miter"/><path d="M256.50671,136.1795c0,-33.30185 28.7599,-60.29833 64.23702,-60.29833c35.47712,0 64.23702,26.99649 64.23702,60.29833c0,33.30185 -28.7599,60.29833 -64.23702,60.29833c-35.47712,0 -64.23702,-26.99649 -64.23702,-60.29833z" fill="url(#color-8)" stroke="#000000" stroke-width="0" stroke-linecap="butt" stroke-linejoin="miter"/><path d="M298.84037,86.35851l33.25,-19.5l-3.25,13.75l22.5,-6l-14.5,15.5" fill="url(#color-9)" stroke="#000000" stroke-width="0" stroke-linecap="round" stroke-linejoin="miter"/><path d="M269.39027,137.02567c0,-12.968 10.51265,-23.48065 23.48065,-23.48065c12.968,0 23.48065,10.51265 23.48065,23.48065c0,12.968 -10.51265,23.48065 -23.48065,23.48065c-12.968,0 -23.48065,-10.51265 -23.48065,-23.48065z" fill="url(#color-10)" stroke="#000000" stroke-width="0" stroke-linecap="butt" stroke-linejoin="miter"/><path d="M276.45565,137.00001c0,-9.12808 7.39976,-16.52784 16.52783,-16.52784c9.12808,0 16.52784,7.39977 16.52784,16.52784c0,9.12808 -7.39977,16.52784 -16.52784,16.52784c-9.12808,0 -16.52783,-7.39977 -16.52783,-16.52784z" fill="url(#color-11)" stroke="none" stroke-width="0" stroke-linecap="butt" stroke-linejoin="miter"/><path d="M347.1293,160.5063c-12.968,0 -23.48065,-10.51265 -23.48065,-23.48065c0,-12.968 10.51265,-23.48065 23.48065,-23.48065c12.968,0 23.48065,10.51265 23.48065,23.48065c0,12.968 -10.51265,23.48065 -23.48065,23.48065z" fill="url(#color-12)" stroke="#000000" stroke-width="0" stroke-linecap="butt" stroke-linejoin="miter"/><path d="M347.01676,153.52788c-9.12807,0 -16.52783,-7.39977 -16.52783,-16.52784c0,-9.12808 7.39977,-16.52784 16.52783,-16.52784c9.12807,0 16.52783,7.39977 16.52783,16.52784c0,9.12808 -7.39977,16.52784 -16.52783,16.52784z" fill="url(#color-13)" stroke="none" stroke-width="0" stroke-linecap="butt" stroke-linejoin="miter"/><path d="M282.02792,108.4672c0,0 6.70895,-5.16922 11.79721,-6.36355c5.08827,-1.19433 12.33413,0.69937 12.33413,0.69937c0,0 -8.03812,-0.06028 -11.96762,0.86207c-4.10648,0.96389 -12.16372,4.80211 -12.16372,4.80211z" fill="#000000" stroke="none" stroke-width="0" stroke-linecap="butt" stroke-linejoin="miter"/><path d="M345.96241,103.6651c-3.9295,-0.92235 -11.96762,-0.86207 -11.96762,-0.86207c0,0 7.24586,-1.8937 12.33413,-0.69937c5.08826,1.19433 11.79721,6.36355 11.79721,6.36355c0,0 -8.05724,-3.83822 -12.16372,-4.80211z" fill="#000000" stroke="none" stroke-width="0" stroke-linecap="butt" stroke-linejoin="miter"/><path d="M268.97357,136.86784c0,-13.15197 10.73651,-23.81373 23.98066,-23.81373c13.24416,0 23.98066,10.66177 23.98066,23.81373c0,0 -47.9613,0.05995 -47.9613,0z" fill="url(#color-14)" stroke="#000000" stroke-width="0" stroke-linecap="butt" stroke-linejoin="miter"/><path d="M323.31534,136.93449c0,-13.15196 10.66188,-23.81373 23.81398,-23.81373c13.1521,0 23.814,10.66176 23.814,23.81373c0,0.16133 -47.62798,0 -47.62798,0z" fill="url(#color-15)" stroke="#000000" stroke-width="0" stroke-linecap="butt" stroke-linejoin="miter"/><path d="M332.55485,177.92738c0,0 -4.09668,4 -12.91066,4.14285c-7.26585,0.11777 -12.19893,-4.14285 -12.19893,-4.14285" fill="none" stroke="#000000" stroke-width="2" stroke-linecap="round" stroke-linejoin="miter"/></g></g></svg>