<svg version="1.1" xmlns="http://www.w3.org/2000/svg" xmlns:xlink="http://www.w3.org/1999/xlink" width="180.04931" height="261.93666" viewBox="0,0,180.04931,261.93666"><defs><linearGradient x1="282.27871" y1="94.51567" x2="282.27871" y2="179.75474" gradientUnits="userSpaceOnUse" id="color-1"><stop offset="0" stop-color="#000000"/><stop offset="1" stop-color="#4d3f2e"/></linearGradient><linearGradient x1="198.9454" y1="94.51567" x2="198.9454" y2="179.75474" gradientUnits="userSpaceOnUse" id="color-2"><stop offset="0" stop-color="#000000"/><stop offset="1" stop-color="#4d3f2e"/></linearGradient><linearGradient x1="282.30995" y1="137.03358" x2="282.30995" y2="219.36691" gradientUnits="userSpaceOnUse" id="color-3"><stop offset="0" stop-color="#000000"/><stop offset="1" stop-color="#4d3f2e"/></linearGradient><linearGradient x1="197.64329" y1="137.03358" x2="197.64329" y2="219.36691" gradientUnits="userSpaceOnUse" id="color-4"><stop offset="0" stop-color="#000000"/><stop offset="1" stop-color="#4d3f2e"/></linearGradient><linearGradient x1="240.00009" y1="175.50003" x2="240.00009" y2="307.50003" gradientUnits="userSpaceOnUse" id="color-5"><stop offset="0" stop-color="#000000"/><stop offset="1" stop-color="#66543d"/></linearGradient><linearGradient x1="240.07703" y1="76.54784" x2="240.07703" y2="197.14451" gradientUnits="userSpaceOnUse" id="color-6"><stop offset="0" stop-color="#1a150f"/><stop offset="1" stop-color="#80694d"/></linearGradient><linearGradient x1="240.07703" y1="76.54784" x2="240.07703" y2="197.14452" gradientUnits="userSpaceOnUse" id="color-7"><stop offset="0" stop-color="#000000"/><stop offset="1" stop-color="#480000"/></linearGradient><linearGradient x1="239.4409" y1="45.56337" x2="239.4409" y2="99.3021" gradientUnits="userSpaceOnUse" id="color-8"><stop offset="0" stop-color="#0d0700"/><stop offset="1" stop-color="#402200"/></linearGradient><linearGradient x1="240.09724" y1="96.18924" x2="240.09724" y2="103.85591" gradientUnits="userSpaceOnUse" id="color-9"><stop offset="0" stop-color="#0d0700"/><stop offset="1" stop-color="#663600"/></linearGradient><linearGradient x1="237.83334" y1="103.5" x2="237.83334" y2="171.16667" gradientUnits="userSpaceOnUse" id="color-10"><stop offset="0" stop-color="#1a150f"/><stop offset="1" stop-color="#544533"/></linearGradient><linearGradient x1="239.45373" y1="112.50326" x2="239.45373" y2="163.63372" gradientUnits="userSpaceOnUse" id="color-11"><stop offset="0" stop-color="#000000"/><stop offset="1" stop-color="#4a0000"/></linearGradient><radialGradient cx="240.5" cy="137.83333" r="27" gradientUnits="userSpaceOnUse" id="color-12"><stop offset="0" stop-color="#000000"/><stop offset="1" stop-color="#000000" stop-opacity="0"/></radialGradient></defs><g transform="translate(-147.61932,-45.56337)"><g stroke-miterlimit="10"><path d="M307.15508,144.29867c3.16787,25.2547 -3.79332,35.45607 -3.79332,35.45607c0,0 -12.10918,-21.47411 -19.77288,-32.6764c-7.92295,-11.58124 -27.01293,-35.71203 -27.01293,-35.71203l31.81283,-16.85064c0,0 15.26168,21.8436 18.7663,49.783z" fill="url(#color-1)" stroke="#000000" stroke-width="0" stroke-linecap="butt"/><path d="M192.83532,94.51567l31.81283,16.85064c0,0 -19.08998,24.13078 -27.01292,35.71203c-7.6637,11.20229 -19.77288,32.6764 -19.77288,32.6764c0,0 -6.96119,-10.20136 -3.79332,-35.45607c3.50463,-27.9394 18.7663,-49.783 18.7663,-49.783z" fill="url(#color-2)" stroke="#000000" stroke-width="0" stroke-linecap="butt"/><path d="M293.33655,189.81031c-9.02164,23.80012 -19.94816,29.5566 -19.94816,29.5566c0,0 -0.6493,-24.64443 -2.17813,-38.13095c-1.58056,-13.94275 -7.1552,-44.20238 -7.1552,-44.20238h36c0,0 3.26217,26.44655 -6.71851,52.77673z" fill="url(#color-3)" stroke="#000000" stroke-width="0" stroke-linecap="butt"/><path d="M179.89817,137.03358h36c0,0 -5.57464,30.25964 -7.1552,44.20238c-1.52884,13.48652 -2.17814,38.13095 -2.17814,38.13095c0,0 -10.92652,-5.75649 -19.94816,-29.5566c-9.98068,-26.33018 -6.71851,-52.77673 -6.71851,-52.77673z" fill="url(#color-4)" stroke="#000000" stroke-width="0" stroke-linecap="butt"/><path d="M206.7501,307.50002l15.14285,-131.8421l37.78325,-0.15789l13.57389,132z" fill="url(#color-5)" stroke="#000000" stroke-width="0" stroke-linecap="butt"/><path d="M175.84001,136.84617c0,-33.30185 28.7599,-60.29833 64.23702,-60.29833c35.47712,0 64.23702,26.99649 64.23702,60.29833c0,33.30185 -28.7599,60.29833 -64.23702,60.29833c-35.47712,0 -64.23702,-26.99649 -64.23702,-60.29833z" fill="url(#color-6)" stroke="#000000" stroke-width="0" stroke-linecap="butt"/><path d="M175.84001,136.84617c0,-33.30185 28.7599,-60.29833 64.23702,-60.29833c35.47712,0 64.23702,26.99649 64.23702,60.29833c0,13.81768 -4.83655,27.69688 -13.0303,34.0412c-1.27747,0.98913 -5.30321,-0.87156 -6.73828,-0.27753c-1.45049,0.60042 -0.64528,11.40213 -2.24526,9.10174c-1.53564,-2.20789 -2.80414,-14.84316 -4.46704,-14.85495c-1.3586,-0.00963 -3.0913,20.41263 -4.52864,20.57451c-1.32525,0.14926 -3.00971,-15.69695 -4.3863,-16.117c-0.22984,-0.07013 -1.04142,5.47429 -1.5643,10.57257c-0.34903,3.40321 -0.38462,6.79243 -0.71283,7.50001c-0.73075,1.57542 -0.74894,-1.47189 -1.31533,-4.39019c-0.42486,-2.18906 -1.44974,-4.30552 -1.71066,-4.34384c-0.66064,-0.09701 -1.81921,11.62758 -2.62887,13.25663c-0.75894,1.52699 -1.17086,-7.02997 -1.75403,-7.24985c-2.41337,-0.90992 -6.28444,-9.23153 -8.5501,-13.29894c-1.31998,-2.36968 -3.41236,19.29204 -4.52237,19.36059c-1.76531,0.10901 -2.5752,-20.24329 -5.41604,-20.24329c-2.31256,0 -4.68871,18.14604 -7.37658,21.35958c-2.69195,3.21842 -5.69555,-8.50256 -7.92366,-17.61021c-0.43674,-1.78524 -2.66416,4.11692 -4.37978,6.77627c-0.26536,0.41133 -1.20582,1.52159 -1.47757,2.84751c-0.70269,3.42861 -0.725,8.29925 -1.2189,6.25621c-0.15329,-0.63409 -0.25203,-3.4362 -0.33989,-6.59403c-0.13361,-4.80219 -0.24207,-10.42704 -0.47896,-10.50112c-2.60012,-0.81308 -3.95421,9.9474 -5.69006,4.92794c-0.71136,-2.05698 -2.61007,11.97137 -3.0184,7.37414c-0.267,-3.00608 -0.60938,-21.6153 -1.21043,-21.49587c-1.54197,0.30638 -3.4309,15.19145 -4.63849,19.25977c-1.05257,3.54605 -1.42733,-3.6085 -2.65962,-3.92842c-14.30087,-3.71273 -24.49135,-23.69251 -24.49135,-42.30341z" fill="url(#color-7)" stroke="#000000" stroke-width="0" stroke-linecap="butt"/><path d="M220.45833,189.24626c0,0 2.50241,-12.60691 4.04552,-15.82099c2.77593,-5.78186 11.42756,0.27582 15.71654,0.27582c4.51347,0 12.86672,-6.29103 15.80892,-0.49096c1.40786,2.77537 3.51236,16.03614 3.51236,16.03614c0,0 -12.93456,-1.53022 -19.36807,-1.46876c-6.3888,0.06104 -19.71527,1.46876 -19.71527,1.46876z" fill="#000000" stroke="#000000" stroke-width="2" stroke-linecap="round"/><path d="M202.02787,108.46718c0,0 6.70895,-5.16922 11.79721,-6.36355c5.08827,-1.19433 12.33413,0.69937 12.33413,0.69937c0,0 -8.03812,-0.06028 -11.96762,0.86207c-4.10648,0.96389 -12.16372,4.80211 -12.16372,4.80211z" fill="#000000" stroke="none" stroke-width="0" stroke-linecap="butt"/><path d="M265.96236,103.16508c-3.9295,-0.92235 -11.96762,-0.86207 -11.96762,-0.86207c0,0 7.24586,-1.8937 12.33413,-0.69937c5.08826,1.19433 11.79721,6.36355 11.79721,6.36355c0,0 -8.05724,-3.83822 -12.16372,-4.80211z" fill="#000000" stroke="none" stroke-width="0" stroke-linecap="butt"/><g stroke="#000000" stroke-width="0" stroke-linecap="butt"><path d="M183.59628,98.76234c0,-29.37751 4.22233,-52.79352 55.83225,-53.19268c58.79142,-0.45471 55.83225,23.81518 55.83225,53.19268c0,0 -111.6645,1.21448 -111.6645,0z" fill="url(#color-8)"/><path d="M158.84724,103.85591l4.33333,-7.66667l155.5,0.33333l2.66667,7.33333z" fill="url(#color-9)"/></g><path d="M296.16667,137.33334c0,8.946 17.87361,29.46443 17.87361,29.46443c0,0 -29.36675,-6.43851 -28.18419,-2.06062c0.86727,3.21065 7.93861,21.98912 7.93861,21.98912c0,0 -25.4465,-19.33687 -30.24118,-21.15502c-2.76743,-1.04941 -0.77077,21.17878 -0.77077,21.17878c0,0 -17.96199,-19.23716 -21.87015,-18.82739c-12.98951,1.36195 -23.3263,22.25014 -23.3263,22.25014c0,0 4.93468,-23.00612 1.58037,-23.00612c-4.24937,0 -32.68197,17.17982 -32.68197,17.17982c0,0 8.24539,-18.22948 6.23135,-21.82122c-1.69125,-3.01609 -39.63477,-1.42102 -39.63477,-1.42102c0,0 24.70848,-8.34463 29.52421,-11.30787c2.62601,-1.61585 -34.98617,-20.19187 -34.98617,-20.19187c0,0 34.21401,5.62571 34.21401,2.06216c0,-9.87649 -24.15907,-27.94984 -24.15907,-27.94984c0,0 19.83368,11.52951 31.80207,6.72422c3.37428,-1.35477 -0.96808,-24.71471 -0.96808,-24.71471c0,0 22.82422,17.52839 28.37483,16.84359c7.82152,-0.96498 9.66306,-16.49989 9.66306,-16.49989c0,0 11.13789,23.76329 12.28719,23.76329c1.1005,0 29.19204,-27.49189 29.19204,-27.49189c0,0 -4.4183,13.63788 -1.75256,16.41737c3.20132,3.33794 20.59895,-6.15391 20.59895,-6.15391c0,0 -7.15045,10.9158 -4.04117,12.23488c8.60593,3.65099 24.49379,0.84476 24.49379,0.84476c0,0 -9.335,14.68838 -3.24896,19.73031c2.83107,2.34538 23.59321,-1.76983 23.59321,-1.76983c0,0 -31.50197,12.2758 -31.50197,13.6883z" fill="url(#color-10)" stroke="none" stroke-width="0" stroke-linecap="butt"/><path d="M310.03741,164.66582c0,0 -26.52351,-5.53176 -25.62994,-2.22371c0.65533,2.42604 7.99859,21.61548 7.99859,21.61548c0,0 -29.89461,-23.27804 -33.51758,-24.65188c-2.09113,-0.79296 1.08426,24.00316 1.08426,24.00316c0,0 -16.23915,-17.86937 -19.19225,-17.55974c-9.81517,1.02912 -18.95921,13.47938 -18.95921,13.47938c0,0 1.06209,-15.38394 -1.47251,-15.38394c-3.21092,0 -28.69523,13.98146 -28.69523,13.98146c0,0 5.2304,-14.10794 3.70855,-16.82193c-1.27795,-2.27903 -34.94892,-0.74042 -34.94892,-0.74042c0,0 21.33695,-9.30539 24.97583,-11.54448c1.98427,-1.22097 -30.43634,-17.25743 -30.43634,-17.25743c0,0 30.18621,4.58425 30.18621,1.89155c0,-7.4629 -18.25514,-23.11953 -18.25514,-23.11953c0,0 14.32011,6.04529 23.36369,2.4143c2.54968,-1.02369 2.26849,-21.00832 2.26849,-21.00832c0,0 22.57982,12.57818 26.77399,12.06073c5.91012,-0.72916 8.30163,-10.46769 8.30163,-10.46769c0,0 11.08271,17.95608 11.95114,17.95608c0.83156,0 23.05816,-22.10682 23.05816,-22.10682c0,0 -0.33857,10.30509 1.67573,12.40533c2.41899,2.52222 18.2317,-4.98336 18.2317,-4.98336c0,0 -4.73637,9.24822 -2.38693,10.24495c6.50283,2.75877 21.84139,1.63832 21.84139,1.63832c0,0 -5.38707,14.43221 -0.78832,18.242c2.13922,1.77222 19.49422,-0.67066 19.49422,-0.67066c0,0 -26.47026,9.85816 -26.47026,10.34319z" fill="url(#color-11)" stroke="none" stroke-width="0" stroke-linecap="butt"/><path d="M189.39022,137.27565c0,-12.968 10.51265,-23.48065 23.48065,-23.48065c12.968,0 23.48065,10.51265 23.48065,23.48065c0,12.968 -10.51265,23.48065 -23.48065,23.48065c-12.968,0 -23.48065,-10.51265 -23.48065,-23.48065z" fill="#000000" stroke="#000000" stroke-width="0" stroke-linecap="butt"/><path d="M267.12931,160.75627c-12.968,0 -23.48065,-10.51265 -23.48065,-23.48065c0,-12.968 10.51265,-23.48065 23.48065,-23.48065c12.968,0 23.48065,10.51265 23.48065,23.48065c0,12.968 -10.51265,23.48065 -23.48065,23.48065z" fill="#000000" stroke="#000000" stroke-width="0" stroke-linecap="butt"/><path d="M213.5,137.83333c0,-14.91169 12.08831,-27 27,-27c14.91169,0 27,12.08831 27,27c0,14.91169 -12.08831,27 -27,27c-14.91169,0 -27,-12.08831 -27,-27z" fill="url(#color-12)" stroke="none" stroke-width="0" stroke-linecap="butt"/><path d="M229.01103,186.0622c3.68701,-0.72981 8.89947,-0.36111 10.70937,-0.36111c2.35309,0 7.89014,-0.5364 12.41233,0.38605c4.15182,0.84691 7.40894,3.15913 7.40894,3.15913c0,0 -12.93456,-1.53022 -19.36807,-1.46876c-6.38879,0.06104 -19.71526,1.46876 -19.71526,1.46876c0,0 3.50247,-2.18444 8.55269,-3.18407z" fill="#808080" stroke="#000000" stroke-width="0" stroke-linecap="round"/></g></g></svg>