<svg version="1.1" xmlns="http://www.w3.org/2000/svg" xmlns:xlink="http://www.w3.org/1999/xlink" width="140.62101" height="242.76359" viewBox="0,0,140.62101,242.76359"><defs><linearGradient x1="297.49373" y1="228.1023" x2="318.04607" y2="225.09499" gradientUnits="userSpaceOnUse" id="color-1"><stop offset="0" stop-color="#000000"/><stop offset="1" stop-color="#808080"/></linearGradient><linearGradient x1="298.1351" y1="220.82" x2="318.68744" y2="217.81269" gradientUnits="userSpaceOnUse" id="color-2"><stop offset="0" stop-color="#000000"/><stop offset="1" stop-color="#808080"/></linearGradient><linearGradient x1="298.7551" y1="213.78045" x2="319.30744" y2="210.77314" gradientUnits="userSpaceOnUse" id="color-3"><stop offset="0" stop-color="#000000"/><stop offset="1" stop-color="#808080"/></linearGradient><linearGradient x1="299.39648" y1="206.49815" x2="319.94881" y2="203.49085" gradientUnits="userSpaceOnUse" id="color-4"><stop offset="0" stop-color="#000000"/><stop offset="1" stop-color="#808080"/></linearGradient><linearGradient x1="343.86096" y1="220.82" x2="321.25009" y2="217.81269" gradientUnits="userSpaceOnUse" id="color-5"><stop offset="0" stop-color="#000000"/><stop offset="1" stop-color="#808080"/></linearGradient><linearGradient x1="343.17886" y1="213.78045" x2="320.56798" y2="210.77314" gradientUnits="userSpaceOnUse" id="color-6"><stop offset="0" stop-color="#000000"/><stop offset="1" stop-color="#808080"/></linearGradient><linearGradient x1="342.47324" y1="206.49815" x2="319.86237" y2="203.49085" gradientUnits="userSpaceOnUse" id="color-7"><stop offset="0" stop-color="#000000"/><stop offset="1" stop-color="#808080"/></linearGradient><linearGradient x1="320.00004" y1="175.50007" x2="320.00004" y2="307.50005" gradientUnits="userSpaceOnUse" id="color-8"><stop offset="0" stop-color="#000000"/><stop offset="1" stop-color="#321a2f"/></linearGradient><linearGradient x1="320.00004" y1="175.50007" x2="320.00004" y2="307.50005" gradientUnits="userSpaceOnUse" id="color-9"><stop offset="0" stop-color="#000000"/><stop offset="1" stop-color="#1e0000"/></linearGradient><linearGradient x1="295.94922" y1="155.5286" x2="295.94922" y2="187.7786" gradientUnits="userSpaceOnUse" id="color-10"><stop offset="0" stop-color="#1b0d19"/><stop offset="1" stop-color="#1c0000"/></linearGradient><linearGradient x1="321.18811" y1="79.67678" x2="321.18811" y2="194.01558" gradientUnits="userSpaceOnUse" id="color-11"><stop offset="0" stop-color="#1a1a1a"/><stop offset="1" stop-color="#808080"/></linearGradient><linearGradient x1="319.33214" y1="173.66323" x2="319.33214" y2="188.82991" gradientUnits="userSpaceOnUse" id="color-12"><stop offset="0" stop-color="#1a1a1a"/><stop offset="1" stop-color="#808080"/></linearGradient><linearGradient x1="348.92811" y1="166.84626" x2="348.92811" y2="173.59089" gradientUnits="userSpaceOnUse" id="color-13"><stop offset="0" stop-color="#4d4d4d"/><stop offset="1" stop-color="#808080"/></linearGradient><linearGradient x1="346.20162" y1="166.1969" x2="346.20162" y2="174.25756" gradientUnits="userSpaceOnUse" id="color-14"><stop offset="0" stop-color="#4d4d4d"/><stop offset="1" stop-color="#808080"/></linearGradient><linearGradient x1="342.1984" y1="165.70994" x2="342.1984" y2="174.75756" gradientUnits="userSpaceOnUse" id="color-15"><stop offset="0" stop-color="#4d4d4d"/><stop offset="1" stop-color="#808080"/></linearGradient><linearGradient x1="336.69305" y1="164.89825" x2="336.69305" y2="175.59089" gradientUnits="userSpaceOnUse" id="color-16"><stop offset="0" stop-color="#4d4d4d"/><stop offset="1" stop-color="#808080"/></linearGradient><linearGradient x1="323.18663" y1="164.09088" x2="323.18663" y2="176.75756" gradientUnits="userSpaceOnUse" id="color-17"><stop offset="0" stop-color="#4d4d4d"/><stop offset="1" stop-color="#808080"/></linearGradient><linearGradient x1="330.29989" y1="164.2489" x2="330.29989" y2="176.25756" gradientUnits="userSpaceOnUse" id="color-18"><stop offset="0" stop-color="#4d4d4d"/><stop offset="1" stop-color="#808080"/></linearGradient><linearGradient x1="289.81588" y1="166.67962" x2="289.81588" y2="173.42422" gradientUnits="userSpaceOnUse" id="color-19"><stop offset="0" stop-color="#4d4d4d"/><stop offset="1" stop-color="#808080"/></linearGradient><linearGradient x1="292.54237" y1="166.03027" x2="292.54237" y2="174.09089" gradientUnits="userSpaceOnUse" id="color-20"><stop offset="0" stop-color="#4d4d4d"/><stop offset="1" stop-color="#808080"/></linearGradient><linearGradient x1="296.54559" y1="165.54325" x2="296.54559" y2="174.59089" gradientUnits="userSpaceOnUse" id="color-21"><stop offset="0" stop-color="#4d4d4d"/><stop offset="1" stop-color="#808080"/></linearGradient><linearGradient x1="302.05095" y1="164.73155" x2="302.05095" y2="175.42422" gradientUnits="userSpaceOnUse" id="color-22"><stop offset="0" stop-color="#4d4d4d"/><stop offset="1" stop-color="#808080"/></linearGradient><linearGradient x1="315.55737" y1="163.92422" x2="315.55737" y2="176.59089" gradientUnits="userSpaceOnUse" id="color-23"><stop offset="0" stop-color="#4d4d4d"/><stop offset="1" stop-color="#808080"/></linearGradient><linearGradient x1="308.44411" y1="164.0822" x2="308.44411" y2="176.09089" gradientUnits="userSpaceOnUse" id="color-24"><stop offset="0" stop-color="#4d4d4d"/><stop offset="1" stop-color="#808080"/></linearGradient><linearGradient x1="346.09891" y1="182.12043" x2="346.09891" y2="176.06589" gradientUnits="userSpaceOnUse" id="color-25"><stop offset="0" stop-color="#4d4d4d"/><stop offset="1" stop-color="#808080"/></linearGradient><linearGradient x1="343.65137" y1="184.16208" x2="343.65137" y2="176.92618" gradientUnits="userSpaceOnUse" id="color-26"><stop offset="0" stop-color="#4d4d4d"/><stop offset="1" stop-color="#808080"/></linearGradient><linearGradient x1="340.05773" y1="185.60917" x2="340.05773" y2="177.48723" gradientUnits="userSpaceOnUse" id="color-27"><stop offset="0" stop-color="#4d4d4d"/><stop offset="1" stop-color="#808080"/></linearGradient><linearGradient x1="335.11565" y1="187.34771" x2="335.11565" y2="177.74905" gradientUnits="userSpaceOnUse" id="color-28"><stop offset="0" stop-color="#4d4d4d"/><stop offset="1" stop-color="#808080"/></linearGradient><linearGradient x1="322.9911" y1="190.09226" x2="322.9911" y2="178.72155" gradientUnits="userSpaceOnUse" id="color-29"><stop offset="0" stop-color="#4d4d4d"/><stop offset="1" stop-color="#808080"/></linearGradient><linearGradient x1="329.37658" y1="189.05273" x2="329.37658" y2="178.27271" gradientUnits="userSpaceOnUse" id="color-30"><stop offset="0" stop-color="#4d4d4d"/><stop offset="1" stop-color="#808080"/></linearGradient><linearGradient x1="292.81175" y1="182.12043" x2="292.81175" y2="176.06589" gradientUnits="userSpaceOnUse" id="color-31"><stop offset="0" stop-color="#4d4d4d"/><stop offset="1" stop-color="#808080"/></linearGradient><linearGradient x1="295.25929" y1="184.16208" x2="295.25929" y2="176.92618" gradientUnits="userSpaceOnUse" id="color-32"><stop offset="0" stop-color="#4d4d4d"/><stop offset="1" stop-color="#808080"/></linearGradient><linearGradient x1="298.85293" y1="185.60917" x2="298.85293" y2="177.48723" gradientUnits="userSpaceOnUse" id="color-33"><stop offset="0" stop-color="#4d4d4d"/><stop offset="1" stop-color="#808080"/></linearGradient><linearGradient x1="303.79502" y1="187.34771" x2="303.79502" y2="177.74905" gradientUnits="userSpaceOnUse" id="color-34"><stop offset="0" stop-color="#4d4d4d"/><stop offset="1" stop-color="#808080"/></linearGradient><linearGradient x1="315.91957" y1="190.09226" x2="315.91957" y2="178.72155" gradientUnits="userSpaceOnUse" id="color-35"><stop offset="0" stop-color="#4d4d4d"/><stop offset="1" stop-color="#808080"/></linearGradient><linearGradient x1="309.53409" y1="189.05273" x2="309.53409" y2="178.27271" gradientUnits="userSpaceOnUse" id="color-36"><stop offset="0" stop-color="#4d4d4d"/><stop offset="1" stop-color="#808080"/></linearGradient><linearGradient x1="373.67695" y1="67.29503" x2="373.67695" y2="135.44616" gradientUnits="userSpaceOnUse" id="color-37"><stop offset="0" stop-color="#000000"/><stop offset="1" stop-color="#2c1629"/></linearGradient><linearGradient x1="379.27147" y1="67.29503" x2="379.27147" y2="112.07422" gradientUnits="userSpaceOnUse" id="color-38"><stop offset="0" stop-color="#000000"/><stop offset="1" stop-color="#210000"/></linearGradient><linearGradient x1="318.98174" y1="76.59547" x2="318.98174" y2="197.19216" gradientUnits="userSpaceOnUse" id="color-39"><stop offset="0" stop-color="#000000"/><stop offset="1" stop-color="#3b2237"/></linearGradient><linearGradient x1="305.44757" y1="76.59547" x2="305.44757" y2="143.62002" gradientUnits="userSpaceOnUse" id="color-40"><stop offset="0" stop-color="#000000"/><stop offset="1" stop-color="#000000" stop-opacity="0"/></linearGradient><radialGradient cx="347.09896" cy="139.33334" r="30.66667" gradientUnits="userSpaceOnUse" id="color-41"><stop offset="0" stop-color="#000000"/><stop offset="1" stop-color="#000000" stop-opacity="0"/></radialGradient><radialGradient cx="347.09896" cy="139.33333" r="30.66667" gradientUnits="userSpaceOnUse" id="color-42"><stop offset="0" stop-color="#000000"/><stop offset="1" stop-color="#000000" stop-opacity="0"/></radialGradient><linearGradient x1="338.13918" y1="64.73648" x2="338.13918" y2="87.4545" gradientUnits="userSpaceOnUse" id="color-43"><stop offset="0" stop-color="#000000"/><stop offset="1" stop-color="#33002b"/></linearGradient><linearGradient x1="320.75694" y1="68.94267" x2="320.75694" y2="84.44269" gradientUnits="userSpaceOnUse" id="color-44"><stop offset="0" stop-color="#000000"/><stop offset="1" stop-color="#1a0016"/></linearGradient><linearGradient x1="292.87082" y1="113.79503" x2="292.87082" y2="160.75633" gradientUnits="userSpaceOnUse" id="color-45"><stop offset="0" stop-color="#464646"/><stop offset="1" stop-color="#808080"/></linearGradient><linearGradient x1="347.12926" y1="113.79497" x2="347.12926" y2="160.75627" gradientUnits="userSpaceOnUse" id="color-46"><stop offset="0" stop-color="#352626"/><stop offset="1" stop-color="#3c1212"/></linearGradient><linearGradient x1="347.12929" y1="113.12082" x2="347.12929" y2="136.9527" gradientUnits="userSpaceOnUse" id="color-47"><stop offset="0" stop-color="#000000"/><stop offset="1" stop-color="#000000"/></linearGradient></defs><g transform="translate(-254.7447,-64.73647)"><g stroke-miterlimit="10"><path d="M309.76563,227v-41h30.33333v41z" fill="#000000" stroke="none" stroke-width="0" stroke-linecap="butt"/><path d="M317.67934,212.51575v-20.60672h4.74451v20.60672z" fill="#1a0000" stroke="none" stroke-width="0" stroke-linecap="butt"/><path d="M310.83597,233.77871c-9.68197,0.6546 -7.73771,-8.29223 -6.37233,-17.50873c1.41607,-9.55868 5.70506,-16.83207 9.86427,-16.83207c4.15921,0 5.86427,7.61171 5.86427,17.00122c0,9.38952 -1.84991,16.83208 -9.35621,17.33958z" fill="#330017" stroke="none" stroke-width="0" stroke-linecap="butt"/><path d="M336.54008,215.98767c1.36538,9.21649 3.30965,18.16332 -6.37233,17.50873c-7.50629,-0.5075 -9.02287,-7.95003 -9.02287,-17.33957c0,-9.38952 1.87172,-17.00122 6.03094,-17.00122c4.15922,0 7.94819,7.27336 9.36426,16.83206z" fill="#330017" stroke="none" stroke-width="0" stroke-linecap="butt"/><g stroke="none" stroke-width="0" stroke-linecap="butt"><path d="M297.39399,225.92915c0,0 7.36891,-2.48125 10.88977,-2.99644c3.31787,-0.48548 9.66257,-0.01085 9.66257,-0.01085l0.19949,4.34624c0,0 -6.38157,-0.92061 -9.70087,-0.43492c-3.51972,0.51502 -10.85147,3.44222 -10.85147,3.44222l-0.19949,-4.34624z" fill="url(#color-1)"/><path d="M298.03537,218.64687c0,0 7.36891,-2.48126 10.88977,-2.99644c3.31787,-0.48549 9.66257,-0.01085 9.66257,-0.01085l0.19948,4.34624c0,0 -6.38157,-0.9206 -9.70087,-0.43491c-3.51972,0.51503 -10.85147,3.44222 -10.85147,3.44222l-0.19949,-4.34624z" fill="url(#color-2)"/><path d="M298.65538,211.60731c0,0 7.36891,-2.48125 10.88977,-2.99644c3.31787,-0.48548 9.66257,-0.01084 9.66257,-0.01084l0.19948,4.34624c0,0 -6.38157,-0.92061 -9.70087,-0.43492c-3.51972,0.51503 -10.85147,3.44222 -10.85147,3.44222l-0.19949,-4.34624z" fill="url(#color-3)"/><path d="M299.29675,204.32502c0,0 7.36891,-2.48126 10.88977,-2.99645c3.31787,-0.48549 9.66257,-0.01085 9.66257,-0.01085l0.19948,4.34624c0,0 -6.38157,-0.9206 -9.70087,-0.43491c-3.51972,0.51503 -10.85147,3.44222 -10.85147,3.44222l-0.19949,-4.34624z" fill="url(#color-4)"/></g><g stroke="none" stroke-width="0" stroke-linecap="butt"><path d="M343.97069,218.64688l-0.21947,4.34624c0,0 -8.06609,-2.92719 -11.93836,-3.44222c-3.65177,-0.48569 -10.67252,0.43491 -10.67252,0.43491l0.21946,-4.34624c0,0 6.9802,-0.47464 10.63038,0.01085c3.87351,0.51519 11.98049,2.99644 11.98049,2.99644z" fill="url(#color-5)"/><path d="M343.28859,211.60733l-0.21947,4.34624c0,0 -8.0661,-2.92719 -11.93836,-3.44222c-3.65177,-0.48569 -10.67252,0.43492 -10.67252,0.43492l0.21946,-4.34624c0,0 6.9802,-0.47464 10.63038,0.01084c3.87351,0.51519 11.98049,2.99644 11.98049,2.99644z" fill="url(#color-6)"/><path d="M342.58297,204.32503l-0.21947,4.34624c0,0 -8.06609,-2.92719 -11.93836,-3.44222c-3.65177,-0.48569 -10.67251,0.43491 -10.67251,0.43491l0.21946,-4.34624c0,0 6.9802,-0.47464 10.63038,0.01085c3.87351,0.51519 11.98049,2.99645 11.98049,2.99645z" fill="url(#color-7)"/></g><path d="M314.63437,217.57943c0,-4.37992 1.46921,-8.00701 6.46501,-7.93055c5.60666,0.08582 6.71367,4.07933 6.71367,8.45925c0,4.37992 0.39002,9.25231 -3.6055,10.70624c-3.89783,1.4184 -9.57319,-6.85503 -9.57319,-11.23494z" fill="#330000" stroke="none" stroke-width="0" stroke-linecap="butt"/><path d="M286.75005,307.50005c0,0 1.23289,-10.73422 2.74103,-23.86492c0.25152,-2.18991 1.17737,-4.44647 1.43976,-6.73101c0.6657,-5.79597 0.68542,-11.77203 1.31995,-17.29659c0.42368,-3.68875 0.82423,-7.17621 1.18007,-10.27437c0.46847,-4.07878 3.03519,-9.01293 3.65087,-14.37343c0.57926,-5.04337 -0.79813,-10.46415 -0.17321,-15.90504c2.47408,-21.54074 4.98437,-43.39675 4.98437,-43.39675c0,0 19.72468,37.9329 26.53617,37.90443c0.99996,-0.00418 3.07036,-3.08952 4.85947,-0.55848c1.7194,2.43242 3.179,6.48507 3.179,6.48507c0,0 1.57474,5.72284 1.79175,2.47717c0.53154,-7.94982 1.41687,-46.46608 1.41687,-46.46608c0,0 2.37627,22.77481 3.99433,38.50972c0.53796,5.23144 0.28646,12.19231 1.13031,20.42248c0.76818,7.49217 2.61537,16.09331 3.45468,24.28667c0.46353,4.52505 0.92466,9.02739 1.36874,13.36383c0.38303,3.74026 -0.24663,7.02377 0.10164,10.4253c0.38196,3.73061 1.73738,7.53557 2.05384,10.627c0.88875,8.68176 1.47035,14.36501 1.47035,14.36501z" fill="url(#color-8)" stroke="none" stroke-width="0" stroke-linecap="butt"/><path d="M297.08173,234.95973c0.57926,-5.04337 -0.79813,-10.46415 -0.17321,-15.90504c2.47408,-21.54074 4.98437,-43.39675 4.98437,-43.39675c0,0 19.72468,37.9329 26.53617,37.90443c0.99996,-0.00418 3.07036,-3.08952 4.85947,-0.55848c1.7194,2.43242 3.179,6.48507 3.179,6.48507c0,0 1.57474,5.72284 1.79175,2.47717c0.53154,-7.94982 1.41687,-46.46608 1.41687,-46.46608c0,0 2.37627,22.77481 3.99433,38.50972c0.52763,5.13102 0.29582,11.92572 1.08291,19.94995c-1.02116,0.11981 -1.81408,9.6005 -2.51841,9.81592c-0.33877,0.10361 -0.65705,-12.09047 -0.97037,-14.01593c-0.39811,-2.4465 -0.78821,5.23345 -1.20219,5.25278c-0.60501,0.02824 -1.63117,-10.84578 -1.85777,-7.48681c-0.22823,3.38318 -0.40617,20.49547 -0.81918,19.38795c-0.8063,-2.16217 -2.54883,-21.07259 -3.47053,-22.08937c-0.29599,-0.32652 -1.34152,10.45656 -1.63861,9.81333c-0.82976,-1.7965 -1.17169,12.39699 -2.06995,8.70183c-0.46563,-1.91548 -0.31548,-18.08026 -0.93946,-23.88699c-0.36332,-3.38101 -0.96583,4.18961 -1.52939,4.70229c-0.45186,0.41107 -0.87868,-6.48294 -1.13707,-6.47564c-0.48436,0.01368 -0.86206,5.88773 -1.80423,6.61038c-0.5602,0.42968 -1.98256,-7.20642 -2.0488,-9.79389c-0.08881,-3.46933 -1.48684,6.74988 -1.87314,6.75444c-0.67402,0.00796 -1.41798,12.55123 -2.1988,11.46733c-0.64908,-0.90102 -2.32363,-25.94131 -3.00464,-28.47446c-0.82383,-3.06435 -2.4811,8.94855 -3.08588,10.28588c-0.83673,1.85021 -0.32298,12.75699 -1.26084,12.75448c-0.42381,-0.00113 -1.44131,-23.44825 -2.23747,-18.37436c-0.62265,3.96809 -1.26282,17.79613 -1.76984,18.83753c-0.8272,1.69905 -0.52822,-18.78022 -1.14182,-20.79908c-0.73087,-2.40468 -2.33771,13.32041 -2.88604,12.28954c-1.58707,-2.98378 -0.63551,-22.96949 -2.32704,-19.28846c-1.16548,2.53625 -2.62038,35.22869 -3.90491,35.21802c0.00856,-0.06883 0.0168,-0.13772 0.02472,-0.20669z" fill="url(#color-9)" stroke="none" stroke-width="0" stroke-linecap="butt"/><path d="M346.57422,176.6536c0,8.90559 -24.98742,18.375 -41.625,18.375c-1.96274,0 0.05867,5.64982 0.05867,5.64982c0,0 -2.88391,-5.5301 -3.75591,-6.02167c-2.32356,-1.30984 -7.98844,-5.31114 -12.37423,-5.71275c-3.22799,-0.29559 -5.76308,2.84825 -5.76308,2.84825c0,0 2.18394,-5.30896 1.49385,-6.62729c-0.97346,-1.85966 -5.56316,-7.52653 -9.08399,-9.01918c-1.96456,-0.83287 -3.94065,1.87202 -3.94065,1.87202c0,0 0.47335,-1.8769 0.2899,-3.3395c-0.1145,-0.91283 -0.63746,-1.51166 -1.22207,-1.86104c-0.86259,-0.5155 -0.30876,-5.12976 -6.57806,-1.53772c-1.56826,0.89855 -1.62824,-0.96049 -2.04068,-2.38388c-0.34459,-1.18922 -3.66169,-2.42336 -3.66169,-2.42336c0,0 6.20294,1.69128 6.20294,0.43129c0,-8.90559 14.73742,-11.375 31.375,-11.375c16.63758,0 50.625,12.21941 50.625,21.125z" fill="url(#color-10)" stroke="none" stroke-width="0" stroke-linecap="butt"/><path d="M292.65937,182.4l-4.8,-15.4l47,3.2l5.8,11.4z" fill="#000000" stroke="none" stroke-width="0" stroke-linecap="butt"/><path d="M260.28442,136.84617c0,-31.57378 26.2999,-57.16938 59.93607,-57.16938c33.63617,0 58.62131,20.09561 58.62131,51.66938c0,31.57378 -13.54511,37.0243 -51.84795,37.35763c-49.3021,0.42905 -66.70943,-0.28386 -66.70943,-31.85763z" fill="url(#color-11)" stroke="#000000" stroke-width="0" stroke-linecap="butt"/><path d="M352.58213,181.24657c0,4.18816 -14.88653,14.41667 -33.25,14.41667c-18.36347,0 -33.25,-10.22851 -33.25,-14.41667c0,-4.18816 15.5532,2.58333 33.91667,2.58333c18.36347,0 32.58333,-6.77149 32.58333,-2.58333z" fill="url(#color-12)" stroke="none" stroke-width="0" stroke-linecap="butt"/><g stroke="none" stroke-width="0" stroke-linecap="butt"><g><path d="M346.79826,173.59089c0,0 -0.58522,-6.83333 2.21862,-6.83333c2.80383,0 2.04112,6.83333 2.04112,6.83333z" fill="url(#color-13)"/><path d="M343.65616,174.25756c0,0 -0.69941,-8.16667 2.65152,-8.16667c3.35092,0 2.43939,8.16667 2.43939,8.16667z" fill="url(#color-14)"/><path d="M339.34125,174.75756c0,0 -0.78505,-9.16667 2.97619,-9.16667c3.76124,0 2.73809,9.16667 2.73809,9.16667z" fill="url(#color-15)"/><path d="M333.31644,175.59089c0,0 -0.92778,-10.83333 3.51732,-10.83333c4.4451,0 3.23593,10.83333 3.23593,10.83333z" fill="url(#color-16)"/><path d="M319.18663,176.75756c0,0 -1.09907,-12.83333 4.16667,-12.83333c5.26574,0 3.83333,12.83333 3.83333,12.83333z" fill="url(#color-17)"/><path d="M326.50768,176.25756c0,0 -1.04197,-12.16667 3.95022,-12.16667c4.99219,0 3.6342,12.16667 3.6342,12.16667z" fill="url(#color-18)"/></g><g><path d="M287.68599,173.42422c0,0 -0.76271,-6.83333 2.04112,-6.83333c2.80384,0 2.21862,6.83333 2.21862,6.83333z" fill="url(#color-19)"/><path d="M289.99692,174.09089c0,0 -0.91153,-8.16667 2.43939,-8.16667c3.35093,0 2.65152,8.16667 2.65152,8.16667z" fill="url(#color-20)"/><path d="M293.68846,174.59089c0,0 -1.02315,-9.16667 2.73809,-9.16667c3.76124,0 2.97619,9.16667 2.97619,9.16667z" fill="url(#color-21)"/><path d="M298.67431,175.42422c0,0 -1.20917,-10.83333 3.23593,-10.83333c4.4451,0 3.51732,10.83333 3.51732,10.83333z" fill="url(#color-22)"/><path d="M311.55737,176.59089c0,0 -1.43241,-12.83333 3.83333,-12.83333c5.26574,0 4.16667,12.83333 4.16667,12.83333z" fill="url(#color-23)"/><path d="M304.6519,176.09089c0,0 -1.35799,-12.16667 3.6342,-12.16667c4.99219,0 3.95022,12.16667 3.95022,12.16667z" fill="url(#color-24)"/></g></g><g stroke="none" stroke-width="0" stroke-linecap="butt"><g><path d="M348.01088,176.06589c0,0 0.68468,6.1342 -1.83229,6.1342c-2.51697,0 -1.99162,-6.1342 -1.99162,-6.1342z" fill="url(#color-25)"/><path d="M345.9364,176.92618c0,0 0.81827,7.33112 -2.18981,7.33112c-3.00808,0 -2.38024,-7.33112 -2.38024,-7.33112z" fill="url(#color-26)"/><path d="M342.62255,177.48723c0,0 0.91846,8.22881 -2.45795,8.22881c-3.37642,0 -2.67169,-8.22881 -2.67169,-8.22881z" fill="url(#color-27)"/><path d="M338.1468,177.74905c0,0 1.08546,9.72495 -2.90485,9.72495c-3.99031,0 -3.15746,-9.72495 -3.15746,-9.72495z" fill="url(#color-28)"/><path d="M326.58185,178.72155c0,0 1.28585,11.52033 -3.44114,11.52033c-4.72699,0 -3.74036,-11.52033 -3.74036,-11.52033z" fill="url(#color-29)"/><path d="M332.78079,178.27271c0,0 1.21906,10.92187 -3.26237,10.92187c-4.48143,0 -3.54606,-10.92187 -3.54606,-10.92187z" fill="url(#color-30)"/></g><g><path d="M294.72369,176.06589c0,0 0.52535,6.1342 -1.99162,6.1342c-2.51697,0 -1.83229,-6.1342 -1.83229,-6.1342z" fill="url(#color-31)"/><path d="M297.54431,176.92618c0,0 0.62784,7.33112 -2.38024,7.33112c-3.00808,0 -2.18981,-7.33112 -2.18981,-7.33112z" fill="url(#color-32)"/><path d="M301.41775,177.48723c0,0 0.70473,8.22881 -2.67169,8.22881c-3.37641,0 -2.45795,-8.22881 -2.45795,-8.22881z" fill="url(#color-33)"/><path d="M306.82617,177.74905c0,0 0.83285,9.72495 -3.15746,9.72495c-3.99031,0 -2.90485,-9.72495 -2.90485,-9.72495z" fill="url(#color-34)"/><path d="M319.51032,178.72155c0,0 0.98663,11.52033 -3.74036,11.52033c-4.72699,0 -3.44114,-11.52033 -3.44114,-11.52033z" fill="url(#color-35)"/><path d="M312.93831,178.27271c0,0 0.93537,10.92187 -3.54606,10.92187c-4.48143,0 -3.26237,-10.92187 -3.26237,-10.92187z" fill="url(#color-36)"/></g></g><path d="M270.39021,137.27567c0,-12.968 10.51265,-23.48065 23.48065,-23.48065c12.968,0 23.48065,10.51265 23.48065,23.48065c0,12.968 -10.51265,23.48065 -23.48065,23.48065c-12.968,0 -23.48065,-10.51265 -23.48065,-23.48065z" fill="#000000" stroke="#000000" stroke-width="0" stroke-linecap="butt"/><path d="M348.12926,160.75627c-12.968,0 -23.48065,-10.51265 -23.48065,-23.48065c0,-12.968 10.51265,-23.48065 23.48065,-23.48065c12.968,0 23.48065,10.51265 23.48065,23.48065c0,12.968 -10.51265,23.48065 -23.48065,23.48065z" fill="#000000" stroke="#000000" stroke-width="0.5" stroke-linecap="butt"/><path d="M351.98819,91.96043c0,0 7.6933,-11.55074 18.43566,-23.46762c5.94368,-6.59353 1.31077,16.18445 1.31077,16.18445l-0.51713,9.45433c0,0 6.77549,-5.97143 6.80089,-4.13165c0.0211,1.52886 5.02982,-0.49321 5.02982,-0.49321l2.81368,10.55172c0,0 12.28602,1.31378 8.91992,4.76681c-16.53165,16.95855 -33.6411,30.6209 -33.6411,30.6209" fill="url(#color-37)" stroke="none" stroke-width="0" stroke-linecap="round"/><path d="M363.17722,76.98227c2.18939,-2.69997 4.62738,-5.58382 7.24663,-8.48945c5.94368,-6.59353 1.31077,16.18445 1.31077,16.18445l-0.51713,9.45433c0,0 6.77549,-5.97143 6.80089,-4.13165c0.0211,1.52886 5.02982,-0.49321 5.02982,-0.49321l2.81368,10.55172c0,0 12.28602,1.31378 8.91992,4.76681c-2.43604,2.49895 -4.88464,4.92632 -7.28917,7.24896c0,0 -4.85199,-5.56994 -6.44337,-2.65519c-0.68535,1.25527 -0.35238,-6.77442 -1.35273,-6.81759c-1.14593,-0.04945 -2.24168,12.22088 -3.14239,11.26439c-1.00282,-1.06492 0.7034,-8.67626 0.26211,-11.63932c-0.32458,-2.17939 -2.72896,-0.00807 -3.55396,-0.21484c-0.41689,-0.10449 -0.20072,-4.91325 -1.75214,-3.28625c-0.27884,0.29242 -0.94933,0.82232 -1.42676,1.44378c-1.41089,1.83654 -1.31905,7.22276 -1.53831,6.89322c-0.97384,-1.46368 -0.63282,-6.76202 -0.12965,-10.06709c0.60771,-3.99171 -0.29806,-8.62858 -1.24803,-7.80947c-1.64825,1.42121 -7.65871,16.04008 -8.47365,14.86395c-1.09705,-1.58326 6.45333,-15.64485 5.08174,-17.25751c-1.26631,-1.48888 -6.84864,9.55253 -6.55015,6.28003c0.41584,-4.559 5.95189,-16.09007 5.95189,-16.09007z" fill="url(#color-38)" stroke="#000000" stroke-width="0" stroke-linecap="round"/><path d="M254.74472,136.8938c0,-22.02349 12.57833,-41.28928 31.35943,-51.81276c1.69475,-0.94961 6.2311,10.70247 6.2311,10.70247c0,0 1.46691,-14.3943 2.73091,-14.87055c7.39182,-2.78505 15.46305,-4.31749 23.91557,-4.31749c35.47712,0 64.23702,26.99649 64.23702,60.29833c0,11.91188 -3.67969,23.01702 -10.03029,32.36849c-0.97358,1.43363 -3.59884,2.58534 -4.94708,4.35436c-1.31864,1.7302 -2.539,5.30948 -2.539,5.30948c0,0 -4.58148,-1.34701 -5.82883,0.49202c-0.79816,1.17676 -0.35324,4.27342 -1.52792,5.12965c-10.87329,7.92554 -24.53153,12.64434 -39.36391,12.64434c-4.27648,0 -8.45535,-0.39227 -12.49802,-1.14056c-0.74284,-0.1375 -0.54782,3.885 -0.54782,3.885c0,0 -3.04895,-3.64152 -1.69278,-7.14781c2.92536,-7.56331 32.37488,-15.03945 32.37488,-15.03945c0,0 -7.19682,-0.47905 -9.97848,-1.02205c-0.49812,-0.09724 3.78625,-2.3254 3.78625,-2.3254c0,0 -23.42708,-2.41665 -24.16818,-0.95598c-2.50762,4.94241 -7.73898,4.33831 -7.73898,4.33831c0,0 -2.89526,2.41093 -4.09922,2.46689c-0.91967,0.04275 1.86065,-6.93018 1.0235,-6.92236c-1.05404,0.00985 -9.61168,6.80019 -8.63386,5.63138c2.2304,-2.66607 3.1228,-6.24605 1.32337,-6.07653c-2.47116,0.2328 -8.5424,4.87915 -9.7535,4.47735c-2.52054,-0.83622 9.09132,-9.39972 7.43811,-10.74014c-4.29298,-3.48074 -19.54462,-0.37158 -19.54462,-0.37158c0,0 -1.74445,2.66886 -2.40293,1.6394c-5.79351,-9.05748 -9.12474,-19.66097 -9.12474,-30.9948z" fill="url(#color-39)" stroke="none" stroke-width="0" stroke-linecap="butt"/><path d="M254.74472,136.8938c0,-22.02349 12.57833,-41.28928 31.35943,-51.81276c1.69475,-0.94961 6.2311,10.70247 6.2311,10.70247c0,0 1.46691,-14.3943 2.73091,-14.87055c7.39182,-2.78505 15.46305,-4.31749 23.91557,-4.31749c13.85064,0 26.67743,4.11481 37.16871,11.11318c-2.26595,1.26682 -4.45705,2.53636 -6.48491,3.4944c-4.25422,2.00985 -11.33084,-3.32383 -16.02526,1.06568c-1.78726,1.67117 -0.51912,5.72731 -2.12911,6.48926c-1.19065,0.56349 -2.03676,1.15804 -3.20072,1.7964c-0.29908,0.16403 -1.88525,-12.08315 -3.04701,-6.77868c-1.50972,6.89324 -1.76189,10.48846 -3.25996,7.79626c-0.7932,-1.42547 -1.22463,13.15452 -1.89137,9.96786c-1.01174,-4.83562 -2.13108,-27.56814 -2.44812,-27.40901c-4.5138,2.26541 -4.59092,7.87627 -7.13075,15.35011c-0.53674,1.57945 -2.56261,-5.86745 -3.36292,-9.08233c-0.73594,-2.95631 -0.89635,20.66837 -1.77723,21.11122c-0.39964,0.20091 -1.16632,10.77569 -2.27728,7.25679c-1.17218,-3.71281 -2.68987,-21.52991 -3.07661,-21.30213c-1.62072,0.95456 -2.83014,4.52605 -3.53563,9.78906c-0.54331,4.05312 -0.51648,10.05893 -1.8195,10.79666c-0.33918,0.19203 -0.48577,10.87414 -1.58972,5.61746c-0.77438,-3.68738 -2.52778,-23.68328 -2.9668,-24.27121c-2.75954,-3.6956 -4.52848,5.66022 -6.0499,6.50129c-0.73149,0.40438 -1.38123,22.8941 -2.31673,29.3869c-0.81425,5.65126 -1.9258,-4.61434 -2.47074,-3.9136c-0.81702,1.0506 -5.57569,-23.87847 -6.29649,-23.37674c-2.37802,1.65526 -2.80279,23.65424 -3.72064,29.98262c-0.45284,3.12226 -1.02571,-18.27293 -2.0124,-20.57011c-0.61568,-1.43342 -1.3925,15.96777 -2.40182,16.39654c-0.39111,0.16615 -2.21291,12.5943 -2.37803,9.24356c-0.22259,-4.51713 0.20337,-25.17735 -0.65803,-24.88089c-1.61506,0.55585 -5.14751,18.18148 -7.07788,18.86961c-0.00012,-0.04725 -0.00017,-0.09452 -0.00017,-0.1418z" fill="url(#color-40)" stroke="none" stroke-width="0" stroke-linecap="butt"/><path d="M269.33899,135.97573l-3.6,-2.6l4.87039,0.52629z" fill="#000000" stroke="#000000" stroke-width="2" stroke-linecap="round"/><path d="M369.06737,133.74767l4.87039,-0.52629l-3.6,2.6z" fill="#000000" stroke="#000000" stroke-width="2" stroke-linecap="round"/><path d="M316.43229,139.33334c0,-16.93673 13.72994,-30.66667 30.66667,-30.66667c16.93673,0 30.66667,13.72994 30.66667,30.66667c0,16.93673 -13.72994,30.66666 -30.66667,30.66666c-16.93673,0 -30.66667,-13.72993 -30.66667,-30.66666z" fill="url(#color-41)" stroke="none" stroke-width="0" stroke-linecap="butt"/><path d="M316.43229,139.33333c0,-16.93673 13.72993,-30.66667 30.66667,-30.66667c16.93673,0 30.66667,13.72993 30.66667,30.66667c0,16.93673 -13.72993,30.66667 -30.66667,30.66667c-16.93673,0 -30.66667,-13.72993 -30.66667,-30.66667z" fill="url(#color-42)" stroke="none" stroke-width="0" stroke-linecap="butt"/><path d="M316.43229,142.66667c0,12.33436 -10.52131,22.33333 -23.5,22.33333c-12.97869,0 -23.5,-9.99897 -23.5,-22.33333c0,-12.33436 10.52131,-22.33333 23.5,-22.33333c12.97869,0 23.5,9.99897 23.5,22.33333z" fill="#000000" stroke="none" stroke-width="0" stroke-linecap="butt"/><g stroke="#000000" stroke-width="0" stroke-linecap="butt"><path d="M326.02144,80.71658l-0.16667,-7.55329c0,0 22.49115,-14.27632 24.16666,-5.66496c0.42625,2.19073 -8.29408,5.20054 -8.29408,5.20054l-0.32984,5.03407l5.14112,-1.36894l-0.55647,4.17014c0,0 4.9045,1.85389 3.53927,4.90322c-2.90053,6.47853 -23.5,-4.72079 -23.5,-4.72079z" fill="url(#color-43)"/><path d="M316.67361,77.02599c0,-1.0279 0.53345,-2.34239 0.89684,-3.23998c1.14979,-2.84 -0.06581,-4.84336 3.18649,-4.84336c4.2802,0 7.75,3.4698 7.75,7.75c0,4.2802 -3.4698,7.75 -7.75,7.75c-3.10035,0 -0.44216,-2.15386 -1.68141,-4.78421c-0.4716,-1.00099 -2.40192,-1.4526 -2.40192,-2.63246z" fill="url(#color-44)"/></g><path d="M269.39017,137.27568c0,-12.968 10.51265,-23.48065 23.48065,-23.48065c12.968,0 23.48065,10.51265 23.48065,23.48065c0,12.968 -10.51265,23.48065 -23.48065,23.48065c-12.968,0 -23.48065,-10.51265 -23.48065,-23.48065z" fill="url(#color-45)" stroke="#000000" stroke-width="0" stroke-linecap="butt"/><path d="M290.45556,137.16667c0,-1.30404 1.05713,-2.36117 2.36117,-2.36117c1.30404,0 2.36117,1.05713 2.36117,2.36117c0,1.30404 -1.05713,2.36117 -2.36117,2.36117c-1.30404,0 -2.36117,-1.05713 -2.36117,-2.36117z" fill="#000000" stroke="none" stroke-width="0" stroke-linecap="butt"/><path d="M347.12926,160.75627c-12.968,0 -23.48065,-10.51265 -23.48065,-23.48065c0,-12.968 10.51265,-23.48065 23.48065,-23.48065c12.968,0 23.48065,10.51265 23.48065,23.48065c0,12.968 -10.51265,23.48065 -23.48065,23.48065z" fill="url(#color-46)" stroke="#000000" stroke-width="0" stroke-linecap="butt"/><path d="M347.0167,153.52785c-9.12807,0 -16.52783,-7.39977 -16.52783,-16.52784c0,-9.12808 7.39977,-16.52784 16.52783,-16.52784c9.12807,0 16.52783,7.39977 16.52783,16.52784c0,9.12808 -7.39977,16.52784 -16.52783,16.52784z" fill="#1b1b1b" stroke="none" stroke-width="0" stroke-linecap="butt"/><path d="M296.63007,104.08367c0,0 -6.42594,5.51708 -11.44385,6.97906c-5.01792,1.46198 -12.35386,-0.04554 -12.35386,-0.04554c0,0 8.03004,-0.36527 11.90521,-1.49431c4.0497,-1.1799 11.89249,-5.43921 11.89249,-5.43921z" fill="#000000" stroke="none" stroke-width="0" stroke-linecap="butt"/><path d="M357.99028,110.86436c3.72881,1.54522 11.67102,2.78467 11.67102,2.78467c0,0 -7.45664,0.6979 -12.28504,-1.30298c-4.82838,-2.00088 -10.61383,-8.1863 -10.61383,-8.1863c0,0 7.3311,5.0898 11.22784,6.70461z" fill="#000000" stroke="none" stroke-width="0" stroke-linecap="butt"/><path d="M323.3153,136.93454c0,-13.15196 10.66188,-23.81373 23.81398,-23.81373c13.1521,0 23.814,10.66176 23.814,23.81373c0,0.61466 -7.65119,7.7449 -22.91708,7.34266c-15.26589,-0.40225 -24.7109,-7.34266 -24.7109,-7.34266z" fill="url(#color-47)" stroke="#000000" stroke-width="0" stroke-linecap="butt"/></g></g></svg>