<svg version="1.1" xmlns="http://www.w3.org/2000/svg" xmlns:xlink="http://www.w3.org/1999/xlink" width="150.51887" height="267.16459" viewBox="0,0,150.51887,267.16459"><defs><linearGradient x1="321.17593" y1="203.69326" x2="321.17593" y2="245.08562" gradientUnits="userSpaceOnUse" id="color-1"><stop offset="0" stop-color="#333333"/><stop offset="1" stop-color="#595959"/></linearGradient><linearGradient x1="347.12928" y1="115.17419" x2="347.12928" y2="162.13548" gradientUnits="userSpaceOnUse" id="color-2"><stop offset="0" stop-color="#854242"/><stop offset="1" stop-color="#440000"/></linearGradient><linearGradient x1="348.80266" y1="107.33334" x2="348.80266" y2="172.66667" gradientUnits="userSpaceOnUse" id="color-3"><stop offset="0" stop-color="#1b0000"/><stop offset="1" stop-color="#560000"/></linearGradient><linearGradient x1="319.99473" y1="84.85431" x2="319.91189" y2="101.75649" gradientUnits="userSpaceOnUse" id="color-4"><stop offset="0" stop-color="#000000"/><stop offset="1" stop-color="#383838"/></linearGradient></defs><g transform="translate(-244.26996,-40.71468)"><g stroke-miterlimit="10"><path d="M286.75016,307.87926l15.14285,-131.8421l37.78325,-0.15789l13.57389,132z" fill="#000000" stroke="#000000" stroke-width="0" stroke-linecap="butt"/><path d="M323.39858,203.69326l6.44025,29.70979l-8.6629,11.68257l-8.6629,-11.68257l6.2328,-29.68503z" fill="url(#color-1)" stroke="#000000" stroke-width="0" stroke-linecap="butt"/><path d="M318.74582,204.22434l-6.2328,-6.71881l8.41989,-8.4199l8.41989,8.4199l-5.95423,6.68773z" fill="#363636" stroke="#000000" stroke-width="0" stroke-linecap="butt"/><path d="M255.84007,138.22538c0,-33.30185 28.7599,-60.29833 64.23702,-60.29833c35.47712,0 64.23702,26.99649 64.23702,60.29833c0,33.30185 -28.7599,60.29833 -64.23702,60.29833c-35.47712,0 -64.23702,-26.99649 -64.23702,-60.29833z" fill="#000000" stroke="#000000" stroke-width="0" stroke-linecap="butt"/><path d="M269.39018,138.65489c0,-12.968 10.51265,-23.48065 23.48065,-23.48065c12.968,0 23.48065,10.51265 23.48065,23.48065c0,12.968 -10.51265,23.48065 -23.48065,23.48065c-12.968,0 -23.48065,-10.51265 -23.48065,-23.48065z" fill="#808080" stroke="#000000" stroke-width="0" stroke-linecap="butt"/><path d="M284.78889,138.54588c0,-4.43366 3.59418,-8.02784 8.02784,-8.02784c4.43366,0 8.02784,3.59419 8.02784,8.02784c0,4.43366 -3.59419,8.02784 -8.02784,8.02784c-4.43366,0 -8.02784,-3.59419 -8.02784,-8.02784z" fill="#000000" stroke="none" stroke-width="0" stroke-linecap="butt"/><path d="M347.12928,162.13548c-12.968,0 -23.48065,-10.51265 -23.48065,-23.48065c0,-12.968 10.51265,-23.48065 23.48065,-23.48065c12.968,0 23.48065,10.51265 23.48065,23.48065c0,12.968 -10.51265,23.48065 -23.48065,23.48065z" fill="url(#color-2)" stroke="#000000" stroke-width="0" stroke-linecap="butt"/><path d="M354.09897,140c0,9.45626 -1.31178,18.98141 -3.33569,25.90533c-1.83744,6.286 -10.92356,17.42801 -10.92356,17.42801c0,0 6.63,-11.51132 5.92188,-18.26284c-0.71776,-6.84355 -2.25522,-15.98879 -2.25522,-25.07049c0,-18.0413 -4.07407,-32.66667 -4.07407,-32.66667c0,0 14.66667,14.62537 14.66667,32.66668z" fill="url(#color-3)" stroke="none" stroke-width="0" stroke-linecap="butt"/><path d="M347.01671,154.90706c-9.12807,0 -16.52783,-7.39977 -16.52783,-16.52784c0,-9.12808 7.39977,-16.52784 16.52783,-16.52784c9.12807,0 16.52783,7.39977 16.52783,16.52784c0,9.12808 -7.39977,16.52784 -16.52783,16.52784z" fill="#000000" stroke="none" stroke-width="0" stroke-linecap="butt"/><path d="M394.78872,96.52979c-0.03382,6.90257 -7.59598,13.15037 -19.95274,17.79814c-0.65165,0.24511 -10.2085,1.24187 -18.35785,-0.82632c-6.21698,-1.57778 -11.61482,-6.3327 -11.61482,-6.3327c0,0 -5.68659,6.18464 -9.96173,5.86452c-5.02587,-0.37633 -10.56012,-4.28269 -15.75037,-4.29091c-26.26852,-0.04157 -52.26353,6.10376 -53.90602,5.496c-13.02013,-4.81769 -21.01003,-11.32259 -20.97512,-18.44628c0.07154,-14.60011 33.82428,-26.27073 75.38886,-26.06706c41.56457,0.20367 75.20132,12.20451 75.12978,26.80462z" fill="#000000" stroke="none" stroke-width="NaN" stroke-linecap="butt"/><path d="M368.19667,50.78521c-0.0003,0.06242 0.27326,40.61502 -1.37833,41.71674c-0.56465,0.37666 -14.88904,9.83477 -46.77325,9.1921c-37.86639,-0.76324 -44.47933,-9.97402 -48.06639,-10.40121c-0.58139,-10.41738 0.6809,-40.93413 0.6811,-40.97577c0.02661,-5.43096 21.43483,-9.72883 47.81661,-9.59955c26.38178,0.12927 47.74686,4.63674 47.72025,10.06769z" fill="#000000" stroke="none" stroke-width="0" stroke-linecap="butt"/><path d="M367.93167,86.03635c-0.20503,3.7076 -0.49063,6.24722 -0.88724,6.51179c-0.56465,0.37665 -14.88904,9.83476 -46.77325,9.19211c-37.86639,-0.76324 -44.47933,-9.97402 -48.0664,-10.40121c-0.09773,-1.75101 -0.14336,-4.06987 -0.15165,-6.71642c-0.00065,-0.20559 23.78536,9.59071 48.02173,9.9209c23.70608,0.32297 47.87445,-8.82583 47.85683,-8.50717z" fill="url(#color-4)" stroke="none" stroke-width="0" stroke-linecap="butt"/><path d="M311.21805,112.40039c0,0 -8.45525,0.48956 -13.33168,-1.39119c-4.87644,-1.88076 -9.79504,-7.52841 -9.79504,-7.52841c0,0 6.60628,4.57953 10.3722,6.03197c3.93553,1.51787 12.75453,2.88763 12.75453,2.88763z" fill="#808080" stroke="none" stroke-width="0" stroke-linecap="butt"/><path d="M332.85747,100.4776c0,0 8.02589,-2.70478 13.22587,-2.17838c5.19999,0.5264 11.43528,4.67485 11.43528,4.67485c0,0 -7.58103,-2.67261 -11.59681,-3.07913c-4.19664,-0.42482 -13.06434,0.58266 -13.06434,0.58266z" fill="#808080" stroke="none" stroke-width="0" stroke-linecap="butt"/><path d="M347.11088,162.13548c-9.00897,0 -16.88768,-4.61575 -21.17847,-11.50309c-2.1847,-3.50676 45.06825,-4.10859 43.17163,-0.78039c-4.16958,7.31683 -12.64801,12.28348 -21.99316,12.28348z" fill="#000000" stroke="#000000" stroke-width="0" stroke-linecap="butt"/><path d="M369.10404,127.26983c1.89661,3.3282 -45.35632,2.72637 -43.17163,-0.78038c4.29078,-6.88735 12.1695,-11.5031 21.17847,-11.5031c9.34515,0 17.82358,4.96665 21.99316,12.28348z" fill="#000000" stroke="#000000" stroke-width="0" stroke-linecap="butt"/><g stroke="#808080" stroke-width="2" stroke-linecap="round"><path d="M324.16309,179.57567c-6.38015,1.09476 -14.86901,3.03079 -18.12143,3.03079c-2.61294,0 -5.32892,-0.42576 -4.11795,-3.75c1.21098,-3.32424 2.36827,-4.75 7.21438,-4.75c5.01778,0 22.39522,4.75 22.39522,4.75c0,0 -3.44021,0.04487 -7.37022,0.71921z" fill="#000000"/><path d="M302.94571,178.33129h5.83333" fill="none"/></g></g></g></svg>