<svg version="1.1" xmlns="http://www.w3.org/2000/svg" xmlns:xlink="http://www.w3.org/1999/xlink" width="147.08439" height="325.7576" viewBox="0,0,147.08439,325.7576"><defs><linearGradient x1="320.00013" y1="175.50006" x2="320.00013" y2="307.50005" gradientUnits="userSpaceOnUse" id="color-1"><stop offset="0" stop-color="#000000"/><stop offset="1" stop-color="#3a2818"/></linearGradient><linearGradient x1="321.17383" y1="176.17252" x2="321.17383" y2="271.44954" gradientUnits="userSpaceOnUse" id="color-2"><stop offset="0" stop-color="#000000"/><stop offset="1" stop-color="#808080"/></linearGradient><linearGradient x1="306.84069" y1="176.32868" x2="306.84069" y2="268.63338" gradientUnits="userSpaceOnUse" id="color-3"><stop offset="0" stop-color="#000000"/><stop offset="1" stop-color="#322416"/></linearGradient><linearGradient x1="320.84266" y1="183.98023" x2="320.84266" y2="242.65229" gradientUnits="userSpaceOnUse" id="color-4"><stop offset="0" stop-color="#000000"/><stop offset="1" stop-color="#4d0b0b"/></linearGradient><linearGradient x1="334.7157" y1="176.32868" x2="334.7157" y2="270.63338" gradientUnits="userSpaceOnUse" id="color-5"><stop offset="0" stop-color="#000000"/><stop offset="1" stop-color="#322416"/></linearGradient><linearGradient x1="320.00013" y1="269.385" x2="320.00013" y2="307.50005" gradientUnits="userSpaceOnUse" id="color-6"><stop offset="0" stop-color="#090b10"/><stop offset="1" stop-color="#1f263a"/></linearGradient><linearGradient x1="308.32326" y1="37.10511" x2="308.32326" y2="75.8033" gradientUnits="userSpaceOnUse" id="color-7"><stop offset="0" stop-color="#000000"/><stop offset="1" stop-color="#052800"/></linearGradient><linearGradient x1="320.60968" y1="77.33003" x2="320.60968" y2="266.34455" gradientUnits="userSpaceOnUse" id="color-8"><stop offset="0" stop-color="#000000"/><stop offset="1" stop-color="#800000"/></linearGradient><radialGradient cx="320.07423" cy="139.75" r="27.25" gradientUnits="userSpaceOnUse" id="color-9"><stop offset="0" stop-color="#000000"/><stop offset="1" stop-color="#000000" stop-opacity="0"/></radialGradient><linearGradient x1="345.3683" y1="66.85073" x2="345.3683" y2="127.14477" gradientUnits="userSpaceOnUse" id="color-10"><stop offset="0" stop-color="#000000"/><stop offset="1" stop-color="#8b3100"/></linearGradient><linearGradient x1="346.328" y1="60.72447" x2="346.328" y2="121.01852" gradientUnits="userSpaceOnUse" id="color-11"><stop offset="0" stop-color="#000000"/><stop offset="1" stop-color="#8b3100"/></linearGradient><linearGradient x1="347.61779" y1="-18.25755" x2="347.61779" y2="105.38239" gradientUnits="userSpaceOnUse" id="color-12"><stop offset="0" stop-color="#000000"/><stop offset="1" stop-color="#581f00"/></linearGradient></defs><g transform="translate(-260.8537,18.25754)"><g stroke-miterlimit="10"><g><path d="M286.75013,307.50005l15.14285,-131.8421l37.78325,-0.15789l13.57389,132z" fill="url(#color-1)" stroke="#000000" stroke-width="0" stroke-linecap="butt"/><path d="M330.60736,176.17252l5.53294,95.27702l-29.93294,-0.1328l4.4,-95.06666z" fill="url(#color-2)" stroke="#000000" stroke-width="0" stroke-linecap="round"/><path d="M306.48311,268.63338l-3.44242,-78.26157c0,0 4.94962,-11.13972 6.16818,-13.49953c0.54454,-1.05453 1.43182,-0.25 1.43182,-0.25z" fill="url(#color-3)" stroke="#000000" stroke-width="0" stroke-linecap="round"/><path d="M323.06531,183.98023l6.44025,46.27914l-8.6629,12.39292l-8.6629,-12.39292l6.2328,-46.24404z" fill="url(#color-4)" stroke="#000000" stroke-width="0" stroke-linecap="butt"/><path d="M318.41255,184.01827l-6.2328,-8.22509h16.83978l-5.95423,8.18704z" fill="#000000" stroke="#000000" stroke-width="0" stroke-linecap="butt"/><path d="M318.05498,183.17623l-7.71429,5.25714l0.4,-12.05714c0,0 2.37583,0.82078 3.34187,1.96246c1.1878,1.40377 3.97242,4.83754 3.97242,4.83754z" fill="#161616" stroke="#000000" stroke-width="0" stroke-linecap="round"/><path d="M330.65498,176.23339l0.45714,11.62857l-8.05714,-4.11429c0,0 2.60349,-4.4145 3.80097,-5.8297c0.9391,-1.10984 3.79903,-1.68459 3.79903,-1.68459z" fill="#161616" stroke="#000000" stroke-width="0" stroke-linecap="round"/><path d="M330.54069,176.62228c0,0 1.88727,-0.80453 2.43182,0.25c1.21857,2.35981 5.91819,13.49953 5.91819,13.49953l-2.69243,80.26157z" fill="url(#color-5)" stroke="#000000" stroke-width="0" stroke-linecap="round"/><path d="M329.0743,226.88738c0.10698,0.67935 0.22077,1.43173 0.30396,2.02349c0.04199,0.29868 -13.11144,7.27248 -13.36814,6.91964c-0.39062,-0.53692 -0.83487,-1.15105 -1.18095,-1.63725c-0.17592,-0.24714 14.16808,-7.79522 14.24514,-7.30588z" fill="#464646" stroke="none" stroke-width="0" stroke-linecap="butt"/><path d="M312.60784,227.07126c0.17818,-1.32681 0.35504,-2.63702 0.36631,-2.69463c0.03406,-0.1741 12.24195,-7.26415 14.4647,-8.52146c0.02128,-0.01203 0.22452,1.3005 0.41634,2.58432c0.04552,0.30471 -15.29421,8.98072 -15.24735,8.63177z" fill="#424242" stroke="none" stroke-width="0" stroke-linecap="butt"/><path d="M314.44088,213.20757c2.21816,-1.25472 7.90104,-4.46927 11.69552,-6.61565c0.03557,-0.02012 0.18635,0.85981 0.34187,1.87705c0.05504,0.36 -12.33761,6.92188 -12.28929,6.52861c0.12114,-0.98589 0.22618,-1.77547 0.2519,-1.79002z" fill="#313131" stroke="none" stroke-width="0" stroke-linecap="butt"/><path d="M315.74955,202.4673c1.90263,-1.07623 5.77319,-3.26564 8.97008,-5.07398c0.07935,-0.04489 0.30314,1.08435 0.50742,2.25575c0.02294,0.13157 -9.82752,5.30374 -9.80302,5.08192c0.13501,-1.22271 0.27747,-2.23651 0.32552,-2.26369z" fill="#272727" stroke="none" stroke-width="0" stroke-linecap="butt"/><path d="M317.45675,191.50163c1.45251,-0.82162 3.79287,-2.14546 6.04684,-3.42043c0.06277,-0.03551 0.29695,1.11766 0.50707,2.30151c0.0155,0.08733 -7.05036,3.3518 -7.03449,3.26067c0.19684,-1.13021 0.39189,-2.09158 0.48058,-2.14175z" fill="#131313" stroke="none" stroke-width="0" stroke-linecap="butt"/><path d="M318.41254,184.01827l-7.2328,-7.93938c0,0 6.01155,-0.28571 9.00553,-0.28571c3.17955,0 9.54854,0.28571 9.54854,0.28571l-6.66852,7.90133z" fill="none" stroke="#000000" stroke-width="0" stroke-linecap="butt"/><path d="M286.75013,307.50005c0,0 2.56637,-22.34426 4.36075,-37.96712c0.00179,-0.01553 58.21806,-0.1646 58.21993,-0.14638c1.61161,15.67226 3.91931,38.11351 3.91931,38.11351z" fill="url(#color-6)" stroke="#000000" stroke-width="0" stroke-linecap="butt"/><path d="M303.27039,74.28763c0,0 16.31211,-18.56473 10.24919,-23.94405c-1.1788,-1.04588 -11.65469,-5.29593 -19.70182,-2.99296c-10.37637,2.96956 -17.03586,13.52526 -17.03586,13.52526c0,0 -0.78288,-13.62582 8.67489,-18.74719c6.04592,-3.27386 19.71462,-7.40076 30.80324,-3.32638c7.47661,2.74719 13.59845,12.49515 16.10901,16.34091c5.25519,8.05011 7.51137,20.66009 7.51137,20.66009c0,0 -11.24028,-2.60246 -17.07751,-2.84413c-6.32666,-0.26193 -19.5325,1.32844 -19.5325,1.32844z" fill="url(#color-7)" stroke="#000000" stroke-width="0" stroke-linecap="butt"/><path d="M355.44245,86.94978c0,2.66845 -18.14466,-3.62628 -36.16873,-3.68769c-17.21322,-0.05865 -34.64711,5.32431 -34.64711,2.7759c0,-5.21687 16.08856,-14.30886 35.55989,-14.30886c19.47133,0 35.25596,10.00379 35.25596,15.22065z" fill="#042b00" stroke="#000000" stroke-width="0" stroke-linecap="butt"/><path d="M260.85623,134.16888c-0.03361,-6.4971 0.15641,-20.66801 7.60293,-32.31016c3.18753,-4.9835 13.19993,-16.70448 26.40019,-20.89898c10.17096,-3.2319 31.60519,-5.94551 48.68635,-0.59617c13.71886,4.29636 24.03816,15.68683 27.92757,21.88725c9.12361,14.5447 9.03873,31.99536 8.8408,34.26206c-0.33333,3.81739 -4.08074,23.27385 -15.90162,44.91157c-16.75336,30.66647 -43.66873,84.9201 -43.66873,84.9201c0,0 -24.23792,-51.74133 -41.02988,-81.33755c-10.76207,-18.9684 -16.86635,-35.9966 -18.46212,-44.03688c-0.33238,-1.67467 -0.38835,-5.41573 -0.39551,-6.80124z" fill="url(#color-8)" stroke="#000000" stroke-width="0" stroke-linecap="butt"/><path d="M320.31995,129.2824c0,0 -2.98524,-8.41192 -7.63164,-11.6611c-8.49481,-5.94034 -21.94591,-8.09416 -28.64225,-5.28676c-11.79269,4.94402 -18.47183,23.07211 -18.47183,22.15261c0,-0.49364 -0.84483,-10.96934 4.80418,-18.69752c0.72815,-0.99616 5.1279,-7.16218 10.90695,-8.79013c2.82771,-0.79656 14.80427,-3.8393 24.58729,-1.24062c8.00876,2.12739 14.38257,9.93201 14.44729,9.93201c0.54424,0 0,13.5915 0,13.5915z" fill="#0d0000" stroke="#000000" stroke-width="0" stroke-linecap="butt"/><path d="M320.06612,115.95228c0.14732,0 6.37777,-6.63093 14.52276,-9.06762c9.24593,-2.76606 20.81466,-2.03183 26.14565,-0.1647c5.30099,1.85662 10.94549,9.72584 11.73384,11.00023c4.30493,6.95911 2.09348,17.09581 2.09348,17.52835c0,0.9195 -6.42915,-17.7086 -18.22183,-22.65261c-6.69633,-2.8074 -20.14742,-0.65358 -28.64224,5.28676c-4.6464,3.24918 -7.63165,11.6611 -7.63165,11.6611c0,0 -0.54424,-13.5915 0,-13.5915z" fill="#0d0000" stroke="#000000" stroke-width="0" stroke-linecap="butt"/><path d="M265.57423,137c0,-15.46397 12.53603,-28 28,-28c15.46397,0 28,12.53603 28,28c0,15.46397 -12.53603,28 -28,28c-15.46397,0 -28,-12.53603 -28,-28z" fill="#1c0000" stroke="#000000" stroke-width="0" stroke-linecap="butt"/><path d="M319.32423,137c0,-15.46398 12.53602,-28 28,-28c15.46398,0 28,12.53602 28,28c0,15.46398 -12.53602,28 -28,28c-15.46397,0 -28,-12.53602 -28,-28z" fill="#1c0000" stroke="#000000" stroke-width="0" stroke-linecap="butt"/><path d="M292.82423,139.75c0,-15.04976 12.20024,-27.25 27.25,-27.25c15.04976,0 27.25,12.20024 27.25,27.25c0,15.04976 -12.20024,27.25 -27.25,27.25c-15.04976,0 -27.25,-12.20024 -27.25,-27.25z" fill="url(#color-9)" stroke="#000000" stroke-width="0" stroke-linecap="butt"/><path d="M293.1293,160.75636c-12.968,0 -23.48065,-10.51265 -23.48065,-23.48065c0,-12.968 10.51265,-23.48065 23.48065,-23.48065c12.968,0 23.48065,10.51265 23.48065,23.48065c0,12.968 -10.51265,23.48065 -23.48065,23.48065z" fill="#806666" stroke="#000000" stroke-width="0" stroke-linecap="butt"/><path d="M289.78895,137.5c0,-1.85632 1.50484,-3.36117 3.36116,-3.36117c1.85633,0 3.36117,1.50485 3.36117,3.36117c0,1.85632 -1.50485,3.36117 -3.36117,3.36117c-1.85633,0 -3.36116,-1.50485 -3.36116,-3.36117z" fill="#033300" stroke="#5f0000" stroke-width="1" stroke-linecap="butt"/><path d="M347.12926,160.75636c-12.968,0 -23.48065,-10.51265 -23.48065,-23.48065c0,-12.968 10.51265,-23.48065 23.48065,-23.48065c12.968,0 23.48065,10.51265 23.48065,23.48065c0,12.968 -10.51265,23.48065 -23.48065,23.48065z" fill="#806666" stroke="#000000" stroke-width="0" stroke-linecap="butt"/><path d="M343.78891,137.5c0,-1.85632 1.50484,-3.36117 3.36116,-3.36117c1.85633,0 3.36117,1.50485 3.36117,3.36117c0,1.85632 -1.50485,3.36117 -3.36117,3.36117c-1.85633,0 -3.36116,-1.50485 -3.36116,-3.36117z" fill="#033300" stroke="#5f0000" stroke-width="1" stroke-linecap="butt"/><path d="M312.31569,242.87507l8.25,-19l9,19" fill="none" stroke="#000000" stroke-width="2" stroke-linecap="round"/><path d="M345.03183,195.57783c-4.9317,0.87072 -13.73714,-2.17211 -24.24014,-2.17211c-9.55278,0 -18.78721,3.52499 -23.96515,3.53865c-2.02746,0.00535 -4.20927,-11.18657 -3.96316,-12.04335c1.21557,-4.23169 3.80515,-8.98739 7.93648,-12.18729c8.05934,-6.2423 19.99182,-6.89135 19.99182,-6.89135c0,0 10.90871,0.18144 18.91421,6.24135c4.20023,3.17944 7.26103,7.89207 8.68822,12.22807c0.29985,0.91098 -2.03267,11.05127 -3.36229,11.28602z" fill="#808080" stroke="#000000" stroke-width="2" stroke-linecap="butt"/><path d="M293.13026,161.08969c-6.25879,0 -11.95724,-2.42568 -16.22586,-6.39796c-1.789,-1.66479 5.57676,-4.41636 16.17058,-4.35692c11.09258,0.06224 17.89256,2.87183 16.19747,4.43441c-4.25928,3.9263 -9.9242,6.32047 -16.14218,6.32047z" fill="#560000" stroke="#000000" stroke-width="0" stroke-linecap="butt"/><g fill="none" stroke="#000000" stroke-width="2" stroke-linecap="round"><path d="M317.08486,104.04551l-0.14483,9.93806c0,0 -13.9578,-2.25285 -20.98137,-3.92182c-7.27067,-1.72769 -21.92699,-6.27423 -21.92699,-6.27423"/><path d="M366.58486,103.78752c0,0 -14.65632,4.54655 -21.927,6.27423c-7.02357,1.66897 -20.98137,3.92182 -20.98137,3.92182l-0.14483,-9.93806"/></g><path d="M300.79987,172.71372c8.05934,-6.2423 19.82516,-6.89135 19.82516,-6.89135c0,0 11.07538,0.18144 19.08088,6.24135c0.34614,0.26202 0.38769,0.02497 -1.40354,-0.54741c-0.43266,-0.13825 -2.23104,0.90553 -3.25276,3.15056c-1.35009,2.96655 -1.92433,7.36741 -1.92433,7.36741c0,0 0.24642,-5.17754 -1.2763,-8.8589c-1.21243,-2.9312 -3.70115,-4.04785 -5.1375,-3.99069c-0.92733,0.0369 -2.91079,0.96917 -3.60435,2.28129c-1.72989,3.2727 -2.35988,9.07515 -2.35988,9.07515c0,0 0.26069,-4.44206 -1.0593,-7.8707c-0.85089,-2.21016 -2.84566,-3.99921 -4.36444,-3.90587c-1.69157,0.10396 -4.12197,2.19263 -5.00905,4.88901c-1.14496,3.48024 -0.99576,7.75088 -0.99576,7.75088c0,0 -0.74601,-6.63059 -2.85147,-8.69208c-2.24896,-2.20199 -5.86106,0.15138 -5.66735,0.00135z" fill="#802e32" stroke="#000000" stroke-width="2" stroke-linecap="butt"/><path d="M293.03839,185.1468c0,0 17.82406,-4.29109 26.775,-4.38261c9.15554,-0.09361 27.55834,3.82706 27.55834,3.82706" fill="none" stroke="#000000" stroke-width="2" stroke-linecap="round"/><path d="M301.92728,195.1468c0,0 -2.76017,-15.19938 -2.57907,-16.79308c0.07596,-0.66848 -0.04112,-1.75391 0.19034,-2.61363c0.34422,-1.27859 1.0554,-2.42662 1.0554,-2.42662" fill="none" stroke="#000000" stroke-width="2" stroke-linecap="round"/><path d="M343.59394,176.1468c0,0 -1.09706,6.60077 -1.83745,9.77116c-0.70201,3.00605 -2.49589,8.78439 -2.49589,8.78439" fill="none" stroke="#000000" stroke-width="2" stroke-linecap="round"/><path d="M310.70505,193.70235c0,0 -0.5171,-3.60419 -0.67522,-5.53668c-0.17374,-2.12354 -0.32478,-6.68554 -0.32478,-6.68554" fill="none" stroke="#000000" stroke-width="2" stroke-linecap="round"/><path d="M320.70505,193.03569v-12.88889" fill="none" stroke="#000000" stroke-width="2" stroke-linecap="round"/><path d="M332.92728,181.59124c0,0 -0.08212,4.00351 -0.28741,5.98171c-0.20208,1.94725 -0.93482,5.79608 -0.93482,5.79608" fill="none" stroke="#000000" stroke-width="2" stroke-linecap="round"/><path d="M406.00297,112.77338c-1.53363,4.01298 -30.47228,8.4428 -32.17526,8.76899c-10.67369,2.04431 -33.19426,6.80466 -39.35258,5.32045c-7.79965,-1.87978 -18.79803,-15.41669 -24.20341,-20.63799c-13.71431,-13.24729 -27.72691,-28.57814 -27.35721,-29.82905c0.11239,-0.38031 0.84472,-3.1946 1.37715,-4.83979c0.48231,-1.49029 0.91063,-1.80282 0.91063,-1.80282c0,0 19.3575,-0.84 32.63331,-2.2674c17.47218,-1.87861 33.723,0.96916 35.11234,1.37977c1.95423,0.57756 18.12076,7.2291 32.94123,21.11618c2.96042,2.77397 18.03511,9.37418 21.73534,15.63189c0.8672,1.46658 -1.27968,6.26528 -1.62154,7.15978z" fill="url(#color-10)" stroke="#000000" stroke-width="0" stroke-linecap="butt"/><path d="M407.81354,106.64713c-1.53363,4.01298 -30.47228,8.4428 -32.17526,8.76899c-10.67369,2.04431 -33.19426,6.80466 -39.35258,5.32045c-7.79965,-1.87978 -18.79803,-15.41669 -24.20341,-20.63799c-13.71431,-13.24729 -27.72691,-28.57814 -27.35721,-29.82905c0.98284,-3.32556 17.94531,-7.08479 34.92109,-8.91002c17.47218,-1.87861 33.723,0.96916 35.11234,1.37977c1.95423,0.57756 18.12076,7.2291 32.94123,21.11618c3.65424,3.42409 21.91429,18.08043 20.11381,22.7917z" fill="url(#color-11)" stroke="#000000" stroke-width="0" stroke-linecap="butt"/><path d="M310.08229,75.10576c0.72653,-2.45831 39.94496,-68.91003 58.79899,-90.68769c0.2563,-0.29604 1.23691,-2.12113 3.2962,-2.57666c1.80924,-0.40021 4.67551,0.52567 5.53697,0.78646c1.58652,0.48026 3.64564,1.20265 4.84191,2.34689c1.36603,1.30662 1.76774,3.07587 1.85062,4.14311c2.54797,32.81333 0.014,105.67947 -0.6053,107.77494c-6.18298,20.92096 -79.90238,-0.8661 -73.71939,-21.78706z" fill="url(#color-12)" stroke="#000000" stroke-width="0" stroke-linecap="butt"/><path d="M319.12895,59.14592l11.91071,-19.57261c0,0 3.24434,4.15862 8.81336,8.00767c4.53268,3.13277 11.87707,6.18646 15.75514,7.32157c3.85113,1.12721 10.77037,2.74988 16.24374,2.57807c6.90959,-0.21688 13.43454,-2.02321 13.43454,-2.02321l-0.7302,22.72889c0,0 -6.01612,2.69774 -13.43201,3.05855c-7.38647,0.35938 -16.29809,-1.65525 -21.73395,-3.23711c-5.22741,-1.5212 -14.11044,-4.36681 -20.17475,-8.54583c-6.54634,-4.51118 -10.0866,-10.31594 -10.0866,-10.31594z" fill="#7b7b7b" stroke="#000000" stroke-width="0" stroke-linecap="butt"/><path d="M343.64183,19.77989l12.46865,-18.70995c0,0 1.7703,1.71875 4.64484,3.34712c3.10036,1.75629 7.49912,3.48406 8.71169,3.83761c1.2447,0.36291 6.10728,1.08662 9.99799,1.30154c3.36304,0.18577 5.90434,-0.11171 5.90434,-0.11171l0.32674,22.81102c0,0 -4.94079,1.40126 -10.4217,1.2672c-5.15911,-0.12618 -10.8252,-1.77293 -12.41371,-2.23234c-1.46735,-0.42438 -7.22801,-2.05877 -11.43432,-4.65529c-4.82491,-2.97839 -7.78454,-6.8552 -7.78454,-6.8552z" fill="#6f6f6f" stroke="#000000" stroke-width="0" stroke-linecap="butt"/></g></g></g></svg>