<svg version="1.1" xmlns="http://www.w3.org/2000/svg" xmlns:xlink="http://www.w3.org/1999/xlink" width="162.22896" height="292.02115" viewBox="0,0,162.22896,292.02115"><defs><linearGradient x1="240.25603" y1="185.26009" x2="240.25603" y2="250.67312" gradientUnits="userSpaceOnUse" id="color-1"><stop offset="0" stop-color="#000000"></stop><stop offset="1" stop-color="#330000"></stop></linearGradient><linearGradient x1="246.57538" y1="245.15399" x2="246.57538" y2="301.32971" gradientUnits="userSpaceOnUse" id="color-2"><stop offset="0" stop-color="#1f5c00"></stop><stop offset="1" stop-color="#102e11"></stop></linearGradient><linearGradient x1="240.10011" y1="234.35217" x2="240.10011" y2="307.93336" gradientUnits="userSpaceOnUse" id="color-3"><stop offset="0" stop-color="#010300"></stop><stop offset="1" stop-color="#102e11"></stop></linearGradient><linearGradient x1="240.00012" y1="234.25217" x2="240.00012" y2="307.83338" gradientUnits="userSpaceOnUse" id="color-4"><stop offset="0" stop-color="#1a0000"></stop><stop offset="1" stop-color="#330000"></stop></linearGradient><linearGradient x1="240.00012" y1="175.50007" x2="240.00012" y2="307.50005" gradientUnits="userSpaceOnUse" id="color-5"><stop offset="0" stop-color="#000000"></stop><stop offset="1" stop-color="#426600"></stop></linearGradient><linearGradient x1="240.00012" y1="175.50007" x2="240.00012" y2="307.50005" gradientUnits="userSpaceOnUse" id="color-6"><stop offset="0" stop-color="#000000"></stop><stop offset="1" stop-color="#426600"></stop></linearGradient><linearGradient x1="222.99361" y1="79.51246" x2="245.77328" y2="192.84239" gradientUnits="userSpaceOnUse" id="color-7"><stop offset="0" stop-color="#000000"></stop><stop offset="1" stop-color="#102e11"></stop></linearGradient><linearGradient x1="222.99361" y1="79.51246" x2="245.77328" y2="192.84239" gradientUnits="userSpaceOnUse" id="color-8"><stop offset="0" stop-color="#000000"></stop><stop offset="1" stop-color="#102e11"></stop></linearGradient><linearGradient x1="222.87586" y1="79.43412" x2="245.65553" y2="192.76406" gradientUnits="userSpaceOnUse" id="color-9"><stop offset="0" stop-color="#000000"></stop><stop offset="1" stop-color="#1a0000"></stop></linearGradient><linearGradient x1="222.87586" y1="79.43412" x2="245.65553" y2="192.76406" gradientUnits="userSpaceOnUse" id="color-10"><stop offset="0" stop-color="#000000"></stop><stop offset="1" stop-color="#1a0000"></stop></linearGradient><linearGradient x1="270.64468" y1="159.3869" x2="271.97383" y2="165.99928" gradientUnits="userSpaceOnUse" id="color-11"><stop offset="0" stop-color="#4d4d4d"></stop><stop offset="1" stop-color="#808080"></stop></linearGradient><linearGradient x1="267.84371" y1="159.28757" x2="269.43218" y2="167.19016" gradientUnits="userSpaceOnUse" id="color-12"><stop offset="0" stop-color="#4d4d4d"></stop><stop offset="1" stop-color="#808080"></stop></linearGradient><linearGradient x1="258.26566" y1="159.88816" x2="260.3728" y2="170.37113" gradientUnits="userSpaceOnUse" id="color-13"><stop offset="0" stop-color="#4d4d4d"></stop><stop offset="1" stop-color="#808080"></stop></linearGradient><linearGradient x1="244.86503" y1="161.75822" x2="247.36113" y2="174.17652" gradientUnits="userSpaceOnUse" id="color-14"><stop offset="0" stop-color="#4d4d4d"></stop><stop offset="1" stop-color="#808080"></stop></linearGradient><linearGradient x1="251.86995" y1="160.51138" x2="254.23639" y2="172.28457" gradientUnits="userSpaceOnUse" id="color-15"><stop offset="0" stop-color="#4d4d4d"></stop><stop offset="1" stop-color="#808080"></stop></linearGradient><linearGradient x1="212.86416" y1="170.82259" x2="213.8022" y2="177.50164" gradientUnits="userSpaceOnUse" id="color-16"><stop offset="0" stop-color="#4d4d4d"></stop><stop offset="1" stop-color="#808080"></stop></linearGradient><linearGradient x1="215.20385" y1="169.69838" x2="216.79227" y2="177.60095" gradientUnits="userSpaceOnUse" id="color-17"><stop offset="0" stop-color="#4d4d4d"></stop><stop offset="1" stop-color="#808080"></stop></linearGradient><linearGradient x1="219.03259" y1="168.43204" x2="220.81553" y2="177.30227" gradientUnits="userSpaceOnUse" id="color-18"><stop offset="0" stop-color="#4d4d4d"></stop><stop offset="1" stop-color="#808080"></stop></linearGradient><linearGradient x1="224.27005" y1="166.55136" x2="226.37715" y2="177.03436" gradientUnits="userSpaceOnUse" id="color-19"><stop offset="0" stop-color="#4d4d4d"></stop><stop offset="1" stop-color="#808080"></stop></linearGradient><linearGradient x1="237.35252" y1="163.09826" x2="239.84865" y2="175.51655" gradientUnits="userSpaceOnUse" id="color-20"><stop offset="0" stop-color="#4d4d4d"></stop><stop offset="1" stop-color="#808080"></stop></linearGradient><linearGradient x1="231.59648" y1="164.85758" x2="231.9145" y2="176.86205" gradientUnits="userSpaceOnUse" id="color-21"><stop offset="0" stop-color="#4d4d4d"></stop><stop offset="1" stop-color="#808080"></stop></linearGradient><linearGradient x1="222.3832" y1="76.98314" x2="246.14819" y2="195.21506" gradientUnits="userSpaceOnUse" id="color-22"><stop offset="0" stop-color="#111a00"></stop><stop offset="1" stop-color="#538000"></stop></linearGradient><linearGradient x1="215.14351" y1="26.64929" x2="238.98799" y2="145.27663" gradientUnits="userSpaceOnUse" id="color-23"><stop offset="0" stop-color="#000000"></stop><stop offset="1" stop-color="#365300"></stop></linearGradient><linearGradient x1="207.67766" y1="118.39626" x2="207.67766" y2="165.36667" gradientUnits="userSpaceOnUse" id="color-24"><stop offset="0" stop-color="#808080"></stop><stop offset="1" stop-color="#d1c6c6"></stop></linearGradient><linearGradient x1="260.87211" y1="107.70394" x2="260.87211" y2="154.67434" gradientUnits="userSpaceOnUse" id="color-25"><stop offset="0" stop-color="#808080"></stop><stop offset="1" stop-color="#d1c6c6"></stop></linearGradient><linearGradient x1="239.2956" y1="186.90934" x2="235.28755" y2="201.53682" gradientUnits="userSpaceOnUse" id="color-26"><stop offset="0" stop-color="#1a1a1a"></stop><stop offset="1" stop-color="#808080"></stop></linearGradient><linearGradient x1="265.98659" y1="202.99182" x2="267.5866" y2="197.15253" gradientUnits="userSpaceOnUse" id="color-27"><stop offset="0" stop-color="#4d4d4d"></stop><stop offset="1" stop-color="#808080"></stop></linearGradient><linearGradient x1="263.18039" y1="204.3141" x2="265.09259" y2="197.33542" gradientUnits="userSpaceOnUse" id="color-28"><stop offset="0" stop-color="#4d4d4d"></stop><stop offset="1" stop-color="#808080"></stop></linearGradient><linearGradient x1="259.23821" y1="204.76005" x2="261.38455" y2="196.92686" gradientUnits="userSpaceOnUse" id="color-29"><stop offset="0" stop-color="#4d4d4d"></stop><stop offset="1" stop-color="#808080"></stop></linearGradient><linearGradient x1="254.0124" y1="205.13076" x2="256.549" y2="195.87331" gradientUnits="userSpaceOnUse" id="color-30"><stop offset="0" stop-color="#4d4d4d"></stop><stop offset="1" stop-color="#808080"></stop></linearGradient><linearGradient x1="241.59358" y1="204.57363" x2="244.59848" y2="193.60716" gradientUnits="userSpaceOnUse" id="color-31"><stop offset="0" stop-color="#4d4d4d"></stop><stop offset="1" stop-color="#808080"></stop></linearGradient><linearGradient x1="214.59382" y1="188.7595" x2="216.19383" y2="182.92022" gradientUnits="userSpaceOnUse" id="color-32"><stop offset="0" stop-color="#4d4d4d"></stop><stop offset="1" stop-color="#808080"></stop></linearGradient><linearGradient x1="216.4148" y1="191.52568" x2="218.327" y2="184.547" gradientUnits="userSpaceOnUse" id="color-33"><stop offset="0" stop-color="#4d4d4d"></stop><stop offset="1" stop-color="#808080"></stop></linearGradient><linearGradient x1="219.49827" y1="193.87099" x2="221.64462" y2="186.0378" gradientUnits="userSpaceOnUse" id="color-34"><stop offset="0" stop-color="#4d4d4d"></stop><stop offset="1" stop-color="#808080"></stop></linearGradient><linearGradient x1="223.80523" y1="196.85376" x2="226.34184" y2="187.59631" gradientUnits="userSpaceOnUse" id="color-35"><stop offset="0" stop-color="#4d4d4d"></stop><stop offset="1" stop-color="#808080"></stop></linearGradient><linearGradient x1="234.77345" y1="202.70486" x2="237.77835" y2="191.73839" gradientUnits="userSpaceOnUse" id="color-36"><stop offset="0" stop-color="#4d4d4d"></stop><stop offset="1" stop-color="#808080"></stop></linearGradient><linearGradient x1="228.28851" y1="200.91657" x2="231.13733" y2="190.51976" gradientUnits="userSpaceOnUse" id="color-37"><stop offset="0" stop-color="#4d4d4d"></stop><stop offset="1" stop-color="#808080"></stop></linearGradient></defs><g transform="translate(-145.83193,-21.59136)"><g data-paper-data="{&quot;isPaintingLayer&quot;:true}" fill-rule="nonzero" stroke-linejoin="miter" stroke-miterlimit="10" stroke-dasharray="" stroke-dashoffset="0" style="mix-blend-mode: normal"><path d="M179.01777,313.61251v-267.22501h123.18203v267.22501z" fill-opacity="0.01" fill="#000000" stroke="none" stroke-width="0" stroke-linecap="butt"></path><path d="M216.30775,250.67312v-9.76636c4.25926,-1.01991 8.35783,-6.37588 8.35783,-9.93966c0,-0.26439 -0.10729,-0.50028 -0.25605,-0.72517c0.85889,-1.47592 1.35083,-3.19172 1.35083,-5.02242c0,-4.07342 -2.43554,-7.578 -5.92982,-9.13693c1.01555,-0.67418 1.78167,-1.36654 2.12552,-1.96828c0.63272,-1.10727 -0.0388,-2.56965 0.21222,-3.81999c0.29666,-1.47765 1.16332,-4.56699 0.3468,-6.24232c-0.18393,-0.3774 -0.49547,-0.64061 -0.86088,-0.85705c0.47069,-1.08492 0.75464,-2.26965 0.81131,-3.51363c2.31361,-0.76647 4.25264,-2.35495 5.47104,-4.41939c1.37822,-0.78755 4.6267,-7.64908 4.66618,-8.35967c0.01377,-0.24785 -0.22656,-0.85552 -0.60969,-1.64217h32.21128v6.42614c-2.88087,1.00132 -5.16258,3.28305 -6.16386,6.16393c-4.11919,1.23649 -7.12048,5.05736 -7.12048,9.5792c0,5.52284 4.47716,10 10,10c0.22917,0 0.45654,-0.00771 0.68186,-0.02288c0.04949,1.26488 0.33391,2.46944 0.81086,3.57124c-1.20337,1.651 -1.91341,3.68456 -1.91341,5.88396c0,2.22208 0.72477,4.27488 1.95079,5.93491c-0.37698,1.05314 -0.58232,2.18795 -0.58232,3.37071c0,2.44604 0.87822,4.68697 2.33655,6.42466v8.08116z" fill="url(#color-1)" stroke="none" stroke-width="0" stroke-linecap="butt"></path><path d="M221.77875,301.3297l1.57787,-14.0636c2.9703,-1.07268 5.08921,-3.87725 5.08921,-7.16814c0,-1.33654 -0.34949,-2.59285 -0.96359,-3.68552c1.0225,-1.29273 1.63137,-2.91707 1.63137,-4.68116c0,-2.58695 -1.30937,-4.87337 -3.31239,-6.25424l2.28014,-20.32307l37.72363,0.75535l2.59709,25.85458c-0.47231,0.98568 -0.73633,2.08676 -0.73633,3.24843c0,0.26106 0.01333,0.51906 0.03936,0.77337c-0.66208,1.12358 -1.04104,2.42835 -1.04104,3.82009c0,2.51277 1.23536,4.74201 3.14181,6.13323l1.56608,15.59067z" fill="url(#color-2)" stroke="#000000" stroke-width="0" stroke-linecap="butt"></path><path d="M208.88582,301.75946l1.67506,-15.19331c3.15329,-1.15885 5.40274,-4.18871 5.40274,-7.74395c0,-1.44389 -0.37103,-2.80114 -1.02294,-3.98157c1.08549,-1.39658 1.73187,-3.15139 1.73187,-5.05719c0,-2.79475 -1.39003,-5.26485 -3.51645,-6.75663l2.26695,-20.56195c0.86796,0.24582 1.78394,0.37738 2.73064,0.37738c2.00608,0 3.87419,-0.59071 5.43989,-1.60767l32.03071,0.65267l2.75709,27.93145c-0.5014,1.06486 -0.7817,2.25439 -0.7817,3.50938c0,0.28203 0.01415,0.56075 0.04179,0.83549c-0.70286,1.21383 -1.10518,2.62342 -1.10518,4.12696c0,2.71461 1.31146,5.12292 3.33536,6.6259l1.66256,16.84305z" fill="#214800" stroke="#000000" stroke-width="0" stroke-linecap="butt"></path><path d="M208.18346,307.93334l2.03092,-18.42105c3.82319,-1.40504 6.55053,-5.07858 6.55053,-9.38912c0,-1.75065 -0.44985,-3.39622 -1.24027,-4.82744c1.3161,-1.69328 2.0998,-3.8209 2.0998,-6.13157c0,-3.38849 -1.68533,-6.38334 -4.2635,-8.19205l1.98675,-18.02034c1.0149,0.34688 2.10335,0.5351 3.23576,0.5351c5.14615,0 9.38439,-3.88724 9.9386,-8.8856l31.21387,0.63602c0.17667,3.89234 2.57849,7.2048 5.96341,8.69533l2.49479,25.27427c-0.60793,1.29109 -0.94777,2.73333 -0.94777,4.25493c0,0.34195 0.01717,0.67988 0.05068,1.01299c-0.85218,1.4717 -1.33997,3.18075 -1.33997,5.00371c0,3.29132 1.59008,6.21126 4.04395,8.03355l2.01576,20.42128z" fill="url(#color-3)" stroke="#000000" stroke-width="0" stroke-linecap="butt"></path><path d="M262.43308,245.24492c0,2.04625 1.63894,3.70971 3.67572,3.74928l0.42124,4.26749c-6.60002,0.33969 -11.84696,5.79871 -11.84696,12.48323c0,5.08121 3.0318,9.45431 7.38511,11.409c-0.25146,0.98856 -0.38511,2.02418 -0.38511,3.091c0,5.57341 3.6476,10.29488 8.68581,11.9074l1.54786,15.68105l-32.30247,-0.00001c-0.43914,-2.88111 -2.92739,-5.08844 -5.9312,-5.08844c-3.00381,0 -5.49206,2.20734 -5.9312,5.08844h-14.35578c10.54696,-2.93297 18.28698,-12.60681 18.28698,-24.08844c0,-9.24537 -5.01862,-17.31858 -12.48024,-21.644c0.30913,-0.7233 0.48024,-1.51967 0.48024,-2.356c0,-3.19202 -2.49262,-5.80186 -5.63758,-5.98923l1.19523,-10.84114c1.04524,0.37061 2.17041,0.57233 3.3427,0.57233c5.17965,0 9.43954,-3.93801 9.94896,-8.98335l31.19954,0.63574c0.10803,3.02706 1.5615,5.7114 3.78051,7.47313c-0.66745,0.67705 -1.07936,1.60668 -1.07936,2.63252zM236.49929,265.81649c1.8483,0 3.38428,-1.33718 3.69333,-3.09691c0.42628,0.06383 0.86261,0.09691 1.30667,0.09691c4.83249,0 8.75,-3.91751 8.75,-8.75c0,-4.83249 -3.91751,-8.75 -8.75,-8.75c-4.83249,0 -8.75,3.91751 -8.75,8.75c0,1.8444 0.57066,3.55551 1.54505,4.96641c-0.93641,0.6818 -1.54505,1.78662 -1.54505,3.03359c0,2.07107 1.67893,3.75 3.75,3.75zM259.18308,251.99492c0.69036,0 1.25,-0.55964 1.25,-1.25c0,-0.69036 -0.55964,-1.25 -1.25,-1.25c-0.69036,0 -1.25,0.55964 -1.25,1.25c0,0.69036 0.55964,1.25 1.25,1.25z" fill="url(#color-4)" stroke="#000000" stroke-width="0" stroke-linecap="butt"></path><path d="M221.89298,175.65795l37.78325,-0.15789l2.75323,18.45971c-2.84362,1.19013 -5.02058,3.65623 -5.81503,6.68245c-4.70213,0.81626 -8.27772,4.91669 -8.27772,9.85224c0,5.52284 4.47716,10 10,10c0.3317,0 0.65963,-0.01615 0.98304,-0.04771c0.15249,0.16754 0.3106,0.32988 0.47402,0.48672c-1.51537,1.75289 -2.43199,4.03776 -2.43199,6.53671c0,2.47917 0.90217,4.74762 2.39612,6.49498c-0.02147,0.26751 -0.03241,0.53799 -0.03241,0.81102c0,0.54524 0.43568,1.74674 1.37589,2.81874c0.66143,0.75414 1.89818,1.4442 1.99603,1.7966c-1.01256,0.3676 -5.367,1.13808 -6.12063,3.80582c-0.51808,1.83393 -0.64284,3.99053 -0.64284,3.99053l-18.8507,-11.12126c0,0 -7.94294,5.83526 -8.47602,5.98234c-0.70711,0.19509 -9.50045,-3.57239 -9.79488,-3.53261c0.06051,-0.17255 6.76291,-1.84917 7.11074,-2.13146c1.72385,-1.39902 2.26038,-2.34433 2.26038,-2.898c0,-0.19951 -2.19624,-0.93823 -2.97172,-1.65908c1.19359,-1.64703 3.1866,-3.88711 3.1866,-6.07669c0,-5.52284 -4.47716,-10 -10,-10c-1.29107,0 -7.90885,0.49943 -8.18057,0.44303c-0.05352,-0.01163 1.74972,-0.83807 3.12357,-2.57833c1.31758,-1.66897 2.20575,-4.24741 2.26569,-4.58725c1.01515,-5.75545 5.88594,-33.37061 5.88594,-33.37061z" fill="url(#color-5)" stroke="#000000" stroke-width="0" stroke-linecap="butt"></path><path d="" fill="url(#color-6)" stroke="#000000" stroke-width="0" stroke-linecap="butt"></path><path d="M245.77328,192.84239c-11.85355,2.3826 -23.55375,1.39782 -33.99397,-2.26757c-1.31887,-3.98087 -5.0714,-6.85276 -9.49469,-6.85276c-1.17959,0 -2.31149,0.20424 -3.36224,0.57929c-4.67046,-3.00511 -8.88478,-6.63331 -12.49481,-10.79265c-6.10046,-7.02871 105.74144,-19.0703 105.7784,-19.07428c-1.54628,4.08237 -3.56206,7.99016 -5.99698,11.65263c-4.82051,0.59595 -8.57801,4.62256 -8.75402,9.56136c-3.60574,0.76286 -6.49436,3.46868 -7.51885,6.97044c-7.00354,4.85312 -15.16784,8.41551 -24.16285,10.22354z" fill="url(#color-7)" stroke="#000000" stroke-width="0" stroke-linecap="butt"></path><path d="M292.20597,154.43442c0,0 0,0 -0.00001,0v-0.00001z" fill="url(#color-8)" stroke="#000000" stroke-width="0" stroke-linecap="butt"></path><path d="M204.75293,178.19658c-0.45891,0.09224 -5.31918,6.10561 -5.4919,6.31718c-4.85252,-3.06081 -9.22394,-6.78901 -12.95119,-11.08339c-6.10065,-7.02893 105.74869,-19.07109 105.77841,-19.07429c-1.51947,4.0116 -3.49231,7.8546 -5.87071,11.46193c-1.42377,-1.6755 -3.69054,-2.54785 -5.99886,-2.08387c-3.3841,0.68022 -5.57602,3.97499 -4.8958,7.35908c0.19691,0.97964 0.61292,1.85938 1.18677,2.59844c-0.27375,0.35505 -6.12155,-2.15255 -6.29416,1.19404c-0.06816,1.32149 -1.21218,2.77408 -1.65728,4.90088c-0.62539,2.98824 -1.35886,22.02339 -1.45856,22.02339c-0.45348,0 -6.10307,-20.21816 -7.91422,-20.51873c-0.97954,-0.16255 3.97693,3.99577 3.84455,4.34247c-1.2907,-0.43881 -2.58189,-0.6582 -3.79991,-0.59459c-1.71657,-3.03602 -4.97446,-5.08536 -8.711,-5.08536c-3.63306,0 -6.81362,1.93741 -8.56486,4.83542c-1.62737,-1.14708 -3.61237,-1.82077 -5.75473,-1.82077c-2.92293,0 -5.55296,1.25404 -7.38142,3.25345c-1.48301,-0.8703 -3.21024,-1.3693 -5.05402,-1.3693c-1.54529,0 -3.00872,0.35051 -4.31512,0.97636c-0.35157,-0.38277 -4.94144,6.9371 -5.85933,6.9371c-0.68492,0 -1.49282,-4.90619 -2.06331,-7.54028c-0.29052,-1.34142 -4.19299,-1.35996 -4.38088,-0.96615c-0.241,-0.1843 -1.77294,-6.18752 -2.39246,-6.06299z" fill="url(#color-9)" stroke="#000000" stroke-width="0" stroke-linecap="butt"></path><path d="M292.08822,154.35608v0c0,0 0,0 0,-0.00001z" fill="url(#color-10)" stroke="#000000" stroke-width="0" stroke-linecap="butt"></path><path d="M214.40615,190.17021c0,0 2.10069,-6.43879 1.96483,-9.38351c-0.11728,-2.54208 -2.73245,-7.25516 -2.73245,-7.25516l59.21562,-11.90253c0,0 -3.29714,5.7499 -5.20314,13.57908c-0.49655,2.03964 -1.59202,4.92289 -1.81684,7.05091c-0.55154,5.22052 1.01025,15.43562 1.01025,15.43562c0,0 -2.7789,4.90461 -5.2912,4.54412c-7.74642,-1.11154 -47.14708,-12.06853 -47.14708,-12.06853z" fill="#000000" stroke="none" stroke-width="0" stroke-linecap="butt"></path><path d="M269.88571,166.41899c0,0 -1.92033,-6.58401 0.82853,-7.13654c2.74885,-0.55253 3.34769,6.2971 3.34769,6.2971z" fill="url(#color-11)" stroke="none" stroke-width="0" stroke-linecap="butt"></path><path d="M266.93659,167.69178c0,0 -2.29503,-7.86871 0.99019,-8.52904c3.28521,-0.66034 4.00089,7.52582 4.00089,7.52582z" fill="url(#color-12)" stroke="none" stroke-width="0" stroke-linecap="butt"></path><path d="M257.06237,171.03653c0,0 -3.04442,-10.43807 1.31351,-11.31403c4.35793,-0.87596 5.30731,9.98323 5.30731,9.98323z" fill="url(#color-13)" stroke="none" stroke-width="0" stroke-linecap="butt"></path><path d="M243.43957,174.21331c0,0 -3.60648,-11.61364 1.556,-12.65131c4.08474,-0.82105 5.73566,6.12014 6.24695,9.05409c0.1349,0.77412 0.19046,1.26927 0.19046,1.26927c0,0 -1.49114,0.67249 -2.09644,0.80504c-0.0343,0.00752 -0.87418,-1.32494 -0.96116,-1.29536c-0.12586,0.0428 -0.10715,1.58708 -0.12538,1.59239c-1.51604,0.69833 -4.81042,1.22588 -4.81042,1.22588z" fill="url(#color-14)" stroke="none" stroke-width="0" stroke-linecap="butt"></path><path d="M250.51854,173.03187c0,0 -3.41912,-11.72276 1.47518,-12.70653c4.8943,-0.98377 5.96052,11.21193 5.96052,11.21193z" fill="url(#color-15)" stroke="none" stroke-width="0" stroke-linecap="butt"></path><path d="M211.69301,177.79787c0,0 -1.70568,-6.66084 1.07091,-7.05079c2.77659,-0.38995 3.14742,6.45835 3.14742,6.45835z" fill="url(#color-16)" stroke="none" stroke-width="0" stroke-linecap="butt"></path><path d="M214.29674,178.10257c0,0 -2.50299,-7.82691 0.78222,-8.48725c3.28522,-0.66034 4.20887,7.48402 4.20887,7.48402z" fill="url(#color-17)" stroke="none" stroke-width="0" stroke-linecap="butt"></path><path d="M218.01442,177.8653c0,0 -2.80949,-8.7853 0.878,-9.5265c3.68749,-0.7412 4.72423,8.40043 4.72423,8.40043z" fill="url(#color-18)" stroke="none" stroke-width="0" stroke-linecap="butt"></path><path d="M223.06673,177.69977c0,0 -3.32029,-10.38262 1.03764,-11.25858c4.35793,-0.87596 5.58318,9.92777 5.58318,9.92777z" fill="url(#color-19)" stroke="none" stroke-width="0" stroke-linecap="butt"></path><path d="M235.92708,176.3048c0,0 -3.93328,-12.29941 1.22921,-13.33709c5.16249,-1.03768 6.61392,11.76059 6.61392,11.76059z" fill="url(#color-20)" stroke="none" stroke-width="0" stroke-linecap="butt"></path><path d="M228.12361,176.96248c0,0 -1.67974,-12.12645 3.3107,-12.25866c4.99044,-0.13221 4.27105,12.05779 4.27105,12.05779c0,0 -1.77487,-0.47675 -1.84103,-0.52407c-0.12741,-0.09112 -1.23832,0.54926 -1.25261,0.54964c-0.03048,0.00081 -1.42873,-1.51608 -1.44696,-1.51559c-0.0519,0.00137 -1.18223,1.64163 -1.20299,1.64218c-0.78268,0.02074 -1.83817,0.0487 -1.83817,0.0487z" fill="url(#color-21)" stroke="none" stroke-width="0" stroke-linecap="butt"></path><path d="M171.2883,148.75775c-6.56252,-32.64883 16.31345,-64.78342 51.0949,-71.7746c34.78145,-6.99119 68.29738,13.80845 74.8599,46.45728c2.32758,11.57982 0.95191,23.09495 -3.34474,33.4465c-0.05705,0.13743 1.66319,5.21072 1.66319,5.21072c0,0 -16.27709,-5.03964 -21.0894,-4.17066c-6.83975,1.2351 -11.23533,6.09851 -11.23533,6.09851c0,0 -20.59164,-3.01194 -24.7271,-2.25616c-5.88922,1.07629 -21.34863,13.52863 -21.34863,13.52863c0,0 -7.39849,-4.81017 -12.32704,-2.32815c-6.96846,3.50931 -17.29089,10.07526 -17.29089,10.07526c0,0 -1.83382,-6.36364 -2.01162,-6.55543c-7.04185,-7.59538 -12.09144,-17.02669 -14.24322,-27.7319z" fill="url(#color-22)" stroke="#000000" stroke-width="0" stroke-linecap="butt"></path><path d="M171.13812,144.33237c0,0 -2.05415,-5.58344 -3.66042,-9.94948c-1.37354,-3.73344 -3.09313,-10.44514 -6.67593,-15.0783c-1.90246,-2.46019 -4.5062,-5.37749 -7.30856,-7.05374c-3.80665,-2.27697 -7.66128,-2.90094 -7.66128,-2.90094c0,0 7.11122,-4.98419 13.65168,-7.54925c3.74762,-1.46976 7.56098,-1.38593 9.09945,-1.04212c3.2052,0.7163 8.45647,1.88983 8.45647,1.88983c0,0 1.74905,-5.29341 3.1455,-9.51964c0.67953,-2.05656 0.85743,-4.83936 2.1209,-8.66321c0.86663,-2.62281 2.72837,-6.0128 3.67765,-8.88573c3.33592,-10.09592 1.06113,-20.20713 1.06113,-20.20713c0,0 9.99972,4.49941 13.93572,8.62217c2.00404,2.09912 3.89947,5.78244 5.05123,6.98885c2.12517,2.22599 5.17052,3.71787 5.17052,3.71787c0,0 6.41708,-12.68718 10.51581,-20.16653c2.27122,-4.14453 7.45388,-10.406 10.98893,-16.65129c4.70439,-8.31116 7.59998,-16.29237 7.59998,-16.29237c0,0 3.18218,8.35424 4.90261,17.31857c1.25247,6.52595 0.93134,13.37598 1.95581,17.55778c1.78248,7.27589 6.39893,19.23895 6.39893,19.23895c0,0 5.31145,-3.2905 8.69002,-6.81607c2.27537,-2.37435 5.90639,-7.18413 9.94585,-11.82344c6.20583,-7.12739 19.71864,-10.37999 19.71864,-10.37999c0,0 -6.21231,7.37638 -5.47892,18.72021c0.40827,6.31506 0.92854,13.12447 1.14992,16.98667c0.46921,8.18564 0.84314,19.62394 0.84314,19.62394c0,0 5.2011,-3.48913 7.94126,-4.53258c5.14893,-1.9607 11.68673,-1.15201 11.68673,-1.15201c0,0 -4.26095,1.42446 -5.8047,5.76031c-1.25687,3.53016 -2.39469,8.57138 -3.10138,11.68683c-0.56258,2.48013 -1.32452,5.83914 -2.06689,9.1119" fill="url(#color-23)" stroke="#000000" stroke-width="0" stroke-linecap="round"></path><path d="M184.90371,147.7341c-2.5555,-12.71372 5.67937,-25.09186 18.39309,-27.64736c12.71372,-2.5555 25.09186,5.67936 27.64736,18.39308c2.5555,12.71372 -5.67936,25.09187 -18.39308,27.64737c-12.71372,2.5555 -25.09187,-5.67937 -27.64737,-18.39309z" fill="#000000" stroke="#000000" stroke-width="2" stroke-linecap="butt"></path><path d="M265.74555,155.43491c-12.71372,2.5555 -25.09186,-5.67937 -27.64736,-18.39309c-2.5555,-12.71372 5.67936,-25.09185 18.39308,-27.64735c12.71372,-2.5555 25.09187,5.67936 27.64737,18.39307c2.5555,12.71372 -5.67937,25.09187 -18.39309,27.64737z" fill="#000000" stroke="#000000" stroke-width="2" stroke-linecap="butt"></path><path d="M208.56664,170.63984c-12.968,0 -23.48065,-11.24019 -23.48065,-25.10565c0,-13.86546 10.51265,-25.10565 23.48065,-25.10565c12.968,0 23.48065,11.24019 23.48065,25.10565c0,13.86546 -10.51265,25.10565 -23.48065,25.10565z" fill-opacity="0.3451" fill="#000000" stroke="#000000" stroke-width="0" stroke-linecap="butt"></path><path d="M261.62453,159.75293c-12.968,0 -23.48065,-11.24019 -23.48065,-25.10565c0,-13.86546 10.51265,-25.10565 23.48065,-25.10565c12.968,0 23.48065,11.24019 23.48065,25.10565c0,13.86546 -10.51265,25.10565 -23.48065,25.10565z" fill-opacity="0.3451" fill="#000000" stroke="#000000" stroke-width="0" stroke-linecap="butt"></path><path d="M184.65746,146.5086c-2.5555,-12.71371 5.67936,-25.09186 18.39307,-27.64736c12.71371,-2.5555 25.09186,5.67937 27.64736,18.39308c2.5555,12.71371 -5.67937,25.09186 -18.39308,27.64736c-12.71371,2.5555 -25.09186,-5.67937 -27.64736,-18.39308z" fill="url(#color-24)" stroke="#000000" stroke-width="2" stroke-linecap="butt"></path><path d="M188.64945,147.7144c-2.09809,-10.43809 4.66281,-20.60066 15.10089,-22.69875c10.43809,-2.09809 20.60066,4.66282 22.69875,15.1009c2.09809,10.43809 -4.66282,20.60065 -15.1009,22.69874c-10.43809,2.09809 -20.60065,-4.66282 -22.69874,-15.10089z" fill="#000000" stroke="none" stroke-width="0" stroke-linecap="butt"></path><path d="M265.49924,154.20936c-12.71371,2.5555 -25.09185,-5.67937 -27.64735,-18.39308c-2.5555,-12.71371 5.67936,-25.09186 18.39307,-27.64736c12.71371,-2.5555 25.09186,5.67937 27.64736,18.39308c2.5555,12.71371 -5.67937,25.09186 -18.39308,27.64736z" fill="url(#color-25)" stroke="#000000" stroke-width="2" stroke-linecap="butt"></path><path d="M270.40558,143.05862c-7.59544,1.52671 -14.9904,-3.39297 -16.51711,-10.98842c-1.52671,-7.59545 3.39297,-14.99041 10.98841,-16.51712c7.59544,-1.52671 14.9904,3.39298 16.51711,10.98842c1.52671,7.59545 -3.39297,14.99041 -10.9884,16.51711z" fill="#000000" stroke="none" stroke-width="0" stroke-linecap="butt"></path><path d="M231.24488,141.05442l-2.0219,18.35843" fill="none" stroke="#000000" stroke-width="2" stroke-linecap="round"></path><path d="M238.34113,137.792l7.54947,19.29056" fill="none" stroke="#000000" stroke-width="2" stroke-linecap="round"></path><g stroke="none" stroke-width="0" stroke-linecap="butt"><path d="M269.3595,203.00996c-1.10679,4.03927 -18.16716,9.97014 -35.8778,5.11728c-17.71064,-4.85286 -24.46608,-17.89809 -23.3593,-21.93736c1.10679,-4.03927 9.41878,5.84803 27.12942,10.70088c2.78046,0.76187 5.50654,1.33578 8.12249,1.77761c1.51406,0.25572 1.45642,1.92394 3.978,2.19468c3.78415,0.40631 4.70817,-1.08251 6.63441,-0.92767c8.48761,0.68225 14.05126,0.59843 13.37278,3.07458z" fill="url(#color-26)"></path><g><g><path d="M269.43057,197.6578c0,0 -0.96073,6.09707 -3.38822,5.43192c-2.42749,-0.66515 -0.29975,-6.44245 -0.29975,-6.44245z" fill="url(#color-27)"></path><path d="M267.29637,197.93927c0,0 -1.14819,7.28674 -4.04933,6.4918c-2.90114,-0.79494 -0.35825,-7.69951 -0.35825,-7.69951c0,0 0.73325,0.5322 0.8356,0.61723c0.09901,0.08226 1.05264,-0.35287 1.09265,-0.28824c0.32148,0.5194 0.36636,1.57001 0.38032,1.57384c0.10476,0.02871 2.09902,-0.69512 2.09902,-0.69512z" fill="url(#color-28)"></path><path d="M263.85821,197.60466c0,0 -1.28879,8.179 -4.54517,7.28672c-3.25639,-0.89228 -0.40211,-8.64232 -0.40211,-8.64232z" fill="url(#color-29)"></path><path d="M259.47239,196.67435c0,0 -1.52311,9.66608 -5.37156,8.61157c-3.84846,-1.05451 -0.47523,-10.21363 -0.47523,-10.21363z" fill="url(#color-30)"></path><path d="M248.06158,194.55608c0,0 -1.8043,11.45059 -6.36325,10.2014c-4.55894,-1.24919 -0.56295,-12.09923 -0.56295,-12.09923z" fill="url(#color-31)"></path></g><g><path d="M218.03779,183.42548c0,0 -1.1144,6.05496 -3.54189,5.38981c-1.17316,-0.32145 -1.2465,-1.82706 -1.00907,-3.29719c0.04778,-0.29581 0.10813,-0.59018 0.17464,-0.87318c0.03592,-0.15286 0.50423,-1.73254 0.60271,-1.80591c0.02931,-0.02184 0.43317,0.9031 0.64551,0.7554c0.08211,-0.05711 0.62255,-0.84645 0.63404,-0.8433c0.65332,0.17901 2.49405,0.67437 2.49405,0.67437z" fill="url(#color-32)"></path><path d="M220.53079,185.15085c0,0 -1.33185,7.23641 -4.23299,6.44147c-2.90114,-0.79494 -0.17459,-7.64919 -0.17459,-7.64919z" fill="url(#color-33)"></path><path d="M224.11827,186.7156c0,0 -1.49492,8.12251 -4.75131,7.23023c-3.25637,-0.89228 -0.19597,-8.58582 -0.19597,-8.58582z" fill="url(#color-34)"></path><path d="M226.4049,195.76076c-0.75902,0.93434 -1.67499,1.47729 -2.75487,1.1814c-1.17112,-0.3209 -1.65092,-1.38612 -1.75171,-2.71296c-0.00417,-0.05487 4.18406,-1.98859 4.26005,-1.95539c0.92112,0.40238 0.67615,2.9581 0.24653,3.48695z" fill="url(#color-35)"></path><path d="M241.24145,192.68731c0,0 -2.09288,11.37151 -6.65183,10.12232c-4.55894,-1.24919 -0.27436,-12.02015 -0.27436,-12.02015z" fill="url(#color-36)"></path><path d="M234.42053,191.41939c0,0 -1.23271,10.78078 -5.55483,9.59649c-4.32211,-1.18429 -2.2139,-11.24544 -2.2139,-11.24544z" fill="url(#color-37)"></path></g></g></g></g></g></svg>