<svg version="1.1" xmlns="http://www.w3.org/2000/svg" xmlns:xlink="http://www.w3.org/1999/xlink" width="206" height="333" viewBox="0,0,206,333"><defs><linearGradient x1="229.46914" y1="65.29379" x2="229.46914" y2="129.45714" gradientUnits="userSpaceOnUse" id="color-1"><stop offset="0" stop-color="#33251a"/><stop offset="1" stop-color="#39291c"/></linearGradient><linearGradient x1="180.94029" y1="107.99954" x2="179.69432" y2="116.22296" gradientUnits="userSpaceOnUse" id="color-2"><stop offset="0" stop-color="#000101"/><stop offset="1" stop-color="#06a800"/></linearGradient><linearGradient x1="183.31107" y1="109.56017" x2="183.31107" y2="117.87745" gradientUnits="userSpaceOnUse" id="color-3"><stop offset="0" stop-color="#000101"/><stop offset="1" stop-color="#ba0000"/></linearGradient><linearGradient x1="178.19948" y1="106.25835" x2="178.19948" y2="115.41511" gradientUnits="userSpaceOnUse" id="color-4"><stop offset="0" stop-color="#000101"/><stop offset="1" stop-color="#0034cf"/></linearGradient><linearGradient x1="240.9381" y1="85.67677" x2="240.9381" y2="208.93569" gradientUnits="userSpaceOnUse" id="color-5"><stop offset="0" stop-color="#1a1a1a"/><stop offset="1" stop-color="#808080"/></linearGradient><linearGradient x1="234.01968" y1="77.55103" x2="234.01968" y2="190.14451" gradientUnits="userSpaceOnUse" id="color-6"><stop offset="0" stop-color="#1a0000"/><stop offset="1" stop-color="#800000"/></linearGradient><linearGradient x1="242.79407" y1="173.66321" x2="242.79407" y2="188.82989" gradientUnits="userSpaceOnUse" id="color-7"><stop offset="0" stop-color="#1a1a1a"/><stop offset="1" stop-color="#808080"/></linearGradient><linearGradient x1="209.97267" y1="166.84626" x2="209.97267" y2="173.59087" gradientUnits="userSpaceOnUse" id="color-8"><stop offset="0" stop-color="#4d4d4d"/><stop offset="1" stop-color="#808080"/></linearGradient><linearGradient x1="212.69916" y1="166.19691" x2="212.69916" y2="174.25754" gradientUnits="userSpaceOnUse" id="color-9"><stop offset="0" stop-color="#4d4d4d"/><stop offset="1" stop-color="#808080"/></linearGradient><linearGradient x1="216.70238" y1="165.70992" x2="216.70238" y2="174.75754" gradientUnits="userSpaceOnUse" id="color-10"><stop offset="0" stop-color="#4d4d4d"/><stop offset="1" stop-color="#808080"/></linearGradient><linearGradient x1="222.20774" y1="164.89823" x2="222.20774" y2="175.59087" gradientUnits="userSpaceOnUse" id="color-11"><stop offset="0" stop-color="#4d4d4d"/><stop offset="1" stop-color="#808080"/></linearGradient><linearGradient x1="235.71416" y1="164.09087" x2="235.71416" y2="176.75754" gradientUnits="userSpaceOnUse" id="color-12"><stop offset="0" stop-color="#4d4d4d"/><stop offset="1" stop-color="#808080"/></linearGradient><linearGradient x1="228.6009" y1="164.24888" x2="228.6009" y2="176.25754" gradientUnits="userSpaceOnUse" id="color-13"><stop offset="0" stop-color="#4d4d4d"/><stop offset="1" stop-color="#808080"/></linearGradient><linearGradient x1="269.08491" y1="166.6796" x2="269.08491" y2="173.4242" gradientUnits="userSpaceOnUse" id="color-14"><stop offset="0" stop-color="#4d4d4d"/><stop offset="1" stop-color="#808080"/></linearGradient><linearGradient x1="266.35841" y1="166.03025" x2="266.35841" y2="174.09087" gradientUnits="userSpaceOnUse" id="color-15"><stop offset="0" stop-color="#4d4d4d"/><stop offset="1" stop-color="#808080"/></linearGradient><linearGradient x1="262.35519" y1="165.54325" x2="262.35519" y2="174.59087" gradientUnits="userSpaceOnUse" id="color-16"><stop offset="0" stop-color="#4d4d4d"/><stop offset="1" stop-color="#808080"/></linearGradient><linearGradient x1="256.84984" y1="164.73155" x2="256.84984" y2="175.4242" gradientUnits="userSpaceOnUse" id="color-17"><stop offset="0" stop-color="#4d4d4d"/><stop offset="1" stop-color="#808080"/></linearGradient><linearGradient x1="243.34342" y1="163.9242" x2="243.34342" y2="176.59087" gradientUnits="userSpaceOnUse" id="color-18"><stop offset="0" stop-color="#4d4d4d"/><stop offset="1" stop-color="#808080"/></linearGradient><linearGradient x1="250.45668" y1="164.0822" x2="250.45668" y2="176.09087" gradientUnits="userSpaceOnUse" id="color-19"><stop offset="0" stop-color="#4d4d4d"/><stop offset="1" stop-color="#808080"/></linearGradient><linearGradient x1="212.80187" y1="182.12041" x2="212.80187" y2="176.06587" gradientUnits="userSpaceOnUse" id="color-20"><stop offset="0" stop-color="#4d4d4d"/><stop offset="1" stop-color="#808080"/></linearGradient><linearGradient x1="215.24941" y1="184.16206" x2="215.24941" y2="176.92616" gradientUnits="userSpaceOnUse" id="color-21"><stop offset="0" stop-color="#4d4d4d"/><stop offset="1" stop-color="#808080"/></linearGradient><linearGradient x1="218.84305" y1="185.60915" x2="218.84305" y2="177.48721" gradientUnits="userSpaceOnUse" id="color-22"><stop offset="0" stop-color="#4d4d4d"/><stop offset="1" stop-color="#808080"/></linearGradient><linearGradient x1="223.78514" y1="187.34769" x2="223.78514" y2="177.74903" gradientUnits="userSpaceOnUse" id="color-23"><stop offset="0" stop-color="#4d4d4d"/><stop offset="1" stop-color="#808080"/></linearGradient><linearGradient x1="235.90969" y1="190.09224" x2="235.90969" y2="178.72153" gradientUnits="userSpaceOnUse" id="color-24"><stop offset="0" stop-color="#4d4d4d"/><stop offset="1" stop-color="#808080"/></linearGradient><linearGradient x1="229.52421" y1="189.05271" x2="229.52421" y2="178.27269" gradientUnits="userSpaceOnUse" id="color-25"><stop offset="0" stop-color="#4d4d4d"/><stop offset="1" stop-color="#808080"/></linearGradient><linearGradient x1="266.08904" y1="182.12041" x2="266.08904" y2="176.06587" gradientUnits="userSpaceOnUse" id="color-26"><stop offset="0" stop-color="#4d4d4d"/><stop offset="1" stop-color="#808080"/></linearGradient><linearGradient x1="263.6415" y1="184.16206" x2="263.6415" y2="176.92616" gradientUnits="userSpaceOnUse" id="color-27"><stop offset="0" stop-color="#4d4d4d"/><stop offset="1" stop-color="#808080"/></linearGradient><linearGradient x1="260.04786" y1="185.60915" x2="260.04786" y2="177.48721" gradientUnits="userSpaceOnUse" id="color-28"><stop offset="0" stop-color="#4d4d4d"/><stop offset="1" stop-color="#808080"/></linearGradient><linearGradient x1="255.10577" y1="187.34769" x2="255.10577" y2="177.74903" gradientUnits="userSpaceOnUse" id="color-29"><stop offset="0" stop-color="#4d4d4d"/><stop offset="1" stop-color="#808080"/></linearGradient><linearGradient x1="242.98122" y1="190.09224" x2="242.98122" y2="178.72153" gradientUnits="userSpaceOnUse" id="color-30"><stop offset="0" stop-color="#4d4d4d"/><stop offset="1" stop-color="#808080"/></linearGradient><linearGradient x1="249.3667" y1="189.05271" x2="249.3667" y2="178.27269" gradientUnits="userSpaceOnUse" id="color-31"><stop offset="0" stop-color="#4d4d4d"/><stop offset="1" stop-color="#808080"/></linearGradient><linearGradient x1="240.00009" y1="175.25003" x2="240.00009" y2="307.25003" gradientUnits="userSpaceOnUse" id="color-32"><stop offset="0" stop-color="#000000"/><stop offset="1" stop-color="#662c00"/></linearGradient><linearGradient x1="240.07701" y1="76.54784" x2="240.07701" y2="197.14451" gradientUnits="userSpaceOnUse" id="color-33"><stop offset="0" stop-color="#1a0b00"/><stop offset="1" stop-color="#803700"/></linearGradient><linearGradient x1="213.11028" y1="149.68385" x2="213.11028" y2="191.9149" gradientUnits="userSpaceOnUse" id="color-34"><stop offset="0" stop-color="#1a0000" stop-opacity="0.37647"/><stop offset="1" stop-color="#800000" stop-opacity="0.41569"/></linearGradient><linearGradient x1="266.48125" y1="150.10607" x2="266.48125" y2="193.30607" gradientUnits="userSpaceOnUse" id="color-35"><stop offset="0" stop-color="#1a0000" stop-opacity="0.37647"/><stop offset="1" stop-color="#800000" stop-opacity="0.41569"/></linearGradient><linearGradient x1="267.12926" y1="127.18464" x2="267.12926" y2="174.14594" gradientUnits="userSpaceOnUse" id="color-36"><stop offset="0" stop-color="#808080"/><stop offset="1" stop-color="#804040"/></linearGradient><linearGradient x1="312.18428" y1="113.16322" x2="312.18428" y2="158.49655" gradientUnits="userSpaceOnUse" id="color-37"><stop offset="0" stop-color="#331600"/><stop offset="1" stop-color="#994200"/></linearGradient><linearGradient x1="302.23488" y1="113.49654" x2="302.23488" y2="161.82987" gradientUnits="userSpaceOnUse" id="color-38"><stop offset="0" stop-color="#33251a"/><stop offset="1" stop-color="#996e4d"/></linearGradient><linearGradient x1="224.28462" y1="207.8165" x2="197.83872" y2="198.17739" gradientUnits="userSpaceOnUse" id="color-39"><stop offset="0" stop-color="#000000"/><stop offset="1" stop-color="#807f68"/></linearGradient><linearGradient x1="224.28462" y1="207.8165" x2="197.83872" y2="198.17739" gradientUnits="userSpaceOnUse" id="color-40"><stop offset="0" stop-color="#000000"/><stop offset="1" stop-color="#807f68"/></linearGradient><linearGradient x1="222.01307" y1="218.13551" x2="194.11028" y2="214.42981" gradientUnits="userSpaceOnUse" id="color-41"><stop offset="0" stop-color="#000000"/><stop offset="1" stop-color="#807f68"/></linearGradient><linearGradient x1="224.23753" y1="207.07232" x2="198.52837" y2="195.6121" gradientUnits="userSpaceOnUse" id="color-42"><stop offset="0" stop-color="#000000"/><stop offset="1" stop-color="#807f68"/></linearGradient><linearGradient x1="256.2909" y1="207.80747" x2="282.74265" y2="198.18444" gradientUnits="userSpaceOnUse" id="color-43"><stop offset="0" stop-color="#000000"/><stop offset="1" stop-color="#807f68"/></linearGradient><linearGradient x1="258.55618" y1="218.12786" x2="286.46122" y2="214.43912" gradientUnits="userSpaceOnUse" id="color-44"><stop offset="0" stop-color="#000000"/><stop offset="1" stop-color="#807f68"/></linearGradient><linearGradient x1="204.18215" y1="92.0865" x2="204.18215" y2="103.5216" gradientUnits="userSpaceOnUse" id="color-45"><stop offset="0" stop-color="#38281d"/><stop offset="1" stop-color="#4d3626"/></linearGradient><linearGradient x1="294.71002" y1="57.57557" x2="294.71002" y2="103.79584" gradientUnits="userSpaceOnUse" id="color-46"><stop offset="0" stop-color="#4d3626"/><stop offset="1" stop-color="#301500"/></linearGradient><linearGradient x1="315.22743" y1="42.50162" x2="315.22743" y2="77.83494" gradientUnits="userSpaceOnUse" id="color-47"><stop offset="0" stop-color="#331600"/><stop offset="1" stop-color="#994200"/></linearGradient><linearGradient x1="240.65668" y1="53.77894" x2="240.65668" y2="131.11237" gradientUnits="userSpaceOnUse" id="color-48"><stop offset="0" stop-color="#33251a"/><stop offset="1" stop-color="#996e4d"/></linearGradient><linearGradient x1="245.69909" y1="96.83237" x2="245.69909" y2="118.1657" gradientUnits="userSpaceOnUse" id="color-49"><stop offset="0" stop-color="#321500" stop-opacity="0"/><stop offset="1" stop-color="#321500"/></linearGradient><linearGradient x1="238.66888" y1="230.44699" x2="238.66888" y2="274.5439" gradientUnits="userSpaceOnUse" id="color-50"><stop offset="0" stop-color="#061a03" stop-opacity="0.73725"/><stop offset="1" stop-color="#061a03" stop-opacity="0"/></linearGradient><linearGradient x1="222.40848" y1="227.3588" x2="196.65953" y2="238.72937" gradientUnits="userSpaceOnUse" id="color-51"><stop offset="0" stop-color="#000000"/><stop offset="1" stop-color="#807f68"/></linearGradient><linearGradient x1="258.1134" y1="228.73804" x2="285.74304" y2="234.114" gradientUnits="userSpaceOnUse" id="color-52"><stop offset="0" stop-color="#000000"/><stop offset="1" stop-color="#807f68"/></linearGradient></defs><g transform="translate(-137,-13.5)"><g data-paper-data="{&quot;isPaintingLayer&quot;:true}" fill-rule="nonzero" stroke-linejoin="miter" stroke-miterlimit="10" stroke-dasharray="" stroke-dashoffset="0" style="mix-blend-mode: normal"><path d="M178.409,313.61251c0,0 0,-50.23147 0,-102.11251c0,-36.15833 0,-73.11791 0,-94.43222c0,-1.0718 0,-2.10404 0,-3.09463c0,-28.48396 0,-67.58565 0,-67.58565h123.18203v267.22501z" fill-opacity="0.01" fill="#000000" stroke="none" stroke-width="0" stroke-linecap="butt"/><path d="M175.71343,111.94944c1.77166,-2.01069 4.77693,-3.51128 6.40276,-5.65402c1.04011,1.84995 3.8907,1.40572 4.75,3.35378c-0.53129,0.68341 -2.8509,4.5514 -3.35717,5.20188c-0.01606,0.02063 -0.13395,-2.61848 -0.15104,-2.6741c-0.00617,-0.02007 -3.8421,2.61182 -3.84566,2.61117c-0.00145,-0.00026 -0.37228,-2.47161 -0.41511,-2.4532c-0.04575,0.01967 -3.40293,-0.36377 -3.38379,-0.3855z" fill="url(#color-1)" stroke="#000000" stroke-width="0" stroke-linecap="butt"/><path d="M178.32895,118.48748c0,0 -0.4872,-0.97428 -0.33575,-2.28577c0.09399,-0.81383 0.71801,-1.5796 0.99617,-1.92421c0.99218,-1.22927 2.60059,-2.70357 4.65761,-2.79886c1.07732,-0.90498 -0.87925,-3.20221 -0.87925,-3.20221" fill="none" stroke="url(#color-2)" stroke-width="1" stroke-linecap="round"/><path d="M181.46278,117.87745c0,0 0.28081,-3.69302 1.16233,-4.69455c0.92961,-1.05614 2.53425,-3.62273 2.53425,-3.62273" fill="none" stroke="url(#color-3)" stroke-width="1" stroke-linecap="round"/><path d="M174.38741,114.80667c0,0 1.31642,0.17578 2.59987,-1.09934c1.17508,-1.16746 1.97711,-3.19891 2.80326,-4.33746c1.1694,-1.61162 3.76128,-0.41611 3.76128,-0.41611" fill="none" stroke="url(#color-4)" stroke-width="1" stroke-linecap="round"/><path d="M223.1775,292.25003l11.02261,-95.96902l27.50276,-0.11493l4.57184,44.4591c-3.38491,2.28972 -5.60998,6.16433 -5.60998,10.55865c0,3.87669 1.73174,7.3489 4.46383,9.68527c-0.22171,0.94127 -0.33902,1.92284 -0.33902,2.93181c0,4.07966 1.91783,7.7114 4.9011,10.04281l1.89277,18.4063h-6.42482h-34.57567zM263.33878,226.35215c-0.05689,-11.32032 -7.01591,-13.85621 -16.01399,-14.01225c-8.99807,-0.15604 -15.51022,5.07743 -15.46806,13.46631c0.01814,3.61057 0.92395,8.29232 2.80894,12.46924c-0.26311,0.80303 -0.40541,1.6608 -0.40541,2.55179c0,4.49225 3.61721,8.13965 8.09791,8.18848c0.42133,2.07683 2.25736,3.64004 4.45852,3.64004c2.15811,0 3.96525,-1.50267 4.43219,-3.5188c0.01881,0.00038 0.03767,0.00057 0.05657,0.00057c1.27495,0 2.34578,-0.87409 2.64584,-2.05571c6.37758,-3.35834 9.43151,-11.96835 9.38749,-20.72967zM240.1442,251.80654c0.50252,0 0.90989,-0.40737 0.90989,-0.90988c0,-0.50252 -0.40737,-0.90989 -0.90989,-0.90989c-0.50252,0 -0.90988,0.40737 -0.90988,0.90989c0,0.50252 0.40736,0.90988 0.90988,0.90988z" fill="#2c0000" stroke="#000000" stroke-width="0" stroke-linecap="butt"/><path d="M137,346.5v-333h206v333z" fill="none" stroke="#000000" stroke-width="0" stroke-linecap="butt"/><path d="M206.75009,307.25002l15.14285,-131.8421l37.78325,-0.15789c0,0 3.7366,36.33678 5.8143,56.54144c0.72411,7.04161 -19.28247,20.36889 -18.24813,30.4274c1.08165,10.51859 23.20805,17.80566 24.118,26.65453c1.10423,10.73811 1.88971,18.37663 1.88971,18.37663z" fill="#000000" stroke="#000000" stroke-width="0" stroke-linecap="butt"/><path d="M237.42933,231.01575l0.25,-39.10672h4.74451v20.60672c0,0 1.85445,16.82556 1.61432,17.77397c-1.01797,4.02056 -5.73565,-1.50827 -6.26949,0.46911c-0.17813,0.65981 -0.33934,0.25692 -0.33934,0.25692z" fill="#141e16" stroke="none" stroke-width="0" stroke-linecap="butt"/><path d="M240.9381,182.34465c-38.30284,-0.35933 -57.65369,-6.93048 -57.65369,-40.96749c0,-19.97243 8.26966,-35.6844 21.89981,-45.259c9.59834,-6.74242 21.85493,-10.44136 35.75387,-10.44136c18.70577,0 35.4419,8.53352 46.61398,21.96331c-0.29198,1.14938 -0.59681,2.35867 -0.92118,3.63444c-1.07716,4.23657 -3.12729,12.10221 -4.57647,18.09673c-2.17143,8.98212 -4.3371,17.96586 -6.5,26.95037c-0.75158,3.12198 -1.51273,6.28874 -2.18275,9.43297c-0.93955,4.40904 -2.36739,10.15163 -3.58865,16.19957c-7.75963,0.50144 -17.26179,0.49911 -28.84493,0.39045z" fill="url(#color-5)" stroke="#000000" stroke-width="0" stroke-linecap="butt"/><path d="M293.99372,133.84776c0,31.09183 -26.85129,56.29674 -59.97404,56.29674c-20.90491,0 -39.31172,-10.0399 -50.04663,-25.26314c5.25141,-1.46273 9.75681,-4.71556 12.81729,-9.0596c1.66617,0.37757 3.39999,0.5769 5.18037,0.5769c12.89084,0 23.34092,-10.45008 23.34092,-23.34092c0,-3.46572 -0.75535,-6.75502 -2.11039,-9.71226c3.91449,-4.17433 6.31176,-9.78859 6.31176,-15.96276c0,-4.49828 -1.27248,-8.69936 -3.47711,-12.26291c5.8032,-3.8391 9.7908,-10.20184 10.39853,-17.524c32.00324,1.18956 57.5593,25.91927 57.5593,56.25193z" fill="url(#color-6)" stroke="#000000" stroke-width="0" stroke-linecap="butt"/><path d="M242.1274,183.82988c18.36347,0 33.91667,-6.77149 33.91667,-2.58333c0,4.18816 -14.88653,14.41667 -33.25,14.41667c-18.36347,0 -33.25,-10.22851 -33.25,-14.41667c0,-4.18816 14.21986,2.58333 32.58333,2.58333z" fill="url(#color-7)" stroke="none" stroke-width="0" stroke-linecap="butt"/><g stroke="none" stroke-width="0" stroke-linecap="butt"><g><path d="M207.84278,173.59087c0,0 -0.76271,-6.83333 2.04112,-6.83333c2.80384,0 2.21862,6.83333 2.21862,6.83333z" fill="url(#color-8)"/><path d="M210.15371,174.25754c0,0 -0.91153,-8.16667 2.43939,-8.16667c3.35093,0 2.65152,8.16667 2.65152,8.16667z" fill="url(#color-9)"/><path d="M213.84525,174.75754c0,0 -1.02315,-9.16667 2.73809,-9.16667c3.76124,0 2.97619,9.16667 2.97619,9.16667z" fill="url(#color-10)"/><path d="M218.8311,175.59087c0,0 -1.20917,-10.83333 3.23593,-10.83333c4.4451,0 3.51732,10.83333 3.51732,10.83333z" fill="url(#color-11)"/><path d="M231.71416,176.75754c0,0 -1.43241,-12.83333 3.83333,-12.83333c5.26574,0 4.16667,12.83333 4.16667,12.83333z" fill="url(#color-12)"/><path d="M224.80869,176.25754c0,0 -1.35799,-12.16667 3.6342,-12.16667c4.99219,0 3.95022,12.16667 3.95022,12.16667z" fill="url(#color-13)"/></g><g><path d="M266.95506,173.4242c0,0 -0.58522,-6.83333 2.21862,-6.83333c2.80383,0 2.04112,6.83333 2.04112,6.83333z" fill="url(#color-14)"/><path d="M263.81296,174.09087c0,0 -0.69941,-8.16667 2.65152,-8.16667c3.35092,0 2.43939,8.16667 2.43939,8.16667z" fill="url(#color-15)"/><path d="M259.49805,174.59087c0,0 -0.78505,-9.16667 2.97619,-9.16667c3.76124,0 2.73809,9.16667 2.73809,9.16667z" fill="url(#color-16)"/><path d="M253.47323,175.4242c0,0 -0.92778,-10.83333 3.51732,-10.83333c4.4451,0 3.23593,10.83333 3.23593,10.83333z" fill="url(#color-17)"/><path d="M239.34342,176.59087c0,0 -1.09907,-12.83333 4.16667,-12.83333c5.26574,0 3.83333,12.83333 3.83333,12.83333z" fill="url(#color-18)"/><path d="M246.66447,176.09087c0,0 -1.04197,-12.16667 3.95022,-12.16667c4.99219,0 3.6342,12.16667 3.6342,12.16667z" fill="url(#color-19)"/></g></g><g stroke="none" stroke-width="0" stroke-linecap="butt"><g><path d="M214.71381,176.06587c0,0 0.52535,6.1342 -1.99162,6.1342c-2.51697,0 -1.83229,-6.1342 -1.83229,-6.1342z" fill="url(#color-20)"/><path d="M217.53443,176.92616c0,0 0.62784,7.33112 -2.38024,7.33112c-3.00808,0 -2.18981,-7.33112 -2.18981,-7.33112z" fill="url(#color-21)"/><path d="M221.40787,177.48721c0,0 0.70473,8.22881 -2.67169,8.22881c-3.37641,0 -2.45795,-8.22881 -2.45795,-8.22881z" fill="url(#color-22)"/><path d="M226.81629,177.74903c0,0 0.83285,9.72495 -3.15746,9.72495c-3.99031,0 -2.90485,-9.72495 -2.90485,-9.72495z" fill="url(#color-23)"/><path d="M239.50044,178.72153c0,0 0.98663,11.52033 -3.74036,11.52033c-4.72699,0 -3.44114,-11.52033 -3.44114,-11.52033z" fill="url(#color-24)"/><path d="M232.92843,178.27269c0,0 0.93537,10.92187 -3.54606,10.92187c-4.48143,0 -3.26237,-10.92187 -3.26237,-10.92187z" fill="url(#color-25)"/></g><g><path d="M268.00101,176.06587c0,0 0.68468,6.1342 -1.83229,6.1342c-2.51697,0 -1.99162,-6.1342 -1.99162,-6.1342z" fill="url(#color-26)"/><path d="M265.92653,176.92616c0,0 0.81827,7.33112 -2.18981,7.33112c-3.00808,0 -2.38024,-7.33112 -2.38024,-7.33112z" fill="url(#color-27)"/><path d="M262.61268,177.48721c0,0 0.91846,8.22881 -2.45795,8.22881c-3.37642,0 -2.67169,-8.22881 -2.67169,-8.22881z" fill="url(#color-28)"/><path d="M258.13693,177.74903c0,0 1.08546,9.72495 -2.90485,9.72495c-3.99031,0 -3.15746,-9.72495 -3.15746,-9.72495z" fill="url(#color-29)"/><path d="M246.57197,178.72153c0,0 1.28585,11.52033 -3.44114,11.52033c-4.72699,0 -3.74036,-11.52033 -3.74036,-11.52033z" fill="url(#color-30)"/><path d="M252.77091,178.27269c0,0 1.21906,10.92187 -3.26237,10.92187c-4.48143,0 -3.54606,-10.92187 -3.54606,-10.92187z" fill="url(#color-31)"/></g></g><path d="M254.1398,244.98274c-2.38432,4.68158 -8.07343,6.20131 -16.2266,2.04891c-8.15317,-4.1524 -7.51212,-7.69951 -5.1278,-12.38109c1.74336,-3.42307 8.4744,1.77661 13.60137,-0.78246c4.45458,-2.22346 6.71317,-9.87508 10.19654,-8.101c8.15317,4.1524 -0.05917,14.53405 -2.44349,19.21564z" fill="#28302a" stroke="none" stroke-width="0" stroke-linecap="butt"/><path d="M226.00861,255.29059v-12.15005c0,0 10.52381,1.67063 15.57143,1.67063c5.04762,0 14.71428,-1.67063 14.71428,-1.67063v12.15005z" fill="#2a3c2b" stroke="none" stroke-width="0" stroke-linecap="butt"/><path d="M224.45147,254.62631c-2.23107,0.23437 -5.13008,-6.89872 -5.34254,-12.94726c-0.11631,-3.31144 1.11876,-6.20724 2.43989,-7.60155c2.62432,-2.76969 11.64995,-5.46117 19.64557,-4.926c5.09527,0.34104 10.62186,2.60921 11.05517,5.00463c0.3339,1.84585 -3.35451,3.27591 -6.73192,5.84613c-1.44991,1.10338 -2.88846,3.03522 -4.67704,3.8493c-3.37293,1.53519 -6.6843,3.24816 -6.6843,3.24816c0,0 -1.36569,1.4435 -2.6808,2.59333c-2.5043,2.18956 -5.91616,4.8169 -7.02404,4.93328z" fill="#0f1a0d" stroke="none" stroke-width="0" stroke-linecap="butt"/><path d="M230.83596,233.77871c-3.38278,0.22871 -4.04631,-4.81465 -5.11115,-6.53208c-1.98288,-3.19809 -2.14951,-4.98029 -1.26118,-10.97664c0.51583,-3.4819 3.01286,-6.46056 4.14596,-9.0949c1.97755,-4.59758 3.07415,-7.73718 5.71831,-7.73718c4.15921,0 5.86427,7.61171 5.86427,17.00122c0,5.49269 -1.23305,8.91913 -3.26112,12.08078c-1.43884,2.24305 -2.97983,5.04817 -6.09508,5.25879z" fill="#1a271c" stroke="none" stroke-width="0" stroke-linecap="butt"/><path d="M256.32483,214.84825c1.30391,4.23835 -0.41379,7.24239 -0.32155,10.52429c0.10156,3.6137 0.3809,8.80769 -4.68674,9.23373c-2.47928,0.20844 -4.68779,-3.20123 -6.25548,-4.63191c-3.17277,-2.89547 -2.98216,-6.42473 -3.92987,-12.63724c-0.53975,-3.53827 0.56539,-6.05458 0.71277,-8.84816c0.23925,-4.53497 0.14103,-8.47999 2.68536,-8.86812c3.42529,-0.52252 5.61187,1.82229 8.47207,8.68105c0.57313,1.37436 2.84912,5.00461 3.32343,6.54635z" fill="#1a271c" stroke="none" stroke-width="0" stroke-linecap="butt"/><path d="M234.19981,217.65433c0.62625,-4.33492 2.59897,-7.71467 7.53251,-6.92469c5.53678,0.88659 6.06142,4.99735 5.43517,9.33227c-0.62625,4.33492 -0.9369,9.21301 -5.09925,10.08071c-4.06059,0.84651 -8.49468,-8.15339 -7.86843,-12.4883z" fill="#332b12" stroke="none" stroke-width="0" stroke-linecap="butt"/><path d="M206.75009,307.25002l15.14285,-131.8421l37.78325,-0.15789l6.28079,61.07785c-4.65019,3.14562 -7.70697,8.46856 -7.70697,14.50545c0,5.32579 2.37906,10.09591 6.13241,13.30562c-0.30459,1.29312 -0.46574,2.6416 -0.46574,4.02772c0,5.60464 2.63471,10.5939 6.73313,13.7968l2.60028,25.28656h-8.82641l-47.5,-0.00001zM261.92362,216.71962c-0.07815,-15.55184 -9.63846,-19.03564 -22,-19.25c-12.36154,-0.21436 -21.30792,6.97536 -21.25,18.5c0.02493,4.96019 1.26933,11.39197 3.85892,17.13022c-0.36146,1.10321 -0.55695,2.2816 -0.55695,3.50564c0,6.17145 4.96932,11.18225 11.12489,11.24932c0.57882,2.85314 3.10117,5.00068 6.12511,5.00068c2.96481,0 5.44745,-2.06437 6.08894,-4.83412c0.02585,0.00053 0.05175,0.00079 0.07772,0.00079c1.75153,0 3.22261,-1.20083 3.63484,-2.82413c8.76152,-4.61368 12.95701,-16.44211 12.89652,-28.4784zM229.83334,255.08334c1.38071,0 2.5,-1.11929 2.5,-2.5c0,-1.38071 -1.11929,-2.5 -2.5,-2.5c-1.38071,0 -2.5,1.11929 -2.5,2.5c0,1.38071 1.11929,2.5 2.5,2.5zM252.5,248.75c0.82843,0 1.5,-0.67157 1.5,-1.5c0,-0.82843 -0.67157,-1.5 -1.5,-1.5c-0.82843,0 -1.5,0.67157 -1.5,1.5c0,0.82843 0.67157,1.5 1.5,1.5zM225.5,248.66667c0.41422,0 0.75,-0.33579 0.75,-0.75c0,-0.41422 -0.33578,-0.75 -0.75,-0.75c-0.41422,0 -0.75,0.33578 -0.75,0.75c0,0.41422 0.33578,0.75 0.75,0.75z" fill="url(#color-32)" stroke="#000000" stroke-width="0" stroke-linecap="butt"/><path d="M304.31403,136.84617c0,33.30185 -28.7599,60.29833 -64.23702,60.29833c-22.39084,0 -42.10601,-10.75354 -53.60396,-27.05885c5.62468,-1.5667 10.45033,-5.05075 13.72835,-9.70355c1.7846,0.4044 3.64167,0.61791 5.5486,0.61791c13.80712,0 25,-11.19288 25,-25c0,-3.71206 -0.80903,-7.23517 -2.26039,-10.4026c4.19274,-4.47105 6.76039,-10.48437 6.76039,-17.0974c0,-4.81802 -1.36293,-9.31771 -3.72427,-13.13456c6.2157,-4.11198 10.48673,-10.92699 11.13766,-18.76962c34.27804,1.27411 61.65063,27.76163 61.65063,60.25035z" fill="url(#color-33)" stroke="#000000" stroke-width="0" stroke-linecap="butt"/><path d="M201.27839,184.85631c-0.28802,-1.15671 -0.45827,-2.99725 -0.50373,-5.1594c-0.03934,-1.87109 0.16416,-3.98303 0.16416,-6.10109c0,-7.53623 0.34286,-23.91197 0.34286,-23.91197h23.6572c0,0 -1.14286,16.09763 -1.14286,23.48539c0,1.13864 -0.19927,3.37804 -0.16045,5.53509c0.04939,2.74367 0.23684,5.3541 -0.98388,5.39657c-2.21906,0.07721 -0.68264,-4.24952 -2.44196,-3.92345c-0.41422,0.07677 -1.32583,-1.38649 -1.6009,-2.97988c-0.47183,-2.73312 -0.23614,-6.23755 -0.82637,-5.81667c-0.64979,0.46336 -1.33864,6.42609 -1.46123,11.52474c-0.09875,4.10703 0.45083,7.58318 -0.47113,7.71158c-1.08287,0.15081 -2.11519,-3.77941 -2.55192,-7.33075c-0.35105,-2.85464 -0.10496,-5.46447 -0.80187,-5.5131c-2.29594,-0.16019 -1.15643,5.05038 -3.16217,5.26721c-0.41296,0.04464 -0.96436,1.07665 -1.02745,2.50813c-0.0836,1.89673 1.94649,4.24786 1.35796,4.35984c-0.14903,0.02836 -2.27988,-0.7421 -2.99968,-1.42327c-0.80339,-0.76027 -1.20006,-1.65749 -1.30228,-3.22004c-0.31978,-4.88829 0.0701,-9.8347 -0.35509,-9.68935c-0.68231,0.23324 -1.30011,2.09844 -1.6401,4.19951c-0.3215,1.98686 -0.48245,4.18465 -0.76342,5.41279c-0.13563,0.59285 0.70077,1.10261 0.47763,1.11076c0,0 -1.5958,-0.6093 -1.80331,-1.44265z" fill="url(#color-34)" stroke="none" stroke-width="0" stroke-linecap="butt"/><path d="M211.375,101.08265c0,2.48528 -2.07068,4.5 -4.625,4.5c-2.55432,0 -4.625,-2.01472 -4.625,-4.5c0,-2.48528 2.07068,-4.5 4.625,-4.5c2.55432,0 4.625,2.01472 4.625,4.5z" fill-opacity="0.47059" fill="#000000" stroke="none" stroke-width="0" stroke-linecap="butt"/><path d="M267.00426,177.27094c-12.968,0 -23.48065,-11.24019 -23.48065,-25.10565c0,-13.86546 10.51265,-25.10565 23.48065,-25.10565c12.968,0 23.48065,11.24019 23.48065,25.10565c0,13.86546 -10.51265,25.10565 -23.48065,25.10565z" fill-opacity="0.3451" fill="#000000" stroke="#000000" stroke-width="0" stroke-linecap="butt"/><path d="M258.42422,189.10607c-1.25418,-0.2896 -1.0134,-4.02256 -0.97775,-8.19668c0.01893,-2.21677 -0.2922,-5.41951 -0.31616,-6.39906c-0.13549,-5.53893 -0.79144,-24.40426 -0.79144,-24.40426h20.28476c0,0 1.51662,20.68394 1.51662,28.4c0,2.28336 0.05857,4.83925 -0.00365,7.20293c-0.0297,1.12835 -4.31632,3.13312 -4.29299,2.4378c0.02709,-0.80744 0.76165,-1.47827 0.74325,-2.23692c-0.05471,-2.256 -0.78243,-3.67591 -1.57588,-4.17165c-0.46482,-0.29041 -0.40543,1.98256 -0.56753,3.74749c-0.21702,2.36296 -1.10938,4.30639 -2.3204,4.18484c-1.593,-0.15989 -0.77351,-3.61399 -0.77799,-6.96495c-0.00363,-2.71362 -0.39706,-5.26593 -1.28284,-5.70099c0,0 -0.39585,3.10348 -1.75537,3.35784c-1.82027,0.34056 -0.31943,3.99436 -2.42165,3.94814c-2.36645,-0.05203 -2.09875,-8.75854 -2.88249,-8.46538c-0.62459,0.23362 -0.08766,2.71264 -0.13144,5.46725c-0.06089,3.83046 -0.71367,8.19384 -2.44704,7.7936z" fill="url(#color-35)" stroke="none" stroke-width="0" stroke-linecap="butt"/><path d="M267.12926,174.14594c-12.968,0 -23.48065,-10.51265 -23.48065,-23.48065c0,-12.968 10.51265,-23.48065 23.48065,-23.48065c12.968,0 23.48065,10.51265 23.48065,23.48065c0,12.968 -10.51265,23.48065 -23.48065,23.48065z" fill="url(#color-36)" stroke="#000000" stroke-width="0" stroke-linecap="butt"/><path d="M269.51671,171.94842c-9.12807,0 -16.52783,-7.39977 -16.52783,-16.52784c0,-9.12808 7.39977,-16.52784 16.52783,-16.52784c9.12807,0 16.52783,7.39977 16.52783,16.52784c0,9.12808 -7.39977,16.52784 -16.52783,16.52784z" fill="#000000" stroke="none" stroke-width="0" stroke-linecap="butt"/><path d="M302.45653,158.49655c-1.18635,0 -1.01423,-45.33333 0,-45.33333c11.20142,0 20.28197,10.14821 20.28197,22.66667c0,12.51845 -9.08055,22.66666 -20.28197,22.66666z" fill="url(#color-37)" stroke="#000000" stroke-width="0" stroke-linecap="butt"/><path d="M297.16436,161.82987c0,0 1,-15.03883 1,-25.57987c0,-18.06997 -1,-25.75347 -1,-25.75347l10.14098,0.33333v48.33334z" fill="url(#color-38)" stroke="#000000" stroke-width="0" stroke-linecap="butt"/><path d="M227.50707,190.04609h25.10959" fill="none" stroke="#000000" stroke-width="0" stroke-linecap="round"/><path d="M252.61666,191.22752h-25.10959" fill="none" stroke="#000000" stroke-width="2" stroke-linecap="round"/><path d="M265.96236,114.05472c-3.9295,-0.92235 -11.96762,-0.86207 -11.96762,-0.86207c0,0 7.24586,-1.8937 12.33413,-0.69937c5.08826,1.19433 11.79721,6.36355 11.79721,6.36355c0,0 -8.05724,-3.83822 -12.16372,-4.80211z" fill="#000000" stroke="none" stroke-width="0" stroke-linecap="butt"/><path d="" fill="url(#color-39)" stroke="none" stroke-width="0" stroke-linecap="butt"/><path d="" fill="url(#color-40)" stroke="none" stroke-width="0" stroke-linecap="butt"/><path d="M206.66013,219.72043c-1.83301,-0.24344 -4.30097,-0.80568 -6.58357,-1.38694c-3.32671,-0.84715 -6.25973,0.01528 -6.25973,0.01528l0.33691,-5.08792c0,0 2.95038,-0.0325 6.10689,0.90987c2.37754,0.70981 5.01387,1.40537 6.94993,1.6625c2.03931,0.27083 5.08739,-0.91522 7.91182,-0.93089c3.79384,-0.02105 7.18416,1.06422 7.18416,1.06422l-0.58691,4.33792c0,0 -3.18528,-1.23426 -6.83414,-1.32981c-2.90606,-0.0761 -6.10615,1.02721 -8.22535,0.74577z" fill="url(#color-41)" stroke="none" stroke-width="0" stroke-linecap="butt"/><path d="M209.06473,204.24195c-4.15034,-1.85008 -11.43238,-6.63295 -11.43238,-6.63295l1.79203,-3.99382c0,0 2.31062,1.6894 5.06683,3.48541c0.06132,0.47029 0.31247,0.91422 0.73158,1.2077c0.29967,0.20984 0.64226,0.31269 0.9824,0.31655c0.00582,0.38754 0.19123,0.76687 0.53297,1.00617c0.5126,0.35894 1.20097,0.27962 1.62021,-0.15954c0.83155,0.46886 1.62683,0.88258 2.33569,1.19855c4.40287,1.96264 14.43948,4.40539 14.43948,4.40539l-1.79203,3.99383c0,0 -9.8725,-2.86401 -14.27678,-4.82728zM208.03099,202.0187c0.3393,0.23759 0.80696,0.15515 1.04455,-0.18416c0.23759,-0.3393 0.15515,-0.80696 -0.18416,-1.04455c-0.3393,-0.23759 -0.80696,-0.15515 -1.04455,0.18416c-0.23759,0.3393 -0.15515,0.80696 0.18416,1.04455zM206.07084,201.08212c0.1131,0.0792 0.26899,0.05171 0.34818,-0.06139c0.0792,-0.1131 0.05171,-0.26899 -0.06139,-0.34818c-0.1131,-0.0792 -0.26899,-0.05171 -0.34818,0.06139c-0.0792,0.1131 -0.05171,0.26899 0.06139,0.34818z" fill="url(#color-42)" stroke="none" stroke-width="0" stroke-linecap="butt"/><path d="M257.0442,209.86247l-1.50659,-4.11001c0,0 4.0474,-0.1878 8.17405,-1.1091c2.41911,-0.54009 4.86544,-1.66041 6.5396,-2.26947c1.56177,-0.56816 3.55039,-2.80545 5.44505,-3.8295c3.28803,-1.77714 6.29306,-2.41497 6.29306,-2.41497l1.5066,4.86c0,0 -2.93598,-0.35492 -6.18361,1.26331c-1.97767,0.98543 -4.07092,3.2109 -5.68711,3.79887c-1.64231,0.59747 -4.0094,1.76242 -6.36022,2.36746c-4.1356,1.0644 -8.22081,1.44341 -8.22081,1.44341z" fill="url(#color-43)" stroke="none" stroke-width="0" stroke-linecap="butt"/><path d="M258.84832,220.297l-0.58427,-4.33828c0,0 10.31713,0.50756 15.09605,-0.12416c1.83163,-0.24212 4.29013,-0.87621 6.56345,-1.54367c3.32029,-0.97486 6.24553,-2.02091 6.24553,-2.02091c0,0 -2.70431,3.19813 -2.6797,3.38093c0.02349,0.17441 3.26397,0.95733 3.26397,0.95733c0,0 -2.31406,0.69872 -5.16272,1.44712c-2.55947,0.67241 -5.5505,1.38492 -7.68247,1.66674c-4.78046,0.63192 -15.05983,0.57489 -15.05983,0.57489z" fill="url(#color-44)" stroke="none" stroke-width="0" stroke-linecap="butt"/><path d="M202.43798,101.7886c-0.24919,-0.24918 -1.06894,-1.19693 -1.75218,-1.84008c-0.73514,-0.69201 -1.33854,-1.08396 -1.67795,-1.42338c0.13448,-0.06141 2.59753,0.194 2.64543,0.0609c0.1136,-0.3157 -1.41115,-3.0009 -1.03539,-3.00554c0.01166,0.02982 2.69313,0.12348 2.74824,0.08301c0.13093,-0.09614 -1.73686,-3.32573 -1.75935,-3.57701c0.23645,0.23645 2.37588,1.40964 3.89387,2.51503c1.20479,0.87732 1.8331,1.71193 2.12278,2.00162c4.50338,4.50338 -0.68206,9.68882 -5.18544,5.18545z" fill="url(#color-45)" stroke="#000000" stroke-width="0" stroke-linecap="butt"/><g stroke="#000000" stroke-width="0" stroke-linecap="butt"><path d="M273.33288,96.8774c8.84174,-8.84174 39.30183,-39.30183 39.30183,-39.30183l5.18545,5.18544c0,0 -30.46009,30.46009 -39.30183,39.30183c-4.50338,4.50338 -9.68882,-0.68207 -5.18544,-5.18545z" fill="url(#color-46)"/><path d="M302.73521,72.66051c-6.89926,-6.89926 -6.89926,-18.08518 0,-24.98444c6.89926,-6.89926 18.08518,-6.89926 24.98444,0c6.89926,6.89926 6.89926,18.08518 0,24.98444c-6.89926,6.89926 -18.08518,6.89926 -24.98444,0z" fill="url(#color-47)"/></g><path d="M177.31345,110.73423c3.78487,-4.29553 7.69703,-8.9315 10.30647,-13.58737c6.7137,-11.97888 5.54509,-24.08943 26.39414,-30.87215c7.73693,-2.51702 16.71567,-13.48185 27.13554,-13.49566c63.52073,-0.0842 72.7857,55.57616 74.12485,73.03878c0.00845,0.11019 0.29919,3.41794 -4.26917,3.77959c-3.16712,0.25072 -3.81099,-2.48504 -3.81099,-2.48504c0,0 -0.57473,-64.86172 -66.04469,-66.33334c-9.52701,-0.21415 -17.72104,10.14128 -24.76757,12.59942c-4.85468,1.69352 -10.8389,4.67527 -13.12027,7.5974c-4.1444,5.30843 -4.04578,11.92904 -8.16534,17.26367c-4.08623,5.29146 -6.6481,9.902 -10.07462,14.30457c-0.01935,0.02487 0.07961,-2.19173 0.05901,-2.25878c-0.00743,-0.02419 -4.63072,3.14791 -4.63502,3.14713c-0.00175,-0.00032 0.51551,-4.18419 0.46389,-4.162c-0.05514,0.0237 -3.6193,1.48997 -3.59623,1.46379z" fill="url(#color-48)" stroke="#000000" stroke-width="0" stroke-linecap="butt"/><path d="M263.61575,96.83237c0,0 2.90982,10.65645 3.49599,15.50293c0.46152,3.81586 -0.26266,11.2304 -0.26266,11.2304c0,0 -5.96301,-6.5326 -9.32305,-9.08664c-3.95397,-3.00549 -12.91028,-7.81337 -12.91028,-7.81337c0,0 2.81108,3.50724 2.25982,9.08155c-0.47234,4.77639 -4.25983,8.25179 -4.25983,8.25179c0,0 -3.53734,-11.37705 -7.19539,-14.23987" fill="url(#color-49)" stroke="#000000" stroke-width="0.5" stroke-linecap="round"/><path d="M213.00426,177.27094c-12.968,0 -23.48065,-11.24019 -23.48065,-25.10565c0,-13.86546 10.51265,-25.10565 23.48065,-25.10565c12.968,0 23.48065,11.24019 23.48065,25.10565c0,13.86546 -10.51265,25.10565 -23.48065,25.10565z" fill-opacity="0.3451" fill="#000000" stroke="#000000" stroke-width="0" stroke-linecap="butt"/><path d="M211.41185,266.6623c1.42602,-12.41568 4.15955,-36.21531 4.15955,-36.21531c2.07233,0.67343 2.74313,-2.84738 4.95958,-2.507c0.1612,0.38933 1.82838,4.77622 2.00157,5.16c-0.36146,1.10321 -0.55695,2.2816 -0.55695,3.50564c0,6.17145 4.96932,11.18225 11.12489,11.24932c0.57882,2.85314 3.10117,5.00068 6.12511,5.00068c2.96481,0 5.44745,-2.06437 6.08894,-4.83412c0.02585,0.00053 0.05175,0.00079 0.07772,0.00079c1.75153,0 3.22261,-1.20083 3.63484,-2.82413c4.95485,-2.60915 8.44941,-7.5257 10.53974,-13.48236c1.98473,-0.0554 3.96646,0.02756 5.93899,0.22491l0.45116,4.38731c-4.65019,3.14562 -7.70697,8.46856 -7.70697,14.50545c0,5.32579 2.37906,10.09591 6.13241,13.30562c-0.30459,1.29312 -0.46574,2.6416 -0.46574,4.02772c0,5.60464 -54.01448,11.63933 -52.50483,-1.50452zM229.83334,255.08348c1.38071,0 2.5,-1.11929 2.5,-2.5c0,-1.38071 -1.11929,-2.5 -2.5,-2.5c-1.38071,0 -2.5,1.11929 -2.5,2.5c0,1.38071 1.11929,2.5 2.5,2.5zM252.5,248.75014c0.82843,0 1.5,-0.67157 1.5,-1.5c0,-0.82843 -0.67157,-1.5 -1.5,-1.5c-0.82843,0 -1.5,0.67157 -1.5,1.5c0,0.82843 0.67157,1.5 1.5,1.5zM225.5,248.66681c0.41422,0 0.75,-0.33579 0.75,-0.75c0,-0.41422 -0.33578,-0.75 -0.75,-0.75c-0.41422,0 -0.75,0.33578 -0.75,0.75c0,0.41422 0.33578,0.75 0.75,0.75z" fill="url(#color-50)" stroke="#000000" stroke-width="0" stroke-linecap="butt"/><path d="M210.12826,236.70871c-2.21028,0.97605 -5.62952,2.05213 -8.3471,2.84589c0.28522,-0.67425 -0.16497,-1.31696 -0.5009,-1.97653c0.16533,-0.29479 0.58664,-0.63794 0.717,-0.9948c0.16269,-0.44534 0.00363,-0.90939 -0.15279,-1.29703c2.38005,-0.62917 4.95959,-1.40116 6.7289,-2.18247c4.40967,-1.94728 12.95586,-7.7493 12.95586,-7.7493l1.7585,4.0087c0,0 -8.74837,5.39765 -13.15948,7.34556z" fill="url(#color-51)" stroke="none" stroke-width="0" stroke-linecap="butt"/><path d="M189.39021,150.6653c0,-12.968 10.51265,-23.48065 23.48065,-23.48065c12.968,0 23.48065,10.51265 23.48065,23.48065c0,12.968 -10.51265,23.48065 -23.48065,23.48065c-12.968,0 -23.48065,-10.51265 -23.48065,-23.48065z" fill="#000000" stroke="#000000" stroke-width="0" stroke-linecap="butt"/><path d="M259.86914,227.10253c1.46058,0.55157 3.92906,1.46312 6.47543,2.31138c0.74136,0.24697 2.84203,3.26382 3.19659,3.63146c1.0116,1.04892 1.94619,-0.11434 2.83587,0.05876c0.02968,0.00578 -1.34087,1.61794 -1.40413,1.82656c-0.0957,0.31567 1.36263,1.53547 1.35455,1.53389c-0.25934,-0.05046 -4.24718,0.50874 -4.54234,0.17362c-0.4552,-0.51682 -2.42685,-3.29782 -2.97765,-3.46506c-1.98953,-0.60407 -3.87469,-1.21268 -5.20287,-1.64984c-1.16699,-0.3841 -0.57244,-4.73685 0.26455,-4.42077z" fill="url(#color-52)" stroke="none" stroke-width="0" stroke-linecap="butt"/></g></g></svg>