<svg version="1.1" xmlns="http://www.w3.org/2000/svg" xmlns:xlink="http://www.w3.org/1999/xlink" width="194.68022" height="267.22501" viewBox="0,0,194.68022,267.22501"><defs><linearGradient x1="262.27619" y1="110.05702" x2="337.00262" y2="110.05702" gradientUnits="userSpaceOnUse" id="color-1"><stop offset="0" stop-color="#000000"></stop><stop offset="1" stop-color="#333333"></stop></linearGradient><linearGradient x1="142.32235" y1="113.0285" x2="218.34495" y2="113.0285" gradientUnits="userSpaceOnUse" id="color-2"><stop offset="0" stop-color="#333333"></stop><stop offset="1" stop-color="#000000"></stop></linearGradient><linearGradient x1="240.00003" y1="175.50001" x2="240.00003" y2="307.50001" gradientUnits="userSpaceOnUse" id="color-3"><stop offset="0" stop-color="#000000"></stop><stop offset="1" stop-color="#595959"></stop></linearGradient><linearGradient x1="240.00004" y1="76.70167" x2="240.00004" y2="197.29834" gradientUnits="userSpaceOnUse" id="color-4"><stop offset="0" stop-color="#1a1a1a"></stop><stop offset="1" stop-color="#404040"></stop></linearGradient><linearGradient x1="267.21365" y1="140.0632" x2="267.21365" y2="186.02865" gradientUnits="userSpaceOnUse" id="color-5"><stop offset="0" stop-color="#2b0000" stop-opacity="0.33333"></stop><stop offset="1" stop-color="#4d0000" stop-opacity="0.13333"></stop></linearGradient><linearGradient x1="259.50111" y1="101.0628" x2="250.33204" y2="176.75283" gradientUnits="userSpaceOnUse" id="color-6"><stop offset="0" stop-color="#300000"></stop><stop offset="1" stop-color="#6e0000"></stop></linearGradient><linearGradient x1="268.30417" y1="98.14188" x2="258.57016" y2="178.49544" gradientUnits="userSpaceOnUse" id="color-7"><stop offset="0" stop-color="#300000"></stop><stop offset="1" stop-color="#6e0000"></stop></linearGradient><linearGradient x1="277.12411" y1="99.42254" x2="267.95504" y2="175.11257" gradientUnits="userSpaceOnUse" id="color-8"><stop offset="0" stop-color="#300000"></stop><stop offset="1" stop-color="#6e0000"></stop></linearGradient></defs><g transform="translate(-142.3224,-46.38751)"><g data-paper-data="{&quot;isPaintingLayer&quot;:true}" fill-rule="nonzero" stroke-linejoin="miter" stroke-miterlimit="10" stroke-dasharray="" stroke-dashoffset="0" style="mix-blend-mode: normal"><path d="M179.28376,313.61252v-267.22501h123.18203v267.22501z" fill-opacity="0.01" fill="#000000" stroke="none" stroke-width="0" stroke-linecap="butt"></path><path d="M273.40272,92.69087c10.70956,-5.96082 63.5999,-8.70888 63.5999,-8.70888c0,0 -30.20672,43.50281 -40.91628,49.46362c-10.70956,5.96082 -24.46927,1.66975 -30.73318,-9.58436c-6.26391,-11.2541 -2.66,-25.20956 8.04956,-31.17038z" fill="url(#color-1)" stroke="#000000" stroke-width="0" stroke-linecap="butt"></path><path d="M215.80985,124.58788c-5.71447,11.5428 -19.25149,16.49176 -30.23577,11.0538c-10.98428,-5.43796 -43.25168,-47.43505 -43.25168,-47.43505c0,0 52.96132,0.19688 63.94561,5.63484c10.98428,5.43796 15.25631,19.2036 9.54184,30.7464z" fill="url(#color-2)" stroke="#000000" stroke-width="0" stroke-linecap="butt"></path><path d="M206.75004,307.5l15.14285,-131.8421l37.78325,-0.15789l13.57389,132z" fill="url(#color-3)" stroke="#000000" stroke-width="0" stroke-linecap="butt"></path><path d="M175.76302,137c0,-33.30185 28.7599,-60.29833 64.23702,-60.29833c35.47713,0 64.23702,26.99648 64.23702,60.29833c0,33.30185 -28.75989,60.29834 -64.23702,60.29834c-35.47712,0 -64.23702,-26.99649 -64.23702,-60.29834z" fill="url(#color-4)" stroke="#000000" stroke-width="0" stroke-linecap="butt"></path><path d="M282.31381,155.04482c0,1.78219 6.26177,-14.68922 5.49029,-10.96001c-0.03266,0.15787 0.96115,-3.74806 0.63391,-0.33158c-0.17392,1.81575 -1.675,11.5193 -1.79731,12.16419c-0.41555,2.19114 -1.01277,2.91141 -1.49569,4.26853c-0.39822,1.11907 -0.88492,2.5811 -0.96178,2.95292c-0.21811,1.05515 -0.76596,4.39626 -1.28819,6.20137c-0.26909,0.93012 -1.36055,0.49394 -1.62633,-0.27021c-0.46501,-1.33697 -0.71665,-2.74471 -1.07341,-1.93813c-0.74407,1.68228 -1.41874,4.8603 -1.7926,7.12455c-0.43852,2.6558 -1.68903,2.42149 -1.92012,1.36878c-0.58512,-2.66549 -1.04353,-1.46722 -1.4497,0.26227c-0.54476,2.31962 -0.99555,5.95476 -1.53205,5.94057c-1.1244,-0.02973 -2.47855,-11.80163 -3.90116,-11.80163c-0.58173,0 -1.0647,0.68778 -1.54994,2.0882c-0.25644,0.74009 -1.26647,-1.84371 -1.74153,-2.18348c-0.54981,-0.39324 -1.16319,8.34866 -1.75385,13.11059c-0.29897,2.41025 -1.0122,1.53117 -1.10275,0.70108c-0.41251,-3.7817 -1.04192,-11.66074 -1.34006,-11.54967c-0.78952,0.29411 -1.83419,-7.09601 -2.69259,-5.75377c-0.94868,1.48341 -0.87565,6.23049 -2.45909,5.08886c-0.52454,-0.95289 -1.12859,-4.75264 -2.23759,-9.30906c-0.44082,-1.81117 -1.07328,-3.50745 -1.66613,-4.07836c-0.40707,-0.392 -0.79547,0.46101 -1.09036,-0.69247c-0.39214,-1.53387 -2.54449,-13.04302 -2.73017,-14.11057c-0.5912,-3.39903 2.99637,6.35902 2.99637,5.39896c0,-8.27413 10.34586,-8.67357 17.36769,-8.67357c7.02183,0 12.71414,6.7075 12.71414,14.98162z" fill="url(#color-5)" stroke="none" stroke-width="0" stroke-linecap="butt"></path><path d="M264.07654,137.23168c3.92065,21.68082 -1.75938,40.62256 -3.02699,40.81803c-0.64493,0.09945 4.01879,-15.67039 -1.21556,-41.22585c-5.35651,-26.15191 -13.60506,-37.19134 -12.98237,-37.28736c1.26761,-0.19547 13.30427,16.01436 17.22492,37.69518z" fill="url(#color-6)" stroke="none" stroke-width="0" stroke-linecap="butt"></path><path d="M273.1615,136.53926c4.16222,23.01666 -1.86778,43.12546 -3.21349,43.33297c-0.68467,0.10558 4.26639,-16.6359 -1.29046,-43.76592c-5.68655,-27.76322 -14.44331,-39.48283 -13.78226,-39.58477c1.34572,-0.20751 14.124,17.00106 18.28621,40.01772z" fill="url(#color-7)" stroke="none" stroke-width="0" stroke-linecap="butt"></path><path d="M281.69954,135.59143c3.92065,21.68082 -1.75938,40.62256 -3.02699,40.81803c-0.64493,0.09945 4.01878,-15.67039 -1.21556,-41.22585c-5.35651,-26.15191 -13.60505,-37.19134 -12.98237,-37.28736c1.26761,-0.19547 13.30427,16.01436 17.22492,37.69518z" fill="url(#color-8)" stroke="none" stroke-width="0" stroke-linecap="butt"></path><path d="M189.39016,138.52563c0,-12.96801 10.51265,-23.48065 23.48066,-23.48065c12.96801,0 23.48065,10.51264 23.48065,23.48065c0,12.96801 -10.51264,23.48066 -23.48065,23.48066c-12.96801,0 -23.48066,-10.51265 -23.48066,-23.48066z" fill="#000000" stroke="#000000" stroke-width="2" stroke-linecap="butt"></path><path d="M267.00426,166.27094c-12.968,0 -23.48065,-11.24019 -23.48065,-25.10565c0,-13.86546 10.51265,-25.10565 23.48065,-25.10565c12.968,0 23.48065,11.24019 23.48065,25.10565c0,13.86546 -10.51265,25.10565 -23.48065,25.10565z" fill-opacity="0.3451" fill="#000000" stroke="#000000" stroke-width="0" stroke-linecap="butt"></path><path d="M213.00426,166.27094c-12.968,0 -23.48065,-11.24019 -23.48065,-25.10565c0,-13.86546 10.51265,-25.10565 23.48065,-25.10565c12.968,0 23.48065,11.24019 23.48065,25.10565c0,13.86546 -10.51265,25.10565 -23.48065,25.10565z" fill-opacity="0.3451" fill="#000000" stroke="#000000" stroke-width="0" stroke-linecap="butt"></path><path d="M189.39016,137.27563c0,-12.96801 10.51265,-23.48065 23.48066,-23.48065c12.96801,0 23.48065,10.51264 23.48065,23.48065c0,12.96801 -10.51264,23.48066 -23.48065,23.48066c-12.96801,0 -23.48066,-10.51265 -23.48066,-23.48066z" fill="#808080" stroke="#000000" stroke-width="2" stroke-linecap="butt"></path><path d="M201.50556,137c0,-6.22858 5.04926,-11.27784 11.27784,-11.27784c6.22858,0 11.27784,5.04927 11.27784,11.27785c0,6.22858 -5.04927,11.27785 -11.27784,11.27785c-6.22858,0 -11.27784,-5.04927 -11.27784,-11.27785z" fill="#1a1a1a" stroke="none" stroke-width="0" stroke-linecap="butt"></path><path d="M206.69145,137c0,-3.36449 2.72746,-6.09195 6.09195,-6.09195c3.36449,0 6.09195,2.72746 6.09195,6.09196c0,3.36449 -2.72746,6.09196 -6.09195,6.09196c-3.36449,0 -6.09195,-2.72747 -6.09195,-6.09196z" fill="#808080" stroke="none" stroke-width="0" stroke-linecap="butt"></path><path d="M225.84036,176.65644c0,0 6.36166,-3.13334 13.60875,-0.33334c2.17016,0.83847 4.68149,-0.33169 7.81947,-0.4815c2.6708,-0.12751 6.18138,0.81484 6.18138,0.81484" fill="none" stroke="#000000" stroke-width="1.5" stroke-linecap="round"></path><path d="M267.12926,162.00629c-12.96801,0 -23.48065,-10.51265 -23.48065,-23.48066c0,-12.96801 10.51264,-23.48065 23.48065,-23.48065c12.96801,0 23.48066,10.51264 23.48066,23.48065c0,12.96801 -10.51265,23.48066 -23.48066,23.48066z" fill="#000000" stroke="#000000" stroke-width="2" stroke-linecap="butt"></path><path d="M267.12926,153.75629c-12.96801,0 -23.48065,-3.51265 -23.48065,-16.48066c0,-12.96801 10.51264,-23.48065 23.48065,-23.48065c12.96801,0 23.48066,10.51264 23.48066,23.48065c0,12.96801 -10.51265,16.48066 -23.48066,16.48066z" fill="#808080" stroke="#000000" stroke-width="2" stroke-linecap="butt"></path><path d="M278.99449,137c0,6.50473 -5.27312,11.77785 -11.77784,11.77785c-6.50472,0 -11.77784,-5.27313 -11.77784,-11.77785c0,-6.50473 5.27312,-11.77785 11.77784,-11.77785c6.50472,0 11.77784,5.27312 11.77784,11.77784z" fill="#1a1a1a" stroke="none" stroke-width="0" stroke-linecap="butt"></path><path d="M273.57867,137c0,3.51365 -2.84837,6.36204 -6.36203,6.36204c-3.51365,0 -6.36204,-2.84839 -6.36204,-6.36204c0,-3.51365 2.84839,-6.36204 6.36204,-6.36204c3.51365,0 6.36203,2.84838 6.36203,6.36204z" fill="#808080" stroke="none" stroke-width="0" stroke-linecap="butt"></path><path d="M226.1592,103.6909c0,0 -6.70895,5.16922 -11.79721,6.36355c-5.08827,1.19433 -12.33413,-0.69937 -12.33413,-0.69937c0,0 8.03812,0.06028 11.96762,-0.86207c4.10648,-0.96389 12.16372,-4.80211 12.16372,-4.80211z" fill="#000000" stroke="none" stroke-width="0" stroke-linecap="butt"></path><path d="M266.15846,108.243c3.9295,0.92235 11.96762,0.86207 11.96762,0.86207c0,0 -7.24586,1.8937 -12.33413,0.69937c-5.08826,-1.19433 -11.79721,-6.36355 -11.79721,-6.36355c0,0 8.05724,3.83822 12.16372,4.80211z" fill="#000000" stroke="none" stroke-width="0" stroke-linecap="butt"></path><path d="M193.58893,163.91643c0,-0.41421 0.33579,-0.75 0.75,-0.75c0.41421,0 0.75,0.33579 0.75,0.75c0,0.41421 -0.33579,0.75 -0.75,0.75c-0.41421,0 -0.75,-0.33579 -0.75,-0.75z" fill="#000000" stroke="none" stroke-width="0.5" stroke-linecap="butt"></path><path d="M204.38893,168.31643c0,-0.41421 0.33579,-0.75 0.75,-0.75c0.41421,0 0.75,0.33579 0.75,0.75c0,0.41421 -0.33579,0.75 -0.75,0.75c-0.41421,0 -0.75,-0.33579 -0.75,-0.75z" fill="#000000" stroke="none" stroke-width="0.5" stroke-linecap="butt"></path><path d="M198.18893,173.11643c0,-0.41421 0.33579,-0.75 0.75,-0.75c0.41421,0 0.75,0.33579 0.75,0.75c0,0.41421 -0.33579,0.75 -0.75,0.75c-0.41421,0 -0.75,-0.33579 -0.75,-0.75z" fill="#000000" stroke="none" stroke-width="0.5" stroke-linecap="butt"></path><path d="M285.66114,164.66643c-0.41422,0 -0.75,-0.33578 -0.75,-0.75c0,-0.41422 0.33578,-0.75 0.75,-0.75c0.41422,0 0.75,0.33578 0.75,0.75c0,0.41422 -0.33578,0.75 -0.75,0.75z" fill="#000000" stroke="none" stroke-width="0.5" stroke-linecap="butt"></path><path d="M274.86116,169.06643c-0.41422,0 -0.75,-0.33578 -0.75,-0.75c0,-0.41422 0.33578,-0.75 0.75,-0.75c0.41422,0 0.75,0.33578 0.75,0.75c0,0.41422 -0.33578,0.75 -0.75,0.75z" fill="#000000" stroke="none" stroke-width="0.5" stroke-linecap="butt"></path><path d="M281.06111,173.86643c-0.41422,0 -0.75,-0.33578 -0.75,-0.75c0,-0.41422 0.33578,-0.75 0.75,-0.75c0.41422,0 0.75,0.33578 0.75,0.75c0,0.41422 -0.33578,0.75 -0.75,0.75z" fill="#000000" stroke="none" stroke-width="0.5" stroke-linecap="butt"></path><path d="M189.30687,137.36806c0,-12.96801 10.51265,-23.48065 23.48066,-23.48065c12.96801,0 23.48065,10.51264 23.48065,23.48065c0,0 -46.9613,0.61661 -46.9613,0z" fill="#000000" stroke="#000000" stroke-width="2" stroke-linecap="butt"></path><path d="M244.08926,137.48836c0,-12.96801 10.51264,-23.48065 23.48065,-23.48065c12.96801,0 22.88066,10.51264 22.88066,23.48065c0,0.60606 -46.36131,0 -46.36131,0z" fill="#000000" stroke="#000000" stroke-width="2" stroke-linecap="butt"></path></g></g></svg>