<svg version="1.1" xmlns="http://www.w3.org/2000/svg" xmlns:xlink="http://www.w3.org/1999/xlink" width="185.91121" height="282.82023" viewBox="0,0,185.91121,282.82023"><defs><linearGradient x1="240.00007" y1="175.50007" x2="240.00007" y2="307.50005" gradientUnits="userSpaceOnUse" id="color-1"><stop offset="0" stop-color="#000000"></stop><stop offset="1" stop-color="#3e3f40"></stop></linearGradient><linearGradient x1="238.73021" y1="31.03233" x2="238.73021" y2="119.05468" gradientUnits="userSpaceOnUse" id="color-2"><stop offset="0" stop-color="#5d5f60"></stop><stop offset="1" stop-color="#19191a"></stop></linearGradient><linearGradient x1="240.07699" y1="76.54784" x2="240.07699" y2="197.14455" gradientUnits="userSpaceOnUse" id="color-3"><stop offset="0" stop-color="#18181a"></stop><stop offset="1" stop-color="#5d5f60"></stop></linearGradient><linearGradient x1="240.07699" y1="76.54784" x2="240.07699" y2="197.14455" gradientUnits="userSpaceOnUse" id="color-4"><stop offset="0" stop-color="#1a0000" stop-opacity="0.21176"></stop><stop offset="1" stop-color="#800000" stop-opacity="0.21176"></stop></linearGradient><radialGradient cx="212.87084" cy="137.27568" r="23.48065" gradientUnits="userSpaceOnUse" id="color-5"><stop offset="0" stop-color="#808080"></stop><stop offset="1" stop-color="#804040"></stop></radialGradient><linearGradient x1="239.68207" y1="184.04236" x2="239.68207" y2="197.72236" gradientUnits="userSpaceOnUse" id="color-6"><stop offset="0" stop-color="#1a0000" stop-opacity="0.23922"></stop><stop offset="1" stop-color="#800000" stop-opacity="0.26275"></stop></linearGradient><radialGradient cx="267.12926" cy="137.27561" r="23.48065" gradientUnits="userSpaceOnUse" id="color-7"><stop offset="0" stop-color="#808080"></stop><stop offset="1" stop-color="#804040"></stop></radialGradient><linearGradient x1="240.08987" y1="100.75869" x2="240.08987" y2="155.31268" gradientUnits="userSpaceOnUse" id="color-8"><stop offset="0" stop-color="#262626"></stop><stop offset="1" stop-color="#5d5f60"></stop></linearGradient><radialGradient cx="239.92609" cy="127.95175" r="92.95561" gradientUnits="userSpaceOnUse" id="color-9"><stop offset="0" stop-color="#5c2e00" stop-opacity="0.08627"></stop><stop offset="1" stop-color="#613d11" stop-opacity="0.4"></stop></radialGradient><linearGradient x1="238.73021" y1="31.03233" x2="238.73021" y2="119.05468" gradientUnits="userSpaceOnUse" id="color-10"><stop offset="0" stop-color="#5d5f60"></stop><stop offset="1" stop-color="#19191a"></stop></linearGradient></defs><g transform="translate(-146.97047,-31.03232)"><g stroke-miterlimit="10"><path d="M178.409,313.85255v-267.22501h123.18203v267.22501z" fill-opacity="0.01" fill="#000000" stroke="none" stroke-width="0"></path><path d="M175.83997,134.34617c0,-0.59518 18.80391,-12.82481 64.28702,-13.29833c52.06799,-0.54206 64.18702,12.81194 64.18702,13.29833c0,33.30185 -28.7599,62.79833 -64.23702,62.79833c-35.47712,0 -64.23702,-29.49649 -64.23702,-62.79833z" fill="#1a0101" stroke="#000000" stroke-width="0"></path><path d="M206.75007,307.50005l15.14285,-131.8421l37.78325,-0.15789l13.57389,132z" fill="url(#color-1)" stroke="#000000" stroke-width="0"></path><path d="M245.23866,103.68012l1.38635,50.62829c0,0 -2.43253,1.5 -6.67593,1.33334c-3.66806,-0.14407 -6.57407,-1.33334 -6.57407,-1.33334l1.26514,-49.96608z" fill="url(#color-2)" stroke="#000000" stroke-width="0"></path><path d="M175.83997,134.34617c0,-0.59518 19.00391,8.42518 64.48702,7.95167c52.06799,-0.54207 63.98702,-8.43806 63.98702,-7.95167c0,33.30185 -28.7599,62.79833 -64.23702,62.79833c-35.47712,0 -64.23702,-29.49649 -64.23702,-62.79833z" fill="url(#color-3)" stroke="#000000" stroke-width="0"></path><path d="M267.00426,164.02095c-12.968,0 -23.48065,-11.24019 -23.48065,-25.10565c0,-13.86546 10.51265,-25.10565 23.48065,-25.10565c12.968,0 23.48065,11.24019 23.48065,25.10565c0,13.86546 -10.51265,25.10565 -23.48065,25.10565z" fill-opacity="0.3451" fill="#000000" stroke="#000000" stroke-width="0"></path><path d="M213.00427,163.77095c-12.968,0 -23.48065,-11.24019 -23.48065,-25.10565c0,-13.86546 10.51265,-25.10565 23.48065,-25.10565c12.968,0 23.48065,11.24019 23.48065,25.10565c0,13.86546 -10.51265,25.10565 -23.48065,25.10565z" fill-opacity="0.3451" fill="#000000" stroke="#000000" stroke-width="0"></path><path d="M181.50545,135.98538c8.60923,2.4342 27.39441,6.63968 58.82154,6.3125c32.51646,-0.33853 49.37481,-3.54508 57.45061,-5.78701c0.45345,-0.12589 -1.03194,22.9401 -4.52412,24.28442c-2.3903,0.92015 -1.43585,-19.87587 -5.62036,-18.21358c-0.65338,0.25956 -4.23364,0.10761 -5.13618,5.1987c-1.51873,8.56696 -0.47811,29.1537 -3.34054,29.08447c-3.9237,-0.09491 -2.44315,-9.74005 -7.6236,-9.70011c-4.22854,0.0326 -9.15074,-20.75741 -12.85699,-18.81507c-1.91793,1.00513 -8.13847,-5.18828 -10.04765,-2.22568c-2.34446,3.63806 -0.3887,16.42673 -2.89697,16.36844c-4.0031,-0.09302 -2.05596,-12.6698 -5.6464,-12.64745c-3.46309,0.02156 -1.03857,11.84656 -4.34114,11.96618c-3.32957,0.1206 -3.06737,-13.43973 -5.64388,-15.43385c-3.67153,-2.84162 -8.72843,5.36278 -12.80393,4.47295c-5.13902,-1.12204 -4.91812,17.27761 -9.21456,17.18644c-3.29409,-0.0699 -2.34813,-5.84422 -4.90115,-6.15599c-4.15791,-0.50776 -0.61009,11.9736 -3.99346,11.9576c-3.30479,-0.01563 -7.86909,-28.78098 -8.84569,-28.68551c-2.61337,0.25549 1.71268,14.51926 -2.10724,14.91396c-3.81992,0.3947 -6.72831,-24.08143 -6.72831,-24.08143z" fill="url(#color-4)" stroke="#000000" stroke-width="0"></path><path d="M189.39019,137.27568c0,-12.968 10.51265,-23.48065 23.48065,-23.48065c12.968,0 23.48065,10.51265 23.48065,23.48065c0,12.968 -10.51265,23.48065 -23.48065,23.48065c-12.968,0 -23.48065,-10.51265 -23.48065,-23.48065z" fill="url(#color-5)" stroke="#000000" stroke-width="0"></path><path d="M229.77179,191.84515c-0.92113,-0.11106 -1.36972,-7.80279 -1.36972,-7.80279l24.24,-0.12c0,0 0.62794,10.15153 -1.56,10.32c-2.2117,0.1703 -0.76333,-3.85755 -2.97919,-3.75664c-1.79697,-0.10249 -1.83455,2.16933 -3.14836,2.40227c-1.32147,0.08782 -1.85152,-7.54793 -4.19618,-7.69145c-2.52269,-0.15442 -8.05678,-0.64503 -8.05678,-0.64503c0,0 -1.60929,7.45283 -2.92977,7.29362z" fill="url(#color-6)" stroke="none" stroke-width="0"></path><path d="M267.12926,160.75627c-12.968,0 -23.48065,-10.51265 -23.48065,-23.48065c0,-12.968 10.51265,-23.48065 23.48065,-23.48065c12.968,0 23.48065,10.51265 23.48065,23.48065c0,12.968 -10.51265,23.48065 -23.48065,23.48065z" fill="url(#color-7)" stroke="#000000" stroke-width="0"></path><path d="M196.45557,142.90004c0,-9.12808 7.39976,-16.52784 16.52783,-16.52784c9.12808,0 16.52784,7.39977 16.52784,16.52784c0,9.12808 -7.39977,16.52784 -16.52784,16.52784c-9.12808,0 -16.52783,-7.39977 -16.52783,-16.52784z" fill="#000000" stroke="none" stroke-width="0"></path><path d="M267.01671,159.42788c-9.12807,0 -16.52783,-7.39977 -16.52783,-16.52784c0,-9.12808 7.39977,-16.52784 16.52783,-16.52784c9.12807,0 16.52783,7.39977 16.52783,16.52784c0,9.12808 -7.39977,16.52784 -16.52783,16.52784z" fill="#000000" stroke="none" stroke-width="0"></path><g stroke-width="0"><path d="M332.8694,117.77406c0.82511,10.27624 -40.04473,28.96459 -91.97646,33.13435c-2.5156,0.20199 -5.57965,-0.69248 -8.03295,-0.39476c-3.47299,0.42147 -6.19183,2.29244 -9.40868,3.0241c-4.11444,0.93582 -8.6754,0.74417 -12.72203,1.16985c-3.96311,0.41689 -7.81332,0.66506 -11.54352,0.59258c-25.81408,-0.50156 -40.0618,-1.9718 -45.97351,-6.75639c-0.42851,-0.34682 -4.30644,-3.97302 -5.43322,-6.35611c-1.87884,-3.97368 2.16028,-7.92424 4.98866,-10.62123c10.37841,-9.89632 30.77922,-20.573 59.19739,-25.96118c4.02758,-0.76364 9.04197,0.37342 12.96293,-0.29799c3.91788,-0.67089 7.73902,-3.23046 12.0165,-3.57391c51.93173,-4.16977 95.09977,5.76447 95.92489,16.04071z" fill="url(#color-8)" stroke="#000000"></path><path d="M332.8694,117.77406c0.82511,10.27624 -40.04473,28.96459 -91.97646,33.13435c-1.93396,0.15528 -4.69267,-0.81515 -6.54609,-0.60648c-2.51222,0.28283 -3.88533,0.94282 -6.06964,1.62524c-2.33377,0.72912 -5.47065,1.48384 -7.93399,1.83152c-3.26015,0.46015 -6.45586,0.59429 -9.63556,0.90335c-6.58891,0.64042 -13.38796,0.55145 -19.39095,0.2621c-9.00584,-0.43409 -17.95564,-0.3495 -24.62778,-1.73484c-12.5442,-2.60457 -19.36125,-7.67551 -19.70546,-11.9625c-0.65576,-8.16711 23.52378,-26.20031 59.80032,-34.75455c5.21124,-1.22884 10.81943,-0.29852 16.46299,-1.14748c4.50191,-0.67722 8.96811,-3.21166 13.69773,-3.59142c51.93173,-4.16977 95.09977,5.76447 95.92489,16.04071zM195.79995,150.35078c7.43927,0.05909 11.55602,0.56694 16.49113,-0.31622c1.12899,-0.20204 6.65642,-6.41787 13.59327,-6.25704c4.50556,0.10446 9.50199,-0.34522 10.87915,-0.26003c1.57428,0.09737 9.72156,0.61399 11.3184,0.60298c9.33473,-0.06432 12.40932,-2.34977 21.32962,-4.64949c2.56334,-0.66085 8.19315,-4.72457 15.01904,-6.54131c8.0253,-2.13597 17.43692,-2.10332 21.52776,-3.59368c5.55709,-2.02454 16.96191,-6.81962 16.61541,-10.78924c-0.21712,-2.48739 -11.47801,-5.04839 -11.7307,-5.16643c-4.04983,-1.89179 -8.76602,-1.20957 -13.12575,-2.01905c-6.69406,-1.23857 -7.4941,-2.02551 -14.21261,-2.94724c-2.73877,-0.37574 -10.10579,-2.29758 -12.86283,-2.49962c-5.49355,-0.40258 -13.52508,2.0798 -19.012,2.52036c-4.05187,0.32534 -15.46284,3.27606 -20.34194,3.09101c-13.65485,-0.51791 -20.23874,-0.3514 -30.37478,5.34665c-0.26248,0.11517 -9.51179,5.24185 -18.05373,4.92231c-9.21406,-0.34468 -14.46349,9.50988 -16.58207,10.72318c-3.21391,1.84059 -12.07285,7.18361 -9.11961,10.54103c1.29175,1.46854 12.09819,1.97469 14.43647,2.62038c5.60287,1.54718 12.15336,3.92036 17.9723,5.21219c2.45645,0.54534 4.16408,-0.5572 6.23347,-0.54076z" fill="url(#color-9)" stroke="#000000"></path><path d="M215.32515,106.0829c0,0 7.79281,0.37221 10.94651,-0.32682c2.68443,-0.59501 6.79566,-3.6058 6.79566,-3.6058l-4.1836,10.3681z" fill-opacity="0.14118" fill="#000000" stroke="none"></path></g><path d="M252.25001,183.75002c0,0.82843 -4.20837,1 -11.25,1c-7.04163,0 -12.75,-0.67157 -12.75,-1.5c0,-0.82843 5.20837,-1.5 12.25,-1.5c7.04163,0 11.75,1.17157 11.75,2z" fill="#000000" stroke="#000000" stroke-width="2"></path><path d="M247.75001,127.75002c0,2.48528 -3.46979,4.5 -7.75,4.5c-4.28021,0 -7.75,-2.01472 -7.75,-4.5c0,-2.48528 3.46979,-4.5 7.75,-4.5c4.28021,0 7.75,2.01472 7.75,4.5z" fill-opacity="0.20392" fill="#000000" stroke="none" stroke-width="0"></path><path d="M236.23569,41.32753c0,0 0.77342,-6.79148 -3.20744,-5.3051c-3.19631,1.19344 -10.92266,5.51814 -10.92266,5.51814c0,0 3.95548,-7.29662 8.98012,-9.95423c4.02875,-2.13086 9.17263,2.57207 9.17263,2.57207c0,0 4.73043,-4.16255 7.78452,-2.26642c4.01386,2.492 7.31197,9.83713 7.31197,9.83713c0,0 -5.97898,-3.40735 -8.62109,-4.74643c-2.91466,-1.4772 -3.20818,4.13691 -3.20818,4.13691l2.37961,86.90092c0,0 -1.71269,1.9526 -5.95609,1.78594c-3.66806,-0.14407 -5.90412,-1.95749 -5.90412,-1.95749z" fill="url(#color-10)" stroke="#000000" stroke-width="0"></path><path d="M229.88315,151.24869l0.2585,-3.69613l5.03573,2.95573c0,0 -2.32571,0.08068 -2.69227,0.1508c-0.8449,0.16161 -2.60196,0.5896 -2.60196,0.5896z" fill-opacity="0.14118" fill="#000000" stroke="none" stroke-width="0"></path></g></g></svg>