<svg version="1.1" xmlns="http://www.w3.org/2000/svg" xmlns:xlink="http://www.w3.org/1999/xlink" width="143.57497" height="375.39059" viewBox="0,0,143.57497,375.39059"><defs><linearGradient x1="232.09615" y1="225.10883" x2="232.09615" y2="234.04814" gradientUnits="userSpaceOnUse" id="color-1"><stop offset="0" stop-color="#000000"></stop><stop offset="1" stop-color="#808080"></stop></linearGradient><linearGradient x1="249.62761" y1="258.57007" x2="249.62761" y2="284.16999" gradientUnits="userSpaceOnUse" id="color-2"><stop offset="0" stop-color="#36411f"></stop><stop offset="1" stop-color="#0a2406"></stop></linearGradient><linearGradient x1="245.9389" y1="252.02013" x2="245.9389" y2="264.22006" gradientUnits="userSpaceOnUse" id="color-3"><stop offset="0" stop-color="#36411f"></stop><stop offset="1" stop-color="#0a2406"></stop></linearGradient><linearGradient x1="231.69615" y1="213.84216" x2="231.69615" y2="222.78147" gradientUnits="userSpaceOnUse" id="color-4"><stop offset="0" stop-color="#000000"></stop><stop offset="1" stop-color="#808080"></stop></linearGradient><linearGradient x1="231.69615" y1="202.50884" x2="231.69615" y2="211.44815" gradientUnits="userSpaceOnUse" id="color-5"><stop offset="0" stop-color="#000000"></stop><stop offset="1" stop-color="#808080"></stop></linearGradient><linearGradient x1="234.93889" y1="250.42016" x2="234.93889" y2="262.62005" gradientUnits="userSpaceOnUse" id="color-6"><stop offset="0" stop-color="#36411f"></stop><stop offset="1" stop-color="#0a2406"></stop></linearGradient><linearGradient x1="230.80643" y1="247.06687" x2="230.80643" y2="259.2668" gradientUnits="userSpaceOnUse" id="color-7"><stop offset="0" stop-color="#36411f"></stop><stop offset="1" stop-color="#0a2406"></stop></linearGradient><linearGradient x1="234.2389" y1="245.62014" x2="234.2389" y2="257.02006" gradientUnits="userSpaceOnUse" id="color-8"><stop offset="0" stop-color="#36411f"></stop><stop offset="1" stop-color="#0a2406"></stop></linearGradient><linearGradient x1="252.6389" y1="231.22014" x2="252.6389" y2="259.82007" gradientUnits="userSpaceOnUse" id="color-9"><stop offset="0" stop-color="#36411f"></stop><stop offset="1" stop-color="#0a2406"></stop></linearGradient><linearGradient x1="240.00004" y1="178.72252" x2="240.00004" y2="310.72249" gradientUnits="userSpaceOnUse" id="color-10"><stop offset="0" stop-color="#000000"></stop><stop offset="1" stop-color="#660000"></stop></linearGradient><linearGradient x1="239.75001" y1="-60.57801" x2="239.75001" y2="91.57821" gradientUnits="userSpaceOnUse" id="color-11"><stop offset="0" stop-color="#4d2a0f"></stop><stop offset="1" stop-color="#1a0b00"></stop></linearGradient><linearGradient x1="238.33214" y1="173.66331" x2="238.33214" y2="188.82997" gradientUnits="userSpaceOnUse" id="color-12"><stop offset="0" stop-color="#1a1a1a"></stop><stop offset="1" stop-color="#808080"></stop></linearGradient><linearGradient x1="240.18811" y1="79.67678" x2="240.18811" y2="195.78233" gradientUnits="userSpaceOnUse" id="color-13"><stop offset="0" stop-color="#1a1a1a"></stop><stop offset="1" stop-color="#808080"></stop></linearGradient><linearGradient x1="271.15353" y1="168.1932" x2="271.15353" y2="175.04205" gradientUnits="userSpaceOnUse" id="color-14"><stop offset="0" stop-color="#4d4d4d"></stop><stop offset="1" stop-color="#808080"></stop></linearGradient><linearGradient x1="268.42705" y1="167.53376" x2="268.42705" y2="175.71902" gradientUnits="userSpaceOnUse" id="color-15"><stop offset="0" stop-color="#4d4d4d"></stop><stop offset="1" stop-color="#808080"></stop></linearGradient><linearGradient x1="264.42383" y1="167.03931" x2="264.42383" y2="176.22673" gradientUnits="userSpaceOnUse" id="color-16"><stop offset="0" stop-color="#4d4d4d"></stop><stop offset="1" stop-color="#808080"></stop></linearGradient><linearGradient x1="258.91847" y1="166.21508" x2="258.91847" y2="177.07296" gradientUnits="userSpaceOnUse" id="color-17"><stop offset="0" stop-color="#4d4d4d"></stop><stop offset="1" stop-color="#808080"></stop></linearGradient><linearGradient x1="245.41205" y1="165.39524" x2="245.41205" y2="178.25762" gradientUnits="userSpaceOnUse" id="color-18"><stop offset="0" stop-color="#4d4d4d"></stop><stop offset="1" stop-color="#808080"></stop></linearGradient><linearGradient x1="252.52531" y1="165.55569" x2="252.52531" y2="177.74992" gradientUnits="userSpaceOnUse" id="color-19"><stop offset="0" stop-color="#4d4d4d"></stop><stop offset="1" stop-color="#808080"></stop></linearGradient><linearGradient x1="212.0413" y1="168.024" x2="212.0413" y2="174.87277" gradientUnits="userSpaceOnUse" id="color-20"><stop offset="0" stop-color="#4d4d4d"></stop><stop offset="1" stop-color="#808080"></stop></linearGradient><linearGradient x1="214.76779" y1="167.36452" x2="214.76779" y2="175.54977" gradientUnits="userSpaceOnUse" id="color-21"><stop offset="0" stop-color="#4d4d4d"></stop><stop offset="1" stop-color="#808080"></stop></linearGradient><linearGradient x1="218.77101" y1="166.86999" x2="218.77101" y2="176.05752" gradientUnits="userSpaceOnUse" id="color-22"><stop offset="0" stop-color="#4d4d4d"></stop><stop offset="1" stop-color="#808080"></stop></linearGradient><linearGradient x1="224.27637" y1="166.04576" x2="224.27637" y2="176.90369" gradientUnits="userSpaceOnUse" id="color-23"><stop offset="0" stop-color="#4d4d4d"></stop><stop offset="1" stop-color="#808080"></stop></linearGradient><linearGradient x1="237.78279" y1="165.226" x2="237.78279" y2="178.08841" gradientUnits="userSpaceOnUse" id="color-24"><stop offset="0" stop-color="#4d4d4d"></stop><stop offset="1" stop-color="#808080"></stop></linearGradient><linearGradient x1="230.66953" y1="165.38637" x2="230.66953" y2="177.58068" gradientUnits="userSpaceOnUse" id="color-25"><stop offset="0" stop-color="#4d4d4d"></stop><stop offset="1" stop-color="#808080"></stop></linearGradient><linearGradient x1="268.32434" y1="182.12051" x2="268.32434" y2="176.06598" gradientUnits="userSpaceOnUse" id="color-26"><stop offset="0" stop-color="#4d4d4d"></stop><stop offset="1" stop-color="#808080"></stop></linearGradient><linearGradient x1="265.8768" y1="184.16217" x2="265.8768" y2="176.92625" gradientUnits="userSpaceOnUse" id="color-27"><stop offset="0" stop-color="#4d4d4d"></stop><stop offset="1" stop-color="#808080"></stop></linearGradient><linearGradient x1="262.28316" y1="185.60925" x2="262.28316" y2="177.48732" gradientUnits="userSpaceOnUse" id="color-28"><stop offset="0" stop-color="#4d4d4d"></stop><stop offset="1" stop-color="#808080"></stop></linearGradient><linearGradient x1="257.34107" y1="187.34779" x2="257.34107" y2="177.74911" gradientUnits="userSpaceOnUse" id="color-29"><stop offset="0" stop-color="#4d4d4d"></stop><stop offset="1" stop-color="#808080"></stop></linearGradient><linearGradient x1="245.21652" y1="190.09235" x2="245.21652" y2="178.72165" gradientUnits="userSpaceOnUse" id="color-30"><stop offset="0" stop-color="#4d4d4d"></stop><stop offset="1" stop-color="#808080"></stop></linearGradient><linearGradient x1="251.602" y1="189.05282" x2="251.602" y2="178.27278" gradientUnits="userSpaceOnUse" id="color-31"><stop offset="0" stop-color="#4d4d4d"></stop><stop offset="1" stop-color="#808080"></stop></linearGradient><linearGradient x1="215.03717" y1="182.12051" x2="215.03717" y2="176.06598" gradientUnits="userSpaceOnUse" id="color-32"><stop offset="0" stop-color="#4d4d4d"></stop><stop offset="1" stop-color="#808080"></stop></linearGradient><linearGradient x1="217.48471" y1="184.16217" x2="217.48471" y2="176.92625" gradientUnits="userSpaceOnUse" id="color-33"><stop offset="0" stop-color="#4d4d4d"></stop><stop offset="1" stop-color="#808080"></stop></linearGradient><linearGradient x1="221.07835" y1="185.60925" x2="221.07835" y2="177.48732" gradientUnits="userSpaceOnUse" id="color-34"><stop offset="0" stop-color="#4d4d4d"></stop><stop offset="1" stop-color="#808080"></stop></linearGradient><linearGradient x1="226.02044" y1="187.34779" x2="226.02044" y2="177.74911" gradientUnits="userSpaceOnUse" id="color-35"><stop offset="0" stop-color="#4d4d4d"></stop><stop offset="1" stop-color="#808080"></stop></linearGradient><linearGradient x1="238.14499" y1="190.09235" x2="238.14499" y2="178.72165" gradientUnits="userSpaceOnUse" id="color-36"><stop offset="0" stop-color="#4d4d4d"></stop><stop offset="1" stop-color="#808080"></stop></linearGradient><linearGradient x1="231.75951" y1="189.05282" x2="231.75951" y2="178.27278" gradientUnits="userSpaceOnUse" id="color-37"><stop offset="0" stop-color="#4d4d4d"></stop><stop offset="1" stop-color="#808080"></stop></linearGradient><linearGradient x1="240.07701" y1="76.54784" x2="240.07701" y2="197.14459" gradientUnits="userSpaceOnUse" id="color-38"><stop offset="0" stop-color="#1a0000"></stop><stop offset="1" stop-color="#800000"></stop></linearGradient><linearGradient x1="224.65987" y1="136.84617" x2="246.14913" y2="136.84617" gradientUnits="userSpaceOnUse" id="color-39"><stop offset="0" stop-color="#25542e" stop-opacity="0"></stop><stop offset="1" stop-color="#25542e"></stop></linearGradient><linearGradient x1="218.55854" y1="125.58275" x2="207.18317" y2="165.8639" gradientUnits="userSpaceOnUse" id="color-40"><stop offset="0" stop-color="#808080"></stop><stop offset="1" stop-color="#b68c8c"></stop></linearGradient></defs><g transform="translate(-158.89085,60.57803)"><g data-paper-data="{&quot;isPaintingLayer&quot;:true}" fill-rule="nonzero" stroke-linecap="butt" stroke-linejoin="miter" stroke-miterlimit="10" stroke-dasharray="" stroke-dashoffset="0" style="mix-blend-mode: normal"><path d="M179.28379,314.81255v-267.22501h123.18203c0,0 0,122.70263 0,171.58786c0,36.55566 0,95.63716 0,95.63716z" fill-opacity="0.01" fill="#000000" stroke="none" stroke-width="0"></path><path d="M228.18693,276.47249l-4.61603,-25.85409l-9.45109,13.99895c0,0 1.20816,-17.22555 2.52399,-28.68189c0.01672,-0.14559 0.07876,-0.6376 0.17831,-1.41631c1.62703,-3.21651 0.24596,-8.16568 0.33731,-11.9947c2.16588,-3.70141 2.07391,-7.00961 2.07391,-11.60775c0,-3.33465 0.68045,-7.5168 -0.50446,-10.42562c1.2581,-9.67146 4.62723,-16.29012 4.62723,-16.29012l34.73006,-0.14513l7.17315,69.75567l-9.60496,-11.2261l-4.34118,42.6371l-12.17506,-17.43613z" fill="#000902" stroke="#000000" stroke-width="0"></path><path d="M217.85916,229.42866l0.70784,-4.31983c0,0 9.71938,3.49776 14.47452,4.28888c4.48436,0.74607 13.29162,0.3306 13.29162,0.3306l-0.70783,4.31983c0,0 -8.71225,-0.02651 -13.19466,-0.77226c-4.75667,-0.79136 -14.57148,-3.84721 -14.57148,-3.84721z" fill="url(#color-1)" stroke="none" stroke-width="0"></path><path d="M246.04264,275.43617c-0.42339,-2.0012 1.05871,-4.17479 1.13981,-6.49591c0.18204,-5.20968 -1.92478,-10.3702 -1.92478,-10.3702l6.38497,-0.19624c0,0 2.74739,8.80715 -0.19625,15.68866c-1.26884,2.96625 3.53236,6.18274 3.53236,6.18274c0,0 -4.14161,-0.98121 -4.28239,-0.98121c-0.14392,0 0.43643,2.48169 0.43643,2.48169c0,0 -4.44532,-3.26175 -5.09015,-6.30953z" fill="url(#color-2)" stroke="none" stroke-width="0"></path><path d="M245.9389,252.02013c8.06336,0 21.86095,-10.41716 10.47892,9.43611c-1.6756,2.92269 -7.79235,-6.98796 -8.90898,0.99771c-1.26226,9.02713 -7.39332,-1.04054 -7.67673,-1.62589c-4.37665,-9.0394 -8.4932,0.3796 -8.4932,-2.70793c0,-3.36894 6.53664,-6.1 14.6,-6.1z" fill="url(#color-3)" stroke="none" stroke-width="0"></path><path d="M217.45916,218.16199l0.70784,-4.31983c0,0 9.71938,3.49776 14.47452,4.28888c4.48436,0.74607 13.29162,0.3306 13.29162,0.3306l-0.70783,4.31983c0,0 -8.71225,-0.02651 -13.19466,-0.77226c-4.75667,-0.79136 -14.57148,-3.84721 -14.57148,-3.84721z" fill="url(#color-4)" stroke="none" stroke-width="0"></path><path d="M217.45916,206.82867l0.70784,-4.31983c0,0 9.71938,3.49776 14.47452,4.28888c4.48436,0.74607 13.29162,0.3306 13.29162,0.3306l-0.70783,4.31983c0,0 -8.71225,-0.02651 -13.19466,-0.77226c-4.75667,-0.79136 -14.57148,-3.84721 -14.57148,-3.84721z" fill="url(#color-5)" stroke="none" stroke-width="0"></path><path d="M234.93889,250.42012c6.51696,0 11.8,-1.06894 11.8,2.3c0,1.57754 0.00923,3.28645 -2.50224,6.94965c-2.85194,4.15978 -6.75946,4.74571 -7.92782,1.48328c-5.46823,-15.26901 -13.16994,-1.26399 -13.16994,-4.63293c0,-3.36894 5.28304,-6.1 11.8,-6.1z" fill="url(#color-6)" stroke="none" stroke-width="0"></path><path d="M230.80643,247.06687c8.06336,0 14.6,2.73107 14.6,6.1c0,2.87765 -3.47219,6.68068 -9.81167,5.68671c-3.64654,-0.57174 -1.19304,6.11214 -4.78833,6.65175c-2.22495,0.33394 -2.89794,-6.1239 -4.3649,-7.46863c-2.16358,-1.98329 -4.61952,-2.12968 -4.61952,-4.13736c0,-3.36893 0.92106,-6.83247 8.98442,-6.83247z" fill="url(#color-7)" stroke="none" stroke-width="0"></path><path d="M234.2389,245.62014c6.12186,0 11.08461,2.55198 11.08461,5.7c0,3.14803 -4.96275,5.7 -11.08461,5.7c-6.12187,0 -11.08462,-2.55198 -11.08462,-5.7c0,-3.14802 4.96276,-5.7 11.08462,-5.7z" fill="url(#color-8)" stroke="none" stroke-width="0"></path><path d="M252.6389,231.22013c6.68265,0 12.1,6.40233 12.1,14.3c0,3.53931 -1.87296,10.5069 -3.67524,13.00393c-1.12452,1.558 -3.11055,0.29997 -4.50162,0.22856c-1.35436,-0.06953 -2.10386,1.06751 -3.92314,1.06751c-6.68265,0 -12.1,-6.40233 -12.1,-14.3c0,-7.89767 5.41735,-14.3 12.1,-14.3z" fill="url(#color-9)" stroke="none" stroke-width="0"></path><path d="M213.08674,255.55179c0,0 2.03716,-11.10119 3.61359,-21.39942c0.19527,0.03139 0.39557,0.04769 0.59968,0.04769c2.07107,0 3.75,-1.67893 3.75,-3.75c0,-1.21651 -0.57927,-2.29773 -1.47701,-2.98287c0.17858,-0.43721 0.27701,-0.91567 0.27701,-1.41713c0,-0.21603 7.65166,-4.03788 7.56282,-4.09858c0.02001,-0.18255 -6.85984,-7.11051 -6.85303,-7.18964c0.01041,-0.00686 3.81824,-4.19936 3.81833,-4.19979c0.21268,-0.01938 -1.39479,-5.32566 -1.39479,-5.33436c0,-2.07107 -0.07893,-6.35 -2.15,-6.35c-0.15483,0 -0.30748,0.00939 -0.45739,0.02761c0.85713,-10.71587 1.51695,-20.02488 1.51695,-20.02488l37.78325,-0.15789c0,0 0.59402,10.37013 1.33357,21.08532c-1.32961,0.57644 -2.25972,1.9007 -2.25972,3.44219c0,0.88399 0.30588,1.69655 0.81757,2.3376c-0.39035,0.59169 -0.61757,1.30051 -0.61757,2.0624c0,1.78417 1.24599,3.27732 2.9153,3.65677c0.19892,2.43123 0.39657,4.64755 0.58566,6.48637c0.89638,8.71691 3.8392,25.24765 3.8392,25.24765l-14.00235,20.63251l-10.20253,-12.73249l-15.56127,9.60404zM254.5,211.95006c0.82843,0 1.5,-0.67157 1.5,-1.5c0,-0.82843 -0.67157,-1.5 -1.5,-1.5c-0.82843,0 -1.5,0.67157 -1.5,1.5c0,0.82843 0.67157,1.5 1.5,1.5zM258.5,216.75007c0.82842,0 1.5,-0.67157 1.5,-1.5c0,-0.82843 -0.67158,-1.5 -1.5,-1.5c-0.82842,0 -1.5,0.67157 -1.5,1.5c0,0.82843 0.67158,1.5 1.5,1.5zM256.9,206.20006c0.41422,0 0.75,-0.33578 0.75,-0.75c0,-0.41422 -0.33578,-0.75 -0.75,-0.75c-0.41422,0 -0.75,0.33578 -0.75,0.75c0,0.41422 0.33578,0.75 0.75,0.75zM252.9,216.40006c0.41422,0 0.75,-0.33578 0.75,-0.75c0,-0.41422 -0.33578,-0.75 -0.75,-0.75c-0.41422,0 -0.75,0.33578 -0.75,0.75c0,0.41422 0.33578,0.75 0.75,0.75z" fill="url(#color-10)" stroke="#000000" stroke-width="0"></path><path d="M272.16667,194.14755c0,5.24211 -14.40151,9.49166 -32.16667,9.49166c-17.76516,0 -32.16666,-4.24956 -32.16666,-9.49166c0,-5.24211 14.4015,-9.49167 32.16666,-9.49167c17.76516,0 32.16667,4.24956 32.16667,9.49167z" fill="#1a0e05" stroke="none" stroke-width="0"></path><path d="M234.75001,91.57821v-152.15623h10v152.15623z" fill="url(#color-11)" stroke="#000000" stroke-width="0"></path><path d="M182.49177,117.8108c-4.93147,-6.58969 -23.60092,-55.06973 -23.60092,-55.06973c0,0 41.24719,31.58372 46.17866,38.17342c4.93147,6.5897 3.87502,15.71407 -2.35965,20.37986c-6.23467,4.66579 -15.28663,3.10615 -20.2181,-3.48354z" fill="#330000" stroke="#000000" stroke-width="0"></path><path d="M271.58214,181.24665c0,4.18816 -14.88653,14.41667 -33.25,14.41667c-18.36347,0 -33.25,-10.22851 -33.25,-14.41667c0,-4.18816 15.5532,2.58333 33.91667,2.58333c18.36347,0 32.58333,-6.77149 32.58333,-2.58333z" fill="url(#color-12)" stroke="none" stroke-width="0"></path><path d="M179.28442,137.72949c0,-32.06163 27.26752,-58.05271 60.90369,-58.05271c33.63617,0 57.65369,20.40611 57.65369,52.46773c0,32.06163 -19.35085,38.25141 -57.65369,38.58989c-49.3021,0.43568 -60.90369,-0.94329 -60.90369,-33.00491z" fill="url(#color-13)" stroke="#000000" stroke-width="0"></path><path d="M256.48753,167.38798c-7.68765,-3.54951 -12.96393,-10.86912 -12.96393,-19.32265c0,-11.93247 10.51265,-21.60565 23.48065,-21.60565c12.968,0 23.48065,9.67318 23.48065,21.60565c0,5.99781 -2.65606,11.42481 -6.94493,15.33946c-2.83943,2.59168 -13.17374,5.15238 -20.25284,5.46394c-3.50107,0.15408 -5.75269,-0.99736 -6.7996,-1.48074z" fill-opacity="0.3451" fill="#000000" stroke="#000000" stroke-width="0"></path><g stroke="none" stroke-width="0"><g><path d="M269.02369,175.04205c0,0 -0.58522,-6.93891 2.21862,-6.93891c2.80383,0 2.04112,6.93891 2.04112,6.93891z" fill="url(#color-14)"></path><path d="M265.88158,175.71902c0,0 -0.69941,-8.29285 2.65152,-8.29285c3.35092,0 2.43939,8.29285 2.43939,8.29285z" fill="url(#color-15)"></path><path d="M261.56667,176.22673c0,0 -0.78505,-9.3083 2.97619,-9.3083c3.76124,0 2.73809,9.3083 2.73809,9.3083z" fill="url(#color-16)"></path><path d="M255.54186,177.07296c0,0 -0.92778,-11.00072 3.51732,-11.00072c4.4451,0 3.23593,11.00072 3.23593,11.00072z" fill="url(#color-17)"></path><path d="M241.41205,178.25762c0,0 -1.09907,-13.03162 4.16667,-13.03162c5.26574,0 3.83333,13.03162 3.83333,13.03162z" fill="url(#color-18)"></path><path d="M248.7331,177.74992c0,0 -1.04197,-12.35466 3.95022,-12.35466c4.99219,0 3.6342,12.35466 3.6342,12.35466z" fill="url(#color-19)"></path></g><g><path d="M209.91141,174.87277c0,0 -0.76271,-6.93891 2.04112,-6.93891c2.80384,0 2.21862,6.93891 2.21862,6.93891z" fill="url(#color-20)"></path><path d="M212.22234,175.54977c0,0 -0.91153,-8.29285 2.43939,-8.29285c3.35093,0 2.65152,8.29285 2.65152,8.29285z" fill="url(#color-21)"></path><path d="M215.91388,176.05752c0,0 -1.02315,-9.3083 2.73809,-9.3083c3.76124,0 2.97619,9.3083 2.97619,9.3083z" fill="url(#color-22)"></path><path d="M220.89973,176.90369c0,0 -1.20917,-11.00072 3.23593,-11.00072c4.4451,0 3.51732,11.00072 3.51732,11.00072z" fill="url(#color-23)"></path><path d="M233.78279,178.08841c0,0 -1.43241,-13.03162 3.83333,-13.03162c5.26574,0 4.16667,13.03162 4.16667,13.03162z" fill="url(#color-24)"></path><path d="M226.87732,177.58068c0,0 -1.35799,-12.35466 3.6342,-12.35466c4.99219,0 3.95022,12.35466 3.95022,12.35466z" fill="url(#color-25)"></path></g></g><g stroke="none" stroke-width="0"><g><path d="M270.23631,176.06598c0,0 0.68468,6.1342 -1.83229,6.1342c-2.51697,0 -1.99162,-6.1342 -1.99162,-6.1342z" fill="url(#color-26)"></path><path d="M268.16183,176.92625c0,0 0.81827,7.33112 -2.18981,7.33112c-3.00808,0 -2.38024,-7.33112 -2.38024,-7.33112z" fill="url(#color-27)"></path><path d="M264.84798,177.48732c0,0 0.91846,8.22881 -2.45795,8.22881c-3.37642,0 -2.67169,-8.22881 -2.67169,-8.22881z" fill="url(#color-28)"></path><path d="M260.37223,177.74911c0,0 1.08546,9.72495 -2.90485,9.72495c-3.99031,0 -3.15746,-9.72495 -3.15746,-9.72495z" fill="url(#color-29)"></path><path d="M248.80727,178.72165c0,0 1.28585,11.52033 -3.44114,11.52033c-4.72699,0 -3.74036,-11.52033 -3.74036,-11.52033z" fill="url(#color-30)"></path><path d="M255.00621,178.27278c0,0 1.21906,10.92187 -3.26237,10.92187c-4.48143,0 -3.54606,-10.92187 -3.54606,-10.92187z" fill="url(#color-31)"></path></g><g><path d="M216.94911,176.06598c0,0 0.52535,6.1342 -1.99162,6.1342c-2.51697,0 -1.83229,-6.1342 -1.83229,-6.1342z" fill="url(#color-32)"></path><path d="M219.76973,176.92625c0,0 0.62784,7.33112 -2.38024,7.33112c-3.00808,0 -2.18981,-7.33112 -2.18981,-7.33112z" fill="url(#color-33)"></path><path d="M223.64317,177.48732c0,0 0.70473,8.22881 -2.67169,8.22881c-3.37641,0 -2.45795,-8.22881 -2.45795,-8.22881z" fill="url(#color-34)"></path><path d="M229.05159,177.74911c0,0 0.83285,9.72495 -3.15746,9.72495c-3.99031,0 -2.90485,-9.72495 -2.90485,-9.72495z" fill="url(#color-35)"></path><path d="M241.73574,178.72165c0,0 0.98663,11.52033 -3.74036,11.52033c-4.72699,0 -3.44114,-11.52033 -3.44114,-11.52033z" fill="url(#color-36)"></path><path d="M235.16373,178.27278c0,0 0.93537,10.92187 -3.54606,10.92187c-4.48143,0 -3.26237,-10.92187 -3.26237,-10.92187z" fill="url(#color-37)"></path></g></g><path d="M175.83999,136.84617c0,-33.30185 28.7599,-60.29833 64.23702,-60.29833c0.28751,0 5.25881,10.01074 5.54253,16.56938c0.45162,10.44006 -4.4047,27.24641 -4.97142,43.72256c-0.41013,11.92347 2.72287,25.91735 2.90905,36.03328c0.13715,7.45205 -4.74397,11.07578 -5.4762,15.22323c-0.7689,4.35514 2.59216,9.04821 1.99605,9.04821c-11.25658,0 -21.8369,-2.71784 -31.03688,-7.49257c-2.17966,-1.13123 -5.09761,-7.26411 -10.00055,-9.54491c-8.44195,-3.9271 -11.83947,-8.90762 -13.36428,-11.18128c-6.23087,-9.29093 -9.83531,-20.29013 -9.83531,-32.07957z" fill="url(#color-38)" stroke="#000000" stroke-width="0"></path><path d="M214.80426,171.07098c-12.968,0 -25.48065,-10.67318 -25.48065,-22.60565c0,-11.93247 10.51265,-21.60565 23.48065,-21.60565c12.968,0 23.48065,9.67318 23.48065,21.60565c0,11.93247 -8.51265,22.60565 -21.48065,22.60565z" fill-opacity="0.3451" fill="#000000" stroke="#000000" stroke-width="0"></path><path d="M227.62332,77.69298c4.14681,-0.75127 8.43371,-1.14513 12.82095,-1.14513c0.29436,0 5.38408,10.01074 5.67456,16.56938c0.46238,10.44006 -4.50963,27.24641 -5.08985,43.72256c-0.4199,11.92347 2.78773,25.91735 2.97835,36.03328c0.14042,7.45205 -4.85698,11.07578 -5.60665,15.22323c-0.78722,4.35514 2.65391,9.04821 2.0436,9.04821c-5.44088,0 -10.72742,-0.60576 -15.78381,-1.74773c-0.0406,-1.6136 2.03024,-81.32147 2.73558,-108.75662c0.12559,-4.88478 0.20788,-8.11246 0.22727,-8.94719z" fill="url(#color-39)" stroke="#000000" stroke-width="0"></path><path d="M247.62352,149.18338l40.55738,-1.92712c0,0 5.37893,11.636 -3.81666,15.41875c-0.36394,0.14971 0.0894,-6.98367 0.0894,-6.98367c0,0 -2.39895,8.44164 -3.36305,8.41072c-1.2805,-0.04107 -0.72234,-7.10248 -1.42664,-7.1879c-0.96802,-0.11742 -1.61315,8.41548 -2.78324,8.73802c-1.24561,0.34337 -1.62591,-6.42789 -2.87947,-6.19954c-0.72667,0.13237 -1.06459,8.14281 -1.82329,8.26111c-0.32399,0.05052 -1.85569,-4.63072 -3.04181,-4.98354c-0.69369,-0.20634 -1.9302,2.4796 -2.36071,1.97406c-1.15947,-1.36154 -0.59482,-4.03947 -1.64357,-4.18976c-1.54118,-0.22087 -2.02632,4.76557 -3.44378,4.25192c-3.01736,-1.0934 -4.97215,-3.05969 -4.97215,-3.05969c0,0 -0.41236,3.51814 -3.17382,3.61839c0,0 -1.22078,-1.75182 -2.02086,-4.8625c-0.78353,-3.04633 -3.89771,-11.27923 -3.89771,-11.27923z" fill-opacity="0.30196" fill="#1a0000" stroke="#000000" stroke-width="0"></path><path d="M190.27397,139.34196c3.14122,-11.12332 15.80466,-17.28353 28.28457,-13.75921c12.47991,3.52432 20.05042,15.39859 16.9092,26.52192c-3.14122,11.12332 -15.80466,17.28353 -28.28457,13.75921c-12.47991,-3.52432 -20.05042,-15.39859 -16.9092,-26.52192z" fill="url(#color-40)" stroke="#000000" stroke-width="0"></path><path d="M198.00885,146.45953c2.21108,-7.82962 11.12477,-12.16574 19.90927,-9.685c8.78452,2.48075 14.11333,10.83895 11.90225,18.66856c-2.21108,7.82962 -11.12478,12.16574 -19.90928,9.68499c-8.78452,-2.48075 -14.11332,-10.83894 -11.90224,-18.66856z" fill="#000000" stroke="none" stroke-width="0"></path><path d="M272.91102,165.83703c-12.4633,3.58261 -25.15539,-2.51835 -28.34857,-13.62687c-3.19317,-11.10852 4.32176,-23.01804 16.78507,-26.60065c12.4633,-3.58261 25.15539,2.51835 28.34857,13.62687c3.19317,11.10852 -4.32176,23.01804 -16.78507,26.60065z" fill="#000000" stroke="#000000" stroke-width="0.5"></path><path d="M211.47121,99.50529c-4.62552,1.9655 -9.48845,0.93908 -10.86166,-2.29257c-1.37321,-3.23165 -1.34013,-26.42253 -1.34013,-26.42253c0,0 16.71739,16.07317 18.0906,19.30482c1.37321,3.23165 -1.2633,7.44477 -5.88881,9.41027z" fill="#330000" stroke="#000000" stroke-width="0"></path><path d="M212.07397,186.46576c-1.00385,0.04879 -1.05263,-0.95505 -1.05263,-0.95505l0.30412,0.19362c-1.7146,-1.5815 -3.49751,-5.74885 -5.15388,-7.42637c-2.66836,-2.70243 -5.20291,-2.9466 -8.05289,-5.51573c0,0 6.64647,1.79867 9.29902,4.48297c1.7018,1.72217 5.66011,9.1718 4.65627,9.22058z" fill-opacity="0.3098" fill="#000000" stroke="none" stroke-width="0.5"></path><path d="M206.79638,177.75317c2.84754,3.75876 5.87543,6.84724 3.95429,8.30265c-1.92114,1.45541 -14.5099,-11.01782 -12.58876,-12.47323c1.92114,-1.45541 5.78693,0.41182 8.63447,4.17058z" fill-opacity="0.14902" fill="#000000" stroke="none" stroke-width="0"></path></g></g></svg>