<svg version="1.1" xmlns="http://www.w3.org/2000/svg" xmlns:xlink="http://www.w3.org/1999/xlink" width="181.0349" height="279.06606" viewBox="0,0,181.0349,279.06606"><defs><linearGradient x1="151.89816" y1="163.86689" x2="202.89816" y2="163.86689" gradientUnits="userSpaceOnUse" id="color-1"><stop offset="0" stop-color="#666666"></stop><stop offset="1" stop-color="#000000"></stop></linearGradient><linearGradient x1="277.89815" y1="163.86689" x2="328.89815" y2="163.86689" gradientUnits="userSpaceOnUse" id="color-2"><stop offset="0" stop-color="#000000"></stop><stop offset="1" stop-color="#666666"></stop></linearGradient><linearGradient x1="187.22468" y1="38.46969" x2="187.22468" y2="134.62384" gradientUnits="userSpaceOnUse" id="color-3"><stop offset="0" stop-color="#666666"></stop><stop offset="1" stop-color="#000000"></stop></linearGradient><linearGradient x1="288.11433" y1="34.75891" x2="288.11433" y2="134.56798" gradientUnits="userSpaceOnUse" id="color-4"><stop offset="0" stop-color="#666666"></stop><stop offset="1" stop-color="#000000"></stop></linearGradient><linearGradient x1="240.00001" y1="175.50001" x2="240.00001" y2="307.50001" gradientUnits="userSpaceOnUse" id="color-5"><stop offset="0" stop-color="#000000"></stop><stop offset="1" stop-color="#666666"></stop></linearGradient><linearGradient x1="240.00002" y1="76.70167" x2="240.00002" y2="197.29834" gradientUnits="userSpaceOnUse" id="color-6"><stop offset="0" stop-color="#1a1a1a"></stop><stop offset="1" stop-color="#808080"></stop></linearGradient><linearGradient x1="267.20128" y1="179.36368" x2="294.3074" y2="179.36368" gradientUnits="userSpaceOnUse" id="color-7"><stop offset="0" stop-color="#834d4d" stop-opacity="0"></stop><stop offset="1" stop-color="#834d4d"></stop></linearGradient><linearGradient x1="216.67361" y1="236.47888" x2="233.17361" y2="236.47888" gradientUnits="userSpaceOnUse" id="color-8"><stop offset="0" stop-color="#563a3a"></stop><stop offset="1" stop-color="#563a3a" stop-opacity="0"></stop></linearGradient><linearGradient x1="238.9066" y1="234.8583" x2="242.74492" y2="234.8583" gradientUnits="userSpaceOnUse" id="color-9"><stop offset="0" stop-color="#563a3a"></stop><stop offset="1" stop-color="#563a3a" stop-opacity="0"></stop></linearGradient><linearGradient x1="227.70635" y1="216.34243" x2="230.20635" y2="216.34243" gradientUnits="userSpaceOnUse" id="color-10"><stop offset="0" stop-color="#563a3a"></stop><stop offset="1" stop-color="#563a3a" stop-opacity="0"></stop></linearGradient><linearGradient x1="240.87375" y1="248.08846" x2="243.37375" y2="248.08846" gradientUnits="userSpaceOnUse" id="color-11"><stop offset="0" stop-color="#563a3a"></stop><stop offset="1" stop-color="#563a3a" stop-opacity="0"></stop></linearGradient><linearGradient x1="230.15245" y1="241.80377" x2="236.95968" y2="241.80377" gradientUnits="userSpaceOnUse" id="color-12"><stop offset="0" stop-color="#563a3a"></stop><stop offset="1" stop-color="#563a3a" stop-opacity="0"></stop></linearGradient><linearGradient x1="238.6006" y1="171.35114" x2="238.6006" y2="197.57766" gradientUnits="userSpaceOnUse" id="color-13"><stop offset="0" stop-color="#520505"></stop><stop offset="1" stop-color="#822929"></stop></linearGradient><linearGradient x1="260.47551" y1="176.7712" x2="260.47551" y2="178.68325" gradientUnits="userSpaceOnUse" id="color-14"><stop offset="0" stop-color="#520505"></stop><stop offset="1" stop-color="#822929"></stop></linearGradient><linearGradient x1="216.17637" y1="186.68125" x2="216.17637" y2="187.8937" gradientUnits="userSpaceOnUse" id="color-15"><stop offset="0" stop-color="#520505"></stop><stop offset="1" stop-color="#822929"></stop></linearGradient><linearGradient x1="265.04319" y1="186.25636" x2="265.04319" y2="187.25636" gradientUnits="userSpaceOnUse" id="color-16"><stop offset="0" stop-color="#520505"></stop><stop offset="1" stop-color="#822929"></stop></linearGradient></defs><g transform="translate(-147.86326,-34.75891)"><g data-paper-data="{&quot;isPaintingLayer&quot;:true}" fill-rule="nonzero" stroke-linejoin="miter" stroke-miterlimit="10" stroke-dasharray="" stroke-dashoffset="0" style="mix-blend-mode: normal"><path d="M202.89816,184.36689l-34,-2l16,-20.33333l-33,-6.66667l25.66667,-12" fill="url(#color-1)" stroke="#000000" stroke-width="0" stroke-linecap="round"></path><path d="M303.23149,143.36689l25.66667,12l-33,6.66667l16,20.33333l-34,2" data-paper-data="{&quot;index&quot;:null}" fill="url(#color-2)" stroke="#000000" stroke-width="0" stroke-linecap="round"></path><path d="M177.29528,134.62384l-29.43202,-96.15415l78.72285,40.19039" fill="url(#color-3)" stroke="#000000" stroke-width="0" stroke-linecap="round"></path><path d="M252.17682,79.66598l71.87502,-44.90707l-21.40426,99.80907" data-paper-data="{&quot;index&quot;:null}" fill="url(#color-4)" stroke="#000000" stroke-width="0" stroke-linecap="round"></path><path d="M179.70863,313.82497v-267.22501h123.18203v267.22501z" fill-opacity="0.01" fill="#000000" stroke="none" stroke-width="0" stroke-linecap="butt"></path><path d="M206.75002,307.5l15.14285,-131.8421l37.78325,-0.15789l13.57389,132z" fill="url(#color-5)" stroke="#000000" stroke-width="0" stroke-linecap="butt"></path><path d="M175.763,137c0,-33.30185 28.7599,-60.29833 64.23702,-60.29833c35.47713,0 64.23702,26.99648 64.23702,60.29833c0,33.30185 -28.75989,60.29834 -64.23702,60.29834c-35.47712,0 -64.23702,-26.99649 -64.23702,-60.29834z" fill="url(#color-6)" stroke="#000000" stroke-width="0" stroke-linecap="butt"></path><path d="M294.3074,169.2198c-5.73727,8.50299 -13.67842,15.56595 -23.06959,20.48125c0,0 -6.52779,-5.76002 -2.9808,-8.63654c4.29641,-3.48429 5.31451,2.22492 8.53413,0.18158c2.93046,-1.85982 4.62866,-7.14493 6.96297,-9.34754c4.18064,-3.94478 10.55328,-2.67876 10.55328,-2.67876z" fill="url(#color-7)" stroke="#000000" stroke-width="0" stroke-linecap="butt"></path><path d="M189.00557,136.97569l-3.6,-2.6" fill="none" stroke="#000000" stroke-width="2" stroke-linecap="round"></path><path d="M189.39014,137.27563c0,-12.96801 10.51265,-23.48065 23.48066,-23.48065c12.96801,0 23.48065,10.51264 23.48065,23.48065c0,12.96801 -10.51264,23.48066 -23.48065,23.48066c-12.96801,0 -23.48066,-10.51265 -23.48066,-23.48066z" fill="#808080" stroke="#000000" stroke-width="0" stroke-linecap="butt"></path><path d="M290.1389,136.77569l4.2,-3.4" fill="none" stroke="#000000" stroke-width="2" stroke-linecap="round"></path><path d="M267.12924,160.75629c-12.96801,0 -23.48065,-10.51265 -23.48065,-23.48066c0,-12.96801 10.51264,-23.48065 23.48065,-23.48065c12.96801,0 23.48066,10.51264 23.48066,23.48065c0,12.96801 -10.51265,23.48066 -23.48066,23.48066z" data-paper-data="{&quot;index&quot;:null}" fill="#808080" stroke="#000000" stroke-width="0" stroke-linecap="butt"></path><path d="M200.45554,137c0,-11.19913 5.60889,-20.27783 12.52783,-20.27783c6.91893,0 12.52784,9.07869 12.52784,20.27785c0,11.19913 -5.6089,20.27785 -12.52784,20.27785c-6.91893,0 -12.52783,-9.07869 -12.52783,-20.27785z" fill="none" stroke="#000000" stroke-width="1.5" stroke-linecap="butt"></path><path d="M278.5445,137c0,10.23266 -5.04925,18.52785 -11.27783,18.52785c-6.22857,0 -11.27784,-8.29522 -11.27784,-18.52785c0,-10.23266 5.04927,-18.52785 11.27784,-18.52785c6.22857,0 11.27783,8.2952 11.27783,18.52784z" data-paper-data="{&quot;index&quot;:null}" fill="none" stroke="#000000" stroke-width="1.5" stroke-linecap="butt"></path><path d="M202.02783,100.21717c0,0 6.70895,-5.16922 11.79721,-6.36355c5.08827,-1.19433 12.33413,0.69937 12.33413,0.69937c0,0 -8.03812,-0.06028 -11.96762,0.86207c-4.10648,0.96389 -12.16372,4.80211 -12.16372,4.80211z" fill="#000000" stroke="none" stroke-width="0" stroke-linecap="butt"></path><path d="M265.96236,95.41507c-3.9295,-0.92235 -11.96762,-0.86207 -11.96762,-0.86207c0,0 7.24586,-1.8937 12.33413,-0.69937c5.08826,1.19433 11.79721,6.36355 11.79721,6.36355c0,0 -8.05724,-3.83822 -12.16372,-4.80211z" data-paper-data="{&quot;index&quot;:null}" fill="#000000" stroke="none" stroke-width="0" stroke-linecap="butt"></path><path d="M213.17361,252.22888l3.5,-32.5c0,0 14.76097,4.31685 15.17857,7.46429c0.26388,1.98879 -11.22333,-1.41952 -11.86672,3.14801c-0.66511,4.72171 16.21886,3.25015 16.29986,5.2733c0.07161,1.78869 -14.86287,1.56078 -15.19641,4.46468c-0.31381,2.73211 3.84057,2.20496 4.06988,4.96097c0.17582,2.11311 8.92402,0.85204 9.12197,3.58161c0.18234,2.51443 -21.10715,3.60714 -21.10715,3.60714z" fill="url(#color-8)" stroke="none" stroke-width="0" stroke-linecap="butt"></path><path d="M242.56131,235.8225c-0.60706,1.09269 -1.69975,0.48564 -1.69975,0.48564l-1.28572,-0.71428c0,0 -1.09269,-0.60706 -0.48564,-1.69975c0.60706,-1.09269 1.69975,-0.48565 1.69975,-0.48565l1.28571,0.71429c0,0 1.0927,0.60706 0.48564,1.69975z" fill="url(#color-9)" stroke="none" stroke-width="0.5" stroke-linecap="butt"></path><path d="M227.70635,216.34243c0,-0.69036 0.55964,-1.25 1.25,-1.25c0.69036,0 1.25,0.55964 1.25,1.25c0,0.69036 -0.55964,1.25 -1.25,1.25c-0.69036,0 -1.25,-0.55964 -1.25,-1.25z" fill="url(#color-10)" stroke="none" stroke-width="0.5" stroke-linecap="butt"></path><path d="M240.87375,248.08846c0,-0.69036 0.55964,-1.25 1.25,-1.25c0.69036,0 1.25,0.55964 1.25,1.25c0,0.69036 -0.55964,1.25 -1.25,1.25c-0.69036,0 -1.25,-0.55964 -1.25,-1.25z" fill="url(#color-11)" stroke="none" stroke-width="0.5" stroke-linecap="butt"></path><path d="M236.89246,242.5905c-0.35918,1.19728 -1.55647,0.8381 -1.55647,0.8381l-1.31902,-0.40104c-0.94874,-0.102 -1.89222,-0.25329 -2.83112,-0.42355c0,0 -1.22983,-0.2236 -1.00623,-1.45344c0.2236,-1.22984 1.45344,-1.00623 1.45344,-1.00623c0.95611,0.17431 1.91759,0.32317 2.88316,0.43358l1.53813,0.45611c0,0 1.19728,0.35918 0.8381,1.55647z" fill="url(#color-12)" stroke="none" stroke-width="0.5" stroke-linecap="butt"></path><path d="M243.57772,181.07374c0.75638,-0.71441 1.51759,-1.4151 2.49856,-1.49059c1.24095,-0.0955 1.95858,0.35084 3.1377,0.74928c0.60689,0.20508 4.6337,-3.66603 4.72788,-3.63558l-2.54023,4.61428l2.72348,0.41899c0.59924,0.08192 7.07947,-2.17321 7.46515,-1.74492c0.3989,0.44297 -5.30692,3.57871 -5.30692,4.22176c0,0.85981 7.21414,6.12023 6.55319,6.57011c0,0 -6.08408,-2.0645 -8.08546,-2.6146c-3.07254,-0.84452 -2.57629,0.61665 -2.93338,1.60402c-1.28679,3.55808 -3.85127,-1.29469 -4.11824,-1.11962c-0.53232,0.34909 -0.72129,1.96302 -1.25343,3.43887c-0.35137,0.9745 -0.73253,2.00863 -1.88834,2.15126c-1.8321,0.22609 -3.15394,-1.55896 -4.06024,-2.48846c-0.79764,-0.81806 -1.27339,-0.78188 -1.49181,-0.7954c-0.68184,-0.04222 -1.26739,1.43297 -1.31116,3.0339c-0.0123,0.44987 0.21776,1.14903 0.44191,1.82402c0.33595,1.01161 1.14085,1.54401 0.61459,1.52646c-0.20006,-0.00667 -2.05327,-0.03671 -3.20201,-0.07303c-1.54652,-0.0489 -2.47371,-0.1092 -2.59677,-0.13925c-0.42655,0.11163 0.88069,-2.32165 0.71029,-4.23229c-0.18285,-2.05023 -1.84189,-3.59517 -2.29581,-3.69435c-0.8232,0.21923 -1.64588,0.52311 -2.46273,0.69501c-0.42096,-0.14421 -0.81719,2.25141 -2.12951,1.63378c-1.26936,-0.59742 -2.50737,-0.95537 -7.99088,1.37886c-0.16935,0.07209 3.46931,-2.9403 2.56642,-2.85383c-1.52385,0.14595 -7.73734,3.22828 -6.96132,1.9593c0.85905,-1.40473 8.21968,-5.88351 8.22482,-6.16227c-0.50319,-0.66189 -3.7412,-3.64481 -3.62236,-4.1809c0.17711,-0.79894 3.91878,0.98309 3.91878,0.98309c0.45296,-0.38087 -2.75347,-6.3755 -2.33732,-6.82584c0.59993,-0.64923 4.8342,4.26805 5.65521,4.03598c1.84228,-0.52075 3.78063,1.45282 5.64916,1.03601c0.93496,-0.20856 1.65742,-1.03453 2.59351,-1.23793c1.09802,-0.23859 1.38267,-8.48717 2.5122,-8.30577c1.21847,0.19567 3.28102,8.84497 4.43617,9.21214c0.52502,0.16689 1.29579,0.32015 2.15888,0.50751z" fill="url(#color-13)" stroke="none" stroke-width="0.5" stroke-linecap="butt"></path><path d="M253.7114,183.96825h-27.70607" fill="none" stroke="#000000" stroke-width="2" stroke-linecap="round"></path><path d="M261.64399,177.72723c0,0.528 -0.52314,0.95602 -1.16848,0.95602c-0.64533,0 -1.16848,-0.42802 -1.16848,-0.95602c0,-0.528 0.52314,-0.95603 1.16848,-0.95603c0.64533,0 1.16848,0.42803 1.16848,0.95603z" fill="url(#color-14)" stroke="none" stroke-width="0" stroke-linecap="butt"></path><path d="M215.64946,187.88077c-0.12678,0.02527 -0.45511,0.05013 -0.58147,-0.32895c-0.15812,-0.47434 0.31623,-0.63246 0.31623,-0.63246c0.23846,-0.07721 0.47691,-0.15444 0.71537,-0.23165l0.08009,0.02734v-0.0338h0.63735c0.27614,0 0.5,0.22386 0.5,0.5c0,0.22492 -0.14852,0.41515 -0.35282,0.47799l-0.62641,0.2088l-0.58302,0.02566c0,0 -0.04372,0 -0.10532,-0.01293z" fill="url(#color-15)" stroke="none" stroke-width="0.5" stroke-linecap="butt"></path><path d="M264.54319,186.75636c0,-0.27614 0.22386,-0.5 0.5,-0.5c0.27614,0 0.5,0.22386 0.5,0.5c0,0.27614 -0.22386,0.5 -0.5,0.5c-0.27614,0 -0.5,-0.22386 -0.5,-0.5z" fill="url(#color-16)" stroke="none" stroke-width="0.5" stroke-linecap="butt"></path></g></g></svg>