<svg version="1.1" xmlns="http://www.w3.org/2000/svg" xmlns:xlink="http://www.w3.org/1999/xlink" width="206.51413" height="270.60219" viewBox="0,0,206.51413,270.60219"><defs><linearGradient x1="213.28624" y1="98.74784" x2="213.28624" y2="174.81913" gradientUnits="userSpaceOnUse" id="color-1"><stop offset="0" stop-color="#1a0808"></stop><stop offset="1" stop-color="#802626"></stop></linearGradient><linearGradient x1="252.85046" y1="208.83335" x2="252.85046" y2="287.50002" gradientUnits="userSpaceOnUse" id="color-2"><stop offset="0" stop-color="#000000"></stop><stop offset="1" stop-color="#660606"></stop></linearGradient><linearGradient x1="318.08225" y1="98.97792" x2="290.76236" y2="121.11775" gradientUnits="userSpaceOnUse" id="color-3"><stop offset="0" stop-color="#000000"></stop><stop offset="1" stop-color="#420101"></stop></linearGradient><radialGradient cx="159.99925" cy="182.06649" r="63.83992" gradientUnits="userSpaceOnUse" id="color-4"><stop offset="0" stop-color="#4e3e20"></stop><stop offset="1" stop-color="#5d5f60"></stop></radialGradient><linearGradient x1="177.6707" y1="169.70245" x2="192.65935" y2="169.70245" gradientUnits="userSpaceOnUse" id="color-5"><stop offset="0" stop-color="#1a0000" stop-opacity="0"></stop><stop offset="1" stop-color="#1a0000"></stop></linearGradient><linearGradient x1="316.83432" y1="94.94926" x2="283.68595" y2="121.81244" gradientUnits="userSpaceOnUse" id="color-6"><stop offset="0" stop-color="#000000"></stop><stop offset="1" stop-color="#1f6266"></stop></linearGradient><linearGradient x1="311.6058" y1="99.61548" x2="288.8163" y2="118.08392" gradientUnits="userSpaceOnUse" id="color-7"><stop offset="0" stop-color="#14191a"></stop><stop offset="1" stop-color="#657e80"></stop></linearGradient><linearGradient x1="178.56484" y1="87.10763" x2="178.56484" y2="129.7743" gradientUnits="userSpaceOnUse" id="color-8"><stop offset="0" stop-color="#000000"></stop><stop offset="1" stop-color="#1f6266"></stop></linearGradient><linearGradient x1="178.89817" y1="94.10763" x2="178.89817" y2="123.44097" gradientUnits="userSpaceOnUse" id="color-9"><stop offset="0" stop-color="#14191a"></stop><stop offset="1" stop-color="#657e80"></stop></linearGradient><linearGradient x1="240.00008" y1="175.50002" x2="240.00008" y2="307.50002" gradientUnits="userSpaceOnUse" id="color-10"><stop offset="0" stop-color="#000000"></stop><stop offset="1" stop-color="#1f6266"></stop></linearGradient><linearGradient x1="245.03939" y1="155.09017" x2="245.03939" y2="210.68265" gradientUnits="userSpaceOnUse" id="color-11"><stop offset="0" stop-color="#000000"></stop><stop offset="1" stop-color="#330000"></stop></linearGradient><linearGradient x1="240.6885" y1="191.31124" x2="240.6885" y2="227.70022" gradientUnits="userSpaceOnUse" id="color-12"><stop offset="0" stop-color="#1a0000" stop-opacity="0.34902"></stop><stop offset="1" stop-color="#800000" stop-opacity="0.21176"></stop></linearGradient><linearGradient x1="237.08202" y1="181.52768" x2="231.09958" y2="195.46461" gradientUnits="userSpaceOnUse" id="color-13"><stop offset="0" stop-color="#1a1a1a"></stop><stop offset="1" stop-color="#808080"></stop></linearGradient><linearGradient x1="261.3065" y1="201.12947" x2="263.69469" y2="195.56585" gradientUnits="userSpaceOnUse" id="color-14"><stop offset="0" stop-color="#4d4d4d"></stop><stop offset="1" stop-color="#808080"></stop></linearGradient><linearGradient x1="258.25209" y1="202.04017" x2="261.10627" y2="195.39095" gradientUnits="userSpaceOnUse" id="color-15"><stop offset="0" stop-color="#4d4d4d"></stop><stop offset="1" stop-color="#808080"></stop></linearGradient><linearGradient x1="254.37903" y1="201.95242" x2="257.5827" y2="194.48903" gradientUnits="userSpaceOnUse" id="color-16"><stop offset="0" stop-color="#4d4d4d"></stop><stop offset="1" stop-color="#808080"></stop></linearGradient><linearGradient x1="249.15189" y1="201.60061" x2="252.93805" y2="192.7802" gradientUnits="userSpaceOnUse" id="color-17"><stop offset="0" stop-color="#4d4d4d"></stop><stop offset="1" stop-color="#808080"></stop></linearGradient><linearGradient x1="236.92783" y1="199.34015" x2="241.41296" y2="188.8914" gradientUnits="userSpaceOnUse" id="color-18"><stop offset="0" stop-color="#4d4d4d"></stop><stop offset="1" stop-color="#808080"></stop></linearGradient><linearGradient x1="243.2056" y1="200.90364" x2="247.45775" y2="190.99765" gradientUnits="userSpaceOnUse" id="color-19"><stop offset="0" stop-color="#4d4d4d"></stop><stop offset="1" stop-color="#808080"></stop></linearGradient><linearGradient x1="212.33992" y1="180.11054" x2="214.7281" y2="174.54692" gradientUnits="userSpaceOnUse" id="color-20"><stop offset="0" stop-color="#4d4d4d"></stop><stop offset="1" stop-color="#808080"></stop></linearGradient><linearGradient x1="213.78368" y1="182.95208" x2="216.63786" y2="176.30286" gradientUnits="userSpaceOnUse" id="color-21"><stop offset="0" stop-color="#4d4d4d"></stop><stop offset="1" stop-color="#808080"></stop></linearGradient><linearGradient x1="216.51515" y1="185.69933" x2="219.71882" y2="178.23594" gradientUnits="userSpaceOnUse" id="color-22"><stop offset="0" stop-color="#4d4d4d"></stop><stop offset="1" stop-color="#808080"></stop></linearGradient><linearGradient x1="220.37077" y1="189.2463" x2="224.15693" y2="180.42589" gradientUnits="userSpaceOnUse" id="color-23"><stop offset="0" stop-color="#4d4d4d"></stop><stop offset="1" stop-color="#808080"></stop></linearGradient><linearGradient x1="230.42966" y1="196.55081" x2="234.9148" y2="186.10206" gradientUnits="userSpaceOnUse" id="color-24"><stop offset="0" stop-color="#4d4d4d"></stop><stop offset="1" stop-color="#808080"></stop></linearGradient><linearGradient x1="224.97197" y1="193.07684" x2="229.22411" y2="183.17085" gradientUnits="userSpaceOnUse" id="color-25"><stop offset="0" stop-color="#4d4d4d"></stop><stop offset="1" stop-color="#808080"></stop></linearGradient><radialGradient cx="236.99397" cy="133.593" r="90.58268" gradientUnits="userSpaceOnUse" id="color-26"><stop offset="0" stop-color="#4e3e20"></stop><stop offset="1" stop-color="#5d5f60"></stop></radialGradient><linearGradient x1="230.44717" y1="63.47111" x2="230.4021" y2="79.88632" gradientUnits="userSpaceOnUse" id="color-27"><stop offset="0" stop-color="#1a0000" stop-opacity="0"></stop><stop offset="1" stop-color="#1a0000"></stop></linearGradient><linearGradient x1="199.09775" y1="55.00317" x2="199.09775" y2="141.75489" gradientUnits="userSpaceOnUse" id="color-28"><stop offset="0" stop-color="#4f4025"></stop><stop offset="1" stop-color="#5d5f60"></stop></linearGradient><linearGradient x1="182.93319" y1="93.43511" x2="201.60044" y2="93.43511" gradientUnits="userSpaceOnUse" id="color-29"><stop offset="0" stop-color="#1a0101" stop-opacity="0"></stop><stop offset="1" stop-color="#1a0101"></stop></linearGradient><linearGradient x1="240.07702" y1="77.04784" x2="240.07702" y2="197.6445" gradientUnits="userSpaceOnUse" id="color-30"><stop offset="0" stop-color="#08191a"></stop><stop offset="1" stop-color="#267b80"></stop></linearGradient><linearGradient x1="211.51669" y1="143.35347" x2="211.51669" y2="179.15347" gradientUnits="userSpaceOnUse" id="color-31"><stop offset="0" stop-color="#1a0000" stop-opacity="0.34902"></stop><stop offset="1" stop-color="#800000" stop-opacity="0.21176"></stop></linearGradient><radialGradient cx="266.46261" cy="137.27561" r="23.48065" gradientUnits="userSpaceOnUse" id="color-32"><stop offset="0" stop-color="#1a0000"></stop><stop offset="1" stop-color="#4d0000"></stop></radialGradient><radialGradient cx="212.87086" cy="137.27564" r="23.48065" gradientUnits="userSpaceOnUse" id="color-33"><stop offset="0" stop-color="#808080"></stop><stop offset="1" stop-color="#804040"></stop></radialGradient><radialGradient cx="265.79595" cy="134.1386" r="23.48065" gradientUnits="userSpaceOnUse" id="color-34"><stop offset="0" stop-color="#032300"></stop><stop offset="1" stop-color="#4d0000"></stop></radialGradient><linearGradient x1="245.38058" y1="56.20521" x2="245.38058" y2="84.38852" gradientUnits="userSpaceOnUse" id="color-35"><stop offset="0" stop-color="#0f3133"></stop><stop offset="1" stop-color="#08191a"></stop></linearGradient><linearGradient x1="262.15029" y1="127.82127" x2="321.49679" y2="127.82127" gradientUnits="userSpaceOnUse" id="color-36"><stop offset="0" stop-color="#807764"></stop><stop offset="1" stop-color="#4e3e20"></stop></linearGradient><linearGradient x1="262.1503" y1="136.15496" x2="275.76211" y2="136.15496" gradientUnits="userSpaceOnUse" id="color-37"><stop offset="0" stop-color="#1a0000"></stop><stop offset="1" stop-color="#1a0000" stop-opacity="0"></stop></linearGradient><linearGradient x1="232.44909" y1="234.31308" x2="232.44909" y2="246.14641" gradientUnits="userSpaceOnUse" id="color-38"><stop offset="0" stop-color="#1a0000" stop-opacity="0.34902"></stop><stop offset="1" stop-color="#800000" stop-opacity="0.21176"></stop></linearGradient><linearGradient x1="313.92608" y1="111.23947" x2="350.19359" y2="111.23947" gradientUnits="userSpaceOnUse" id="color-39"><stop offset="0" stop-color="#4e3e20"></stop><stop offset="1" stop-color="#47341d"></stop></linearGradient><linearGradient x1="226.58134" y1="233.77547" x2="235.73551" y2="233.77547" gradientUnits="userSpaceOnUse" id="color-40"><stop offset="0" stop-color="#1a0000" stop-opacity="0"></stop><stop offset="1" stop-color="#1a0000"></stop></linearGradient><linearGradient x1="193.80557" y1="90.87946" x2="193.80557" y2="115.02232" gradientUnits="userSpaceOnUse" id="color-41"><stop offset="0" stop-color="#1a0000" stop-opacity="0.34902"></stop><stop offset="1" stop-color="#800000" stop-opacity="0.21176"></stop></linearGradient><linearGradient x1="322.72728" y1="106.42659" x2="322.72728" y2="118.34943" gradientUnits="userSpaceOnUse" id="color-42"><stop offset="0" stop-color="#342013"></stop><stop offset="1" stop-color="#342013" stop-opacity="0"></stop></linearGradient><linearGradient x1="269.12496" y1="110.13994" x2="274.78155" y2="116.48452" gradientUnits="userSpaceOnUse" id="color-43"><stop offset="0" stop-color="#6a645b"></stop><stop offset="1" stop-color="#fff0dd"></stop></linearGradient><linearGradient x1="279.96105" y1="134.10709" x2="279.96105" y2="136.43284" gradientUnits="userSpaceOnUse" id="color-44"><stop offset="0" stop-color="#6a645b"></stop><stop offset="1" stop-color="#fff0dd"></stop></linearGradient><linearGradient x1="307.30517" y1="115.66362" x2="307.30517" y2="119.95375" gradientUnits="userSpaceOnUse" id="color-45"><stop offset="0" stop-color="#6a645b"></stop><stop offset="1" stop-color="#fff0dd"></stop></linearGradient><linearGradient x1="279.3596" y1="147.34506" x2="278.06305" y2="149.81423" gradientUnits="userSpaceOnUse" id="color-46"><stop offset="0" stop-color="#6a645b"></stop><stop offset="1" stop-color="#fff0dd"></stop></linearGradient><linearGradient x1="251.13175" y1="139.00591" x2="251.13175" y2="147.62317" gradientUnits="userSpaceOnUse" id="color-47"><stop offset="0" stop-color="#6a645b"></stop><stop offset="1" stop-color="#fff0dd"></stop></linearGradient><linearGradient x1="263.02626" y1="123.01172" x2="261.72972" y2="125.48089" gradientUnits="userSpaceOnUse" id="color-48"><stop offset="0" stop-color="#6a645b"></stop><stop offset="1" stop-color="#fff0dd"></stop></linearGradient><linearGradient x1="228.35024" y1="43.01033" x2="228.35024" y2="60.08583" gradientUnits="userSpaceOnUse" id="color-49"><stop offset="0" stop-color="#4e3e20"></stop><stop offset="1" stop-color="#4e3e20" stop-opacity="0"></stop></linearGradient><linearGradient x1="244.48986" y1="183.13001" x2="244.48986" y2="224.17568" gradientUnits="userSpaceOnUse" id="color-50"><stop offset="0" stop-color="#41331b" stop-opacity="0"></stop><stop offset="1" stop-color="#41331b"></stop></linearGradient><linearGradient x1="260.04766" y1="138.5031" x2="265.57349" y2="138.5031" gradientUnits="userSpaceOnUse" id="color-51"><stop offset="0" stop-color="#021300" stop-opacity="0"></stop><stop offset="1" stop-color="#021300"></stop></linearGradient></defs><g transform="translate(-143.67946,-43.01033)"><g data-paper-data="{&quot;isPaintingLayer&quot;:true}" fill-rule="nonzero" stroke-linejoin="miter" stroke-miterlimit="10" stroke-dasharray="" stroke-dashoffset="0" style="mix-blend-mode: normal"><path d="M213.28624,98.74784c20.71102,0 37.50062,17.02914 37.50062,38.03565c0,11.88271 -5.98244,23.18613 -14.5564,30.88494c-0.74292,0.66708 -1.18911,1.42098 -1.96874,2.48748c-0.19438,-0.20111 -1.0433,-1.9898 -1.7378,-3.54771c-0.63118,-1.41585 -1.39596,-3.1114 -2.16177,-4.57649c-1.20013,-2.29601 -2.50471,-3.80584 -2.75269,-3.97259c-0.59024,-0.3969 -4.75619,3.12148 -5.67217,2.53447c-0.90652,-1.47495 -5.39437,-7.92773 -7.59625,-9.99571c-0.11382,-0.1069 -1.51239,2.3711 -2.93993,5.04444c-0.22534,0.42198 -2.28297,-1.09905 -2.30085,-0.95988c-0.01218,0.036 -1.26335,6.63602 -1.80331,5.71287c-1.07849,-1.84384 -2.6832,-4.62555 -2.71079,-4.44902c-0.0126,0.08059 -0.6294,3.90711 -0.8166,7.78221c-0.12366,2.5598 0.17774,5.71845 0.11606,5.76959c-0.06257,0.05188 -1.79338,-1.18156 -3.12962,-1.52483c-0.05043,-0.01296 -0.12463,1.59749 -0.08451,3.40624c0.03851,1.73631 0.19063,3.67323 0.18126,3.69173c-0.22683,-0.12115 -1.64769,-1.83596 -2.1303,-2.13097c-10.29227,-6.29134 -20.18351,-18.10775 -22.45208,-30.80246c0.85584,-1.29185 1.35957,-2.87462 1.35957,-4.58452c0,-0.96646 -0.16092,-1.89232 -0.4554,-2.74798c0.10711,-0.53753 0.1635,-1.09543 0.1635,-1.66756c0,-1.33836 -0.30859,-2.59883 -0.85309,-3.70288c3.37545,-17.48992 18.56888,-30.687 36.80129,-30.687z" fill="url(#color-1)" stroke="#000000" stroke-width="0" stroke-linecap="butt"></path><path d="M178.40899,313.61251v-171.23914c0.38334,-1.2003 0.59026,-2.47942 0.59026,-3.80687c0,-1.32745 -0.20692,-2.60658 -0.59026,-3.80688v-1.68318c0.0596,-0.49499 0.09026,-0.99888 0.09026,-1.50994c0,-0.51105 -0.03066,-1.01495 -0.09026,-1.50994v-83.66905h123.18203c0,0 0,5.9168 0,15.62819c-2.59868,1.80599 -4.29989,4.81305 -4.29989,8.21745c0,3.27694 1.5762,6.18573 4.01182,8.00959c-0.00784,0.16248 -0.01182,0.32599 -0.01182,0.49041c0,0.84179 0.10402,1.65928 0.29989,2.44033c0,37.77451 0,96.88714 0,128.15519c0,38.62352 0,104.28385 0,104.28385z" fill-opacity="0.01" fill="#000000" stroke="none" stroke-width="0" stroke-linecap="butt"></path><path d="M235.78417,287.50001l7.7724,-78.57256l19.39307,-0.0941l3.3843,38.2127c-1.19399,1.35287 -1.9353,3.24189 -1.9353,5.33196c0,1.68399 0.48124,3.23747 1.29275,4.48516c-0.00317,0.09607 -0.98653,1.87984 -0.33142,4.99482c0.60093,2.85739 2.00243,3.07789 2.6535,4.15183l1.90327,21.49019z" fill="url(#color-2)" stroke="#000000" stroke-width="0" stroke-linecap="butt"></path><path d="M293.35238,96.38788c7.54418,-6.11375 18.6161,-4.95414 24.72984,2.59004c1.16683,1.43983 2.06873,3.00816 2.71187,4.64601c-0.65558,0.28907 -1.28402,0.66908 -1.86744,1.14188c-2.09825,1.70041 -3.14289,4.21905 -3.04688,6.725c-0.1081,0.07929 -0.21486,0.1616 -0.32014,0.24691c-3.53633,2.86581 -4.0799,8.05578 -1.21408,11.59211c0.21437,0.26452 0.44174,0.51229 0.68045,0.74315c-7.52782,5.69855 -18.27468,4.43498 -24.26366,-2.95524c-6.11375,-7.54418 -4.95415,-18.6161 2.59003,-24.72985z" fill="url(#color-3)" stroke="#000000" stroke-width="0" stroke-linecap="butt"></path><path d="M227.81489,230.99778l40.80732,-7.97155c0,0 0.9434,-0.29407 1.695,1.92102c0.8429,2.48416 -0.52432,2.69797 -0.52432,2.69797l-40.32375,9.76912z" fill="#332626" stroke="none" stroke-width="0" stroke-linecap="butt"></path><path d="M158.87097,176.07387l121.39588,-48.42016c0,0 3.68311,-0.17224 4.43382,1.70707c0.75071,1.8793 -2.00835,5.19923 -2.00835,5.19923l-123.66393,49.42758c0,0 -1.59925,0.17478 -1.85269,-3.60319c-0.26953,-4.01796 1.69527,-4.31053 1.69527,-4.31053z" fill="url(#color-4)" stroke="none" stroke-width="0" stroke-linecap="butt"></path><path d="M177.6707,168.57538l12.16078,-4.85047l2.82787,6.82063l-12.84596,5.13444z" fill="url(#color-5)" stroke="none" stroke-width="0" stroke-linecap="butt"></path><path d="M286.82854,91.80665c9.15367,-7.41806 22.58771,-6.01107 30.00577,3.1426c1.41576,1.74701 2.51007,3.64993 3.29042,5.63719c-0.79545,0.35075 -1.55794,0.81183 -2.26584,1.3855c-2.5459,2.06317 -3.81341,5.11915 -3.69692,8.15972c-0.13117,0.09621 -0.26069,0.19606 -0.38843,0.29958c-4.29078,3.47722 -4.95031,9.77442 -1.47309,14.06521c0.2601,0.32096 0.53598,0.62159 0.82561,0.90169c-9.13381,6.91429 -22.17344,5.38114 -29.44011,-3.58572c-7.41806,-9.15367 -6.01108,-22.58771 3.14259,-30.00577z" fill="url(#color-6)" stroke="#000000" stroke-width="0" stroke-linecap="butt"></path><path d="M290.97681,97.45493c6.29315,-5.09992 15.52905,-4.1326 20.62896,2.16054c1.67214,2.06337 2.69203,4.4431 3.08582,6.88967c-0.39782,1.16703 -0.57669,2.39803 -0.52962,3.62653c-0.13117,0.09621 -0.26069,0.19606 -0.38843,0.29958c-2.83321,2.29601 -4.08319,5.82153 -3.60444,9.18708c-0.23287,0.21492 -0.47417,0.42376 -0.72385,0.62611c-6.29315,5.09992 -15.52905,4.13262 -20.62897,-2.16053c-5.09991,-6.29314 -4.13262,-15.52905 2.16053,-20.62897z" fill="url(#color-7)" stroke="#000000" stroke-width="0" stroke-linecap="butt"></path><path d="M157.2315,108.44097c0,-11.78208 9.55126,-21.33333 21.33333,-21.33333c11.78207,0 21.33334,9.55126 21.33334,21.33333c0,11.78208 -9.55126,21.33333 -21.33334,21.33333c-11.78207,0 -21.33333,-9.55125 -21.33333,-21.33333z" fill="url(#color-8)" stroke="#000000" stroke-width="0" stroke-linecap="butt"></path><path d="M164.2315,108.7743c0,-8.10018 6.56649,-14.66666 14.66667,-14.66666c8.10018,0 14.66666,6.56649 14.66666,14.66666c0,8.10018 -6.56649,14.66667 -14.66666,14.66667c-8.10018,0 -14.66667,-6.56649 -14.66667,-14.66667z" fill="url(#color-9)" stroke="#000000" stroke-width="0" stroke-linecap="butt"></path><path d="M206.75009,307.50001l15.14285,-131.8421l37.78325,-0.15789c0,0 5.52605,53.73838 6.28555,61.12418c0.16813,1.63501 1.64137,1.6621 1.64137,1.6621c-0.0972,0.09485 -1.52619,1.52461 -1.62027,1.62257c-0.41498,0.37276 -2.34077,1.52101 -3.49189,3.37781c-1.68299,2.71472 -2.65807,6.56482 -2.65807,8.59098c0,3.28238 1.26516,6.26926 3.33443,8.49962c-0.00073,0.05559 -0.00109,0.11128 -0.00109,0.16704c0,4.67865 2.57043,8.75694 6.37615,10.89972l3.70772,36.05597z" fill="url(#color-10)" stroke="#000000" stroke-width="0" stroke-linecap="butt"></path><path d="M210.90233,189.21875l15.59582,-26.73334c0,0 5.82767,-6.20201 9.48657,-7.1833c5.90937,-1.58484 10.57392,6.23899 10.57392,6.23899c0,0 30.38848,0.20332 32.07935,3.49415c1.97794,3.84955 -2.08434,22.36234 -2.69939,24.20703c-0.3017,0.90488 -6.45547,-3.57409 -6.47958,-3.56269c-0.61677,0.29167 1.19422,3.71643 -3.11191,9.71108c-0.2825,0.06069 -2.26776,-2.28165 -4.47667,-3.78827c-2.85423,-1.94678 -6.08187,-3.16786 -6.49185,-2.99077c-0.06377,0.02755 -5.82818,13.65261 -6.14544,13.57773c-0.85993,-0.20297 -6.37879,-1.5706 -6.60167,-1.5706c-0.54919,0 -4.82272,8.24913 -6.24678,10.06389c-0.1461,-0.02643 -2.61466,-5.70311 -4.6277,-7.25633c-3.15622,-2.43528 -6.15925,-5.75035 -6.46876,-5.79222c-0.119,-0.01609 -1.59739,0.34136 -2.94013,1.5632c-0.87767,0.79864 -1.81194,2.6539 -1.87358,2.6326c-0.39323,-0.13585 -2.18008,-5.86395 -2.55931,-7.0733c-0.79596,-2.53829 -0.15837,-1.51555 -0.87581,-1.8068c-5.53352,-2.24637 -6.13709,-3.73105 -6.13709,-3.73105z" fill="url(#color-11)" stroke="none" stroke-width="0" stroke-linecap="butt"></path><path d="M223.10517,191.31124c0,0 12.08001,9.33334 18.01059,9.33334c5.78818,0 17.15608,-9.33334 17.15608,-9.33334c0,0 1.76242,17.00746 -0.66666,16.90857c-4.09294,-0.16663 -2.10574,35.6755 -4.269,35.74718c-2.79963,0.09278 -2.27579,-35.28034 -4.07553,-35.65772c-2.82686,-0.59276 -1.52244,27.45279 -3.86422,27.67023c-2.47839,0.23011 0.69545,-18.34439 -1.32923,-17.88259c-2.14049,0.48821 -1.90442,-8.39463 -3.86613,-8.72342c-2.04007,-0.34191 -1.1244,19.22985 -3.31191,18.97269c-1.98094,-0.23288 -0.78364,-11.77588 -2.72968,-12.39717c-1.7978,-0.57396 -0.9038,22.91934 -2.63549,22.95414c-2.25727,0.04536 -2.68934,-26.96426 -3.54055,-27.38845c-1.46383,-0.72949 -1.32353,11.06781 -4.04494,11.39754c-2.14481,0.25986 -1.42648,-19.5186 -1.0258,-27.91135c0.10771,-2.25625 0.19247,-3.68964 0.19247,-3.68964z" fill="url(#color-12)" stroke="none" stroke-width="0" stroke-linecap="butt"></path><path d="M264.64484,201.61149c-1.652,3.84858 -19.36612,7.37581 -36.24066,0.13241c-16.87454,-7.24341 -26.51946,-22.51452 -24.86745,-26.3631c1.652,-3.84858 13.27314,8.50878 30.14768,15.75218c16.87454,7.24341 32.61243,6.62993 30.96042,10.47851z" fill="url(#color-13)" stroke="none" stroke-width="0" stroke-linecap="butt"></path><g stroke="none" stroke-width="0" stroke-linecap="butt"><g><path d="M265.45164,196.32002c0,0 -1.79045,5.9069 -4.10334,4.91409c-2.31289,-0.99281 0.58948,-6.42242 0.58948,-6.42242z" fill="url(#color-14)"></path><path d="M263.20603,196.29227c0,0 -2.13981,7.05947 -4.90399,5.87294c-2.76418,-1.18653 0.70449,-7.67558 0.70449,-7.67558z" fill="url(#color-15)"></path><path d="M259.93956,195.50071c0,0 -2.40183,7.92389 -5.50448,6.59208c-3.10266,-1.33182 0.79076,-8.61545 0.79076,-8.61545z" fill="url(#color-16)"></path><path d="M255.72344,193.97583c0,0 -2.83852,9.3646 -6.50529,7.79063c-3.66677,-1.57396 0.93452,-10.18189 0.93452,-10.18189z" fill="url(#color-17)"></path><path d="M244.71257,190.30776c0,0 -3.36256,11.09345 -7.70628,9.2289c-4.34372,-1.86454 1.10707,-12.06162 1.10707,-12.06162z" fill="url(#color-18)"></path><path d="M250.58595,192.34043c0,0 -3.18788,10.51717 -7.30595,8.74948c-4.11807,-1.76768 1.04955,-11.43504 1.04955,-11.43504z" fill="url(#color-19)"></path></g><g><path d="M216.48502,175.30108c0,0 -1.93686,5.84405 -4.24975,4.85125c-2.31289,-0.99281 0.73589,-6.35957 0.73589,-6.35957z" fill="url(#color-20)"></path><path d="M218.73761,177.20418c0,0 -2.3148,6.98435 -5.07898,5.79783c-2.76418,-1.18653 0.87948,-7.60047 0.87948,-7.60047z" fill="url(#color-21)"></path><path d="M222.07568,179.24762c0,0 -2.59824,7.83959 -5.70089,6.50777c-3.10265,-1.33181 0.98717,-8.53114 0.98717,-8.53114z" fill="url(#color-22)"></path><path d="M226.94231,181.62152c0,0 -3.07065,9.26496 -6.73742,7.69099c-3.66677,-1.57396 1.16665,-10.08225 1.16665,-10.08225z" fill="url(#color-23)"></path><path d="M238.2144,187.51842c0,0 -3.63752,10.97542 -7.98124,9.11088c-4.34372,-1.86454 1.38202,-11.94359 1.38202,-11.94359z" fill="url(#color-24)"></path><path d="M232.35232,184.51364c0,0 -3.44856,10.40527 -7.56663,8.63758c-4.11807,-1.76768 1.31024,-11.32314 1.31024,-11.32314z" fill="url(#color-25)"></path></g></g><path d="M242.51913,221.42757l-18.50701,-174.71829c0,0 -0.3616,-2.99239 3.36559,-3.62367c3.71935,-0.62995 3.9079,2.90052 3.9079,2.90052l18.61888,175.18924c0,0 0.8843,2.704 -3.19481,2.98434c-3.77755,0.2596 -4.19056,-2.73213 -4.19056,-2.73213z" fill="url(#color-26)" stroke="none" stroke-width="0" stroke-linecap="butt"></path><path d="M227.57246,79.87855l-1.5943,-15.4562l7.25974,-0.94358l1.63235,15.77103z" fill="url(#color-27)" stroke="none" stroke-width="0" stroke-linecap="butt"></path><path d="M248.47275,141.22399l-103.62612,-79.64356c0,0 -2.41449,-1.80427 -0.29802,-4.93653c2.11201,-3.12566 4.7963,-0.82472 4.7963,-0.82472l104.04406,79.88776c0,0 2.56671,1.22704 -0.0466,4.3716c-2.42012,2.9121 -4.86962,1.14546 -4.86962,1.14546z" fill="url(#color-28)" stroke="none" stroke-width="0" stroke-linecap="butt"></path><path d="M197.75164,102.24145l-14.81844,-11.38896l3.9327,-6.2237l14.73455,11.57827z" fill="url(#color-29)" stroke="none" stroke-width="0" stroke-linecap="butt"></path><path d="M240.07702,77.04784c35.47712,0 64.23702,26.99649 64.23702,60.29833c0,18.8378 -10.24767,36.75721 -24.9345,48.96222c-1.27258,1.05754 -2.0369,3.34003 -3.37237,5.03076c-0.33296,-0.31882 -1.78712,-4.24178 -2.97678,-6.71156c-1.08118,-2.24457 -2.39122,-4.93253 -3.70302,-7.25516c-2.05578,-3.63988 -4.29046,-6.03344 -4.71524,-6.2978c-1.01105,-0.62921 -8.14715,4.94852 -9.71619,4.01793c-1.55284,-2.33826 -9.24034,-12.56791 -13.01206,-15.84631c-0.19497,-0.16947 -2.59066,3.75893 -5.03598,7.997c-0.38599,0.66897 -3.91063,-1.74233 -3.94126,-1.52171c-0.02087,0.05707 -2.16408,10.52015 -3.08901,9.05668c-1.8474,-2.92306 -4.5962,-7.33294 -4.64347,-7.05307c-0.02158,0.12776 -1.07814,6.19398 -1.39881,12.33721c-0.21183,4.05807 0.30447,9.06552 0.19881,9.14659c-0.10718,0.08225 -3.072,-1.87313 -5.36092,-2.41732c-0.08639,-0.02054 -0.21348,2.53251 -0.14476,5.39995c0.06597,2.75259 0.32655,5.82322 0.3105,5.85254c-0.38856,-0.19206 -2.82243,-2.91058 -3.64912,-3.37826c-17.63025,-9.97373 -34.57353,-28.70641 -38.45948,-48.83147c1.46603,-2.04799 2.32887,-4.55718 2.32887,-7.2679c0,-1.53215 -0.27565,-2.99991 -0.78007,-4.3564c0.18347,-0.85215 0.28007,-1.73659 0.28007,-2.6436c0,-2.1217 -0.52861,-4.11995 -1.46131,-5.87021c5.78199,-27.72696 31.80771,-48.64844 63.03908,-48.64844z" fill="url(#color-30)" stroke="#000000" stroke-width="0" stroke-linecap="butt"></path><path d="M196.98335,170.4868c-1.97987,0.2087 -2.06558,-6.31866 -2.59492,-10.23577c-0.66268,-4.9038 -1.07174,-16.89756 -1.07174,-16.89756h36.4c0,0 -5.18578,15.84705 -6.20614,22.92893c-1.03499,7.18335 -0.02168,10.67525 -2.12719,10.7044c-0.86837,0.01202 -1.82876,-5.19987 -2.41587,-10.47788c-0.61767,-5.55265 -0.85781,-11.19626 -1.62156,-11.64665c-0.89622,-0.52851 -3.43604,6.38832 -4.28614,13.51807c-0.86811,7.28079 -0.05264,14.78361 -1.57521,14.80662c-1.95124,0.02948 -2.85822,-7.51725 -3.00706,-14.66068c-0.11241,-5.39515 0.63723,-10.56027 -0.73598,-12.05765c-1.85188,-2.01933 -2.70466,7.06293 -5.84064,7.09728c-4.38003,0.04799 -2.38928,6.65439 -4.91754,6.92089z" fill="url(#color-31)" stroke="none" stroke-width="0" stroke-linecap="butt"></path><path d="M257.77562,157.59409c-0.05171,0.15512 -0.11018,0.29672 -0.17431,0.42589c1.71135,0.84928 4.16889,1.01961 5.77639,0.99532c3.7848,0.09498 7.1004,-2.36587 10.88904,-2.8754c0.9483,-0.12753 5.86473,0.69385 6.81705,-0.24643c1.49746,-1.47852 2.2686,-3.62438 3.87445,-4.9844c1.68636,-1.42821 2.45143,-0.85247 2.79144,-2.94445c0.20579,-1.26618 -0.33124,-3.23777 -0.40721,-4.39434c-0.11507,-1.75195 0.26376,-3.52872 0.01787,-5.26714c-0.28113,-1.98755 -1.45416,-3.76882 -1.80411,-5.74542c-0.77325,-4.36753 0.36534,-6.73325 -3.13511,-10.09114c-5.29978,-3.76276 -12.95308,-6.65855 -19.44387,-3.62533c-1.97294,0.92198 -2.07954,1.98556 -4.11843,3.14021c-0.53144,0.30096 -4.16863,1.2587 -4.98434,2.47884c-1.0192,1.52451 -0.65599,6.00177 -1.14827,7.68389c-0.76844,2.62576 -2.83495,4.91005 -3.18269,7.60873c-0.19945,1.54783 -0.11943,3.10019 -0.07497,4.65414c0.0993,0.10731 0.19317,0.21686 0.28047,0.32919c1.37123,1.76429 2.46465,3.72815 3.7255,5.57295c0.57172,0.83651 1.23264,1.62741 1.6614,2.54544c0.20583,0.4407 0.30737,0.93637 0.38489,1.44206l0.67368,0.13512c0,0 2.37171,0.79057 1.58114,3.16228zM251.40501,119.82113c1.3731,-1.01086 2.73092,-0.92683 4.89333,-2.13432c1.65733,-0.92545 2.85432,-2.59362 4.58024,-3.3838c8.35726,-3.8262 17.88641,-0.59691 24.77441,4.34846c1.01593,1.04345 2.27899,1.89347 3.0478,3.13034c2.07726,3.34189 1.17544,6.47379 1.79087,9.975c0.35371,2.01227 1.52931,3.83053 1.82034,5.85282c0.09124,0.63397 -0.02975,4.90291 0.01787,5.6062c0.14202,2.09731 0.84143,3.56777 0.31768,5.75412c-1.01824,4.25051 -3.88292,4.54342 -6.29162,7.57772c-0.83647,1.05373 -1.19534,2.52478 -2.26518,3.34056c-2.77402,2.11526 -6.08893,0.80235 -9.13053,1.20335c-4.11853,0.54298 -7.37267,2.85302 -11.58255,2.92372c-3.40102,-0.03737 -7.95851,-0.72808 -10.51761,-3.32204c-1.06681,-1.08134 -1.35744,-2.00978 -1.54358,-2.97116c-2.69751,-2.44675 -3.24397,-4.36349 -6.43544,-6.59312c-0.11416,-1.49774 -0.27459,-3.1194 -0.38987,-4.76717c-1.91409,-1.81428 -3.7485,-2.65612 -4.25571,-6.30086c-0.46619,-3.35001 1.553,-6.21489 2.68316,-9.15459c1.11605,-2.903 0.23786,-6.00362 1.47689,-8.76694c0.57901,-1.29134 1.65625,-2.29523 2.48437,-3.44285c0,0 1.5,-2 3.5,-0.5c0.68835,0.51626 0.9621,1.09175 1.02511,1.62455z" fill="#343b29" stroke="none" stroke-width="0.5" stroke-linecap="butt"></path><path d="M212.99996,164.58537c-12.968,0 -23.48065,-11.24019 -23.48065,-25.10565c0,-13.86546 10.51265,-25.10565 23.48065,-25.10565c12.968,0 23.48065,11.24019 23.48065,25.10565c0,13.86546 -10.51265,25.10565 -23.48065,25.10565z" fill-opacity="0.3451" fill="#000000" stroke="#000000" stroke-width="0" stroke-linecap="butt"></path><path d="M266.46261,160.75627c-12.968,0 -23.48065,-10.51265 -23.48065,-23.48065c0,-12.968 10.51265,-23.48065 23.48065,-23.48065c12.968,0 23.48065,10.51265 23.48065,23.48065c0,12.968 -10.51265,23.48065 -23.48065,23.48065z" fill="url(#color-32)" stroke="#000000" stroke-width="0" stroke-linecap="butt"></path><path d="M189.39021,137.27564c0,-12.968 10.51265,-23.48065 23.48065,-23.48065c12.968,0 23.48065,10.51265 23.48065,23.48065c0,12.968 -10.51265,23.48065 -23.48065,23.48065c-12.968,0 -23.48065,-10.51265 -23.48065,-23.48065z" fill="url(#color-33)" stroke="#000000" stroke-width="0" stroke-linecap="butt"></path><path d="M194.42605,137.62765c0,-9.12808 7.39976,-16.52784 16.52783,-16.52784c9.12808,0 16.52784,7.39977 16.52784,16.52784c0,9.12808 -7.39977,16.52784 -16.52784,16.52784c-9.12808,0 -16.52783,-7.39977 -16.52783,-16.52784z" fill="#000000" stroke="none" stroke-width="0" stroke-linecap="butt"></path><path d="M265.79595,159.24658c-1.23707,0 -2.67961,8.34905 -2.95176,6.83843c-2.25953,-12.54225 -4.09754,-8.91938 -4.81752,-3.748c-0.50423,3.62171 -1.86565,8.27535 -2.97983,7.50357c-1.16595,-0.80765 -2.02936,-13.00214 -5.31221,-24.98056c-1.06759,-3.89542 -1.91117,-8.00471 -2.52728,-11.86885c-1.38771,-8.70347 -1.62143,-16.16319 -0.66169,-17.13394c1.60385,-1.62225 0.60044,-14.45279 1.94717,-11.62642c1.03839,2.17928 2.3865,4.66588 3.02593,0.94781c0.5273,-3.06607 0.2527,-7.42143 1.72667,-7.98315c2.02887,-0.7732 5.05023,4.70126 8.07859,8.46555c1.53133,1.90345 1.80589,-1.16415 2.47194,0.16171c5.37167,10.69304 4.32407,2.45589 5.03306,1.35699c2.28784,-3.54605 -0.45899,-14.4467 2.66813,-11.60368c1.37292,1.24819 5.62399,7.55686 7.44738,10.78746c4.90441,8.68937 10.33208,22.18602 10.33208,27.77511c0,2.72556 0.54122,10.85891 -0.90188,20.20671c-0.59428,3.8495 -4.18905,11.99589 -5.84229,11.46793c-0.79412,-0.2536 -1.14028,-5.38767 -0.49077,-8.52508c-1.92696,5.09229 -3.1685,20.30165 -8.47483,25.18944c-1.08095,0.9957 -0.82366,-10.34485 -2.26548,-7.72573c-1.26459,2.29718 -3.26115,-15.5053 -5.50541,-15.5053z" fill="url(#color-34)" stroke="#000000" stroke-width="0" stroke-linecap="butt"></path><path d="M202.02788,108.46717c0,0 6.70895,-5.16922 11.79721,-6.36355c5.08827,-1.19433 12.33413,0.69937 12.33413,0.69937c0,0 -8.03812,-0.06028 -11.96762,0.86207c-4.10648,0.96389 -12.16372,4.80211 -12.16372,4.80211z" fill="#000000" stroke="none" stroke-width="0" stroke-linecap="butt"></path><path d="M265.96236,103.66507c-3.9295,-0.92235 -11.96762,-0.86207 -11.96762,-0.86207c0,0 7.24586,-1.8937 12.33413,-0.69937c5.08826,1.19433 11.79721,6.36355 11.79721,6.36355c0,0 -8.05724,-3.83822 -12.16372,-4.80211z" fill="#000000" stroke="none" stroke-width="0" stroke-linecap="butt"></path><path d="M236.07218,83.11019c0,0 -0.31681,-11.18942 4.28605,-18.88927c2.86487,-4.79248 8.05556,-4.29248 11.09225,-2.17523c4.00048,2.78923 5.5171,8.38518 5.5171,8.38518c0,0 -8.92726,-6.84497 -11.25601,-2.57702c-2.20558,4.04221 -2.19806,16.53467 -2.19806,16.53467" fill="url(#color-35)" stroke="#000000" stroke-width="0" stroke-linecap="round"></path><path d="M263.87095,134.07387l52.72922,-20.42016c0,0 4.01644,0.1611 4.76715,2.0404c0.75071,1.8793 -2.00835,4.86589 -2.00835,4.86589l-55.3306,21.42759c0,0 -1.59925,0.17478 -1.85269,-3.60319c-0.26954,-4.01796 1.69527,-4.31053 1.69527,-4.31053z" fill="url(#color-36)" stroke="none" stroke-width="0" stroke-linecap="butt"></path><path d="M263.20429,134.07387l10.3572,-3.7528c0,0 -0.49068,2.64846 -0.18258,3.64565c0.40078,1.29716 2.38319,3.47681 2.38319,3.47681l-11.73372,5.21073c0,0 -2.26592,-0.82522 -2.51936,-4.60319c-0.26954,-4.01796 1.69527,-3.9772 1.69527,-3.9772z" fill="url(#color-37)" stroke="none" stroke-width="0" stroke-linecap="butt"></path><path d="M231.44909,239.14641c-3.07182,-0.51466 -1.83333,-4.83333 -1.83333,-4.83333h5.66667c0,0 2.03301,11.5574 -0.83334,11.83333c-2.12502,0.20457 -1.15477,-6.69084 -3,-7z" fill="url(#color-38)" stroke="none" stroke-width="0" stroke-linecap="butt"></path><path d="M315.38746,114.12336l32.57018,-12.61328c0,0 1.79147,-0.38127 2.18602,3.43653c0.42731,4.13474 -2.0286,4.47719 -2.0286,4.47719l-29.8391,11.55563c0,0 -3.39911,-0.59408 -4.17527,-2.43637c-0.77616,-1.8423 1.28678,-4.4197 1.28678,-4.4197z" fill="url(#color-39)" stroke="none" stroke-width="0" stroke-linecap="butt"></path><path d="M211.69148,234.0641l20.56617,-4.01752c0,0 2.31455,-0.91035 3.30956,2.56735c0.89803,3.13872 -2.09033,3.74614 -2.09033,3.74614l-20.43393,4.95047c0,0 -1.07442,0.84401 -1.88463,-3.15959c-0.75032,-3.70763 0.53316,-4.08686 0.53316,-4.08686z" fill="#5d5f60" stroke="none" stroke-width="0" stroke-linecap="butt"></path><path d="M226.58134,231.15542l5.67631,-1.10884c0,0 2.31455,-0.91035 3.30956,2.56735c0.89803,3.13872 -2.09033,3.74614 -2.09033,3.74614l-5.16694,1.25178c0,0 -0.02081,-2.23445 -0.32712,-3.37853c-0.26339,-0.98378 -1.40148,-3.0779 -1.40148,-3.0779z" fill="url(#color-40)" stroke="none" stroke-width="0" stroke-linecap="butt"></path><path d="M192.59129,107.16518c-3.59844,-0.21645 -3.85714,-6.85714 -3.85714,-6.85714c0,0 2.99057,-3.98185 4.65015,-5.47308c1.62542,-1.46052 5.207,-3.95551 5.207,-3.95551c0,0 4.38738,7.42606 1.31484,8.29516c-1.88292,0.5326 0.12064,17.22971 -2.45769,17.27627c-2.42902,0.04386 -2.56506,-9.14784 -4.85715,-9.28571z" fill="url(#color-41)" stroke="none" stroke-width="0" stroke-linecap="butt"></path><path d="M320.41506,118.08488c-1.93695,0.51015 -3.54354,-0.98283 -5.44129,-1.30593c-2.5703,-0.4376 -5.17406,0.1027 -5.17406,-0.25236c0,-0.09664 5.14704,-2.14038 10.8434,-4.36428c6.99768,-2.73193 14.82434,-5.73572 14.9566,-5.73572c0.48675,0 -2.32378,3.16728 -5.46847,5.08769c-0.96803,0.59116 -5.51035,-0.55039 -5.68386,1.57506c-0.61474,7.53061 -2.74255,4.65583 -4.03232,4.99553z" fill="url(#color-42)" stroke="none" stroke-width="0" stroke-linecap="butt"></path><path d="M327.92086,114.91581c-0.23645,0.55961 -0.84055,0.839 -1.34928,0.62404c-0.50874,-0.21496 -0.72946,-0.84287 -0.49301,-1.40248c0.23645,-0.55961 0.84055,-0.839 1.34928,-0.62404c0.50874,0.21496 0.72946,0.84287 0.49301,1.40248z" fill="#3e3422" stroke="none" stroke-width="0" stroke-linecap="butt"></path><path d="M271.55257,113.63703c-0.58029,-2.0717 -1.87901,-4.68628 -0.8775,-4.7667c1.00152,-0.08043 2.49528,2.51847 3.07557,4.59017c0.58029,2.0717 0.34155,4.26654 -0.65996,4.34696c-1.00152,0.08043 -0.95782,-2.09873 -1.53811,-4.17043z" data-paper-data="{&quot;index&quot;:null}" fill="url(#color-43)" stroke="none" stroke-width="0" stroke-linecap="butt"></path><path d="M279.99737,134.11121c1.87626,-0.07403 5.23397,-0.1502 5.27214,0.81725c0.03817,0.96745 -2.56211,1.23203 -4.43838,1.30606c-0.99765,0.03936 -6.36975,-1.52403 -6.28661,-2.67869c0.09779,-1.35805 4.57423,0.59004 5.45284,0.55538z" fill="url(#color-44)" stroke="none" stroke-width="0" stroke-linecap="butt"></path><path d="M307.98603,118.42276c-0.43989,-0.20472 -1.76604,-0.46568 -3.01818,-0.23941c-0.86539,0.15637 -1.69542,0.80665 -2.17309,0.80011c-1.4219,-0.01947 -0.68143,-0.94855 -0.61862,-1.16177c0.22943,-0.77866 1.62823,-1.38159 3.11575,-1.61191c1.42007,-0.21988 2.92099,0.04842 3.56256,0.347c1.64889,0.76737 2.76317,2.27421 2.36749,3.12442c-0.39568,0.85021 -1.58702,-0.49107 -3.23591,-1.25844z" fill="url(#color-45)" stroke="none" stroke-width="0" stroke-linecap="butt"></path><path d="M274.37728,146.30534c0.58695,-0.81198 3.02716,-0.19309 4.92672,1.06844c1.89956,1.26152 3.89876,3.48793 3.31181,4.29991c-0.58695,0.81198 -2.70045,-1.25628 -4.60001,-2.5178c-1.89956,-1.26152 -4.22546,-2.03856 -3.63851,-2.85054z" fill="url(#color-46)" stroke="none" stroke-width="0" stroke-linecap="butt"></path><path d="M248.71668,147.54079c-0.83452,-0.55444 -0.31243,-3.01718 0.87313,-4.96505c1.18555,-1.94788 2.33131,-5.70006 3.16583,-5.14562c0.83452,0.55444 -0.14871,4.4146 -1.33426,6.36247c-1.18555,1.94788 -1.87017,4.30264 -2.70469,3.7482z" fill="url(#color-47)" stroke="none" stroke-width="0" stroke-linecap="butt"></path><path d="M258.04396,121.972c0.58695,-0.81199 3.02716,-0.19309 4.92672,1.06844c1.89956,1.26152 3.2321,4.1546 2.64515,4.96658c-0.58695,0.81198 -2.03378,-1.92295 -3.93334,-3.18447c-1.89956,-1.26152 -4.22546,-2.03856 -3.63851,-2.85054z" fill="url(#color-48)" stroke="none" stroke-width="0" stroke-linecap="butt"></path><path d="M224.01212,46.70928c0,0 -0.3616,-2.99239 3.36559,-3.62367c3.71935,-0.62995 3.9079,2.90052 3.9079,2.90052l1.41231,13.28867c-2.51272,0.27396 -4.90325,0.5408 -7.11092,0.79297c-0.05262,0.00601 -0.10527,0.01203 -0.15796,0.01805z" fill="url(#color-49)" stroke="none" stroke-width="0" stroke-linecap="butt"></path><path d="M242.51913,221.42757l-3.52478,-33.27628c2.50212,-1.81605 4.76686,-3.48135 6.86673,-5.02128l4.04341,38.04536c0,0 0.8843,2.704 -3.19481,2.98434c-3.77755,0.2596 -4.19056,-2.73213 -4.19056,-2.73213z" fill="url(#color-50)" stroke="none" stroke-width="0" stroke-linecap="butt"></path><path d="M265.3018,143.25078c-0.61133,0.61133 -1.22266,0 -1.22266,0l0.03128,-0.0978c-4.58861,-1.52954 -4.63994,-4.92849 -3.30671,-9.06667c0,0 0.2734,-0.82019 1.09358,-0.54679c0.82019,0.2734 0.54679,1.09358 0.54679,1.09358c-1.16938,3.35719 -1.38268,5.68091 2.21312,6.87951l0.64459,0.51551c0,0 0.61133,0.61133 0,1.22266z" fill="url(#color-51)" stroke="none" stroke-width="0.5" stroke-linecap="butt"></path></g></g></svg>