<svg version="1.1" xmlns="http://www.w3.org/2000/svg" xmlns:xlink="http://www.w3.org/1999/xlink" width="164.22056" height="298.8048" viewBox="0,0,164.22056,298.8048"><defs><linearGradient x1="194.30184" y1="8.69521" x2="194.30184" y2="115.4242" gradientUnits="userSpaceOnUse" id="color-1"><stop offset="0" stop-color="#000000"></stop><stop offset="1" stop-color="#4c2646"></stop></linearGradient><linearGradient x1="240.00004" y1="175.50005" x2="240.00004" y2="307.50005" gradientUnits="userSpaceOnUse" id="color-2"><stop offset="0" stop-color="#000000"></stop><stop offset="1" stop-color="#65325d"></stop></linearGradient><linearGradient x1="240.56052" y1="207.58815" x2="240.56052" y2="210.32829" gradientUnits="userSpaceOnUse" id="color-3"><stop offset="0" stop-color="#1a1916"></stop><stop offset="1" stop-color="#cbc4ae"></stop></linearGradient><linearGradient x1="227.99619" y1="194.00422" x2="228.04892" y2="196.43991" gradientUnits="userSpaceOnUse" id="color-4"><stop offset="0" stop-color="#1a1916"></stop><stop offset="1" stop-color="#cbc4ae"></stop></linearGradient><linearGradient x1="229.56797" y1="198.60352" x2="229.62448" y2="201.2138" gradientUnits="userSpaceOnUse" id="color-5"><stop offset="0" stop-color="#1a1916"></stop><stop offset="1" stop-color="#cbc4ae"></stop></linearGradient><linearGradient x1="233.19659" y1="202.40038" x2="233.24814" y2="204.78166" gradientUnits="userSpaceOnUse" id="color-6"><stop offset="0" stop-color="#1a1916"></stop><stop offset="1" stop-color="#cbc4ae"></stop></linearGradient><linearGradient x1="237.81412" y1="204.471" x2="237.85843" y2="206.51757" gradientUnits="userSpaceOnUse" id="color-7"><stop offset="0" stop-color="#1a1916"></stop><stop offset="1" stop-color="#cbc4ae"></stop></linearGradient><linearGradient x1="242.94297" y1="204.51342" x2="242.98218" y2="206.32449" gradientUnits="userSpaceOnUse" id="color-8"><stop offset="0" stop-color="#1a1916"></stop><stop offset="1" stop-color="#cbc4ae"></stop></linearGradient><linearGradient x1="247.50437" y1="202.30017" x2="247.55223" y2="204.51099" gradientUnits="userSpaceOnUse" id="color-9"><stop offset="0" stop-color="#1a1916"></stop><stop offset="1" stop-color="#cbc4ae"></stop></linearGradient><linearGradient x1="250.84882" y1="198.15295" x2="250.90609" y2="200.79854" gradientUnits="userSpaceOnUse" id="color-10"><stop offset="0" stop-color="#1a1916"></stop><stop offset="1" stop-color="#cbc4ae"></stop></linearGradient><linearGradient x1="252.30776" y1="193.47787" x2="252.36296" y2="196.0277" gradientUnits="userSpaceOnUse" id="color-11"><stop offset="0" stop-color="#1a1916"></stop><stop offset="1" stop-color="#cbc4ae"></stop></linearGradient><linearGradient x1="227.54991" y1="190.75914" x2="227.6405" y2="194.94385" gradientUnits="userSpaceOnUse" id="color-12"><stop offset="0" stop-color="#1a1916"></stop><stop offset="1" stop-color="#cbc4ae"></stop></linearGradient><linearGradient x1="228.67552" y1="195.44147" x2="228.76613" y2="199.62686" gradientUnits="userSpaceOnUse" id="color-13"><stop offset="0" stop-color="#1a1916"></stop><stop offset="1" stop-color="#cbc4ae"></stop></linearGradient><linearGradient x1="231.06738" y1="200.06835" x2="231.15798" y2="204.25304" gradientUnits="userSpaceOnUse" id="color-14"><stop offset="0" stop-color="#1a1916"></stop><stop offset="1" stop-color="#cbc4ae"></stop></linearGradient><linearGradient x1="235.40206" y1="202.49546" x2="235.49267" y2="206.68086" gradientUnits="userSpaceOnUse" id="color-15"><stop offset="0" stop-color="#1a1916"></stop><stop offset="1" stop-color="#cbc4ae"></stop></linearGradient><linearGradient x1="240.41657" y1="203.86315" x2="240.50718" y2="208.04832" gradientUnits="userSpaceOnUse" id="color-16"><stop offset="0" stop-color="#1a1916"></stop><stop offset="1" stop-color="#cbc4ae"></stop></linearGradient><linearGradient x1="245.17753" y1="202.4098" x2="245.26814" y2="206.59499" gradientUnits="userSpaceOnUse" id="color-17"><stop offset="0" stop-color="#1a1916"></stop><stop offset="1" stop-color="#cbc4ae"></stop></linearGradient><linearGradient x1="249.60116" y1="199.59859" x2="249.69177" y2="203.78367" gradientUnits="userSpaceOnUse" id="color-18"><stop offset="0" stop-color="#1a1916"></stop><stop offset="1" stop-color="#cbc4ae"></stop></linearGradient><linearGradient x1="251.61513" y1="195.09762" x2="251.70574" y2="199.28289" gradientUnits="userSpaceOnUse" id="color-19"><stop offset="0" stop-color="#1a1916"></stop><stop offset="1" stop-color="#cbc4ae"></stop></linearGradient><linearGradient x1="252.37365" y1="190.21961" x2="252.46425" y2="194.40431" gradientUnits="userSpaceOnUse" id="color-20"><stop offset="0" stop-color="#1a1916"></stop><stop offset="1" stop-color="#cbc4ae"></stop></linearGradient><linearGradient x1="240.47145" y1="203.91537" x2="240.47145" y2="218.97396" gradientUnits="userSpaceOnUse" id="color-21"><stop offset="0" stop-color="#000000"></stop><stop offset="1" stop-color="#a46800"></stop></linearGradient><linearGradient x1="285.79254" y1="8.69521" x2="285.79254" y2="115.4242" gradientUnits="userSpaceOnUse" id="color-22"><stop offset="0" stop-color="#000000"></stop><stop offset="1" stop-color="#4c2647"></stop></linearGradient><linearGradient x1="238.98174" y1="76.59547" x2="238.98174" y2="197.19214" gradientUnits="userSpaceOnUse" id="color-23"><stop offset="0" stop-color="#1b0d19"></stop><stop offset="1" stop-color="#804076"></stop></linearGradient><linearGradient x1="225.19758" y1="62.66555" x2="222.35243" y2="85.20473" gradientUnits="userSpaceOnUse" id="color-24"><stop offset="0" stop-color="#33002b"></stop><stop offset="1" stop-color="#990085"></stop></linearGradient><linearGradient x1="259.42595" y1="66.98623" x2="256.5808" y2="89.52539" gradientUnits="userSpaceOnUse" id="color-25"><stop offset="0" stop-color="#33002b"></stop><stop offset="1" stop-color="#990085"></stop></linearGradient><linearGradient x1="241.65379" y1="68.98242" x2="239.7126" y2="84.36039" gradientUnits="userSpaceOnUse" id="color-26"><stop offset="0" stop-color="#1a0016"></stop><stop offset="1" stop-color="#80006e"></stop></linearGradient><radialGradient cx="212.8708" cy="137.27564" r="23.48066" gradientUnits="userSpaceOnUse" id="color-27"><stop offset="0" stop-color="#808080"></stop><stop offset="1" stop-color="#804040"></stop></radialGradient><linearGradient x1="239.97748" y1="87.46541" x2="239.97748" y2="113.0185" gradientUnits="userSpaceOnUse" id="color-28"><stop offset="0" stop-color="#2c2c2c"></stop><stop offset="1" stop-color="#cdcdcd"></stop></linearGradient><linearGradient x1="259.28259" y1="104.8238" x2="259.28259" y2="126.03464" gradientUnits="userSpaceOnUse" id="color-29"><stop offset="0" stop-color="#2c2c2c"></stop><stop offset="1" stop-color="#a3a3a3"></stop></linearGradient><linearGradient x1="238.70616" y1="107.46088" x2="238.70616" y2="138.70968" gradientUnits="userSpaceOnUse" id="color-30"><stop offset="0" stop-color="#2c2c2c"></stop><stop offset="1" stop-color="#a3a3a3"></stop></linearGradient><linearGradient x1="240.74271" y1="155.03123" x2="240.74271" y2="188.66383" gradientUnits="userSpaceOnUse" id="color-31"><stop offset="0" stop-color="#2c2c2c"></stop><stop offset="1" stop-color="#cdcdcd"></stop></linearGradient><linearGradient x1="240.33376" y1="151.65742" x2="240.33376" y2="191.17857" gradientUnits="userSpaceOnUse" id="color-32"><stop offset="0" stop-color="#2c2c2c"></stop><stop offset="1" stop-color="#a3a3a3"></stop></linearGradient><linearGradient x1="239.64277" y1="127.60587" x2="239.64277" y2="162.87683" gradientUnits="userSpaceOnUse" id="color-33"><stop offset="0" stop-color="#2c2c2c"></stop><stop offset="1" stop-color="#cdcdcd"></stop></linearGradient><linearGradient x1="72.04672" y1="44.33003" x2="72.04672" y2="44.33253" gradientUnits="userSpaceOnUse" id="color-34"><stop offset="0" stop-color="#00abff" stop-opacity="0"></stop><stop offset="1" stop-color="#00abff"></stop></linearGradient></defs><g transform="translate(-144.09344,-8.69524)"><g data-paper-data="{&quot;isPaintingLayer&quot;:true}" fill-rule="nonzero" stroke-linejoin="miter" stroke-miterlimit="10" stroke-dasharray="" stroke-dashoffset="0" style="mix-blend-mode: normal"><path d="M184.08626,115.4242c0,0 -29.34739,-102.91997 2.59948,-106.60088c32.62921,-3.75954 30.09158,76.49985 30.09158,76.49985" fill="url(#color-1)" stroke="none" stroke-width="0" stroke-linecap="round"></path><path d="M206.75005,307.50004l15.14285,-131.8421l37.78325,-0.15789l13.57389,132z" fill="url(#color-2)" stroke="none" stroke-width="0" stroke-linecap="butt"></path><g stroke="none" stroke-width="0" stroke-linecap="butt"><path d="M239.96682,210.32829v-2.74014h1.18739v2.74014z" fill="url(#color-3)"></path><g><path d="M227.18479,194.18827l1.33673,-0.19515l0.3388,2.26273l-1.33673,0.19515z" fill="url(#color-4)"></path><path d="M228.53777,199.09582l1.25401,-0.49703l0.8629,2.1227l-1.25401,0.49703z" fill="url(#color-5)"></path><path d="M231.88261,203.53673l0.72815,-1.12398l1.95136,1.23256l-0.72815,1.12398z" fill="url(#color-6)"></path><path d="M236.52052,205.74942l0.44318,-1.26047l2.18832,0.75019l-0.44319,1.26047z" fill="url(#color-7)"></path><path d="M242.00436,206.34513l-0.32991,-1.29389l2.24634,-0.55846l0.32991,1.29389z" fill="url(#color-8)"></path><path d="M246.81474,204.52656l-0.62587,-1.18252l2.05299,-1.05943l0.62587,1.18252z" fill="url(#color-9)"></path><path d="M250.95631,200.79748l-1.20521,-0.60336l1.04749,-2.04011l1.20522,0.60336z" fill="url(#color-10)"></path><path d="M252.72364,196.02009l-1.31434,-0.30977l0.53779,-2.22483l1.31434,0.30977z" fill="url(#color-11)"></path><path d="M227.28525,190.78139c1.15784,-0.16903 2.23523,0.62076 2.40641,1.76405c0.17118,1.14329 -0.62866,2.20713 -1.7865,2.37616c-1.15784,0.16903 -2.23523,-0.62075 -2.40641,-1.76404c-0.17118,-1.14329 0.62866,-2.20713 1.7865,-2.37617z" fill="url(#color-12)"></path><path d="M227.93139,195.59217c1.08619,-0.43052 2.32017,0.08995 2.75616,1.16248c0.436,1.07253 -0.09109,2.291 -1.17728,2.72151c-1.08619,0.43052 -2.32017,-0.08995 -2.75616,-1.16248c-0.436,-1.07253 0.09109,-2.291 1.17728,-2.72151z" fill="url(#color-13)"></path><path d="M229.32744,201.03306c0.6307,-0.97356 1.94127,-1.25793 2.92722,-0.63515c0.98596,0.62277 1.27395,1.91686 0.64325,2.89042c-0.6307,0.97356 -1.94127,1.25794 -2.92722,0.63516c-0.98596,-0.62277 -1.27395,-1.91687 -0.64325,-2.89043z" fill="url(#color-14)"></path><path d="M233.44534,203.90184c0.38387,-1.09179 1.5914,-1.66958 2.69709,-1.29053c1.10569,0.37905 1.69083,1.57139 1.30695,2.66318c-0.38387,1.09179 -1.5914,1.66958 -2.69709,1.29053c-1.10569,-0.37905 -1.69083,-1.57139 -1.30696,-2.66318z" fill="url(#color-15)"></path><path d="M238.40677,206.46664c-0.28576,-1.12074 0.40269,-2.25802 1.53769,-2.54019c1.13501,-0.28217 2.28676,0.39762 2.57253,1.51836c0.28576,1.12074 -0.40268,2.25802 -1.53769,2.54019c-1.13501,0.28217 -2.28677,-0.39763 -2.57253,-1.51837z" fill="url(#color-16)"></path><path d="M243.34461,205.47163c-0.54212,-1.02427 -0.14067,-2.28855 0.89664,-2.82385c1.03731,-0.5353 2.31768,-0.1389 2.8598,0.88537c0.54212,1.02427 0.14067,2.28855 -0.89664,2.82385c-1.03731,0.5353 -2.31769,0.1389 -2.8598,-0.88537z" fill="url(#color-17)"></path><path d="M248.68814,203.55756c-1.04393,-0.52261 -1.46114,-1.7819 -0.93187,-2.81271c0.52927,-1.0308 1.80459,-1.44277 2.84851,-0.92016c1.04393,0.52261 1.46114,1.7819 0.93187,2.8127c-0.52927,1.0308 -1.80459,1.44278 -2.84851,0.92016z" fill="url(#color-18)"></path><path d="M251.16843,199.22568c-1.13845,-0.26832 -1.84106,-1.39712 -1.56933,-2.52126c0.27173,-1.12414 1.4149,-1.81792 2.55335,-1.5496c1.13845,0.26832 1.84106,1.39711 1.56933,2.52125c-0.27173,1.12414 -1.41491,1.81792 -2.55336,1.54961z" fill="url(#color-19)"></path><path d="M254.52674,192.52928c-0.12155,1.14947 -1.16377,1.98399 -2.32787,1.86398c-1.1641,-0.12002 -2.00926,-1.14914 -1.88771,-2.2986c0.12155,-1.14947 1.16377,-1.984 2.32787,-1.86398c1.1641,0.12002 2.00926,1.14914 1.88771,2.29861z" fill="url(#color-20)"></path></g><path d="M244.51391,211.44467c0,0.09292 -0.78208,1.34529 -1.65861,2.57618c-1.07949,1.5159 -2.30223,3.05684 -2.38385,3.05684c-0.05204,0 -1.13381,-1.37708 -2.1651,-2.82392c-0.96059,-1.34767 -1.87736,-2.77064 -1.87736,-2.8091c0,-0.04021 -1.03301,-1.91453 1.37376,-2.66953c0.39144,-0.1228 1.60724,0.00565 2.40756,0.77249c0.66482,0.63701 0.11247,1.01893 0.36969,1.88946c0.02778,0.09403 -0.53548,-1.24558 0.57934,-2.11794c1.03896,-0.813 2.36122,-0.46088 2.4822,-0.4043c1.96646,0.91974 0.87238,2.52317 0.87238,2.52982z" fill="url(#color-21)"></path></g><path d="M263.31706,85.32317c0,0 -2.53764,-80.25939 30.09158,-76.49985c31.94687,3.68091 2.59948,106.60088 2.59948,106.60088" data-paper-data="{&quot;index&quot;:null}" fill="url(#color-22)" stroke="none" stroke-width="0" stroke-linecap="round"></path><path d="M174.74472,136.8938c0,-33.30185 28.7599,-60.29833 64.23702,-60.29833c35.47712,0 64.23702,26.99649 64.23702,60.29833c0,33.30185 -28.7599,60.29833 -64.23702,60.29833c-35.47712,0 -64.23702,-26.99649 -64.23702,-60.29833z" fill="url(#color-23)" stroke="none" stroke-width="0" stroke-linecap="butt"></path><g stroke="#000000" stroke-width="0" stroke-linecap="butt"><path d="M211.31242,81.77798c-2.24852,-7.38951 4.09564,-8.62837 4.09564,-8.62837c0,0 -4.47777,-2.74725 -2.34506,-9.23204c2.74078,-8.33373 23.26693,8.64693 23.26693,8.64693l-1.11131,7.47295c0,0 -21.83987,8.53133 -23.9062,1.74054z" fill="url(#color-24)"></path><path d="M245.4023,81.32295l0.7806,-7.5147c0,0 24.10201,-11.34718 24.68586,-2.59378c0.45432,6.81136 -4.5657,8.3597 -4.5657,8.3597c0,0 5.83728,2.77653 1.82298,9.37548c-3.68905,6.06427 -22.72375,-7.62671 -22.72375,-7.62671z" data-paper-data="{&quot;index&quot;:null}" fill="url(#color-25)"></path><path d="M232.99421,75.70081c0.53604,-4.2465 4.41307,-7.25443 8.65957,-6.71839c4.2465,0.53604 7.25443,4.41307 6.71839,8.65957c-0.53604,4.2465 -4.41307,7.25443 -8.65957,6.71839c-4.2465,-0.53604 -7.25443,-4.41307 -6.71839,-8.65957z" fill="url(#color-26)"></path></g><path d="M185.86717,166.12996c0,0 -6.09704,-10.3882 -7.1331,-20.82885c-0.03032,-0.30554 2.10852,-1.61386 3.79799,-3.58061c0.05856,-0.06817 -3.83774,-2.54696 -3.83931,-2.55887c-0.00392,-0.02976 7.40022,-3.56753 7.25567,-3.68748c-0.54163,-0.44946 -6.76088,-2.10973 -6.76088,-2.18571c0,-6.67715 6.67963,-13.08094 6.67963,-13.08094h86.83519v45.92246z" fill="#290000" stroke="none" stroke-width="0" stroke-linecap="butt"></path><path d="M213.00426,166.66467c-13.73656,0 -24.87224,-12.54857 -24.87224,-28.02799c0,-15.47942 11.13568,-28.02799 24.87224,-28.02799c13.73656,0 24.87224,12.54857 24.87224,28.02799c0,15.47942 -11.13568,28.02799 -24.87224,28.02799z" fill-opacity="0.3451" fill="#000000" stroke="#000000" stroke-width="0" stroke-linecap="butt"></path><path d="M189.39014,137.27563c0,-12.96801 10.51265,-23.48065 23.48066,-23.48065c12.96801,0 23.48065,10.51264 23.48065,23.48065c0,12.96801 -10.51264,23.48066 -23.48065,23.48066c-12.96801,0 -23.48066,-10.51265 -23.48066,-23.48066z" fill="url(#color-27)" stroke="#000000" stroke-width="0" stroke-linecap="butt"></path><path d="M182.39001,109.31722c0,0 0.72316,-6.16948 7.45515,-13.35347c4.51328,-5.39777 10.18033,-6.67695 10.18033,-6.67695c0,0 44.49651,3.24081 59.02251,3.83374c12.71487,0.519 23.42579,-0.46832 23.42579,-0.46832c0,0 6.31004,2.80402 11.119,9.45862c3.96499,5.48671 5.12911,13.99287 5.12911,13.99287z" fill="url(#color-28)" stroke="none" stroke-width="0" stroke-linecap="butt"></path><path d="M174.87373,138.33449c-0.09798,-1.01242 -0.02801,-3.14069 0.08573,-5.51611c0.15609,-3.25994 0.61233,-4.83354 0.61233,-4.83354c0,0 9.46389,-3.04811 15.89371,-3.04811c13.1248,0 58.34949,3.04811 58.34949,3.04811v12.8456c0,0 20.97953,0.381 0.39359,-3.57527c-2.37493,-0.45642 -4.02729,1.30317 -6.26515,0.92193c-53.60282,-9.13161 -69.04229,0.44052 -69.06969,0.15739z" fill-opacity="0.3451" fill="#000000" stroke="none" stroke-width="0" stroke-linecap="butt"></path><path d="M229.39458,126.03464l-17.73998,-18.51128l80.60121,-8.09869c0,0 8.16233,7.66062 6.93829,16.86614c-0.64177,4.82649 -10.0235,9.74383 -10.0235,9.74383z" fill="url(#color-29)" stroke="none" stroke-width="0" stroke-linecap="butt"></path><path d="M205.15871,141.75379c0,-3.97342 3.22109,-7.19451 7.1945,-7.19451c3.97342,0 7.19451,3.22109 7.19451,7.19451c0,3.97342 -3.22108,7.19451 -7.19451,7.19451c-3.97342,0 -7.1945,-3.22109 -7.1945,-7.19451z" fill="#000000" stroke="none" stroke-width="0" stroke-linecap="butt"></path><path d="M176.46491,120.24226c0.75413,-3.13245 2.21039,-7.05237 3.88819,-10.25477c1.67323,-3.19366 3.56891,-5.67372 3.67407,-5.94745c0.19771,-0.51463 100.28934,8.08755 114.44894,9.68686c0.63734,0.07198 2.38773,4.61836 3.67757,9.62581c0.81972,3.18233 0.75254,5.92785 0.64024,6.41448c-0.58004,2.51352 -3.70494,8.9425 -3.70494,8.9425c0,0 -33.43363,-2.05294 -52.23014,-3.20711c-6.98563,-0.42894 -17.4121,-4.94806 -27.50552,-5.56782c-25.92717,-2.77016 -43.65366,3.97065 -44.74765,4.39926c-0.01272,-0.10025 -0.02692,-0.20003 -0.04258,-0.29932c0.05727,-1.43401 0.3791,-7.46751 1.90182,-13.79243z" fill="url(#color-30)" stroke="none" stroke-width="0" stroke-linecap="butt"></path><path d="M200.65931,181.25441c0,0 -5.60973,-3.7541 -10.21318,-9.51756c-4.50666,-5.64229 -10.01243,-12.56889 -10.01243,-12.56889l120.61799,-4.13672c0,0 -1.53445,7.0464 -5.24574,12.53436c-3.16224,4.67606 -10.54837,11.19734 -10.54837,11.19734c0,0 -14.74674,0.75391 -30.29884,2.85647c-19.24075,2.60126 -40.12345,6.65291 -40.71179,6.58558c-23.7409,0.16154 -13.58765,-6.95058 -13.58765,-6.95058z" fill="url(#color-31)" stroke="none" stroke-width="0" stroke-linecap="butt"></path><path d="M180.40814,161.12023l72.64098,-9.46281l46.4791,2.78318c0,0 5.09542,-0.98369 -11.61622,6.63482c-5.19902,2.37013 -20.14616,6.90653 -34.45442,12.46607c-21.09496,8.19654 -42.43446,17.63709 -42.43446,17.63709c0,0 -13.1299,-3.09244 -19.87952,-11.57336c-7.36398,-9.25285 -10.73546,-18.48498 -10.73546,-18.48498z" fill="url(#color-32)" stroke="none" stroke-width="0" stroke-linecap="butt"></path><path d="M181.08368,162.87683c0,0 -2.62878,-1.95583 -4.99803,-10.174c-1.98773,-6.8948 -1.09819,-10.07415 -1.09819,-10.07415c0,0 17.16634,2.47022 41.32266,-0.7604c13.36594,-1.78753 21.54145,-5.39652 29.78985,-6.52644c19.87896,-2.72314 56.47257,-7.73597 56.47257,-7.73597c0,0 2.83252,6.75612 1.62387,16.37945c-0.6709,5.34173 -3.13034,12.35985 -3.13034,12.35985z" fill="url(#color-33)" stroke="none" stroke-width="0" stroke-linecap="butt"></path><path d="M246.18978,135.7372c0,0.5 -2.59803,0.10256 -3.42955,-0.13929c-1.11605,-0.32461 -3.4488,-1.62211 -6.96638,-2.42966c-2.8426,-0.65259 -9.00098,-2.18343 -15.5795,-2.944c-7.29816,-0.84377 -15.07842,-0.87952 -18.66955,-0.72657c-7.18899,0.30619 -13.95066,1.56785 -15.22009,1.72573c-3.78956,0.93 -7.99104,1.33089 -11.34181,3.56474c0,0 -0.14629,0.09753 -0.32321,0.09017c-0.02416,-0.33643 -0.06497,-0.66826 -0.12161,-0.99466c3.46631,-2.25987 7.71665,-2.65192 11.60301,-3.64325c1.25066,-0.15705 8.01314,-1.2641 15.13644,-1.57035c4.22582,-0.18168 13.44716,-0.03592 21.63437,0.92315c5.39822,0.63236 10.43261,1.96123 12.9845,2.56467c4.526,1.07025 7.94982,2.76171 9.58808,3.08904l0.2053,-0.00971c0,0 0.5,0 0.5,0.5z" fill-opacity="0.3451" fill="#000000" stroke="none" stroke-width="0.5" stroke-linecap="butt"></path><path d="M144.09344,88.66256v0v0z" fill="url(#color-34)" stroke="none" stroke-width="0" stroke-linecap="butt"></path></g></g></svg>