<svg version="1.1" xmlns="http://www.w3.org/2000/svg" xmlns:xlink="http://www.w3.org/1999/xlink" width="134.73881" height="223.25629" viewBox="0,0,134.73881,223.25629"><defs><linearGradient x1="241.35223" y1="90.97015" x2="241.35223" y2="121.94222" gradientUnits="userSpaceOnUse" id="color-1"><stop offset="0" stop-color="#682a2a"></stop><stop offset="1" stop-color="#ffb3b3"></stop></linearGradient><linearGradient x1="242.09262" y1="67.6539" x2="242.09262" y2="173.06219" gradientUnits="userSpaceOnUse" id="color-2"><stop offset="0" stop-color="#1a1919"></stop><stop offset="1" stop-color="#9e9e9e"></stop></linearGradient><linearGradient x1="240.75394" y1="88.15115" x2="240.75394" y2="187.75266" gradientUnits="userSpaceOnUse" id="color-3"><stop offset="0" stop-color="#5e0000"></stop><stop offset="1" stop-color="#1a150f"></stop></linearGradient><linearGradient x1="252.42157" y1="197.85096" x2="252.42157" y2="219.03856" gradientUnits="userSpaceOnUse" id="color-4"><stop offset="0" stop-color="#240000"></stop><stop offset="1" stop-color="#000000"></stop></linearGradient><linearGradient x1="261.98465" y1="202.19874" x2="234.21852" y2="206.81819" gradientUnits="userSpaceOnUse" id="color-5"><stop offset="0" stop-color="#808080"></stop><stop offset="1" stop-color="#000000"></stop></linearGradient><linearGradient x1="262.28156" y1="223.50033" x2="234.51542" y2="228.1198" gradientUnits="userSpaceOnUse" id="color-6"><stop offset="0" stop-color="#808080"></stop><stop offset="1" stop-color="#000000"></stop></linearGradient><linearGradient x1="262.28156" y1="211.50032" x2="234.51542" y2="216.11978" gradientUnits="userSpaceOnUse" id="color-7"><stop offset="0" stop-color="#808080"></stop><stop offset="1" stop-color="#000000"></stop></linearGradient><radialGradient cx="240.16676" cy="241.66678" r="65.33834" gradientUnits="userSpaceOnUse" id="color-8"><stop offset="0" stop-color="#820000"></stop><stop offset="1" stop-color="#000000"></stop></radialGradient><radialGradient cx="240.16676" cy="241.66678" r="65.33834" gradientUnits="userSpaceOnUse" id="color-9"><stop offset="0" stop-color="#820000"></stop><stop offset="1" stop-color="#000000"></stop></radialGradient><linearGradient x1="282.2787" y1="94.51577" x2="282.2787" y2="179.7548" gradientUnits="userSpaceOnUse" id="color-10"><stop offset="0" stop-color="#000000"></stop><stop offset="1" stop-color="#837864"></stop></linearGradient><linearGradient x1="198.9454" y1="94.51577" x2="198.9454" y2="179.7548" gradientUnits="userSpaceOnUse" id="color-11"><stop offset="0" stop-color="#000000"></stop><stop offset="1" stop-color="#837864"></stop></linearGradient><linearGradient x1="282.30993" y1="137.03363" x2="282.30993" y2="219.367" gradientUnits="userSpaceOnUse" id="color-12"><stop offset="0" stop-color="#1a150f"></stop><stop offset="1" stop-color="#837864"></stop></linearGradient><linearGradient x1="197.64329" y1="137.03363" x2="197.64329" y2="219.367" gradientUnits="userSpaceOnUse" id="color-13"><stop offset="0" stop-color="#1a150f"></stop><stop offset="1" stop-color="#837864"></stop></linearGradient><linearGradient x1="240.00009" y1="175.50013" x2="240.00009" y2="307.50005" gradientUnits="userSpaceOnUse" id="color-14"><stop offset="0" stop-color="#1a150f"></stop><stop offset="1" stop-color="#837864"></stop></linearGradient><linearGradient x1="240.07703" y1="76.54784" x2="240.07703" y2="197.14457" gradientUnits="userSpaceOnUse" id="color-15"><stop offset="0" stop-color="#1a150f"></stop><stop offset="1" stop-color="#837864"></stop></linearGradient><linearGradient x1="239.99641" y1="76.4673" x2="239.99641" y2="197.06399" gradientUnits="userSpaceOnUse" id="color-16"><stop offset="0" stop-color="#1a0000"></stop><stop offset="1" stop-color="#9f0000"></stop></linearGradient><linearGradient x1="212.87087" y1="113.7951" x2="212.87087" y2="160.75635" gradientUnits="userSpaceOnUse" id="color-17"><stop offset="0" stop-color="#1a150f"></stop><stop offset="1" stop-color="#837864"></stop></linearGradient><linearGradient x1="267.12931" y1="113.79509" x2="267.12931" y2="160.75632" gradientUnits="userSpaceOnUse" id="color-18"><stop offset="0" stop-color="#1a150f"></stop><stop offset="1" stop-color="#837864"></stop></linearGradient><linearGradient x1="218.66191" y1="203.34011" x2="235.90203" y2="203.34011" gradientUnits="userSpaceOnUse" id="color-19"><stop offset="0" stop-color="#000000" stop-opacity="0.60784"></stop><stop offset="1" stop-color="#000000" stop-opacity="0"></stop></linearGradient><linearGradient x1="218.09738" y1="214.35848" x2="235.33751" y2="214.35848" gradientUnits="userSpaceOnUse" id="color-20"><stop offset="0" stop-color="#000000" stop-opacity="0.60784"></stop><stop offset="1" stop-color="#000000" stop-opacity="0"></stop></linearGradient><linearGradient x1="216.55048" y1="225.45684" x2="231.96059" y2="225.45684" gradientUnits="userSpaceOnUse" id="color-21"><stop offset="0" stop-color="#000000" stop-opacity="0.60784"></stop><stop offset="1" stop-color="#000000" stop-opacity="0"></stop></linearGradient><linearGradient x1="245.12844" y1="203.50525" x2="262.5929" y2="203.50525" gradientUnits="userSpaceOnUse" id="color-22"><stop offset="0" stop-color="#000000" stop-opacity="0"></stop><stop offset="1" stop-color="#000000" stop-opacity="0.60784"></stop></linearGradient><linearGradient x1="246.11631" y1="214.52362" x2="263.58078" y2="214.52362" gradientUnits="userSpaceOnUse" id="color-23"><stop offset="0" stop-color="#000000" stop-opacity="0"></stop><stop offset="1" stop-color="#000000" stop-opacity="0.60784"></stop></linearGradient><linearGradient x1="248.86936" y1="225.62199" x2="264.47999" y2="225.62199" gradientUnits="userSpaceOnUse" id="color-24"><stop offset="0" stop-color="#000000" stop-opacity="0"></stop><stop offset="1" stop-color="#000000" stop-opacity="0.60784"></stop></linearGradient></defs><g transform="translate(-173.24266,-90.35625)"><g data-paper-data="{&quot;isPaintingLayer&quot;:true}" fill-rule="nonzero" stroke-linejoin="miter" stroke-miterlimit="10" stroke-dasharray="" stroke-dashoffset="0" style="mix-blend-mode: normal"><path d="M271.76117,106.45619c0,8.5527 -13.61455,15.48603 -30.40894,15.48603c-16.79439,0 -30.40894,-6.93333 -30.40894,-15.48603c0,-4.04255 3.04164,-7.72331 8.02302,-10.48115c1.79504,2.67298 4.84595,4.43199 8.3077,4.43199c4.38805,0 8.11599,-2.82631 9.4627,-6.75783c1.38081,0.7197 2.95065,1.12654 4.61551,1.12654c2.96324,0 5.62545,-1.28887 7.45661,-3.3366c13.18941,1.69319 22.95233,7.7745 22.95233,15.01705z" fill="url(#color-1)" stroke="none" stroke-width="0" stroke-linecap="butt"></path><path d="M178.40902,313.61253v-216.69545c3.57161,3.32653 8.3621,5.36158 13.6279,5.36158c8.17121,0 15.19792,-4.90026 18.30173,-11.92241c2.69959,1.35832 5.74913,2.12315 8.9773,2.12315c2.2595,0 4.43149,-0.37468 6.45722,-1.06532c2.59771,1.49532 5.563,2.42387 8.727,2.61681c3.40205,2.6777 7.69431,4.2751 12.35966,4.2751c4.11734,0 7.9441,-1.24417 11.1248,-3.37705c3.58621,3.40593 8.43436,5.49581 13.77063,5.49581c1.30892,0 2.58847,-0.12574 3.82724,-0.3658c3.64664,4.88411 9.4721,8.04631 16.03614,8.04631c3.63149,0 7.03692,-0.96787 9.97242,-2.65972v208.167z" fill-opacity="0.01" fill="#000000" stroke="none" stroke-width="0" stroke-linecap="butt"></path><path d="M189.38847,120.35805c0,-6.88405 1.31983,-13.45984 3.72026,-19.48812c0.20176,-0.50668 0.20763,-5.33381 0.36873,-5.64272c0.14845,0.0144 27.2351,2.67972 28.75229,2.66173c0.96594,-0.01145 6.89138,5.20694 7.3646,5.23768c0.02537,0.00165 3.33318,-4.083 3.55461,-4.0369c0.45091,0.09389 8.61467,-5.8846 9.00879,-5.80548c0.64032,0.12854 5.69016,6.42155 6.21833,6.52453c2.1925,0.42746 3.50907,0.70939 3.78087,0.68885c1.0476,-0.07918 19.26864,-4.67994 20.13673,-4.59906c0.49937,0.04652 10.14143,4.17659 10.52517,4.21069c0.2564,0.02278 9.65189,-0.54715 9.66241,-0.5461c0.00605,0.0197 -0.84185,3.41846 -0.83375,3.44879c1.43865,5.39055 3.14926,12.79188 3.14926,17.34611c0,29.1077 -23.59645,52.70416 -52.70415,52.70416c-29.1077,0 -52.70415,-23.59645 -52.70415,-52.70415z" fill="url(#color-2)" stroke="none" stroke-width="0" stroke-linecap="butt"></path><path d="M180.84001,131.51232c0,-12.18062 4.12523,-23.45683 11.13579,-32.66476c1.2797,0.27745 2.60832,0.42358 3.97108,0.42358c2.05094,0 4.02457,-0.33099 5.8704,-0.94245c3.4466,-1.14176 6.44759,-3.26145 8.67418,-6.03029c2.06352,2.49129 5.18049,4.07832 8.66812,4.07832c1.05088,0 11.12048,10.14515 12.6694,10.25817c0.91506,0.06677 5.53879,-9.1774 6.06397,-9.1774c2.43034,0 4.6807,-0.77065 6.52001,-2.08092c0.87113,0.12472 1.76167,0.18926 2.66729,0.18926c3.84025,0 7.40947,-1.16044 10.37611,-3.14978c3.34486,3.17672 7.86674,5.12595 12.84388,5.12595c1.22083,0 2.41427,-0.11727 3.56967,-0.34118c3.40123,4.55541 8.83464,7.5048 14.95692,7.5048c1.4857,0 2.93084,-0.17369 4.31621,-0.50187c4.79393,8.08621 7.52482,17.39803 7.52482,27.30857c0,31.06067 -26.82439,56.24031 -59.91394,56.24031c-33.08954,0 -59.91393,-25.17965 -59.91393,-56.24031z" fill="url(#color-3)" stroke="#000000" stroke-width="0" stroke-linecap="butt"></path><path d="M243.94653,219.03856v-21.18759h16.95008v21.18759z" fill="url(#color-4)" stroke="none" stroke-width="0" stroke-linecap="butt"></path><path d="M253.77768,239.80005c-1.69661,0.0896 -13.26484,-7.41202 -13.26484,-7.41202c0,0 -16.9892,-6.49817 -16.89879,-10.69688c0.13463,-6.25279 24.85425,-6.44587 29.80876,-2.64088c4.30596,3.30692 3.82156,20.5667 0.35486,20.74978z" fill="#1a000b" stroke="none" stroke-width="0" stroke-linecap="butt"></path><path d="M239.70247,208.27074c0,-9.38951 1.70506,-17.00122 5.86427,-17.00122c4.15921,0 8.4482,7.27339 9.86427,16.83207c1.36538,9.2165 3.30964,18.16333 -6.37233,17.50873c-7.5063,-0.5075 -9.35621,-7.95006 -9.35621,-17.33958z" fill="#330017" stroke="none" stroke-width="0" stroke-linecap="butt"></path><path d="M262.33857,204.35868c0,0 -9.81481,3.05585 -14.57148,3.84721c-4.48241,0.74575 -13.19466,0.77226 -13.19466,0.77226l-0.70783,-4.31983c0,0 8.80726,0.41547 13.29162,-0.3306c4.75514,-0.79112 14.47452,-4.28888 14.47452,-4.28888l0.70784,4.31983z" fill="url(#color-5)" stroke="none" stroke-width="0" stroke-linecap="butt"></path><path d="M262.63547,225.66025c0,0 -9.81481,3.05585 -14.57148,3.84721c-4.48241,0.74575 -13.19466,0.77226 -13.19466,0.77226l-0.70783,-4.31983c0,0 8.80726,0.41547 13.29162,-0.3306c4.75514,-0.79112 14.47452,-4.28888 14.47452,-4.28888l0.70784,4.31983z" fill="url(#color-6)" stroke="none" stroke-width="0" stroke-linecap="butt"></path><path d="M262.63547,213.66033c0,0 -9.81481,3.05585 -14.57148,3.84721c-4.48241,0.74575 -13.19466,0.77226 -13.19466,0.77226l-0.70783,-4.31983c0,0 8.80726,0.41547 13.29162,-0.3306c4.75514,-0.79112 14.47452,-4.28888 14.47452,-4.28888l0.70784,4.31983z" fill="url(#color-7)" stroke="none" stroke-width="0" stroke-linecap="butt"></path><path d="M207.2501,307.00512l0.75881,-6.60658c6.89767,1.31547 13.67486,2.29912 21.48849,2.68977c7.77136,0.38855 16.02545,2.00748 21.5152,-4.39722c3.75786,-4.38417 3.53589,-14.39767 4.26116,-19.80479c1.92739,-14.36926 0.83049,-38.18441 -11.56861,-47.97582c-2.33432,-1.84338 -4.86307,-3.22507 -7.48388,-4.60744c-3.86765,-2.04003 -11.65459,-5.74805 -18.81341,-7.73694c0,0 9.12906,-6.1463 9.73438,-11.41647c0.8919,-7.76537 -4.90109,-30.66487 -4.90109,-30.66487l37.40447,-0.15631c0,0 -3.28451,19.03987 -1.83084,33.17617c0.37158,3.6135 6.15454,8.86991 6.71214,14.29227c3.14234,30.55785 8.55652,83.20825 8.55652,83.20825zM247.91921,204.04868c-3.45178,0 -6.25,2.79822 -6.25,6.25c0,1.76213 0.72924,3.35393 1.9024,4.49009c0.00274,0.02193 0.00559,0.04383 0.00856,0.06569c-0.86403,1.07199 -1.38126,2.43522 -1.38126,3.91926c0,3.45178 2.79822,6.25 6.25,6.25c3.45178,0 6.25,-2.79822 6.25,-6.25c0,-0.2876 -0.01943,-0.57066 -0.05704,-0.84795c0.71486,-0.88691 1.19233,-1.97319 1.33589,-3.1623c0.78682,-0.68033 1.40211,-1.55369 1.77225,-2.54648c1.06357,-1.12055 1.71611,-2.63503 1.71611,-4.30192c0,-3.45178 -2.79822,-6.25 -6.25,-6.25c-1.99714,0 -3.7755,0.93673 -4.91969,2.3948c-0.12479,-0.00743 -0.25056,-0.0112 -0.37721,-0.0112z" fill="url(#color-8)" stroke="#000000" stroke-width="0" stroke-linecap="butt"></path><path d="M232.70337,248.00058c3.26714,5.38162 3.59008,21.81893 2.75429,28.15001c-0.31592,2.3931 1.54243,6.96796 -0.86118,7.19019c-7.39229,0.68345 -16.06229,-0.67001 -24.34632,-2.45593l4.8206,-41.97085c6.30395,1.96957 15.4769,5.53572 17.63261,9.08658z" fill="url(#color-9)" stroke="#000000" stroke-width="0" stroke-linecap="butt"></path><path d="" fill="none" stroke="#000000" stroke-width="0" stroke-linecap="butt"></path><path d="" fill="#b3946b" stroke="#000000" stroke-width="2" stroke-linecap="butt"></path><path d="" fill="#b3946b" stroke="#000000" stroke-width="2" stroke-linecap="butt"></path><path d="" fill-opacity="0.01" fill="#000000" stroke="none" stroke-width="0" stroke-linecap="butt"></path><path d="" fill="#b3946b" stroke="#000000" stroke-width="2" stroke-linecap="butt"></path><path d="" fill="#b3946b" stroke="#000000" stroke-width="2" stroke-linecap="butt"></path><path d="" fill="#e6be8a" stroke="#000000" stroke-width="2" stroke-linecap="butt"></path><path d="" fill="#cca97a" stroke="#000000" stroke-width="0" stroke-linecap="butt"></path><path d="" fill="#e6be8a" stroke="#000000" stroke-width="2" stroke-linecap="butt"></path><path d="" fill="#cca97a" stroke="#000000" stroke-width="0" stroke-linecap="butt"></path><path d="" fill="#ffffff" stroke="#000000" stroke-width="2" stroke-linecap="butt"></path><path d="" fill="#000000" stroke="none" stroke-width="0" stroke-linecap="butt"></path><path d="" fill="none" stroke="#000000" stroke-width="2" stroke-linecap="round"></path><path d="" fill="#ffffff" stroke="#000000" stroke-width="2" stroke-linecap="butt"></path><path d="" fill="#000000" stroke="none" stroke-width="0" stroke-linecap="butt"></path><path d="" fill="#000000" stroke="none" stroke-width="0" stroke-linecap="butt"></path><path d="" fill="#000000" stroke="none" stroke-width="0" stroke-linecap="butt"></path><path d="" fill="#e6be8a" stroke="#000000" stroke-width="2" stroke-linecap="butt"></path><path d="" fill="#e6be8a" stroke="#000000" stroke-width="2" stroke-linecap="butt"></path><path d="" fill="#804400" stroke="#000000" stroke-width="2" stroke-linecap="butt"></path><path d="" fill="#804400" stroke="#000000" stroke-width="2" stroke-linecap="butt"></path><path d="M307.15508,144.29872c3.16787,25.2547 -3.79332,35.45607 -3.79332,35.45607c0,0 -12.10918,-21.47411 -19.77288,-32.6764c-7.92295,-11.58124 -27.01293,-35.71203 -27.01293,-35.71203l19.69762,-10.43345c3.66876,4.38407 9.18129,7.17236 15.34506,7.17236c1.45004,0 2.86404,-0.15432 4.22647,-0.44742c4.40625,9.02727 9.47307,21.99674 11.30998,36.64086z" fill="url(#color-10)" stroke="#000000" stroke-width="0" stroke-linecap="butt"></path><path d="M224.64815,111.36641c0,0 -19.08998,24.13078 -27.01292,35.71203c-7.6637,11.20229 -19.77288,32.6764 -19.77288,32.6764c0,0 -6.96119,-10.20136 -3.79332,-35.45607c2.27184,-18.11139 9.48413,-33.66125 14.27704,-42.3599c0.5312,0.0991 1.06979,0.17721 1.61488,0.23342c-0.0848,1.74145 0.16767,3.38284 0.67341,4.09235c1.52856,2.14445 3.75012,2.84063 5.87529,2.51438c0.79782,0.32557 1.74111,0.54012 2.83578,0.61062c4.04381,0.26041 9.2661,2.08408 12.13143,-0.78125c1.02051,-1.02052 1.75409,-2.04413 2.22375,-3.04068z" fill="url(#color-11)" stroke="#000000" stroke-width="0" stroke-linecap="butt"></path><path d="M293.33655,189.81041c-9.02164,23.80012 -19.94816,29.5566 -19.94816,29.5566c0,0 -0.6493,-24.64443 -2.17813,-38.13095c-1.58056,-13.94275 -7.1552,-44.20238 -7.1552,-44.20238h36c0,0 3.26217,26.44655 -6.71851,52.77673z" fill="url(#color-12)" stroke="#000000" stroke-width="0" stroke-linecap="butt"></path><path d="M179.89817,137.03363h36c0,0 -5.57464,30.25964 -7.1552,44.20238c-1.52884,13.48652 -2.17814,38.13095 -2.17814,38.13095c0,0 -10.92652,-5.75649 -19.94816,-29.5566c-9.98068,-26.33018 -6.71851,-52.77673 -6.71851,-52.77673z" fill="url(#color-13)" stroke="#000000" stroke-width="0" stroke-linecap="butt"></path><path d="M206.7501,307.50005c0,0 3.18634,-27.74205 3.86905,-33.68607c0.14999,-1.30592 0.84518,-7.15384 1.05668,-11.20524c0.13502,-2.58626 -0.16083,-4.20666 -0.16083,-4.20666c0.54199,-0.02772 8.56099,-1.16262 8.84556,-1.16262c0.31646,0 -6.79824,-6.25366 -7.7227,-6.45643c0,0 1.95679,-11.58184 2.33667,-14.88923c0.25186,-2.19281 0.72654,-6.32569 1.31409,-11.44119c0.22313,-1.94269 0.99222,-4.02709 1.24188,-6.20076c0.23615,-2.05612 -0.0482,-4.19211 0.20121,-6.36359c0.18094,-1.57537 0.89371,-3.16941 1.077,-4.76519c0.25617,-2.23037 -0.54665,-4.46413 -0.29501,-6.65501c1.51394,-13.18118 3.37927,-24.81011 3.37927,-24.81011l37.78325,-0.15789c0,0 1.81823,12.53046 3.07598,24.76153c0.26997,2.6254 -0.52085,5.23701 -0.26676,7.70793c0.1997,1.94194 0.92014,3.79699 1.09564,5.50355c0.14887,1.44773 -0.24293,2.7886 -0.1199,3.985c0.24454,2.37804 0.96007,4.18533 1.05686,5.12655c0.14537,1.41369 0.76951,2.12083 0.76951,2.12083c-0.04663,0.00976 -1.71522,1.09517 -3.09602,1.79452c-1.99189,1.00885 -4.42539,2.25482 -4.56954,2.35192c-0.22091,0.14882 4.61051,1.12657 4.61051,1.25329c0,0.07545 0.91716,1.28185 1.81922,2.43648c0.85267,1.09141 2.69185,2.63657 2.73016,2.63657c0.07603,0 -0.87041,1.16821 -0.77734,2.96599c0.10599,2.04716 0.26323,4.26234 0.56328,4.37363l6.68228,64.9822zM243.31273,211.05433c0.04534,0.07905 -0.51479,1.38025 -0.63257,1.52774c-0.33106,0.41459 -3.4256,8.23992 -3.24922,8.70483c0.27624,0.62562 6.65048,-3.2457 6.65532,-3.24329c0.00599,0.00298 1.44408,2.4048 1.58562,2.56325c0.17428,0.19511 3.69479,-5.03816 4.20598,-5.40264c0.6142,-0.43793 -0.86915,3.83596 0.09029,2.65584c2.03491,-2.71734 4.40953,-8.11616 5.65484,-11.28347c0.12996,-0.27307 2.42214,-5.64847 2.13473,-5.71354c-0.49972,-0.11315 -5.92875,3.66044 -6.12226,3.77462c0.86073,-1.75852 2.37897,-6.88082 2.0836,-7.0662c-0.3702,-0.23235 -2.19394,1.92437 -2.47764,2.12984c-0.36989,0.2679 0.60531,-1.79092 0.27954,-2.12664c-0.13179,-0.13582 -0.47649,0.15517 -1.20929,0.77187c-4.67933,3.93797 -7.70069,6.81318 -9.81192,8.89239c-0.98775,0.97277 -3.14825,3.95784 -3.35865,4.2799c-0.32415,0.49615 2.26619,0.26953 2.74493,0.08317c0.78184,-0.30435 1.40523,-0.58509 1.4267,-0.54765z" fill="url(#color-14)" stroke="#000000" stroke-width="0" stroke-linecap="butt"></path><path d="M175.84001,136.84622c0,-13.05952 4.42288,-25.14936 11.93929,-35.02168c1.37203,0.29747 2.79653,0.45414 4.25762,0.45414c4.62238,0 9.5558,-0.0118 13.84398,-2.54493c1.86111,-1.09941 3.64793,-2.8628 5.09323,-4.73909c1.87483,3.60402 5.64334,6.06543 9.98674,6.06543c0.90891,0 11.0426,11.6616 11.52823,11.0789c0.46075,0.55284 4.80043,-11.0789 5.76412,-11.0789c2.84035,0 5.43484,-1.0526 7.41468,-2.78901c0.39434,0.02318 0.79176,0.03493 1.19192,0.03493c4.11734,0 7.9441,-1.24417 11.1248,-3.37705c3.58621,3.40593 8.43436,5.49581 13.77063,5.49581c1.30892,0 2.58847,-0.12574 3.82724,-0.3658c3.64664,4.88411 9.4721,8.04631 16.03614,8.04631c1.5929,0 3.14231,-0.18622 4.62765,-0.53808c5.13984,8.66967 8.06777,18.65338 8.06777,29.27902c0,33.30185 -28.7599,60.29833 -64.23702,60.29833c-35.47712,0 -64.23702,-26.99649 -64.23702,-60.29833z" fill="url(#color-15)" stroke="#000000" stroke-width="0" stroke-linecap="butt"></path><path d="M267.00426,166.27096c-12.968,0 -23.48065,-11.24019 -23.48065,-25.10565c0,-13.86546 10.51265,-25.10565 23.48065,-25.10565c12.968,0 23.48065,11.24019 23.48065,25.10565c0,13.86546 -10.51265,25.10565 -23.48065,25.10565z" fill-opacity="0.23922" fill="#000000" stroke="#000000" stroke-width="0" stroke-linecap="butt"></path><path d="M187.69868,101.74395c1.37203,0.29747 2.79653,0.45414 4.25762,0.45414c4.62238,0 9.5558,-0.0118 13.84398,-2.54493c1.86111,-1.09941 3.64793,-2.8628 5.09323,-4.73909c1.87483,3.60402 5.64334,6.06543 9.98674,6.06543c0.90891,0 11.0426,11.6616 11.52824,11.0789c0.46075,0.55284 4.80043,-11.0789 5.76411,-11.0789c2.84035,0 5.43485,-1.0526 7.41469,-2.78901c0.39434,0.02318 0.79176,0.03493 1.19192,0.03493c4.11734,0 7.9441,-1.24417 11.1248,-3.37705c3.58621,3.40593 8.43436,5.49581 13.77063,5.49581c1.30892,0 2.58847,-0.12574 3.82724,-0.3658c3.64664,4.88411 9.4721,8.04631 16.03614,8.04631c1.5929,0 3.14231,-0.18622 4.62765,-0.53808c5.04809,8.5149 7.96253,18.29735 8.06498,28.71058c-1.29609,-0.14749 -2.59219,10.29896 -4.94772,6.44427c-0.48713,-0.79717 -0.02655,-4.23522 -0.97634,-8.16853c-2.17572,-9.01015 -6.12772,-21.74405 -5.71729,-19.307c4.33882,25.76258 -6.68282,5.32631 -7.59663,5.22711c-4.15425,-0.45095 -4.23454,0.32945 -6.12906,-4.371c-2.8866,-7.16189 -4.22694,-6.93496 -5.03486,-2.7961c-0.39343,2.01549 -0.23102,6.24742 -0.88615,8.52533c-1.94176,6.75158 -6.56629,12.56407 -10.65424,0.14837c-2.92055,-8.87012 3.19682,21.1756 -6.6472,22.78502c-3.31028,0.5412 -5.09519,-8.09476 -8.03475,-14.04031c-0.33067,-0.66882 15.89598,13.76089 16.24466,22.70027c0.02174,0.55725 -0.28209,6.05403 -5.18606,6.4329c-2.69773,0.20842 -2.59203,-1.93713 -2.64131,-1.6864c-1.22082,0.13295 -1.4421,6.86975 -2.7115,6.63925c-1.44631,-0.69722 -2.18838,-7.38368 -2.78429,-8.05393c-1.97288,-2.21896 -1.9059,-4.96772 -1.95451,-4.38674c-0.1615,1.9304 -0.38534,3.91989 -1.78954,3.8072c-1.41629,-0.11366 -2.17036,-4.83888 -2.60966,-8.62358c-0.84133,-7.24829 -1.32266,-13.87407 -2.29555,-14.86785c-3.24865,-3.31843 -2.00431,-9.68132 -3.49226,-14.63911c-0.82979,-2.76481 -2.92577,-1.46452 -3.72147,0.08518c-1.68067,3.27327 -3.45894,6.76197 -4.83855,7.75007c-5.96902,4.27513 -8.21327,-5.33668 -12.79983,-10.15499c-1.95703,-2.05591 -1.1941,-3.85917 -6.98701,-3.37284c-5.87695,0.49338 -5.65788,4.21022 -5.08377,4.85187c1.2348,1.38007 3.13461,2.75655 2.79512,3.5828c-1.01914,2.48034 -9.6281,3.21081 -10.48908,4.25048c-1.8967,2.29032 -2.88437,-0.79532 -3.25211,-0.18476c-0.44771,0.74335 -3.98268,12.83937 -3.81182,12.07032c5.45187,-24.53971 -1.31554,-26.40561 -2.01774,-25.72568c-0.8357,0.8092 -1.58357,1.42137 -2.25167,2.19558c-7.48981,8.67951 -4.95279,-0.53298 -3.73439,-2.88487c1.57881,-3.04759 3.42309,-5.95162 5.50463,-8.68558z" fill="url(#color-16)" stroke="#000000" stroke-width="0" stroke-linecap="butt"></path><path d="M213.00426,166.27096c-12.968,0 -23.48065,-11.24019 -23.48065,-25.10565c0,-13.86546 10.51265,-25.10565 23.48065,-25.10565c12.968,0 23.48065,11.24019 23.48065,25.10565c0,13.86546 -10.51265,25.10565 -23.48065,25.10565z" fill-opacity="0.23922" fill="#000000" stroke="#000000" stroke-width="0" stroke-linecap="butt"></path><path d="M189.39022,137.27575c0,-12.968 10.51265,-23.48065 23.48065,-23.48065c12.968,0 23.48065,10.51265 23.48065,23.48065c0,12.968 -10.51265,23.48065 -23.48065,23.48065c-12.968,0 -23.48065,-10.51265 -23.48065,-23.48065z" fill="url(#color-17)" stroke="#000000" stroke-width="0" stroke-linecap="butt"></path><path d="M227.5071,178.05655h25.10959" fill="none" stroke="#000000" stroke-width="2" stroke-linecap="round"></path><path d="M267.12931,160.75632c-12.968,0 -23.48065,-10.51265 -23.48065,-23.48065c0,-12.968 10.51265,-23.48065 23.48065,-23.48065c12.968,0 23.48065,10.51265 23.48065,23.48065c0,12.968 -10.51265,23.48065 -23.48065,23.48065z" fill="url(#color-18)" stroke="#000000" stroke-width="0" stroke-linecap="butt"></path><path d="M202.01101,110.59193c0,0 7.01028,-4.75256 12.16164,-5.63591c5.15137,-0.88335 12.26896,1.44658 12.26896,1.44658c0,0 -8.01965,-0.54796 -11.99788,0.13422c-4.1574,0.71291 -12.43272,4.0551 -12.43272,4.0551z" fill="#000000" stroke="none" stroke-width="0" stroke-linecap="butt"></path><path d="M265.51466,106.53749c-3.99865,-0.55005 -11.99574,0.26321 -11.99574,0.26321c0,0 7.03651,-2.56438 12.21432,-1.85213c5.1778,0.71226 12.34162,5.23004 12.34162,5.23004c0,0 -8.38146,-3.06629 -12.5602,-3.64112z" fill="#000000" stroke="none" stroke-width="0" stroke-linecap="butt"></path><g stroke="none" stroke-width="0" stroke-linecap="butt"><path d="M235.90201,203.04561c-0.05145,0.74464 -3.4164,3.06966 -8.91168,2.39264c-5.52867,-0.68114 -8.38576,-3.47262 -8.32755,-4.3151c0.0066,-0.09549 1.13099,1.9142 8.18492,2.79782c6.93037,0.86815 9.06143,-0.97835 9.05432,-0.87536z" fill="url(#color-19)"></path><path d="M235.33749,214.06399c-0.05145,0.74464 -3.41639,3.06966 -8.91167,2.39264c-5.52867,-0.68114 -8.38576,-3.47262 -8.32756,-4.3151c0.0066,-0.09549 1.131,1.9142 8.18492,2.79782c6.93037,0.86815 9.06143,-0.97835 9.05431,-0.87536z" fill="url(#color-20)"></path><path d="M231.96051,226.54403c-0.10657,0.73463 -3.33172,2.64928 -8.23731,1.32573c-4.93542,-1.3316 -7.28889,-4.44636 -7.16832,-5.2775c0.01367,-0.09421 0.8663,2.03789 7.16211,3.75135c6.18555,1.68346 8.25826,0.09881 8.24352,0.20042z" fill="url(#color-21)"></path></g><g stroke="none" stroke-width="0" stroke-linecap="butt"><path d="M262.59203,201.2883c0.03859,0.5514 -1.18787,1.93767 -3.61016,3.02075c0.16645,-0.4622 0.30773,-0.89399 0.41975,-1.28688c2.64776,-0.87317 3.18583,-1.79942 3.19041,-1.73387z" fill="url(#color-22)"></path><path d="M255.28846,215.10449c7.14572,-0.88362 8.28476,-2.89332 8.29143,-2.79782c0.05896,0.84248 -2.83531,3.63396 -8.43592,4.3151c-0.92691,0.11273 -1.79399,0.14223 -2.59571,0.10965c0.34454,-0.45518 0.65103,-0.94076 0.91473,-1.45201c0.56832,-0.03754 1.1761,-0.09462 1.82547,-0.17491z" fill="url(#color-23)"></path><path d="M257.22023,226.50877c6.37775,-1.71347 7.24146,-3.84556 7.25531,-3.75135c0.12214,0.83114 -2.26196,3.9459 -7.26159,5.2775c-4.96944,1.32356 -8.23655,-0.59109 -8.3445,-1.32573c-0.01494,-0.10161 2.08476,1.48304 8.3508,-0.20042z" fill="url(#color-24)"></path></g></g></g></svg>